<?xml version="1.0" encoding="us-ascii" standalone="no"?><svg xmlns="http://www.w3.org/2000/svg" xmlns:xlink="http://www.w3.org/1999/xlink" contentStyleType="text/css" height="223px" preserveAspectRatio="none" style="width:477px;height:223px;background:#FFFFFF;" version="1.1" viewBox="0 0 477 223" width="477px" zoomAndPan="magnify"><defs/><g><!--class Shape--><g id="elem_Shape"><rect codeLine="2" fill="#F1F1F1" height="65.6094" id="Shape" rx="2.5" ry="2.5" style="stroke:#181818;stroke-width:0.5;" width="111" x="7" y="7"/><ellipse cx="39.1" cy="23" fill="#A9DCDF" rx="11" ry="11" style="stroke:#181818;stroke-width:1.0;"/><path d="M41.2875,24.7656 L37.1469,24.7656 L36.725,25.7969 L37.1469,25.7969 Q37.7563,25.7969 38.0219,26.0313 Q38.2875,26.2656 38.2875,26.6563 Q38.2875,27.0313 38.0219,27.2656 Q37.7563,27.5 37.1469,27.5 L34.85,27.5 Q34.2406,27.5 33.9906,27.2656 Q33.725,27.0313 33.725,26.6406 Q33.725,26.2656 34.0063,26.0313 Q34.2719,25.7813 34.8969,25.7969 L37.5688,19.1406 L36.4594,19.1406 Q35.85,19.1406 35.5844,18.9063 Q35.3188,18.6719 35.3188,18.2813 Q35.3188,17.9063 35.5844,17.6719 Q35.85,17.4375 36.4594,17.4375 L40.1313,17.4375 L43.5219,25.7969 Q44.1156,25.7969 44.3031,25.9375 Q44.6938,26.2031 44.6938,26.6563 Q44.6938,27.0313 44.4281,27.2656 Q44.1781,27.5 43.5688,27.5 L41.2719,27.5 Q40.6625,27.5 40.3969,27.2656 Q40.1313,27.0313 40.1313,26.6406 Q40.1313,26.2656 40.3969,26.0313 Q40.6625,25.7969 41.2719,25.7969 L41.6938,25.7969 L41.2875,24.7656 Z M40.5688,23.0625 L39.2094,19.6875 L37.8344,23.0625 L40.5688,23.0625 Z " fill="#000000"/><text fill="#000000" font-family="sans-serif" font-size="14" font-style="italic" lengthAdjust="spacing" textLength="41" x="56.9" y="28.7285">Shape</text><line style="stroke:#181818;stroke-width:0.5;" x1="8" x2="117" y1="39" y2="39"/><line style="stroke:#181818;stroke-width:0.5;" x1="8" x2="117" y1="47" y2="47"/><text fill="#000000" font-family="sans-serif" font-size="14" font-style="italic" lengthAdjust="spacing" textLength="99" x="13" y="65.5332">bounding_box()</text></g><!--class Line--><g id="elem_Line"><rect codeLine="6" fill="#F1F1F1" height="65.6094" id="Line" rx="2.5" ry="2.5" style="stroke:#181818;stroke-width:0.5;" width="111" x="7" y="151"/><ellipse cx="45.4" cy="167" fill="#ADD1B2" rx="11" ry="11" style="stroke:#181818;stroke-width:1.0;"/><path d="M48.1656,162.875 Q48.3219,162.6563 48.5094,162.5469 Q48.6969,162.4375 48.9156,162.4375 Q49.2906,162.4375 49.525,162.7031 Q49.7594,162.9531 49.7594,163.5625 L49.7594,165.0156 Q49.7594,165.625 49.525,165.8906 Q49.2906,166.1563 48.9156,166.1563 Q48.5719,166.1563 48.3688,165.9531 Q48.1656,165.7656 48.0563,165.25 Q48.0094,164.8906 47.8219,164.7031 Q47.4938,164.3281 46.8844,164.1094 Q46.275,163.8906 45.65,163.8906 Q44.8844,163.8906 44.2438,164.2188 Q43.6188,164.5469 43.1188,165.2969 Q42.6344,166.0469 42.6344,167.0781 L42.6344,168.1719 Q42.6344,169.4063 43.525,170.2344 Q44.4156,171.0469 46.0094,171.0469 Q46.9469,171.0469 47.6031,170.7969 Q47.9938,170.6406 48.4156,170.2031 Q48.6813,169.9375 48.8219,169.8594 Q48.9781,169.7813 49.1813,169.7813 Q49.5094,169.7813 49.7594,170.0469 Q50.025,170.2969 50.025,170.6406 Q50.025,170.9844 49.6813,171.3906 Q49.1813,171.9688 48.3844,172.2969 Q47.3063,172.75 46.0094,172.75 Q44.4938,172.75 43.2906,172.125 Q42.3063,171.625 41.6188,170.5625 Q40.9313,169.4844 40.9313,168.2031 L40.9313,167.0469 Q40.9313,165.7188 41.5406,164.5781 Q42.1656,163.4219 43.2594,162.8125 Q44.3531,162.1875 45.5875,162.1875 Q46.3219,162.1875 46.9625,162.3594 Q47.6188,162.5156 48.1656,162.875 Z " fill="#000000"/><text fill="#000000" font-family="sans-serif" font-size="14" lengthAdjust="spacing" textLength="27" x="64.6" y="172.7285">Line</text><line style="stroke:#181818;stroke-width:0.5;" x1="8" x2="117" y1="183" y2="183"/><line style="stroke:#181818;stroke-width:0.5;" x1="8" x2="117" y1="191" y2="191"/><text fill="#000000" font-family="sans-serif" font-size="14" lengthAdjust="spacing" textLength="99" x="13" y="209.5332">bounding_box()</text></g><!--class Text--><g id="elem_Text"><rect codeLine="10" fill="#F1F1F1" height="65.6094" id="Text" rx="2.5" ry="2.5" style="stroke:#181818;stroke-width:0.5;" width="111" x="153" y="151"/><ellipse cx="191.4" cy="167" fill="#ADD1B2" rx="11" ry="11" style="stroke:#181818;stroke-width:1.0;"/><path d="M194.1656,162.875 Q194.3219,162.6563 194.5094,162.5469 Q194.6969,162.4375 194.9156,162.4375 Q195.2906,162.4375 195.525,162.7031 Q195.7594,162.9531 195.7594,163.5625 L195.7594,165.0156 Q195.7594,165.625 195.525,165.8906 Q195.2906,166.1563 194.9156,166.1563 Q194.5719,166.1563 194.3688,165.9531 Q194.1656,165.7656 194.0563,165.25 Q194.0094,164.8906 193.8219,164.7031 Q193.4938,164.3281 192.8844,164.1094 Q192.275,163.8906 191.65,163.8906 Q190.8844,163.8906 190.2438,164.2188 Q189.6188,164.5469 189.1188,165.2969 Q188.6344,166.0469 188.6344,167.0781 L188.6344,168.1719 Q188.6344,169.4063 189.525,170.2344 Q190.4156,171.0469 192.0094,171.0469 Q192.9469,171.0469 193.6031,170.7969 Q193.9938,170.6406 194.4156,170.2031 Q194.6813,169.9375 194.8219,169.8594 Q194.9781,169.7813 195.1813,169.7813 Q195.5094,169.7813 195.7594,170.0469 Q196.025,170.2969 196.025,170.6406 Q196.025,170.9844 195.6813,171.3906 Q195.1813,171.9688 194.3844,172.2969 Q193.3063,172.75 192.0094,172.75 Q190.4938,172.75 189.2906,172.125 Q188.3063,171.625 187.6188,170.5625 Q186.9313,169.4844 186.9313,168.2031 L186.9313,167.0469 Q186.9313,165.7188 187.5406,164.5781 Q188.1656,163.4219 189.2594,162.8125 Q190.3531,162.1875 191.5875,162.1875 Q192.3219,162.1875 192.9625,162.3594 Q193.6188,162.5156 194.1656,162.875 Z " fill="#000000"/><text fill="#000000" font-family="sans-serif" font-size="14" lengthAdjust="spacing" textLength="27" x="210.6" y="172.7285">Text</text><line style="stroke:#181818;stroke-width:0.5;" x1="154" x2="263" y1="183" y2="183"/><line style="stroke:#181818;stroke-width:0.5;" x1="154" x2="263" y1="191" y2="191"/><text fill="#000000" font-family="sans-serif" font-size="14" lengthAdjust="spacing" textLength="99" x="159" y="209.5332">bounding_box()</text></g><path d="M299,166 L299,175.1758 L258,203.8047 L299,183.1758 L299,192.3516 A0,0 0 0 0 299,192.3516 L470,192.3516 A0,0 0 0 0 470,192.3516 L470,176 L460,166 L299,166 A0,0 0 0 0 299,166 " fill="#FEFFDD" style="stroke:#181818;stroke-width:0.5;"/><path d="M460,166 L460,176 L470,176 L460,166 " fill="#FEFFDD" style="stroke:#181818;stroke-width:0.5;"/><text fill="#000000" font-family="sans-serif" font-size="13" lengthAdjust="spacing" textLength="150" x="305" y="184.4951">self.text_view.get_extent()</text><!--class Library::TextView--><g id="elem_Library::TextView"><rect codeLine="18" fill="#F1F1F1" height="65.6094" id="Library::TextView" rx="2.5" ry="2.5" style="stroke:#181818;stroke-width:0.5;" width="140" x="153.5" y="7"/><ellipse cx="168.5" cy="23" fill="#ADD1B2" rx="11" ry="11" style="stroke:#181818;stroke-width:1.0;"/><path d="M171.2656,18.875 Q171.4219,18.6563 171.6094,18.5469 Q171.7969,18.4375 172.0156,18.4375 Q172.3906,18.4375 172.625,18.7031 Q172.8594,18.9531 172.8594,19.5625 L172.8594,21.0156 Q172.8594,21.625 172.625,21.8906 Q172.3906,22.1563 172.0156,22.1563 Q171.6719,22.1563 171.4688,21.9531 Q171.2656,21.7656 171.1563,21.25 Q171.1094,20.8906 170.9219,20.7031 Q170.5938,20.3281 169.9844,20.1094 Q169.375,19.8906 168.75,19.8906 Q167.9844,19.8906 167.3438,20.2188 Q166.7188,20.5469 166.2188,21.2969 Q165.7344,22.0469 165.7344,23.0781 L165.7344,24.1719 Q165.7344,25.4063 166.625,26.2344 Q167.5156,27.0469 169.1094,27.0469 Q170.0469,27.0469 170.7031,26.7969 Q171.0938,26.6406 171.5156,26.2031 Q171.7813,25.9375 171.9219,25.8594 Q172.0781,25.7813 172.2813,25.7813 Q172.6094,25.7813 172.8594,26.0469 Q173.125,26.2969 173.125,26.6406 Q173.125,26.9844 172.7813,27.3906 Q172.2813,27.9688 171.4844,28.2969 Q170.4063,28.75 169.1094,28.75 Q167.5938,28.75 166.3906,28.125 Q165.4063,27.625 164.7188,26.5625 Q164.0313,25.4844 164.0313,24.2031 L164.0313,23.0469 Q164.0313,21.7188 164.6406,20.5781 Q165.2656,19.4219 166.3594,18.8125 Q167.4531,18.1875 168.6875,18.1875 Q169.4219,18.1875 170.0625,18.3594 Q170.7188,18.5156 171.2656,18.875 Z " fill="#000000"/><text fill="#000000" font-family="sans-serif" font-size="14" lengthAdjust="spacing" textLength="108" x="182.5" y="28.7285">Library::TextView</text><line style="stroke:#181818;stroke-width:0.5;" x1="154.5" x2="292.5" y1="39" y2="39"/><line style="stroke:#181818;stroke-width:0.5;" x1="154.5" x2="292.5" y1="47" y2="47"/><text fill="#000000" font-family="sans-serif" font-size="14" lengthAdjust="spacing" textLength="76" x="159.5" y="65.5332">get_extent()</text></g><!--link Line to Text--><!--reverse link Shape to Text--><g id="link_Shape_Text"><path codeLine="23" d="M108.5322,85.7712 C132.4222,109.0112 151.64,127.7 175.5,150.91 " fill="none" id="Shape-backto-Text" style="stroke:#181818;stroke-width:1.0;"/><polygon fill="none" points="95.63,73.22,104.3485,90.0719,112.716,81.4704,95.63,73.22" style="stroke:#181818;stroke-width:1.0;"/></g><!--reverse link Shape to Line--><g id="link_Shape_Line"><path codeLine="24" d="M62.5,91.22 C62.5,114.46 62.5,127.7 62.5,150.91 " fill="none" id="Shape-backto-Line" style="stroke:#181818;stroke-width:1.0;"/><polygon fill="none" points="62.5,73.22,56.5,91.22,68.5,91.22,62.5,73.22" style="stroke:#181818;stroke-width:1.0;"/></g><!--link Library::TextView to Text--><g id="link_Library::TextView_Text"><path codeLine="25" d="M219.4684,79.1867 C217.0084,102.4267 215.5997,115.7663 213.1497,138.9763 " fill="none" id="Library::TextView-Text" style="stroke:#181818;stroke-width:1.0;"/><polygon fill="#181818" points="220.1,73.22,215.1748,81.7489,219.5737,78.1922,223.1304,82.5911,220.1,73.22" style="stroke:#181818;stroke-width:1.0;"/><polygon fill="#181818" points="211.89,150.91,216.4977,145.363,213.1497,138.9763,208.5419,144.5233,211.89,150.91" style="stroke:#181818;stroke-width:1.0;"/><text fill="#000000" font-family="sans-serif" font-size="13" lengthAdjust="spacing" textLength="53" x="222.5" y="117.4951">text_view</text></g><!--SRC=[TOzB2i8m48RtESNGbGhf0KBn1EuKDo8bQQPje2IIHAtKtjqq4H-KBeVv_XSNpbjUUQWwxXpiMtv160Z0mD-V4OIvQgbqKmhJhzPa92J1EwKJkmGSiFSBW3OUmQgczM3g23BsImKHWCEkpdtubJU5zxn1NuO3jGyUg2LC9jyomdBxO6poEWOy1lz9GcoiJ6FkgLLIeZxJROmdQNhnf7HsJoeo3oWetQID33BuzCp82m00]--></g></svg>