<?xml version="1.0" encoding="us-ascii" standalone="no"?><svg xmlns="http://www.w3.org/2000/svg" xmlns:xlink="http://www.w3.org/1999/xlink" contentStyleType="text/css" height="506px" preserveAspectRatio="none" style="width:598px;height:506px;background:#FFFFFF;" version="1.1" viewBox="0 0 598 506" width="598px" zoomAndPan="magnify"><defs/><g><!--cluster adventure::v4b--><g id="cluster_adventure::v4b"><path d="M8.5,6 L116.5,6 A3.75,3.75 0 0 1 119,8.5 L126,29.6094 L588.5,29.6094 A2.5,2.5 0 0 1 591,32.1094 L591,496.5 A2.5,2.5 0 0 1 588.5,499 L8.5,499 A2.5,2.5 0 0 1 6,496.5 L6,8.5 A2.5,2.5 0 0 1 8.5,6 " fill="none" style="stroke:#000000;stroke-width:1.5;"/><line style="stroke:#000000;stroke-width:1.5;" x1="6" x2="126" y1="29.6094" y2="29.6094"/><text fill="#000000" font-family="sans-serif" font-size="14" font-weight="bold" lengthAdjust="spacing" textLength="107" x="10" y="22.5332">adventure::v4b</text></g><!--class Pawn--><g id="elem_Pawn"><rect codeLine="4" fill="#F1F1F1" height="171.2656" id="Pawn" rx="2.5" ry="2.5" style="stroke:#181818;stroke-width:0.5;" width="376" x="199" y="168"/><ellipse cx="365.75" cy="184" fill="#ADD1B2" rx="11" ry="11" style="stroke:#181818;stroke-width:1.0;"/><path d="M368.5156,179.875 Q368.6719,179.6563 368.8594,179.5469 Q369.0469,179.4375 369.2656,179.4375 Q369.6406,179.4375 369.875,179.7031 Q370.1094,179.9531 370.1094,180.5625 L370.1094,182.0156 Q370.1094,182.625 369.875,182.8906 Q369.6406,183.1563 369.2656,183.1563 Q368.9219,183.1563 368.7188,182.9531 Q368.5156,182.7656 368.4063,182.25 Q368.3594,181.8906 368.1719,181.7031 Q367.8438,181.3281 367.2344,181.1094 Q366.625,180.8906 366,180.8906 Q365.2344,180.8906 364.5938,181.2188 Q363.9688,181.5469 363.4688,182.2969 Q362.9844,183.0469 362.9844,184.0781 L362.9844,185.1719 Q362.9844,186.4063 363.875,187.2344 Q364.7656,188.0469 366.3594,188.0469 Q367.2969,188.0469 367.9531,187.7969 Q368.3438,187.6406 368.7656,187.2031 Q369.0313,186.9375 369.1719,186.8594 Q369.3281,186.7813 369.5313,186.7813 Q369.8594,186.7813 370.1094,187.0469 Q370.375,187.2969 370.375,187.6406 Q370.375,187.9844 370.0313,188.3906 Q369.5313,188.9688 368.7344,189.2969 Q367.6563,189.75 366.3594,189.75 Q364.8438,189.75 363.6406,189.125 Q362.6563,188.625 361.9688,187.5625 Q361.2813,186.4844 361.2813,185.2031 L361.2813,184.0469 Q361.2813,182.7188 361.8906,181.5781 Q362.5156,180.4219 363.6094,179.8125 Q364.7031,179.1875 365.9375,179.1875 Q366.6719,179.1875 367.3125,179.3594 Q367.9688,179.5156 368.5156,179.875 Z " fill="#000000"/><text fill="#000000" font-family="sans-serif" font-size="14" lengthAdjust="spacing" textLength="34" x="386.25" y="189.7285">Pawn</text><line style="stroke:#181818;stroke-width:0.5;" x1="200" x2="574" y1="200" y2="200"/><rect fill="none" height="6" style="stroke:#C82930;stroke-width:1.0;" width="6" x="207" y="211.3047"/><text fill="#000000" font-family="sans-serif" font-size="14" lengthAdjust="spacing" textLength="78" x="219" y="218.5332">name: string</text><rect fill="none" height="6" style="stroke:#C82930;stroke-width:1.0;" width="6" x="207" y="228.9141"/><text fill="#000000" font-family="sans-serif" font-size="14" lengthAdjust="spacing" textLength="111" x="219" y="236.1426">location: Location</text><line style="stroke:#181818;stroke-width:0.5;" x1="200" x2="574" y1="243.2188" y2="243.2188"/><ellipse cx="210" cy="257.5234" fill="#84BE84" rx="3" ry="3" style="stroke:#038048;stroke-width:1.0;"/><text fill="#000000" font-family="sans-serif" font-size="14" lengthAdjust="spacing" textLength="241" x="219" y="261.752">Pawn(name: string, location: Location)</text><ellipse cx="210" cy="275.1328" fill="#84BE84" rx="3" ry="3" style="stroke:#038048;stroke-width:1.0;"/><text fill="#000000" font-family="sans-serif" font-size="14" font-weight="bold" lengthAdjust="spacing" textLength="281" x="219" y="279.3613">Perform(action: Action, direction: string)</text><ellipse cx="210" cy="292.7422" fill="#84BE84" rx="3" ry="3" style="stroke:#038048;stroke-width:1.0;"/><text fill="#000000" font-family="sans-serif" font-size="14" font-weight="bold" lengthAdjust="spacing" textLength="350" x="219" y="296.9707">PerformIfPossible(action: Action, direction: string)</text><ellipse cx="210" cy="310.3516" fill="#84BE84" rx="3" ry="3" style="stroke:#038048;stroke-width:1.0;"/><text fill="#000000" font-family="sans-serif" font-size="14" lengthAdjust="spacing" textLength="112" x="219" y="314.5801">GetName(): string</text><ellipse cx="210" cy="327.9609" fill="#84BE84" rx="3" ry="3" style="stroke:#038048;stroke-width:1.0;"/><text fill="#000000" font-family="sans-serif" font-size="14" lengthAdjust="spacing" textLength="149" x="219" y="332.1895">GetLocation(): Location</text></g><!--class Action--><g id="elem_Action"><rect codeLine="14" fill="#F1F1F1" height="83.2188" id="Action" rx="2.5" ry="2.5" style="stroke:#181818;stroke-width:0.5;" width="71" x="351.5" y="400"/><ellipse cx="366.5" cy="416" fill="#EB937F" rx="11" ry="11" style="stroke:#181818;stroke-width:1.0;"/><path d="M365.3594,416.7969 L365.3594,419.2969 L369.6875,419.2969 L369.6875,418.375 Q369.6875,417.7656 369.9219,417.5 Q370.1719,417.2344 370.5469,417.2344 Q370.9219,417.2344 371.1563,417.5 Q371.3906,417.7656 371.3906,418.375 L371.3906,421 L363.3906,421 Q362.7656,421 362.5,420.7656 Q362.25,420.5313 362.25,420.1406 Q362.25,419.7656 362.5156,419.5313 Q362.7813,419.2969 363.3906,419.2969 L363.6563,419.2969 L363.6563,412.6406 L363.3906,412.6406 Q362.7656,412.6406 362.5,412.4063 Q362.25,412.1719 362.25,411.7813 Q362.25,411.4063 362.5,411.1719 Q362.7656,410.9375 363.3906,410.9375 L371.0156,410.9375 L371.0156,413.5313 Q371.0156,414.1406 370.7813,414.4063 Q370.5625,414.6563 370.1719,414.6563 Q369.7969,414.6563 369.5625,414.4063 Q369.3281,414.1406 369.3281,413.5313 L369.3281,412.6406 L365.3594,412.6406 L365.3594,415.0938 L366.8438,415.0938 Q366.8438,414.4375 366.9688,414.25 Q367.2344,413.8438 367.7031,413.8438 Q368.0781,413.8438 368.3125,414.1094 Q368.5469,414.3594 368.5469,414.9688 L368.5469,416.9375 Q368.5469,417.4844 368.4219,417.6719 Q368.1563,418.0625 367.7031,418.0625 Q367.2344,418.0625 366.9688,417.6563 Q366.8438,417.4688 366.8438,416.7969 L365.3594,416.7969 Z " fill="#000000"/><text fill="#000000" font-family="sans-serif" font-size="14" lengthAdjust="spacing" textLength="39" x="380.5" y="421.7285">Action</text><line style="stroke:#181818;stroke-width:0.5;" x1="352.5" x2="421.5" y1="432" y2="432"/><text fill="#000000" font-family="sans-serif" font-size="14" lengthAdjust="spacing" textLength="34" x="357.5" y="450.5332">Move</text><text fill="#000000" font-family="sans-serif" font-size="14" lengthAdjust="spacing" textLength="57" x="357.5" y="468.1426">SkipTurn</text><line style="stroke:#181818;stroke-width:0.5;" x1="352.5" x2="421.5" y1="475.2188" y2="475.2188"/></g><!--class WorldFactory--><g id="elem_WorldFactory"><rect codeLine="19" fill="#F1F1F1" height="48" id="WorldFactory" rx="2.5" ry="2.5" style="stroke:#181818;stroke-width:0.5;" width="117" x="34.5" y="42"/><ellipse cx="49.5" cy="58" fill="#ADD1B2" rx="11" ry="11" style="stroke:#181818;stroke-width:1.0;"/><path d="M52.2656,53.875 Q52.4219,53.6563 52.6094,53.5469 Q52.7969,53.4375 53.0156,53.4375 Q53.3906,53.4375 53.625,53.7031 Q53.8594,53.9531 53.8594,54.5625 L53.8594,56.0156 Q53.8594,56.625 53.625,56.8906 Q53.3906,57.1563 53.0156,57.1563 Q52.6719,57.1563 52.4688,56.9531 Q52.2656,56.7656 52.1563,56.25 Q52.1094,55.8906 51.9219,55.7031 Q51.5938,55.3281 50.9844,55.1094 Q50.375,54.8906 49.75,54.8906 Q48.9844,54.8906 48.3438,55.2188 Q47.7188,55.5469 47.2188,56.2969 Q46.7344,57.0469 46.7344,58.0781 L46.7344,59.1719 Q46.7344,60.4063 47.625,61.2344 Q48.5156,62.0469 50.1094,62.0469 Q51.0469,62.0469 51.7031,61.7969 Q52.0938,61.6406 52.5156,61.2031 Q52.7813,60.9375 52.9219,60.8594 Q53.0781,60.7813 53.2813,60.7813 Q53.6094,60.7813 53.8594,61.0469 Q54.125,61.2969 54.125,61.6406 Q54.125,61.9844 53.7813,62.3906 Q53.2813,62.9688 52.4844,63.2969 Q51.4063,63.75 50.1094,63.75 Q48.5938,63.75 47.3906,63.125 Q46.4063,62.625 45.7188,61.5625 Q45.0313,60.4844 45.0313,59.2031 L45.0313,58.0469 Q45.0313,56.7188 45.6406,55.5781 Q46.2656,54.4219 47.3594,53.8125 Q48.4531,53.1875 49.6875,53.1875 Q50.4219,53.1875 51.0625,53.3594 Q51.7188,53.5156 52.2656,53.875 Z " fill="#000000"/><text fill="#000000" font-family="sans-serif" font-size="14" lengthAdjust="spacing" textLength="85" x="63.5" y="63.7285">WorldFactory</text><line style="stroke:#181818;stroke-width:0.5;" x1="35.5" x2="150.5" y1="74" y2="74"/><line style="stroke:#181818;stroke-width:0.5;" x1="35.5" x2="150.5" y1="82" y2="82"/></g><!--class         World          --><g id="elem_        World          "><rect codeLine="22" fill="#F1F1F1" height="48" id="        World          " rx="2.5" ry="2.5" style="stroke:#181818;stroke-width:0.5;" width="141" x="22.5" y="229.5"/><ellipse cx="37.5" cy="245.5" fill="#ADD1B2" rx="11" ry="11" style="stroke:#181818;stroke-width:1.0;"/><path d="M40.2656,241.375 Q40.4219,241.1563 40.6094,241.0469 Q40.7969,240.9375 41.0156,240.9375 Q41.3906,240.9375 41.625,241.2031 Q41.8594,241.4531 41.8594,242.0625 L41.8594,243.5156 Q41.8594,244.125 41.625,244.3906 Q41.3906,244.6563 41.0156,244.6563 Q40.6719,244.6563 40.4688,244.4531 Q40.2656,244.2656 40.1563,243.75 Q40.1094,243.3906 39.9219,243.2031 Q39.5938,242.8281 38.9844,242.6094 Q38.375,242.3906 37.75,242.3906 Q36.9844,242.3906 36.3438,242.7188 Q35.7188,243.0469 35.2188,243.7969 Q34.7344,244.5469 34.7344,245.5781 L34.7344,246.6719 Q34.7344,247.9063 35.625,248.7344 Q36.5156,249.5469 38.1094,249.5469 Q39.0469,249.5469 39.7031,249.2969 Q40.0938,249.1406 40.5156,248.7031 Q40.7813,248.4375 40.9219,248.3594 Q41.0781,248.2813 41.2813,248.2813 Q41.6094,248.2813 41.8594,248.5469 Q42.125,248.7969 42.125,249.1406 Q42.125,249.4844 41.7813,249.8906 Q41.2813,250.4688 40.4844,250.7969 Q39.4063,251.25 38.1094,251.25 Q36.5938,251.25 35.3906,250.625 Q34.4063,250.125 33.7188,249.0625 Q33.0313,247.9844 33.0313,246.7031 L33.0313,245.5469 Q33.0313,244.2188 33.6406,243.0781 Q34.2656,241.9219 35.3594,241.3125 Q36.4531,240.6875 37.6875,240.6875 Q38.4219,240.6875 39.0625,240.8594 Q39.7188,241.0156 40.2656,241.375 Z " fill="#000000"/><text fill="#000000" font-family="sans-serif" font-size="14" lengthAdjust="spacing" textLength="37" x="83.5" y="251.2285">World</text><line style="stroke:#181818;stroke-width:0.5;" x1="23.5" x2="162.5" y1="261.5" y2="261.5"/><line style="stroke:#181818;stroke-width:0.5;" x1="23.5" x2="162.5" y1="269.5" y2="269.5"/></g><!--class Location--><g id="elem_Location"><rect codeLine="25" fill="#F1F1F1" height="48" id="Location" rx="2.5" ry="2.5" style="stroke:#181818;stroke-width:0.5;" width="86" x="160" y="417.5"/><ellipse cx="175" cy="433.5" fill="#ADD1B2" rx="11" ry="11" style="stroke:#181818;stroke-width:1.0;"/><path d="M177.7656,429.375 Q177.9219,429.1563 178.1094,429.0469 Q178.2969,428.9375 178.5156,428.9375 Q178.8906,428.9375 179.125,429.2031 Q179.3594,429.4531 179.3594,430.0625 L179.3594,431.5156 Q179.3594,432.125 179.125,432.3906 Q178.8906,432.6563 178.5156,432.6563 Q178.1719,432.6563 177.9688,432.4531 Q177.7656,432.2656 177.6563,431.75 Q177.6094,431.3906 177.4219,431.2031 Q177.0938,430.8281 176.4844,430.6094 Q175.875,430.3906 175.25,430.3906 Q174.4844,430.3906 173.8438,430.7188 Q173.2188,431.0469 172.7188,431.7969 Q172.2344,432.5469 172.2344,433.5781 L172.2344,434.6719 Q172.2344,435.9063 173.125,436.7344 Q174.0156,437.5469 175.6094,437.5469 Q176.5469,437.5469 177.2031,437.2969 Q177.5938,437.1406 178.0156,436.7031 Q178.2813,436.4375 178.4219,436.3594 Q178.5781,436.2813 178.7813,436.2813 Q179.1094,436.2813 179.3594,436.5469 Q179.625,436.7969 179.625,437.1406 Q179.625,437.4844 179.2813,437.8906 Q178.7813,438.4688 177.9844,438.7969 Q176.9063,439.25 175.6094,439.25 Q174.0938,439.25 172.8906,438.625 Q171.9063,438.125 171.2188,437.0625 Q170.5313,435.9844 170.5313,434.7031 L170.5313,433.5469 Q170.5313,432.2188 171.1406,431.0781 Q171.7656,429.9219 172.8594,429.3125 Q173.9531,428.6875 175.1875,428.6875 Q175.9219,428.6875 176.5625,428.8594 Q177.2188,429.0156 177.7656,429.375 Z " fill="#000000"/><text fill="#000000" font-family="sans-serif" font-size="14" lengthAdjust="spacing" textLength="54" x="189" y="439.2285">Location</text><line style="stroke:#181818;stroke-width:0.5;" x1="161" x2="245" y1="449.5" y2="449.5"/><line style="stroke:#181818;stroke-width:0.5;" x1="161" x2="245" y1="457.5" y2="457.5"/></g><!--link         World           to Location--><g id="link_        World          _Location"><path codeLine="28" d="M106.71,277.68 C127.85,313.42 165.1065,376.4151 186.2365,412.1551 " fill="none" id="        World          -to-Location" style="stroke:#181818;stroke-width:1.0;"/><polygon fill="#181818" points="189.29,417.32,188.1529,407.537,186.7454,413.0159,181.2664,411.6084,189.29,417.32" style="stroke:#181818;stroke-width:1.0;"/></g><!--link WorldFactory to         World          --><g id="link_WorldFactory_        World          "><path codeLine="29" d="M93,90.12 C93,125.76 93,187.74 93,223.38 " fill="none" id="WorldFactory-to-        World          " style="stroke:#181818;stroke-width:1.0;stroke-dasharray:7.0,7.0;"/><polygon fill="#181818" points="93,229.38,97,220.38,93,224.38,89,220.38,93,229.38" style="stroke:#181818;stroke-width:1.0;"/><text fill="#000000" font-family="sans-serif" font-size="13" lengthAdjust="spacing" textLength="45" x="98" y="134.4951">Creates</text></g><!--link Pawn to Location--><g id="link_Pawn_Location"><path codeLine="30" d="M303.35,339.06 C275.05,367.66 249.9189,393.0637 230.3289,412.8737 " fill="none" id="Pawn-to-Location" style="stroke:#181818;stroke-width:1.0;"/><polygon fill="#181818" points="226.11,417.14,235.2825,413.5532,229.6257,413.5848,229.5942,407.928,226.11,417.14" style="stroke:#181818;stroke-width:1.0;"/></g><!--link Pawn to Action--><g id="link_Pawn_Action"><path codeLine="31" d="M387,339.06 C387,360.18 387,375.87 387,393.76 " fill="none" id="Pawn-to-Action" style="stroke:#181818;stroke-width:1.0;stroke-dasharray:7.0,7.0;"/><polygon fill="#181818" points="387,399.76,391,390.76,387,394.76,383,390.76,387,399.76" style="stroke:#181818;stroke-width:1.0;"/></g><!--SRC=[bLB1IiGm4BttAuQUMjok5qzXAOYW22e51SzfExi4ssIPf1MH_NUpILeQjdjmBatcpNjzyuZaFUeZRn1uEw8q0o5ZurqDlqa2jfgEQmqL_vQs0w4Aa9R6G1iIyh1eTwhXHYZ9u2MSPl36YMHBucPbFbyGTdLP8UqLzHbl_DYz-swW5OIXvRNotMrThdAVzvNIMjGT_b_b2SsRDPpb5xiwR39zngE5Jpuyb4CVVhP8xrMDE5_UlyJnOw28vZF_LDIrZzQoef_0Zl1qad23C5UwDZovYx7h4aLHnXj5RhRRyZgNMUY1a1lKgQEwntCXwBfd8PzFSle3]--></g></svg>