<?xml version="1.0" encoding="us-ascii" standalone="no"?><svg xmlns="http://www.w3.org/2000/svg" xmlns:xlink="http://www.w3.org/1999/xlink" contentStyleType="text/css" height="240px" preserveAspectRatio="none" style="width:389px;height:240px;background:#FFFFFF;" version="1.1" viewBox="0 0 389 240" width="389px" zoomAndPan="magnify"><defs/><g><!--class Book--><g id="elem_Book"><rect codeLine="2" fill="#F1F1F1" height="100.8281" id="Book" rx="2.5" ry="2.5" style="stroke:#181818;stroke-width:0.5;" width="91" x="149" y="7"/><ellipse cx="176.15" cy="23" fill="#ADD1B2" rx="11" ry="11" style="stroke:#181818;stroke-width:1.0;"/><path d="M178.9156,18.875 Q179.0719,18.6563 179.2594,18.5469 Q179.4469,18.4375 179.6656,18.4375 Q180.0406,18.4375 180.275,18.7031 Q180.5094,18.9531 180.5094,19.5625 L180.5094,21.0156 Q180.5094,21.625 180.275,21.8906 Q180.0406,22.1563 179.6656,22.1563 Q179.3219,22.1563 179.1188,21.9531 Q178.9156,21.7656 178.8063,21.25 Q178.7594,20.8906 178.5719,20.7031 Q178.2438,20.3281 177.6344,20.1094 Q177.025,19.8906 176.4,19.8906 Q175.6344,19.8906 174.9938,20.2188 Q174.3688,20.5469 173.8688,21.2969 Q173.3844,22.0469 173.3844,23.0781 L173.3844,24.1719 Q173.3844,25.4063 174.275,26.2344 Q175.1656,27.0469 176.7594,27.0469 Q177.6969,27.0469 178.3531,26.7969 Q178.7438,26.6406 179.1656,26.2031 Q179.4313,25.9375 179.5719,25.8594 Q179.7281,25.7813 179.9313,25.7813 Q180.2594,25.7813 180.5094,26.0469 Q180.775,26.2969 180.775,26.6406 Q180.775,26.9844 180.4313,27.3906 Q179.9313,27.9688 179.1344,28.2969 Q178.0563,28.75 176.7594,28.75 Q175.2438,28.75 174.0406,28.125 Q173.0563,27.625 172.3688,26.5625 Q171.6813,25.4844 171.6813,24.2031 L171.6813,23.0469 Q171.6813,21.7188 172.2906,20.5781 Q172.9156,19.4219 174.0094,18.8125 Q175.1031,18.1875 176.3375,18.1875 Q177.0719,18.1875 177.7125,18.3594 Q178.3688,18.5156 178.9156,18.875 Z " fill="#000000"/><text fill="#000000" font-family="sans-serif" font-size="14" lengthAdjust="spacing" textLength="32" x="192.85" y="28.7285">Book</text><line style="stroke:#181818;stroke-width:0.5;" x1="150" x2="239" y1="39" y2="39"/><ellipse cx="160" cy="53.3047" fill="none" rx="3" ry="3" style="stroke:#038048;stroke-width:1.0;"/><text fill="#000000" font-family="sans-serif" font-size="14" lengthAdjust="spacing" textLength="46" x="169" y="57.5332">title: str</text><ellipse cx="160" cy="70.9141" fill="none" rx="3" ry="3" style="stroke:#038048;stroke-width:1.0;"/><text fill="#000000" font-family="sans-serif" font-size="14" lengthAdjust="spacing" textLength="65" x="169" y="75.1426">author: str</text><ellipse cx="160" cy="88.5234" fill="none" rx="3" ry="3" style="stroke:#038048;stroke-width:1.0;"/><text fill="#000000" font-family="sans-serif" font-size="14" lengthAdjust="spacing" textLength="62" x="169" y="92.752">pages: int</text><line style="stroke:#181818;stroke-width:0.5;" x1="150" x2="239" y1="99.8281" y2="99.8281"/></g><!--class BookDatabase--><g id="elem_BookDatabase"><rect codeLine="8" fill="#F1F1F1" height="65.6094" id="BookDatabase" rx="2.5" ry="2.5" style="stroke:#181818;stroke-width:0.5;" width="171" x="7" y="168"/><ellipse cx="42.7" cy="184" fill="#ADD1B2" rx="11" ry="11" style="stroke:#181818;stroke-width:1.0;"/><path d="M45.4656,179.875 Q45.6219,179.6563 45.8094,179.5469 Q45.9969,179.4375 46.2156,179.4375 Q46.5906,179.4375 46.825,179.7031 Q47.0594,179.9531 47.0594,180.5625 L47.0594,182.0156 Q47.0594,182.625 46.825,182.8906 Q46.5906,183.1563 46.2156,183.1563 Q45.8719,183.1563 45.6688,182.9531 Q45.4656,182.7656 45.3563,182.25 Q45.3094,181.8906 45.1219,181.7031 Q44.7938,181.3281 44.1844,181.1094 Q43.575,180.8906 42.95,180.8906 Q42.1844,180.8906 41.5438,181.2188 Q40.9188,181.5469 40.4188,182.2969 Q39.9344,183.0469 39.9344,184.0781 L39.9344,185.1719 Q39.9344,186.4063 40.825,187.2344 Q41.7156,188.0469 43.3094,188.0469 Q44.2469,188.0469 44.9031,187.7969 Q45.2938,187.6406 45.7156,187.2031 Q45.9813,186.9375 46.1219,186.8594 Q46.2781,186.7813 46.4813,186.7813 Q46.8094,186.7813 47.0594,187.0469 Q47.325,187.2969 47.325,187.6406 Q47.325,187.9844 46.9813,188.3906 Q46.4813,188.9688 45.6844,189.2969 Q44.6063,189.75 43.3094,189.75 Q41.7938,189.75 40.5906,189.125 Q39.6063,188.625 38.9188,187.5625 Q38.2313,186.4844 38.2313,185.2031 L38.2313,184.0469 Q38.2313,182.7188 38.8406,181.5781 Q39.4656,180.4219 40.5594,179.8125 Q41.6531,179.1875 42.8875,179.1875 Q43.6219,179.1875 44.2625,179.3594 Q44.9188,179.5156 45.4656,179.875 Z " fill="#000000"/><text fill="#000000" font-family="sans-serif" font-size="14" lengthAdjust="spacing" textLength="93" x="61.3" y="189.7285">BookDatabase</text><line style="stroke:#181818;stroke-width:0.5;" x1="8" x2="177" y1="200" y2="200"/><line style="stroke:#181818;stroke-width:0.5;" x1="8" x2="177" y1="208" y2="208"/><ellipse cx="18" cy="222.3047" fill="#84BE84" rx="3" ry="3" style="stroke:#038048;stroke-width:1.0;"/><text fill="#000000" font-family="sans-serif" font-size="14" lengthAdjust="spacing" textLength="145" x="27" y="226.5332">save(book: Book): void</text></g><!--class BookPrinter--><g id="elem_BookPrinter"><rect codeLine="12" fill="#F1F1F1" height="65.6094" id="BookPrinter" rx="2.5" ry="2.5" style="stroke:#181818;stroke-width:0.5;" width="169" x="213" y="168"/><ellipse cx="256.35" cy="184" fill="#ADD1B2" rx="11" ry="11" style="stroke:#181818;stroke-width:1.0;"/><path d="M259.1156,179.875 Q259.2719,179.6563 259.4594,179.5469 Q259.6469,179.4375 259.8656,179.4375 Q260.2406,179.4375 260.475,179.7031 Q260.7094,179.9531 260.7094,180.5625 L260.7094,182.0156 Q260.7094,182.625 260.475,182.8906 Q260.2406,183.1563 259.8656,183.1563 Q259.5219,183.1563 259.3188,182.9531 Q259.1156,182.7656 259.0063,182.25 Q258.9594,181.8906 258.7719,181.7031 Q258.4438,181.3281 257.8344,181.1094 Q257.225,180.8906 256.6,180.8906 Q255.8344,180.8906 255.1938,181.2188 Q254.5688,181.5469 254.0688,182.2969 Q253.5844,183.0469 253.5844,184.0781 L253.5844,185.1719 Q253.5844,186.4063 254.475,187.2344 Q255.3656,188.0469 256.9594,188.0469 Q257.8969,188.0469 258.5531,187.7969 Q258.9438,187.6406 259.3656,187.2031 Q259.6313,186.9375 259.7719,186.8594 Q259.9281,186.7813 260.1313,186.7813 Q260.4594,186.7813 260.7094,187.0469 Q260.975,187.2969 260.975,187.6406 Q260.975,187.9844 260.6313,188.3906 Q260.1313,188.9688 259.3344,189.2969 Q258.2563,189.75 256.9594,189.75 Q255.4438,189.75 254.2406,189.125 Q253.2563,188.625 252.5688,187.5625 Q251.8813,186.4844 251.8813,185.2031 L251.8813,184.0469 Q251.8813,182.7188 252.4906,181.5781 Q253.1156,180.4219 254.2094,179.8125 Q255.3031,179.1875 256.5375,179.1875 Q257.2719,179.1875 257.9125,179.3594 Q258.5688,179.5156 259.1156,179.875 Z " fill="#000000"/><text fill="#000000" font-family="sans-serif" font-size="14" lengthAdjust="spacing" textLength="74" x="276.65" y="189.7285">BookPrinter</text><line style="stroke:#181818;stroke-width:0.5;" x1="214" x2="381" y1="200" y2="200"/><line style="stroke:#181818;stroke-width:0.5;" x1="214" x2="381" y1="208" y2="208"/><ellipse cx="224" cy="222.3047" fill="#84BE84" rx="3" ry="3" style="stroke:#038048;stroke-width:1.0;"/><text fill="#000000" font-family="sans-serif" font-size="14" lengthAdjust="spacing" textLength="143" x="233" y="226.5332">print(book: Book): void</text></g><!--reverse link Book to BookDatabase--><g id="link_Book_BookDatabase"><path codeLine="16" d="M155.0302,113.2564 C140.8002,132.9864 128.38,150.23 115.72,167.79 " fill="none" id="Book-backto-BookDatabase" style="stroke:#181818;stroke-width:1.0;stroke-dasharray:7.0,7.0;"/><polygon fill="#181818" points="158.54,108.39,150.0311,113.3497,155.6152,112.4453,156.5195,118.0294,158.54,108.39" style="stroke:#181818;stroke-width:1.0;"/></g><!--reverse link Book to BookPrinter--><g id="link_Book_BookPrinter"><path codeLine="17" d="M234.3424,113.24 C248.7124,132.97 261.27,150.23 274.05,167.79 " fill="none" id="Book-backto-BookPrinter" style="stroke:#181818;stroke-width:1.0;stroke-dasharray:7.0,7.0;"/><polygon fill="#181818" points="230.81,108.39,232.8753,118.0199,233.7537,112.4316,239.3419,113.31,230.81,108.39" style="stroke:#181818;stroke-width:1.0;"/></g><!--SRC=[Iyv9B2vMSChFprQevb800ksIp9ASL2k5uf8Y23-nj2GZlmX9e20nFRNOIY4phuIhbeih6Mw0Is99Ob9YSIhCeEB4ibID9A245LXQqqgXB3yp1LLFG17GcDGYc9O241Ux7h0JRVJqKAn25OKQnWK0]--></g></svg>