<?xml version="1.0" encoding="us-ascii" standalone="no"?><svg xmlns="http://www.w3.org/2000/svg" xmlns:xlink="http://www.w3.org/1999/xlink" contentStyleType="text/css" height="209px" preserveAspectRatio="none" style="width:251px;height:209px;background:#FFFFFF;" version="1.1" viewBox="0 0 251 209" width="251px" zoomAndPan="magnify"><defs/><g><!--class Weather--><g id="elem_Weather"><rect codeLine="2" fill="#F1F1F1" height="188.875" id="Weather" rx="2.5" ry="2.5" style="stroke:#181818;stroke-width:0.5;" width="230" x="7" y="7"/><ellipse cx="90.75" cy="23" fill="#ADD1B2" rx="11" ry="11" style="stroke:#181818;stroke-width:1.0;"/><path d="M93.5156,18.875 Q93.6719,18.6563 93.8594,18.5469 Q94.0469,18.4375 94.2656,18.4375 Q94.6406,18.4375 94.875,18.7031 Q95.1094,18.9531 95.1094,19.5625 L95.1094,21.0156 Q95.1094,21.625 94.875,21.8906 Q94.6406,22.1563 94.2656,22.1563 Q93.9219,22.1563 93.7188,21.9531 Q93.5156,21.7656 93.4063,21.25 Q93.3594,20.8906 93.1719,20.7031 Q92.8438,20.3281 92.2344,20.1094 Q91.625,19.8906 91,19.8906 Q90.2344,19.8906 89.5938,20.2188 Q88.9688,20.5469 88.4688,21.2969 Q87.9844,22.0469 87.9844,23.0781 L87.9844,24.1719 Q87.9844,25.4063 88.875,26.2344 Q89.7656,27.0469 91.3594,27.0469 Q92.2969,27.0469 92.9531,26.7969 Q93.3438,26.6406 93.7656,26.2031 Q94.0313,25.9375 94.1719,25.8594 Q94.3281,25.7813 94.5313,25.7813 Q94.8594,25.7813 95.1094,26.0469 Q95.375,26.2969 95.375,26.6406 Q95.375,26.9844 95.0313,27.3906 Q94.5313,27.9688 93.7344,28.2969 Q92.6563,28.75 91.3594,28.75 Q89.8438,28.75 88.6406,28.125 Q87.6563,27.625 86.9688,26.5625 Q86.2813,25.4844 86.2813,24.2031 L86.2813,23.0469 Q86.2813,21.7188 86.8906,20.5781 Q87.5156,19.4219 88.6094,18.8125 Q89.7031,18.1875 90.9375,18.1875 Q91.6719,18.1875 92.3125,18.3594 Q92.9688,18.5156 93.5156,18.875 Z " fill="#000000"/><text fill="#000000" font-family="sans-serif" font-size="14" lengthAdjust="spacing" textLength="54" x="111.25" y="28.7285">Weather</text><line style="stroke:#181818;stroke-width:0.5;" x1="8" x2="236" y1="39" y2="39"/><rect fill="none" height="6" style="stroke:#C82930;stroke-width:1.0;" width="6" x="15" y="50.3047"/><text fill="#000000" font-family="sans-serif" font-size="14" lengthAdjust="spacing" textLength="107" x="27" y="57.5332">rawData_ : string</text><rect fill="none" height="6" style="stroke:#C82930;stroke-width:1.0;" width="6" x="15" y="67.9141"/><text fill="#000000" font-family="sans-serif" font-size="14" lengthAdjust="spacing" textLength="146" x="27" y="75.1426">data_ : vector&lt;double&gt;</text><line style="stroke:#181818;stroke-width:0.5;" x1="8" x2="236" y1="82.2188" y2="82.2188"/><ellipse cx="18" cy="96.5234" fill="#84BE84" rx="3" ry="3" style="stroke:#038048;stroke-width:1.0;"/><text fill="#000000" font-family="sans-serif" font-size="14" lengthAdjust="spacing" textLength="192" x="27" y="100.752">FetchDataFromSource() : void</text><ellipse cx="18" cy="114.1328" fill="#84BE84" rx="3" ry="3" style="stroke:#038048;stroke-width:1.0;"/><text fill="#000000" font-family="sans-serif" font-size="14" lengthAdjust="spacing" textLength="115" x="27" y="118.3613">ParseData() : void</text><ellipse cx="18" cy="131.7422" fill="#84BE84" rx="3" ry="3" style="stroke:#038048;stroke-width:1.0;"/><text fill="#000000" font-family="sans-serif" font-size="14" lengthAdjust="spacing" textLength="159" x="27" y="135.9707">DisplayInFormatA() : void</text><ellipse cx="18" cy="149.3516" fill="#84BE84" rx="3" ry="3" style="stroke:#038048;stroke-width:1.0;"/><text fill="#000000" font-family="sans-serif" font-size="14" lengthAdjust="spacing" textLength="159" x="27" y="153.5801">DisplayInFormatB() : void</text><ellipse cx="18" cy="166.9609" fill="#84BE84" rx="3" ry="3" style="stroke:#038048;stroke-width:1.0;"/><text fill="#000000" font-family="sans-serif" font-size="14" lengthAdjust="spacing" textLength="204" x="27" y="171.1895">LogError(errorMsg: string) : void</text><rect fill="#F24D5C" height="6" style="stroke:#C82930;stroke-width:1.0;" width="6" x="15" y="181.5703"/><text fill="#000000" font-family="sans-serif" font-size="14" lengthAdjust="spacing" textLength="132" x="27" y="188.7988">FormatData() : string</text></g><!--SRC=[VOt12i8m343l_OeU9-8F316KMH0c21uyIcn3L-WMIRk9YF-kfIBOWpdayDuBqHv2a2U4s27BXv3lcIkCkciWWcBgZpIoncecQpcHCxau00TCHS4R5wuUxhj14VSGr__rfj0jsIqpSOLfxuEjPOZi1lkJBVBnztjEicAu9NukiFcm2NKaNXeQBnvNuYbU]--></g></svg>