<?xml version="1.0" encoding="us-ascii" standalone="no"?><svg xmlns="http://www.w3.org/2000/svg" xmlns:xlink="http://www.w3.org/1999/xlink" contentStyleType="text/css" height="331px" preserveAspectRatio="none" style="width:593px;height:331px;background:#FFFFFF;" version="1.1" viewBox="0 0 593 331" width="593px" zoomAndPan="magnify"><defs/><g><!--class PV--><g id="elem_PV"><rect codeLine="2" fill="#ADD8E6" height="32" id="PV" rx="2.5" ry="2.5" style="stroke:#00008B;stroke-width:2.0;" width="153" x="136.5" y="7"/><ellipse cx="151.5" cy="23" fill="#F1F1F1" rx="11" ry="11" style="stroke:#181818;stroke-width:1.0;"/><path d="M152.125,24.5469 L152.125,26.2969 L153.8281,26.2969 Q154.4531,26.2969 154.7031,26.5313 Q154.9688,26.7656 154.9688,27.1563 Q154.9688,27.5313 154.7031,27.7656 Q154.4531,28 153.8281,28 L150.1563,28 Q149.5313,28 149.2656,27.7656 Q149.0156,27.5313 149.0156,27.1406 Q149.0156,26.7656 149.2813,26.5313 Q149.5469,26.2969 150.1563,26.2969 L150.4219,26.2969 L150.4219,19.6406 L150.1563,19.6406 Q149.5313,19.6406 149.2656,19.4063 Q149.0156,19.1719 149.0156,18.7813 Q149.0156,18.4063 149.2656,18.1719 Q149.5313,17.9375 150.1563,17.9375 L154.0625,17.9375 Q155.7969,17.9375 156.7969,18.8906 Q157.8125,19.8281 157.8125,21.1719 Q157.8125,21.9219 157.4688,22.5938 Q157.2188,23.0781 156.6094,23.5781 Q156.0156,24.0625 155.375,24.3125 Q154.75,24.5469 153.7344,24.5469 L152.125,24.5469 Z M152.125,22.8438 L153.6875,22.8438 Q154.8125,22.8438 155.4531,22.3438 Q156.1094,21.8438 156.1094,21.1406 Q156.1094,20.5313 155.5781,20.0938 Q155.0625,19.6406 154.0781,19.6406 L152.125,19.6406 L152.125,22.8438 Z " fill="#000000"/><text fill="#000000" font-family="sans-serif" font-size="14" lengthAdjust="spacing" textLength="121" x="165.5" y="28.7285">Protected Variation</text></g><!--class LC--><g id="elem_LC"><rect codeLine="3" fill="#ADD8E6" height="32" id="LC" rx="2.5" ry="2.5" style="stroke:#00008B;stroke-width:2.0;" width="117" x="168.5" y="99"/><ellipse cx="183.5" cy="115" fill="#F1F1F1" rx="11" ry="11" style="stroke:#181818;stroke-width:1.0;"/><path d="M184.125,116.5469 L184.125,118.2969 L185.8281,118.2969 Q186.4531,118.2969 186.7031,118.5313 Q186.9688,118.7656 186.9688,119.1563 Q186.9688,119.5313 186.7031,119.7656 Q186.4531,120 185.8281,120 L182.1563,120 Q181.5313,120 181.2656,119.7656 Q181.0156,119.5313 181.0156,119.1406 Q181.0156,118.7656 181.2813,118.5313 Q181.5469,118.2969 182.1563,118.2969 L182.4219,118.2969 L182.4219,111.6406 L182.1563,111.6406 Q181.5313,111.6406 181.2656,111.4063 Q181.0156,111.1719 181.0156,110.7813 Q181.0156,110.4063 181.2656,110.1719 Q181.5313,109.9375 182.1563,109.9375 L186.0625,109.9375 Q187.7969,109.9375 188.7969,110.8906 Q189.8125,111.8281 189.8125,113.1719 Q189.8125,113.9219 189.4688,114.5938 Q189.2188,115.0781 188.6094,115.5781 Q188.0156,116.0625 187.375,116.3125 Q186.75,116.5469 185.7344,116.5469 L184.125,116.5469 Z M184.125,114.8438 L185.6875,114.8438 Q186.8125,114.8438 187.4531,114.3438 Q188.1094,113.8438 188.1094,113.1406 Q188.1094,112.5313 187.5781,112.0938 Q187.0625,111.6406 186.0781,111.6406 L184.125,111.6406 L184.125,114.8438 Z " fill="#000000"/><text fill="#000000" font-family="sans-serif" font-size="14" lengthAdjust="spacing" textLength="85" x="197.5" y="120.7285">Low Coupling</text></g><!--class P--><g id="elem_P"><rect codeLine="4" fill="#F1F1F1" height="32" id="P" rx="2.5" ry="2.5" style="stroke:#181818;stroke-width:0.5;" width="120" x="29" y="191"/><ellipse cx="44" cy="207" fill="#F1F1F1" rx="11" ry="11" style="stroke:#181818;stroke-width:1.0;"/><path d="M44.625,208.5469 L44.625,210.2969 L46.3281,210.2969 Q46.9531,210.2969 47.2031,210.5313 Q47.4688,210.7656 47.4688,211.1563 Q47.4688,211.5313 47.2031,211.7656 Q46.9531,212 46.3281,212 L42.6563,212 Q42.0313,212 41.7656,211.7656 Q41.5156,211.5313 41.5156,211.1406 Q41.5156,210.7656 41.7813,210.5313 Q42.0469,210.2969 42.6563,210.2969 L42.9219,210.2969 L42.9219,203.6406 L42.6563,203.6406 Q42.0313,203.6406 41.7656,203.4063 Q41.5156,203.1719 41.5156,202.7813 Q41.5156,202.4063 41.7656,202.1719 Q42.0313,201.9375 42.6563,201.9375 L46.5625,201.9375 Q48.2969,201.9375 49.2969,202.8906 Q50.3125,203.8281 50.3125,205.1719 Q50.3125,205.9219 49.9688,206.5938 Q49.7188,207.0781 49.1094,207.5781 Q48.5156,208.0625 47.875,208.3125 Q47.25,208.5469 46.2344,208.5469 L44.625,208.5469 Z M44.625,206.8438 L46.1875,206.8438 Q47.3125,206.8438 47.9531,206.3438 Q48.6094,205.8438 48.6094,205.1406 Q48.6094,204.5313 48.0781,204.0938 Q47.5625,203.6406 46.5781,203.6406 L44.625,203.6406 L44.625,206.8438 Z " fill="#000000"/><text fill="#000000" font-family="sans-serif" font-size="14" lengthAdjust="spacing" textLength="88" x="58" y="212.7285">Polymorphism</text></g><!--class I--><g id="elem_I"><rect codeLine="5" fill="#F1F1F1" height="32" id="I" rx="2.5" ry="2.5" style="stroke:#181818;stroke-width:0.5;" width="97" x="184.5" y="191"/><ellipse cx="199.5" cy="207" fill="#F1F1F1" rx="11" ry="11" style="stroke:#181818;stroke-width:1.0;"/><path d="M200.125,208.5469 L200.125,210.2969 L201.8281,210.2969 Q202.4531,210.2969 202.7031,210.5313 Q202.9688,210.7656 202.9688,211.1563 Q202.9688,211.5313 202.7031,211.7656 Q202.4531,212 201.8281,212 L198.1563,212 Q197.5313,212 197.2656,211.7656 Q197.0156,211.5313 197.0156,211.1406 Q197.0156,210.7656 197.2813,210.5313 Q197.5469,210.2969 198.1563,210.2969 L198.4219,210.2969 L198.4219,203.6406 L198.1563,203.6406 Q197.5313,203.6406 197.2656,203.4063 Q197.0156,203.1719 197.0156,202.7813 Q197.0156,202.4063 197.2656,202.1719 Q197.5313,201.9375 198.1563,201.9375 L202.0625,201.9375 Q203.7969,201.9375 204.7969,202.8906 Q205.8125,203.8281 205.8125,205.1719 Q205.8125,205.9219 205.4688,206.5938 Q205.2188,207.0781 204.6094,207.5781 Q204.0156,208.0625 203.375,208.3125 Q202.75,208.5469 201.7344,208.5469 L200.125,208.5469 Z M200.125,206.8438 L201.6875,206.8438 Q202.8125,206.8438 203.4531,206.3438 Q204.1094,205.8438 204.1094,205.1406 Q204.1094,204.5313 203.5781,204.0938 Q203.0625,203.6406 202.0781,203.6406 L200.125,203.6406 L200.125,206.8438 Z " fill="#000000"/><text fill="#000000" font-family="sans-serif" font-size="14" lengthAdjust="spacing" textLength="65" x="213.5" y="212.7285">Indirection</text></g><!--class PF--><g id="elem_PF"><rect codeLine="6" fill="#F1F1F1" height="32" id="PF" rx="2.5" ry="2.5" style="stroke:#181818;stroke-width:0.5;" width="137" x="316.5" y="191"/><ellipse cx="331.5" cy="207" fill="#F1F1F1" rx="11" ry="11" style="stroke:#181818;stroke-width:1.0;"/><path d="M332.125,208.5469 L332.125,210.2969 L333.8281,210.2969 Q334.4531,210.2969 334.7031,210.5313 Q334.9688,210.7656 334.9688,211.1563 Q334.9688,211.5313 334.7031,211.7656 Q334.4531,212 333.8281,212 L330.1563,212 Q329.5313,212 329.2656,211.7656 Q329.0156,211.5313 329.0156,211.1406 Q329.0156,210.7656 329.2813,210.5313 Q329.5469,210.2969 330.1563,210.2969 L330.4219,210.2969 L330.4219,203.6406 L330.1563,203.6406 Q329.5313,203.6406 329.2656,203.4063 Q329.0156,203.1719 329.0156,202.7813 Q329.0156,202.4063 329.2656,202.1719 Q329.5313,201.9375 330.1563,201.9375 L334.0625,201.9375 Q335.7969,201.9375 336.7969,202.8906 Q337.8125,203.8281 337.8125,205.1719 Q337.8125,205.9219 337.4688,206.5938 Q337.2188,207.0781 336.6094,207.5781 Q336.0156,208.0625 335.375,208.3125 Q334.75,208.5469 333.7344,208.5469 L332.125,208.5469 Z M332.125,206.8438 L333.6875,206.8438 Q334.8125,206.8438 335.4531,206.3438 Q336.1094,205.8438 336.1094,205.1406 Q336.1094,204.5313 335.5781,204.0938 Q335.0625,203.6406 334.0781,203.6406 L332.125,203.6406 L332.125,206.8438 Z " fill="#000000"/><text fill="#000000" font-family="sans-serif" font-size="14" lengthAdjust="spacing" textLength="105" x="345.5" y="212.7285">Pure Fabrication</text></g><!--class HC--><g id="elem_HC"><rect codeLine="7" fill="#ADD8E6" height="32" id="HC" rx="2.5" ry="2.5" style="stroke:#00008B;stroke-width:2.0;" width="124" x="328" y="99"/><ellipse cx="343" cy="115" fill="#F1F1F1" rx="11" ry="11" style="stroke:#181818;stroke-width:1.0;"/><path d="M343.625,116.5469 L343.625,118.2969 L345.3281,118.2969 Q345.9531,118.2969 346.2031,118.5313 Q346.4688,118.7656 346.4688,119.1563 Q346.4688,119.5313 346.2031,119.7656 Q345.9531,120 345.3281,120 L341.6563,120 Q341.0313,120 340.7656,119.7656 Q340.5156,119.5313 340.5156,119.1406 Q340.5156,118.7656 340.7813,118.5313 Q341.0469,118.2969 341.6563,118.2969 L341.9219,118.2969 L341.9219,111.6406 L341.6563,111.6406 Q341.0313,111.6406 340.7656,111.4063 Q340.5156,111.1719 340.5156,110.7813 Q340.5156,110.4063 340.7656,110.1719 Q341.0313,109.9375 341.6563,109.9375 L345.5625,109.9375 Q347.2969,109.9375 348.2969,110.8906 Q349.3125,111.8281 349.3125,113.1719 Q349.3125,113.9219 348.9688,114.5938 Q348.7188,115.0781 348.1094,115.5781 Q347.5156,116.0625 346.875,116.3125 Q346.25,116.5469 345.2344,116.5469 L343.625,116.5469 Z M343.625,114.8438 L345.1875,114.8438 Q346.3125,114.8438 346.9531,114.3438 Q347.6094,113.8438 347.6094,113.1406 Q347.6094,112.5313 347.0781,112.0938 Q346.5625,111.6406 345.5781,111.6406 L343.625,111.6406 L343.625,114.8438 Z " fill="#000000"/><text fill="#000000" font-family="sans-serif" font-size="14" lengthAdjust="spacing" textLength="92" x="357" y="120.7285">High Cohesion</text></g><!--class A--><g id="elem_A"><rect codeLine="8" fill="#F1F1F1" height="42.7031" id="A" rx="2.5" ry="2.5" style="stroke:#181818;stroke-width:0.5;" width="82" x="192" y="283"/><ellipse cx="207" cy="304.3516" fill="#F1F1F1" rx="11" ry="11" style="stroke:#181818;stroke-width:1.0;"/><path d="M207.625,305.8984 L207.625,307.6484 L209.3281,307.6484 Q209.9531,307.6484 210.2031,307.8828 Q210.4688,308.1172 210.4688,308.5078 Q210.4688,308.8828 210.2031,309.1172 Q209.9531,309.3516 209.3281,309.3516 L205.6563,309.3516 Q205.0313,309.3516 204.7656,309.1172 Q204.5156,308.8828 204.5156,308.4922 Q204.5156,308.1172 204.7813,307.8828 Q205.0469,307.6484 205.6563,307.6484 L205.9219,307.6484 L205.9219,300.9922 L205.6563,300.9922 Q205.0313,300.9922 204.7656,300.7578 Q204.5156,300.5234 204.5156,300.1328 Q204.5156,299.7578 204.7656,299.5234 Q205.0313,299.2891 205.6563,299.2891 L209.5625,299.2891 Q211.2969,299.2891 212.2969,300.2422 Q213.3125,301.1797 213.3125,302.5234 Q213.3125,303.2734 212.9688,303.9453 Q212.7188,304.4297 212.1094,304.9297 Q211.5156,305.4141 210.875,305.6641 Q210.25,305.8984 209.2344,305.8984 L207.625,305.8984 Z M207.625,304.1953 L209.1875,304.1953 Q210.3125,304.1953 210.9531,303.6953 Q211.6094,303.1953 211.6094,302.4922 Q211.6094,301.8828 211.0781,301.4453 Q210.5625,300.9922 209.5781,300.9922 L207.625,300.9922 L207.625,304.1953 Z " fill="#000000"/><text fill="#000000" font-family="sans-serif" font-size="12" font-style="italic" lengthAdjust="spacing" textLength="37" x="227.5" y="300.457">&#171;GoF&#187;</text><text fill="#000000" font-family="sans-serif" font-size="14" lengthAdjust="spacing" textLength="50" x="221" y="317.627">Adapter</text></g><!--class IE--><g id="elem_IE"><rect codeLine="9" fill="#F1F1F1" height="32" id="IE" rx="2.5" ry="2.5" style="stroke:#181818;stroke-width:0.5;" width="146" x="325" y="7"/><ellipse cx="340" cy="23" fill="#F1F1F1" rx="11" ry="11" style="stroke:#181818;stroke-width:1.0;"/><path d="M340.625,24.5469 L340.625,26.2969 L342.3281,26.2969 Q342.9531,26.2969 343.2031,26.5313 Q343.4688,26.7656 343.4688,27.1563 Q343.4688,27.5313 343.2031,27.7656 Q342.9531,28 342.3281,28 L338.6563,28 Q338.0313,28 337.7656,27.7656 Q337.5156,27.5313 337.5156,27.1406 Q337.5156,26.7656 337.7813,26.5313 Q338.0469,26.2969 338.6563,26.2969 L338.9219,26.2969 L338.9219,19.6406 L338.6563,19.6406 Q338.0313,19.6406 337.7656,19.4063 Q337.5156,19.1719 337.5156,18.7813 Q337.5156,18.4063 337.7656,18.1719 Q338.0313,17.9375 338.6563,17.9375 L342.5625,17.9375 Q344.2969,17.9375 345.2969,18.8906 Q346.3125,19.8281 346.3125,21.1719 Q346.3125,21.9219 345.9688,22.5938 Q345.7188,23.0781 345.1094,23.5781 Q344.5156,24.0625 343.875,24.3125 Q343.25,24.5469 342.2344,24.5469 L340.625,24.5469 Z M340.625,22.8438 L342.1875,22.8438 Q343.3125,22.8438 343.9531,22.3438 Q344.6094,21.8438 344.6094,21.1406 Q344.6094,20.5313 344.0781,20.0938 Q343.5625,19.6406 342.5781,19.6406 L340.625,19.6406 L340.625,22.8438 Z " fill="#000000"/><text fill="#000000" font-family="sans-serif" font-size="14" lengthAdjust="spacing" textLength="114" x="354" y="28.7285">Information Expert</text></g><!--class C--><g id="elem_C"><rect codeLine="10" fill="#F1F1F1" height="32" id="C" rx="2.5" ry="2.5" style="stroke:#181818;stroke-width:0.5;" width="80" x="506" y="7"/><ellipse cx="521" cy="23" fill="#F1F1F1" rx="11" ry="11" style="stroke:#181818;stroke-width:1.0;"/><path d="M521.625,24.5469 L521.625,26.2969 L523.3281,26.2969 Q523.9531,26.2969 524.2031,26.5313 Q524.4688,26.7656 524.4688,27.1563 Q524.4688,27.5313 524.2031,27.7656 Q523.9531,28 523.3281,28 L519.6563,28 Q519.0313,28 518.7656,27.7656 Q518.5156,27.5313 518.5156,27.1406 Q518.5156,26.7656 518.7813,26.5313 Q519.0469,26.2969 519.6563,26.2969 L519.9219,26.2969 L519.9219,19.6406 L519.6563,19.6406 Q519.0313,19.6406 518.7656,19.4063 Q518.5156,19.1719 518.5156,18.7813 Q518.5156,18.4063 518.7656,18.1719 Q519.0313,17.9375 519.6563,17.9375 L523.5625,17.9375 Q525.2969,17.9375 526.2969,18.8906 Q527.3125,19.8281 527.3125,21.1719 Q527.3125,21.9219 526.9688,22.5938 Q526.7188,23.0781 526.1094,23.5781 Q525.5156,24.0625 524.875,24.3125 Q524.25,24.5469 523.2344,24.5469 L521.625,24.5469 Z M521.625,22.8438 L523.1875,22.8438 Q524.3125,22.8438 524.9531,22.3438 Q525.6094,21.8438 525.6094,21.1406 Q525.6094,20.5313 525.0781,20.0938 Q524.5625,19.6406 523.5781,19.6406 L521.625,19.6406 L521.625,22.8438 Z " fill="#000000"/><text fill="#000000" font-family="sans-serif" font-size="14" lengthAdjust="spacing" textLength="48" x="535" y="28.7285">Creator</text></g><!--class Con--><g id="elem_Con"><rect codeLine="11" fill="#F1F1F1" height="32" id="Con" rx="2.5" ry="2.5" style="stroke:#181818;stroke-width:0.5;" width="94" x="7" y="7"/><ellipse cx="22" cy="23" fill="#F1F1F1" rx="11" ry="11" style="stroke:#181818;stroke-width:1.0;"/><path d="M22.625,24.5469 L22.625,26.2969 L24.3281,26.2969 Q24.9531,26.2969 25.2031,26.5313 Q25.4688,26.7656 25.4688,27.1563 Q25.4688,27.5313 25.2031,27.7656 Q24.9531,28 24.3281,28 L20.6563,28 Q20.0313,28 19.7656,27.7656 Q19.5156,27.5313 19.5156,27.1406 Q19.5156,26.7656 19.7813,26.5313 Q20.0469,26.2969 20.6563,26.2969 L20.9219,26.2969 L20.9219,19.6406 L20.6563,19.6406 Q20.0313,19.6406 19.7656,19.4063 Q19.5156,19.1719 19.5156,18.7813 Q19.5156,18.4063 19.7656,18.1719 Q20.0313,17.9375 20.6563,17.9375 L24.5625,17.9375 Q26.2969,17.9375 27.2969,18.8906 Q28.3125,19.8281 28.3125,21.1719 Q28.3125,21.9219 27.9688,22.5938 Q27.7188,23.0781 27.1094,23.5781 Q26.5156,24.0625 25.875,24.3125 Q25.25,24.5469 24.2344,24.5469 L22.625,24.5469 Z M22.625,22.8438 L24.1875,22.8438 Q25.3125,22.8438 25.9531,22.3438 Q26.6094,21.8438 26.6094,21.1406 Q26.6094,20.5313 26.0781,20.0938 Q25.5625,19.6406 24.5781,19.6406 L22.625,19.6406 L22.625,22.8438 Z " fill="#000000"/><text fill="#000000" font-family="sans-serif" font-size="14" lengthAdjust="spacing" textLength="62" x="36" y="28.7285">Controller</text></g><!--reverse link PV to LC--><g id="link_PV_LC"><path codeLine="13" d="M218.1367,57.0561 C220.7267,73.7061 222.08,82.4 224.66,98.96 " fill="none" id="PV-backto-LC" style="stroke:#181818;stroke-width:1.0;"/><polygon fill="none" points="215.37,39.27,212.208,57.9783,224.0654,56.1339,215.37,39.27" style="stroke:#181818;stroke-width:1.0;"/></g><!--reverse link LC to P--><g id="link_LC_P"><path codeLine="14" d="M188.8255,140.8966 C163.3555,157.5166 137.68,174.25 112.17,190.89 " fill="none" id="LC-backto-P" style="stroke:#181818;stroke-width:1.0;"/><polygon fill="none" points="203.9,131.06,185.5466,135.8718,192.1044,145.9215,203.9,131.06" style="stroke:#181818;stroke-width:1.0;"/></g><!--reverse link LC to I--><g id="link_LC_I"><path codeLine="15" d="M229.2173,149.2301 C230.3273,165.8801 230.89,174.4 232,190.96 " fill="none" id="LC-backto-I" style="stroke:#181818;stroke-width:1.0;"/><polygon fill="none" points="228.02,131.27,223.2306,149.6292,235.2041,148.831,228.02,131.27" style="stroke:#181818;stroke-width:1.0;"/></g><!--reverse link LC to PF--><g id="link_LC_PF"><path codeLine="16" d="M269.0883,139.9732 C298.2483,156.5932 329.27,174.25 358.47,190.89 " fill="none" id="LC-backto-PF" style="stroke:#181818;stroke-width:1.0;"/><polygon fill="none" points="253.45,131.06,266.1172,145.1859,272.0593,134.7604,253.45,131.06" style="stroke:#181818;stroke-width:1.0;"/></g><!--link LC to HC--><!--link Con to PV--><!--link IE to HC--><g id="link_IE_HC"><path codeLine="19" d="M396.64,39.27 C395.16,55.92 393.3405,76.4235 391.8705,92.9835 " fill="none" id="IE-to-HC" style="stroke:#181818;stroke-width:1.0;stroke-dasharray:7.0,7.0;"/><polygon fill="#181818" points="391.34,98.96,396.1201,90.3489,391.7821,93.9796,388.1515,89.6416,391.34,98.96" style="stroke:#181818;stroke-width:1.0;"/></g><!--link C to HC--><g id="link_C_HC"><path codeLine="20" d="M519.89,39.06 C491.09,55.68 450.2265,79.2507 421.3965,95.8907 " fill="none" id="C-to-HC" style="stroke:#181818;stroke-width:1.0;stroke-dasharray:7.0,7.0;"/><polygon fill="#181818" points="416.2,98.89,425.9944,97.8554,420.5305,96.3906,421.9953,90.9267,416.2,98.89" style="stroke:#181818;stroke-width:1.0;"/></g><!--reverse link HC to PF--><g id="link_HC_PF"><path codeLine="21" d="M388.1569,149.2426 C387.2369,165.8926 386.76,174.4 385.84,190.96 " fill="none" id="HC-backto-PF" style="stroke:#181818;stroke-width:1.0;"/><polygon fill="none" points="389.15,131.27,382.1661,148.9116,394.1478,149.5736,389.15,131.27" style="stroke:#181818;stroke-width:1.0;"/></g><!--reverse link P to A--><g id="link_P_A"><path codeLine="22" d="M126.8187,233.0819 C151.1587,249.2319 174.88,264.96 201.98,282.93 " fill="none" id="P-backto-A" style="stroke:#181818;stroke-width:1.0;"/><polygon fill="none" points="111.82,223.13,123.5014,238.0814,130.136,228.0823,111.82,223.13" style="stroke:#181818;stroke-width:1.0;"/></g><!--reverse link I to A--><g id="link_I_A"><path codeLine="23" d="M233,241.34 C233,257.48 233,264.96 233,282.85 " fill="none" id="I-backto-A" style="stroke:#181818;stroke-width:1.0;"/><polygon fill="none" points="233,223.34,227,241.34,239,241.34,233,223.34" style="stroke:#181818;stroke-width:1.0;"/></g><!--reverse link PF to A--><g id="link_PF_A"><path codeLine="24" d="M345.6794,232.7073 C319.9794,248.8573 294.35,264.96 265.74,282.93 " fill="none" id="PF-backto-A" style="stroke:#181818;stroke-width:1.0;"/><polygon fill="none" points="360.92,223.13,342.487,227.6271,348.8718,237.7875,360.92,223.13" style="stroke:#181818;stroke-width:1.0;"/></g><!--link Con to LC--><g id="link_Con_LC"><path codeLine="25" d="M82.96,39.06 C114.89,55.68 160.6578,79.4798 192.6278,96.1198 " fill="none" id="Con-to-LC" style="stroke:#181818;stroke-width:1.0;stroke-dasharray:7.0,7.0;"/><polygon fill="#181818" points="197.95,98.89,191.8134,91.1866,193.5148,96.5815,188.1199,98.2829,197.95,98.89" style="stroke:#181818;stroke-width:1.0;"/></g><!--SRC=[bP7FRi8m3CRlUGgBdU41649Y7LqhSSYfbsc7jF5eH1fNRYesQGy_KmPBZzpoyv_FdvsUAL937XPQNjX4j50PTYOw2Wim0-WAuCcxWAkQl5s_6Zwz-16VQzESrjuTsrWBglukTA0pP3JsqdES50xPWmgQ_7T7tBTkwAuUacGPh6CnUlDNfeqZ8-IcPjSa2-H9HI7Zn5sBmorTFEfkPqqVaQVc7MmsRvHljpE3dyJTD1_sNprolFhS9pKPeubqrSZIE8N8vFsVlA1IyW6RdwMbSrZAAPLSyuvwHkKybrzm-TuwQp5yo9vAv9A0hbIvXzMbUhMTqYaKSodzJpjLfg3pb2uZRYfYLiamX0wx6dbGlm00]--></g></svg>