<?xml version="1.0" encoding="us-ascii" standalone="no"?><svg xmlns="http://www.w3.org/2000/svg" xmlns:xlink="http://www.w3.org/1999/xlink" contentStyleType="text/css" height="723px" preserveAspectRatio="none" style="width:837px;height:723px;background:#FFFFFF;" version="1.1" viewBox="0 0 837 723" width="837px" zoomAndPan="magnify"><defs/><g><!--cluster adventure::v5c--><g id="cluster_adventure::v5c"><path d="M8.5,6 L115.5,6 A3.75,3.75 0 0 1 118,8.5 L125,29.6094 L827.5,29.6094 A2.5,2.5 0 0 1 830,32.1094 L830,713.5 A2.5,2.5 0 0 1 827.5,716 L8.5,716 A2.5,2.5 0 0 1 6,713.5 L6,8.5 A2.5,2.5 0 0 1 8.5,6 " fill="none" style="stroke:#000000;stroke-width:1.5;"/><line style="stroke:#000000;stroke-width:1.5;" x1="6" x2="125" y1="29.6094" y2="29.6094"/><text fill="#000000" font-family="sans-serif" font-size="14" font-weight="bold" lengthAdjust="spacing" textLength="106" x="10" y="22.5332">adventure::v5c</text></g><!--class Action--><g id="elem_Action"><rect codeLine="5" fill="#F1F1F1" height="83.2188" id="Action" rx="2.5" ry="2.5" style="stroke:#181818;stroke-width:0.5;" width="186" x="628" y="327.5"/><ellipse cx="697.25" cy="343.5" fill="#ADD1B2" rx="11" ry="11" style="stroke:#181818;stroke-width:1.0;"/><path d="M700.0156,339.375 Q700.1719,339.1563 700.3594,339.0469 Q700.5469,338.9375 700.7656,338.9375 Q701.1406,338.9375 701.375,339.2031 Q701.6094,339.4531 701.6094,340.0625 L701.6094,341.5156 Q701.6094,342.125 701.375,342.3906 Q701.1406,342.6563 700.7656,342.6563 Q700.4219,342.6563 700.2188,342.4531 Q700.0156,342.2656 699.9063,341.75 Q699.8594,341.3906 699.6719,341.2031 Q699.3438,340.8281 698.7344,340.6094 Q698.125,340.3906 697.5,340.3906 Q696.7344,340.3906 696.0938,340.7188 Q695.4688,341.0469 694.9688,341.7969 Q694.4844,342.5469 694.4844,343.5781 L694.4844,344.6719 Q694.4844,345.9063 695.375,346.7344 Q696.2656,347.5469 697.8594,347.5469 Q698.7969,347.5469 699.4531,347.2969 Q699.8438,347.1406 700.2656,346.7031 Q700.5313,346.4375 700.6719,346.3594 Q700.8281,346.2813 701.0313,346.2813 Q701.3594,346.2813 701.6094,346.5469 Q701.875,346.7969 701.875,347.1406 Q701.875,347.4844 701.5313,347.8906 Q701.0313,348.4688 700.2344,348.7969 Q699.1563,349.25 697.8594,349.25 Q696.3438,349.25 695.1406,348.625 Q694.1563,348.125 693.4688,347.0625 Q692.7813,345.9844 692.7813,344.7031 L692.7813,343.5469 Q692.7813,342.2188 693.3906,341.0781 Q694.0156,339.9219 695.1094,339.3125 Q696.2031,338.6875 697.4375,338.6875 Q698.1719,338.6875 698.8125,338.8594 Q699.4688,339.0156 700.0156,339.375 Z " fill="#000000"/><text fill="#000000" font-family="sans-serif" font-size="14" lengthAdjust="spacing" textLength="39" x="717.75" y="349.2285">Action</text><line style="stroke:#181818;stroke-width:0.5;" x1="629" x2="813" y1="359.5" y2="359.5"/><line style="stroke:#181818;stroke-width:0.5;" x1="629" x2="813" y1="367.5" y2="367.5"/><ellipse cx="639" cy="381.8047" fill="#84BE84" rx="3" ry="3" style="stroke:#038048;stroke-width:1.0;"/><text fill="#000000" font-family="sans-serif" font-size="14" font-style="italic" lengthAdjust="spacing" textLength="124" x="648" y="386.0332">Description(): string</text><ellipse cx="639" cy="399.4141" fill="#84BE84" rx="3" ry="3" style="stroke:#038048;stroke-width:1.0;"/><text fill="#000000" font-family="sans-serif" font-size="14" font-style="italic" lengthAdjust="spacing" textLength="160" x="648" y="403.6426">Perform(instigator: Pawn)</text></g><!--class MoveAction--><g id="elem_MoveAction"><rect codeLine="10" fill="#F1F1F1" height="48" id="MoveAction" rx="2.5" ry="2.5" style="stroke:#181818;stroke-width:0.5;" width="121" x="684.5" y="516"/><ellipse cx="699.5" cy="532" fill="#ADD1B2" rx="11" ry="11" style="stroke:#181818;stroke-width:1.0;"/><path d="M702.2656,527.875 Q702.4219,527.6563 702.6094,527.5469 Q702.7969,527.4375 703.0156,527.4375 Q703.3906,527.4375 703.625,527.7031 Q703.8594,527.9531 703.8594,528.5625 L703.8594,530.0156 Q703.8594,530.625 703.625,530.8906 Q703.3906,531.1563 703.0156,531.1563 Q702.6719,531.1563 702.4688,530.9531 Q702.2656,530.7656 702.1563,530.25 Q702.1094,529.8906 701.9219,529.7031 Q701.5938,529.3281 700.9844,529.1094 Q700.375,528.8906 699.75,528.8906 Q698.9844,528.8906 698.3438,529.2188 Q697.7188,529.5469 697.2188,530.2969 Q696.7344,531.0469 696.7344,532.0781 L696.7344,533.1719 Q696.7344,534.4063 697.625,535.2344 Q698.5156,536.0469 700.1094,536.0469 Q701.0469,536.0469 701.7031,535.7969 Q702.0938,535.6406 702.5156,535.2031 Q702.7813,534.9375 702.9219,534.8594 Q703.0781,534.7813 703.2813,534.7813 Q703.6094,534.7813 703.8594,535.0469 Q704.125,535.2969 704.125,535.6406 Q704.125,535.9844 703.7813,536.3906 Q703.2813,536.9688 702.4844,537.2969 Q701.4063,537.75 700.1094,537.75 Q698.5938,537.75 697.3906,537.125 Q696.4063,536.625 695.7188,535.5625 Q695.0313,534.4844 695.0313,533.2031 L695.0313,532.0469 Q695.0313,530.7188 695.6406,529.5781 Q696.2656,528.4219 697.3594,527.8125 Q698.4531,527.1875 699.6875,527.1875 Q700.4219,527.1875 701.0625,527.3594 Q701.7188,527.5156 702.2656,527.875 Z " fill="#000000"/><text fill="#000000" font-family="sans-serif" font-size="14" lengthAdjust="spacing" textLength="73" x="721.5" y="537.7285">MoveAction</text><line style="stroke:#181818;stroke-width:0.5;" x1="685.5" x2="804.5" y1="548" y2="548"/><line style="stroke:#181818;stroke-width:0.5;" x1="685.5" x2="804.5" y1="556" y2="556"/></g><!--class SkipTurnAction--><g id="elem_SkipTurnAction"><rect codeLine="14" fill="#F1F1F1" height="48" id="SkipTurnAction" rx="2.5" ry="2.5" style="stroke:#181818;stroke-width:0.5;" width="136" x="513" y="516"/><ellipse cx="528" cy="532" fill="#ADD1B2" rx="11" ry="11" style="stroke:#181818;stroke-width:1.0;"/><path d="M530.7656,527.875 Q530.9219,527.6563 531.1094,527.5469 Q531.2969,527.4375 531.5156,527.4375 Q531.8906,527.4375 532.125,527.7031 Q532.3594,527.9531 532.3594,528.5625 L532.3594,530.0156 Q532.3594,530.625 532.125,530.8906 Q531.8906,531.1563 531.5156,531.1563 Q531.1719,531.1563 530.9688,530.9531 Q530.7656,530.7656 530.6563,530.25 Q530.6094,529.8906 530.4219,529.7031 Q530.0938,529.3281 529.4844,529.1094 Q528.875,528.8906 528.25,528.8906 Q527.4844,528.8906 526.8438,529.2188 Q526.2188,529.5469 525.7188,530.2969 Q525.2344,531.0469 525.2344,532.0781 L525.2344,533.1719 Q525.2344,534.4063 526.125,535.2344 Q527.0156,536.0469 528.6094,536.0469 Q529.5469,536.0469 530.2031,535.7969 Q530.5938,535.6406 531.0156,535.2031 Q531.2813,534.9375 531.4219,534.8594 Q531.5781,534.7813 531.7813,534.7813 Q532.1094,534.7813 532.3594,535.0469 Q532.625,535.2969 532.625,535.6406 Q532.625,535.9844 532.2813,536.3906 Q531.7813,536.9688 530.9844,537.2969 Q529.9063,537.75 528.6094,537.75 Q527.0938,537.75 525.8906,537.125 Q524.9063,536.625 524.2188,535.5625 Q523.5313,534.4844 523.5313,533.2031 L523.5313,532.0469 Q523.5313,530.7188 524.1406,529.5781 Q524.7656,528.4219 525.8594,527.8125 Q526.9531,527.1875 528.1875,527.1875 Q528.9219,527.1875 529.5625,527.3594 Q530.2188,527.5156 530.7656,527.875 Z " fill="#000000"/><text fill="#000000" font-family="sans-serif" font-size="14" lengthAdjust="spacing" textLength="96" x="546" y="537.7285">SkipTurnAction</text><line style="stroke:#181818;stroke-width:0.5;" x1="514" x2="648" y1="548" y2="548"/><line style="stroke:#181818;stroke-width:0.5;" x1="514" x2="648" y1="556" y2="556"/></g><!--class SelectActionStrategy--><g id="elem_SelectActionStrategy"><rect codeLine="19" fill="#F1F1F1" height="65.6094" id="SelectActionStrategy" rx="2.5" ry="2.5" style="stroke:#181818;stroke-width:0.5;" width="355" x="122.5" y="507"/><ellipse cx="230.25" cy="523" fill="#A9DCDF" rx="11" ry="11" style="stroke:#181818;stroke-width:1.0;"/><path d="M232.4375,524.7656 L228.2969,524.7656 L227.875,525.7969 L228.2969,525.7969 Q228.9063,525.7969 229.1719,526.0313 Q229.4375,526.2656 229.4375,526.6563 Q229.4375,527.0313 229.1719,527.2656 Q228.9063,527.5 228.2969,527.5 L226,527.5 Q225.3906,527.5 225.1406,527.2656 Q224.875,527.0313 224.875,526.6406 Q224.875,526.2656 225.1563,526.0313 Q225.4219,525.7813 226.0469,525.7969 L228.7188,519.1406 L227.6094,519.1406 Q227,519.1406 226.7344,518.9063 Q226.4688,518.6719 226.4688,518.2813 Q226.4688,517.9063 226.7344,517.6719 Q227,517.4375 227.6094,517.4375 L231.2813,517.4375 L234.6719,525.7969 Q235.2656,525.7969 235.4531,525.9375 Q235.8438,526.2031 235.8438,526.6563 Q235.8438,527.0313 235.5781,527.2656 Q235.3281,527.5 234.7188,527.5 L232.4219,527.5 Q231.8125,527.5 231.5469,527.2656 Q231.2813,527.0313 231.2813,526.6406 Q231.2813,526.2656 231.5469,526.0313 Q231.8125,525.7969 232.4219,525.7969 L232.8438,525.7969 L232.4375,524.7656 Z M231.7188,523.0625 L230.3594,519.6875 L228.9844,523.0625 L231.7188,523.0625 Z " fill="#000000"/><text fill="#000000" font-family="sans-serif" font-size="14" font-style="italic" lengthAdjust="spacing" textLength="131" x="250.75" y="528.7285">SelectActionStrategy</text><line style="stroke:#181818;stroke-width:0.5;" x1="123.5" x2="476.5" y1="539" y2="539"/><line style="stroke:#181818;stroke-width:0.5;" x1="123.5" x2="476.5" y1="547" y2="547"/><ellipse cx="133.5" cy="561.3047" fill="#84BE84" rx="3" ry="3" style="stroke:#038048;stroke-width:1.0;"/><text fill="#000000" font-family="sans-serif" font-size="14" font-style="italic" lengthAdjust="spacing" textLength="329" x="142.5" y="565.5332">SelectAction(player: Player, actions: Actions): Action</text></g><!--class SelectAggressiveAction--><g id="elem_SelectAggressiveAction"><rect codeLine="23" fill="#F1F1F1" height="65.6094" id="SelectAggressiveAction" rx="2.5" ry="2.5" style="stroke:#181818;stroke-width:0.5;" width="355" x="45.5" y="634"/><ellipse cx="144.75" cy="650" fill="#ADD1B2" rx="11" ry="11" style="stroke:#181818;stroke-width:1.0;"/><path d="M147.5156,645.875 Q147.6719,645.6563 147.8594,645.5469 Q148.0469,645.4375 148.2656,645.4375 Q148.6406,645.4375 148.875,645.7031 Q149.1094,645.9531 149.1094,646.5625 L149.1094,648.0156 Q149.1094,648.625 148.875,648.8906 Q148.6406,649.1563 148.2656,649.1563 Q147.9219,649.1563 147.7188,648.9531 Q147.5156,648.7656 147.4063,648.25 Q147.3594,647.8906 147.1719,647.7031 Q146.8438,647.3281 146.2344,647.1094 Q145.625,646.8906 145,646.8906 Q144.2344,646.8906 143.5938,647.2188 Q142.9688,647.5469 142.4688,648.2969 Q141.9844,649.0469 141.9844,650.0781 L141.9844,651.1719 Q141.9844,652.4063 142.875,653.2344 Q143.7656,654.0469 145.3594,654.0469 Q146.2969,654.0469 146.9531,653.7969 Q147.3438,653.6406 147.7656,653.2031 Q148.0313,652.9375 148.1719,652.8594 Q148.3281,652.7813 148.5313,652.7813 Q148.8594,652.7813 149.1094,653.0469 Q149.375,653.2969 149.375,653.6406 Q149.375,653.9844 149.0313,654.3906 Q148.5313,654.9688 147.7344,655.2969 Q146.6563,655.75 145.3594,655.75 Q143.8438,655.75 142.6406,655.125 Q141.6563,654.625 140.9688,653.5625 Q140.2813,652.4844 140.2813,651.2031 L140.2813,650.0469 Q140.2813,648.7188 140.8906,647.5781 Q141.5156,646.4219 142.6094,645.8125 Q143.7031,645.1875 144.9375,645.1875 Q145.6719,645.1875 146.3125,645.3594 Q146.9688,645.5156 147.5156,645.875 Z " fill="#000000"/><text fill="#000000" font-family="sans-serif" font-size="14" lengthAdjust="spacing" textLength="148" x="165.25" y="655.7285">SelectAggressiveAction</text><line style="stroke:#181818;stroke-width:0.5;" x1="46.5" x2="399.5" y1="666" y2="666"/><line style="stroke:#181818;stroke-width:0.5;" x1="46.5" x2="399.5" y1="674" y2="674"/><ellipse cx="56.5" cy="688.3047" fill="#84BE84" rx="3" ry="3" style="stroke:#038048;stroke-width:1.0;"/><text fill="#000000" font-family="sans-serif" font-size="14" lengthAdjust="spacing" textLength="329" x="65.5" y="692.5332">SelectAction(player: Player, actions: Actions): Action</text></g><!--class SelectActionInteractively--><g id="elem_SelectActionInteractively"><rect codeLine="27" fill="#F1F1F1" height="65.6094" id="SelectActionInteractively" rx="2.5" ry="2.5" style="stroke:#181818;stroke-width:0.5;" width="355" x="435.5" y="634"/><ellipse cx="532.25" cy="650" fill="#ADD1B2" rx="11" ry="11" style="stroke:#181818;stroke-width:1.0;"/><path d="M535.0156,645.875 Q535.1719,645.6563 535.3594,645.5469 Q535.5469,645.4375 535.7656,645.4375 Q536.1406,645.4375 536.375,645.7031 Q536.6094,645.9531 536.6094,646.5625 L536.6094,648.0156 Q536.6094,648.625 536.375,648.8906 Q536.1406,649.1563 535.7656,649.1563 Q535.4219,649.1563 535.2188,648.9531 Q535.0156,648.7656 534.9063,648.25 Q534.8594,647.8906 534.6719,647.7031 Q534.3438,647.3281 533.7344,647.1094 Q533.125,646.8906 532.5,646.8906 Q531.7344,646.8906 531.0938,647.2188 Q530.4688,647.5469 529.9688,648.2969 Q529.4844,649.0469 529.4844,650.0781 L529.4844,651.1719 Q529.4844,652.4063 530.375,653.2344 Q531.2656,654.0469 532.8594,654.0469 Q533.7969,654.0469 534.4531,653.7969 Q534.8438,653.6406 535.2656,653.2031 Q535.5313,652.9375 535.6719,652.8594 Q535.8281,652.7813 536.0313,652.7813 Q536.3594,652.7813 536.6094,653.0469 Q536.875,653.2969 536.875,653.6406 Q536.875,653.9844 536.5313,654.3906 Q536.0313,654.9688 535.2344,655.2969 Q534.1563,655.75 532.8594,655.75 Q531.3438,655.75 530.1406,655.125 Q529.1563,654.625 528.4688,653.5625 Q527.7813,652.4844 527.7813,651.2031 L527.7813,650.0469 Q527.7813,648.7188 528.3906,647.5781 Q529.0156,646.4219 530.1094,645.8125 Q531.2031,645.1875 532.4375,645.1875 Q533.1719,645.1875 533.8125,645.3594 Q534.4688,645.5156 535.0156,645.875 Z " fill="#000000"/><text fill="#000000" font-family="sans-serif" font-size="14" lengthAdjust="spacing" textLength="153" x="552.75" y="655.7285">SelectActionInteractively</text><line style="stroke:#181818;stroke-width:0.5;" x1="436.5" x2="789.5" y1="666" y2="666"/><line style="stroke:#181818;stroke-width:0.5;" x1="436.5" x2="789.5" y1="674" y2="674"/><ellipse cx="446.5" cy="688.3047" fill="#84BE84" rx="3" ry="3" style="stroke:#038048;stroke-width:1.0;"/><text fill="#000000" font-family="sans-serif" font-size="14" lengthAdjust="spacing" textLength="329" x="455.5" y="692.5332">SelectAction(player: Player, actions: Actions): Action</text></g><!--class Player--><g id="elem_Player"><rect codeLine="35" fill="#ADD8E6" height="153.6563" id="Player" rx="2.5" ry="2.5" style="stroke:#00008B;stroke-width:2.0;" width="287" x="305.5" y="292"/><ellipse cx="424.75" cy="308" fill="#ADD1B2" rx="11" ry="11" style="stroke:#181818;stroke-width:1.0;"/><path d="M427.5156,303.875 Q427.6719,303.6563 427.8594,303.5469 Q428.0469,303.4375 428.2656,303.4375 Q428.6406,303.4375 428.875,303.7031 Q429.1094,303.9531 429.1094,304.5625 L429.1094,306.0156 Q429.1094,306.625 428.875,306.8906 Q428.6406,307.1563 428.2656,307.1563 Q427.9219,307.1563 427.7188,306.9531 Q427.5156,306.7656 427.4063,306.25 Q427.3594,305.8906 427.1719,305.7031 Q426.8438,305.3281 426.2344,305.1094 Q425.625,304.8906 425,304.8906 Q424.2344,304.8906 423.5938,305.2188 Q422.9688,305.5469 422.4688,306.2969 Q421.9844,307.0469 421.9844,308.0781 L421.9844,309.1719 Q421.9844,310.4063 422.875,311.2344 Q423.7656,312.0469 425.3594,312.0469 Q426.2969,312.0469 426.9531,311.7969 Q427.3438,311.6406 427.7656,311.2031 Q428.0313,310.9375 428.1719,310.8594 Q428.3281,310.7813 428.5313,310.7813 Q428.8594,310.7813 429.1094,311.0469 Q429.375,311.2969 429.375,311.6406 Q429.375,311.9844 429.0313,312.3906 Q428.5313,312.9688 427.7344,313.2969 Q426.6563,313.75 425.3594,313.75 Q423.8438,313.75 422.6406,313.125 Q421.6563,312.625 420.9688,311.5625 Q420.2813,310.4844 420.2813,309.2031 L420.2813,308.0469 Q420.2813,306.7188 420.8906,305.5781 Q421.5156,304.4219 422.6094,303.8125 Q423.7031,303.1875 424.9375,303.1875 Q425.6719,303.1875 426.3125,303.3594 Q426.9688,303.5156 427.5156,303.875 Z " fill="#000000"/><text fill="#000000" font-family="sans-serif" font-size="14" lengthAdjust="spacing" textLength="40" x="445.25" y="313.7285">Player</text><line style="stroke:#00008B;stroke-width:2.0;" x1="306.5" x2="591.5" y1="324" y2="324"/><line style="stroke:#00008B;stroke-width:2.0;" x1="306.5" x2="591.5" y1="332" y2="332"/><ellipse cx="316.5" cy="346.3047" fill="#84BE84" rx="3" ry="3" style="stroke:#038048;stroke-width:1.0;"/><text fill="#000000" font-family="sans-serif" font-size="14" lengthAdjust="spacing" textLength="109" x="325.5" y="350.5332">GetPawn(): Pawn</text><ellipse cx="316.5" cy="363.9141" fill="#84BE84" rx="3" ry="3" style="stroke:#038048;stroke-width:1.0;"/><text fill="#000000" font-family="sans-serif" font-size="14" lengthAdjust="spacing" textLength="72" x="325.5" y="368.1426">TakeTurn()</text><ellipse cx="316.5" cy="381.5234" fill="#84BE84" rx="3" ry="3" style="stroke:#038048;stroke-width:1.0;"/><text fill="#000000" font-family="sans-serif" font-size="14" lengthAdjust="spacing" textLength="186" x="325.5" y="385.752">GetPossibleActions(): Actions</text><ellipse cx="316.5" cy="399.1328" fill="#84BE84" rx="3" ry="3" style="stroke:#038048;stroke-width:1.0;"/><text fill="#000000" font-family="sans-serif" font-size="14" font-weight="bold" lengthAdjust="spacing" textLength="261" x="325.5" y="403.3613">SelectAction(actions: Actions): Action</text><ellipse cx="316.5" cy="416.7422" fill="#84BE84" rx="3" ry="3" style="stroke:#038048;stroke-width:1.0;"/><text fill="#000000" font-family="sans-serif" font-size="14" lengthAdjust="spacing" textLength="145" x="325.5" y="420.9707">Perform(action: Action)</text><ellipse cx="316.5" cy="434.3516" fill="#84BE84" rx="3" ry="3" style="stroke:#038048;stroke-width:1.0;"/><text fill="#000000" font-family="sans-serif" font-size="14" lengthAdjust="spacing" textLength="205" x="325.5" y="438.5801">PerformIfPossible(action: Action)</text></g><!--class Pawn--><g id="elem_Pawn"><rect codeLine="46" fill="#F1F1F1" height="83.2188" id="Pawn" rx="2.5" ry="2.5" style="stroke:#181818;stroke-width:0.5;" width="282" x="230" y="95"/><ellipse cx="349.75" cy="111" fill="#ADD1B2" rx="11" ry="11" style="stroke:#181818;stroke-width:1.0;"/><path d="M352.5156,106.875 Q352.6719,106.6563 352.8594,106.5469 Q353.0469,106.4375 353.2656,106.4375 Q353.6406,106.4375 353.875,106.7031 Q354.1094,106.9531 354.1094,107.5625 L354.1094,109.0156 Q354.1094,109.625 353.875,109.8906 Q353.6406,110.1563 353.2656,110.1563 Q352.9219,110.1563 352.7188,109.9531 Q352.5156,109.7656 352.4063,109.25 Q352.3594,108.8906 352.1719,108.7031 Q351.8438,108.3281 351.2344,108.1094 Q350.625,107.8906 350,107.8906 Q349.2344,107.8906 348.5938,108.2188 Q347.9688,108.5469 347.4688,109.2969 Q346.9844,110.0469 346.9844,111.0781 L346.9844,112.1719 Q346.9844,113.4063 347.875,114.2344 Q348.7656,115.0469 350.3594,115.0469 Q351.2969,115.0469 351.9531,114.7969 Q352.3438,114.6406 352.7656,114.2031 Q353.0313,113.9375 353.1719,113.8594 Q353.3281,113.7813 353.5313,113.7813 Q353.8594,113.7813 354.1094,114.0469 Q354.375,114.2969 354.375,114.6406 Q354.375,114.9844 354.0313,115.3906 Q353.5313,115.9688 352.7344,116.2969 Q351.6563,116.75 350.3594,116.75 Q348.8438,116.75 347.6406,116.125 Q346.6563,115.625 345.9688,114.5625 Q345.2813,113.4844 345.2813,112.2031 L345.2813,111.0469 Q345.2813,109.7188 345.8906,108.5781 Q346.5156,107.4219 347.6094,106.8125 Q348.7031,106.1875 349.9375,106.1875 Q350.6719,106.1875 351.3125,106.3594 Q351.9688,106.5156 352.5156,106.875 Z " fill="#000000"/><text fill="#000000" font-family="sans-serif" font-size="14" lengthAdjust="spacing" textLength="34" x="370.25" y="116.7285">Pawn</text><line style="stroke:#181818;stroke-width:0.5;" x1="231" x2="511" y1="127" y2="127"/><rect fill="none" height="6" style="stroke:#C82930;stroke-width:1.0;" width="6" x="238" y="138.3047"/><text fill="#000000" font-family="sans-serif" font-size="14" lengthAdjust="spacing" textLength="78" x="250" y="145.5332">name: string</text><line style="stroke:#181818;stroke-width:0.5;" x1="231" x2="511" y1="152.6094" y2="152.6094"/><ellipse cx="241" cy="166.9141" fill="#84BE84" rx="3" ry="3" style="stroke:#038048;stroke-width:1.0;"/><text fill="#000000" font-family="sans-serif" font-size="14" lengthAdjust="spacing" textLength="256" x="250" y="171.1426">MoveToLocation(newLocation: Location)</text></g><!--class ActionKind--><g id="elem_ActionKind"><rect codeLine="54" fill="#F1F1F1" height="188.875" id="ActionKind" rx="2.5" ry="2.5" style="stroke:#181818;stroke-width:0.5;" width="99" x="547.5" y="42"/><ellipse cx="562.5" cy="58" fill="#EB937F" rx="11" ry="11" style="stroke:#181818;stroke-width:1.0;"/><path d="M561.3594,58.7969 L561.3594,61.2969 L565.6875,61.2969 L565.6875,60.375 Q565.6875,59.7656 565.9219,59.5 Q566.1719,59.2344 566.5469,59.2344 Q566.9219,59.2344 567.1563,59.5 Q567.3906,59.7656 567.3906,60.375 L567.3906,63 L559.3906,63 Q558.7656,63 558.5,62.7656 Q558.25,62.5313 558.25,62.1406 Q558.25,61.7656 558.5156,61.5313 Q558.7813,61.2969 559.3906,61.2969 L559.6563,61.2969 L559.6563,54.6406 L559.3906,54.6406 Q558.7656,54.6406 558.5,54.4063 Q558.25,54.1719 558.25,53.7813 Q558.25,53.4063 558.5,53.1719 Q558.7656,52.9375 559.3906,52.9375 L567.0156,52.9375 L567.0156,55.5313 Q567.0156,56.1406 566.7813,56.4063 Q566.5625,56.6563 566.1719,56.6563 Q565.7969,56.6563 565.5625,56.4063 Q565.3281,56.1406 565.3281,55.5313 L565.3281,54.6406 L561.3594,54.6406 L561.3594,57.0938 L562.8438,57.0938 Q562.8438,56.4375 562.9688,56.25 Q563.2344,55.8438 563.7031,55.8438 Q564.0781,55.8438 564.3125,56.1094 Q564.5469,56.3594 564.5469,56.9688 L564.5469,58.9375 Q564.5469,59.4844 564.4219,59.6719 Q564.1563,60.0625 563.7031,60.0625 Q563.2344,60.0625 562.9688,59.6563 Q562.8438,59.4688 562.8438,58.7969 L561.3594,58.7969 Z " fill="#000000"/><text fill="#000000" font-family="sans-serif" font-size="14" lengthAdjust="spacing" textLength="67" x="576.5" y="63.7285">ActionKind</text><line style="stroke:#181818;stroke-width:0.5;" x1="548.5" x2="645.5" y1="74" y2="74"/><text fill="#000000" font-family="sans-serif" font-size="14" lengthAdjust="spacing" textLength="70" x="553.5" y="92.5332">Aggressive</text><text fill="#000000" font-family="sans-serif" font-size="14" lengthAdjust="spacing" textLength="85" x="553.5" y="110.1426">HandleObject</text><text fill="#000000" font-family="sans-serif" font-size="14" lengthAdjust="spacing" textLength="43" x="553.5" y="127.752">Helpful</text><text fill="#000000" font-family="sans-serif" font-size="14" lengthAdjust="spacing" textLength="68" x="553.5" y="145.3613">Investigate</text><text fill="#000000" font-family="sans-serif" font-size="14" lengthAdjust="spacing" textLength="34" x="553.5" y="162.9707">Move</text><text fill="#000000" font-family="sans-serif" font-size="14" lengthAdjust="spacing" textLength="26" x="553.5" y="180.5801">Quit</text><text fill="#000000" font-family="sans-serif" font-size="14" lengthAdjust="spacing" textLength="29" x="553.5" y="198.1895">Rest</text><text fill="#000000" font-family="sans-serif" font-size="14" lengthAdjust="spacing" textLength="57" x="553.5" y="215.7988">SkipTurn</text><line style="stroke:#181818;stroke-width:0.5;" x1="548.5" x2="645.5" y1="222.875" y2="222.875"/></g><!--class Location--><g id="elem_Location"><rect codeLine="67" fill="#F1F1F1" height="48" id="Location" rx="2.5" ry="2.5" style="stroke:#181818;stroke-width:0.5;" width="102" x="22" y="345"/><ellipse cx="37" cy="361" fill="#ADD1B2" rx="11" ry="11" style="stroke:#181818;stroke-width:1.0;"/><path d="M39.7656,356.875 Q39.9219,356.6563 40.1094,356.5469 Q40.2969,356.4375 40.5156,356.4375 Q40.8906,356.4375 41.125,356.7031 Q41.3594,356.9531 41.3594,357.5625 L41.3594,359.0156 Q41.3594,359.625 41.125,359.8906 Q40.8906,360.1563 40.5156,360.1563 Q40.1719,360.1563 39.9688,359.9531 Q39.7656,359.7656 39.6563,359.25 Q39.6094,358.8906 39.4219,358.7031 Q39.0938,358.3281 38.4844,358.1094 Q37.875,357.8906 37.25,357.8906 Q36.4844,357.8906 35.8438,358.2188 Q35.2188,358.5469 34.7188,359.2969 Q34.2344,360.0469 34.2344,361.0781 L34.2344,362.1719 Q34.2344,363.4063 35.125,364.2344 Q36.0156,365.0469 37.6094,365.0469 Q38.5469,365.0469 39.2031,364.7969 Q39.5938,364.6406 40.0156,364.2031 Q40.2813,363.9375 40.4219,363.8594 Q40.5781,363.7813 40.7813,363.7813 Q41.1094,363.7813 41.3594,364.0469 Q41.625,364.2969 41.625,364.6406 Q41.625,364.9844 41.2813,365.3906 Q40.7813,365.9688 39.9844,366.2969 Q38.9063,366.75 37.6094,366.75 Q36.0938,366.75 34.8906,366.125 Q33.9063,365.625 33.2188,364.5625 Q32.5313,363.4844 32.5313,362.2031 L32.5313,361.0469 Q32.5313,359.7188 33.1406,358.5781 Q33.7656,357.4219 34.8594,356.8125 Q35.9531,356.1875 37.1875,356.1875 Q37.9219,356.1875 38.5625,356.3594 Q39.2188,356.5156 39.7656,356.875 Z " fill="#000000"/><text fill="#000000" font-family="sans-serif" font-size="14" lengthAdjust="spacing" textLength="54" x="59" y="366.7285">Location</text><line style="stroke:#181818;stroke-width:0.5;" x1="23" x2="123" y1="377" y2="377"/><line style="stroke:#181818;stroke-width:0.5;" x1="23" x2="123" y1="385" y2="385"/></g><!--class World--><g id="elem_World"><rect codeLine="71" fill="#F1F1F1" height="48" id="World" rx="2.5" ry="2.5" style="stroke:#181818;stroke-width:0.5;" width="89" x="28.5" y="112.5"/><ellipse cx="43.5" cy="128.5" fill="#ADD1B2" rx="11" ry="11" style="stroke:#181818;stroke-width:1.0;"/><path d="M46.2656,124.375 Q46.4219,124.1563 46.6094,124.0469 Q46.7969,123.9375 47.0156,123.9375 Q47.3906,123.9375 47.625,124.2031 Q47.8594,124.4531 47.8594,125.0625 L47.8594,126.5156 Q47.8594,127.125 47.625,127.3906 Q47.3906,127.6563 47.0156,127.6563 Q46.6719,127.6563 46.4688,127.4531 Q46.2656,127.2656 46.1563,126.75 Q46.1094,126.3906 45.9219,126.2031 Q45.5938,125.8281 44.9844,125.6094 Q44.375,125.3906 43.75,125.3906 Q42.9844,125.3906 42.3438,125.7188 Q41.7188,126.0469 41.2188,126.7969 Q40.7344,127.5469 40.7344,128.5781 L40.7344,129.6719 Q40.7344,130.9063 41.625,131.7344 Q42.5156,132.5469 44.1094,132.5469 Q45.0469,132.5469 45.7031,132.2969 Q46.0938,132.1406 46.5156,131.7031 Q46.7813,131.4375 46.9219,131.3594 Q47.0781,131.2813 47.2813,131.2813 Q47.6094,131.2813 47.8594,131.5469 Q48.125,131.7969 48.125,132.1406 Q48.125,132.4844 47.7813,132.8906 Q47.2813,133.4688 46.4844,133.7969 Q45.4063,134.25 44.1094,134.25 Q42.5938,134.25 41.3906,133.625 Q40.4063,133.125 39.7188,132.0625 Q39.0313,130.9844 39.0313,129.7031 L39.0313,128.5469 Q39.0313,127.2188 39.6406,126.0781 Q40.2656,124.9219 41.3594,124.3125 Q42.4531,123.6875 43.6875,123.6875 Q44.4219,123.6875 45.0625,123.8594 Q45.7188,124.0156 46.2656,124.375 Z " fill="#000000"/><text fill="#000000" font-family="sans-serif" font-size="14" lengthAdjust="spacing" textLength="37" x="69.5" y="134.2285">World</text><line style="stroke:#181818;stroke-width:0.5;" x1="29.5" x2="116.5" y1="144.5" y2="144.5"/><line style="stroke:#181818;stroke-width:0.5;" x1="29.5" x2="116.5" y1="152.5" y2="152.5"/></g><!--reverse link Action to MoveAction--><g id="link_Action_MoveAction"><path codeLine="12" d="M729.3404,428.7313 C734.0004,461.5513 737.85,488.64 741.68,515.63 " fill="none" id="Action-backto-MoveAction" style="stroke:#181818;stroke-width:1.0;"/><polygon fill="none" points="726.81,410.91,723.4,429.5747,735.2808,427.8878,726.81,410.91" style="stroke:#181818;stroke-width:1.0;"/></g><!--reverse link Action to SkipTurnAction--><g id="link_Action_SkipTurnAction"><path codeLine="16" d="M675.6266,424.7712 C648.4366,457.5912 622.72,488.64 600.36,515.63 " fill="none" id="Action-backto-SkipTurnAction" style="stroke:#181818;stroke-width:1.0;"/><polygon fill="none" points="687.11,410.91,671.0062,420.9434,680.247,428.599,687.11,410.91" style="stroke:#181818;stroke-width:1.0;"/></g><!--reverse link SelectActionStrategy to SelectAggressiveAction--><g id="link_SelectActionStrategy_SelectAggressiveAction"><path codeLine="31" d="M270.7262,588.5136 C259.2262,607.1736 254.25,615.27 242.76,633.92 " fill="none" id="SelectActionStrategy-backto-SelectAggressiveAction" style="stroke:#181818;stroke-width:1.0;"/><polygon fill="none" points="280.17,573.19,265.6183,585.3657,275.834,591.6616,280.17,573.19" style="stroke:#181818;stroke-width:1.0;"/></g><!--reverse link SelectActionStrategy to SelectActionInteractively--><g id="link_SelectActionStrategy_SelectActionInteractively"><path codeLine="32" d="M396.916,579.7064 C443.736,598.4064 485.91,615.24 532.74,633.95 " fill="none" id="SelectActionStrategy-backto-SelectActionInteractively" style="stroke:#181818;stroke-width:1.0;"/><polygon fill="none" points="380.2,573.03,394.6906,585.2784,399.1415,574.1344,380.2,573.03" style="stroke:#181818;stroke-width:1.0;"/></g><!--link Player to SelectActionStrategy--><g id="link_Player_SelectActionStrategy"><path codeLine="44" d="M381.91,446.1 C363.06,467.47 347.5474,485.0689 332.3074,502.3589 " fill="none" id="Player-to-SelectActionStrategy" style="stroke:#181818;stroke-width:1.0;"/><polygon fill="#181818" points="328.34,506.86,337.2918,502.7533,331.6462,503.1091,331.2904,497.4634,328.34,506.86" style="stroke:#181818;stroke-width:1.0;"/><text fill="#000000" font-family="sans-serif" font-size="13" lengthAdjust="spacing" textLength="7" x="321.6382" y="495.9465">1</text></g><!--link Pawn to Player--><g id="link_Pawn_Player"><path codeLine="51" d="M386.6923,183.8637 C397.3123,215.2637 406.5523,242.5736 419.3923,280.5036 " fill="none" id="Pawn-Player" style="stroke:#181818;stroke-width:1.0;"/><polygon fill="#181818" points="384.77,178.18,383.8643,187.9871,386.3719,182.9164,391.4426,185.424,384.77,178.18" style="stroke:#181818;stroke-width:1.0;"/><polygon fill="#181818" points="423.24,291.87,425.1049,284.9042,419.3923,280.5036,417.5273,287.4694,423.24,291.87" style="stroke:#181818;stroke-width:1.0;"/></g><!--link Player to Action--><g id="link_Player_Action"><path codeLine="52" d="M592.7,369 C604.4,369 610.09,369 621.78,369 " fill="none" id="Player-to-Action" style="stroke:#181818;stroke-width:1.0;stroke-dasharray:7.0,7.0;"/><polygon fill="#181818" points="627.78,369,618.78,365,622.78,369,618.78,373,627.78,369" style="stroke:#181818;stroke-width:1.0;"/></g><!--link Pawn to ActionKind--><g id="link_Pawn_ActionKind"><path codeLine="65" d="M512.25,136.5 C523.95,136.5 529.64,136.5 541.34,136.5 " fill="none" id="Pawn-to-ActionKind" style="stroke:#181818;stroke-width:1.0;"/><polygon fill="#181818" points="547.34,136.5,538.34,132.5,542.34,136.5,538.34,140.5,547.34,136.5" style="stroke:#181818;stroke-width:1.0;"/><text fill="#000000" font-family="sans-serif" font-size="13" lengthAdjust="spacing" textLength="5" x="530.4425" y="132.9036">*</text></g><!--reverse link Location to Location--><g id="link_Location_Location"><path codeLine="69" d="M136.203,348.7614 C155.283,348.1114 159,355.13 159,369 C159,382.87 143.29,389.48 124.21,388.83 " fill="none" id="Location-backto-Location" style="stroke:#181818;stroke-width:1.0;"/><polygon fill="none" points="124.21,349.17,130.3427,352.9634,136.203,348.7614,130.0703,344.968,124.21,349.17" style="stroke:#181818;stroke-width:1.0;"/><text fill="#000000" font-family="sans-serif" font-size="13" lengthAdjust="spacing" textLength="116" x="165" y="374.4951">connectedLocations</text></g><!--link World to Location--><g id="link_World_Location"><path codeLine="74" d="M73,172.87 C73,217.16 73,294.84 73,338.91 " fill="none" id="World-Location" style="stroke:#181818;stroke-width:1.0;"/><polygon fill="#181818" points="73,160.87,69,166.87,73,172.87,77,166.87,73,160.87" style="stroke:#181818;stroke-width:1.0;"/><polygon fill="#181818" points="73,344.91,77,335.91,73,339.91,69,335.91,73,344.91" style="stroke:#181818;stroke-width:1.0;"/><text fill="#000000" font-family="sans-serif" font-size="13" lengthAdjust="spacing" textLength="5" x="62.3344" y="334.2271">*</text></g><!--link Pawn to Location--><g id="link_Pawn_Location"><path codeLine="75" d="M318.41,178.18 C255.75,226.64 157.9759,302.269 107.5959,341.239 " fill="none" id="Pawn-to-Location" style="stroke:#181818;stroke-width:1.0;"/><polygon fill="#181818" points="102.85,344.91,112.4162,342.5674,106.8049,341.8508,107.5215,336.2395,102.85,344.91" style="stroke:#181818;stroke-width:1.0;"/><text fill="#000000" font-family="sans-serif" font-size="13" lengthAdjust="spacing" textLength="7" x="102.6022" y="334.2271">1</text></g><!--SRC=[hLHBYzim4BxxLuZqOYTroXvwyGP3oq8Rsj9j4-XPjYTUDOfa93aXUFFVAzcoBJy2FQmWM3FppUkBPWgS7d4EQ86pCp1L2eYYyyTqWIhFG_eedeDw0Q5bP4zAiPJeKwe8PuxQd1MgS2ALmAcweIUGgI25WVb1XBIQiFm-_1d4WOkJJvXK9CUAYmWzumiBEfURDwfXWT0FVWPRYXQnT1MLuzdU77DO5k5hR1kPXjuTIR4l1RFeElX8DvTW11acSRfe6xVvTa0XLGrifmqAygiJVy2KY_KBYgzWgAg_xn6krJAoAMKGpIGVvCnp0LAI6TfMRvsgjcwP0jE8paYlRvnjbiRDQvZn2mllDFp_ZjFoFRV9fbBqZX86wuJJB7h2ulYPbl2Ow36BACbVLAB5GTDVG9bdRaR4V1tB7X_1F2K_6C6vhZwXjdpfTqn81xT9uW6TT-dRV4XYnwyTmmRVWe8fOdjewvZ5sZ_4SjBm6EifUZ2ZDKFsW4ZDWyDHY1W-mMI3hEfXtlFlFCLrYmmkxJr2xMskcgMPohYdspxypPh2GQqjgl40Lfwi_HjXcLDL_umwrLVCCWe_ax-wkru9j3YKj9Etx0pDXeF1Lkg4NoNflNzhx6It35eoN8N2FAsQtwN-zVMwhEfjsP9YTsKdLbw_n3eb3qFKyvbondHRaBKgEOgD_d11CnkvkLTkeOrg6NPLje6SDhGDBHuSq-qV]--></g></svg>