<?xml version="1.0" encoding="us-ascii" standalone="no"?><svg xmlns="http://www.w3.org/2000/svg" xmlns:xlink="http://www.w3.org/1999/xlink" contentStyleType="text/css" height="331px" preserveAspectRatio="none" style="width:438px;height:331px;background:#FFFFFF;" version="1.1" viewBox="0 0 438 331" width="438px" zoomAndPan="magnify"><defs/><g><!--class PV--><g id="elem_PV"><rect codeLine="2" fill="#F1F1F1" height="32" id="PV" rx="2.5" ry="2.5" style="stroke:#181818;stroke-width:0.5;" width="153" x="132.5" y="7"/><ellipse cx="147.5" cy="23" fill="#F1F1F1" rx="11" ry="11" style="stroke:#181818;stroke-width:1.0;"/><path d="M148.125,24.5469 L148.125,26.2969 L149.8281,26.2969 Q150.4531,26.2969 150.7031,26.5313 Q150.9688,26.7656 150.9688,27.1563 Q150.9688,27.5313 150.7031,27.7656 Q150.4531,28 149.8281,28 L146.1563,28 Q145.5313,28 145.2656,27.7656 Q145.0156,27.5313 145.0156,27.1406 Q145.0156,26.7656 145.2813,26.5313 Q145.5469,26.2969 146.1563,26.2969 L146.4219,26.2969 L146.4219,19.6406 L146.1563,19.6406 Q145.5313,19.6406 145.2656,19.4063 Q145.0156,19.1719 145.0156,18.7813 Q145.0156,18.4063 145.2656,18.1719 Q145.5313,17.9375 146.1563,17.9375 L150.0625,17.9375 Q151.7969,17.9375 152.7969,18.8906 Q153.8125,19.8281 153.8125,21.1719 Q153.8125,21.9219 153.4688,22.5938 Q153.2188,23.0781 152.6094,23.5781 Q152.0156,24.0625 151.375,24.3125 Q150.75,24.5469 149.7344,24.5469 L148.125,24.5469 Z M148.125,22.8438 L149.6875,22.8438 Q150.8125,22.8438 151.4531,22.3438 Q152.1094,21.8438 152.1094,21.1406 Q152.1094,20.5313 151.5781,20.0938 Q151.0625,19.6406 150.0781,19.6406 L148.125,19.6406 L148.125,22.8438 Z " fill="#000000"/><text fill="#000000" font-family="sans-serif" font-size="14" lengthAdjust="spacing" textLength="121" x="161.5" y="28.7285">Protected Variation</text></g><!--class LC--><g id="elem_LC"><rect codeLine="3" fill="#F1F1F1" height="32" id="LC" rx="2.5" ry="2.5" style="stroke:#181818;stroke-width:0.5;" width="117" x="150.5" y="99"/><ellipse cx="165.5" cy="115" fill="#F1F1F1" rx="11" ry="11" style="stroke:#181818;stroke-width:1.0;"/><path d="M166.125,116.5469 L166.125,118.2969 L167.8281,118.2969 Q168.4531,118.2969 168.7031,118.5313 Q168.9688,118.7656 168.9688,119.1563 Q168.9688,119.5313 168.7031,119.7656 Q168.4531,120 167.8281,120 L164.1563,120 Q163.5313,120 163.2656,119.7656 Q163.0156,119.5313 163.0156,119.1406 Q163.0156,118.7656 163.2813,118.5313 Q163.5469,118.2969 164.1563,118.2969 L164.4219,118.2969 L164.4219,111.6406 L164.1563,111.6406 Q163.5313,111.6406 163.2656,111.4063 Q163.0156,111.1719 163.0156,110.7813 Q163.0156,110.4063 163.2656,110.1719 Q163.5313,109.9375 164.1563,109.9375 L168.0625,109.9375 Q169.7969,109.9375 170.7969,110.8906 Q171.8125,111.8281 171.8125,113.1719 Q171.8125,113.9219 171.4688,114.5938 Q171.2188,115.0781 170.6094,115.5781 Q170.0156,116.0625 169.375,116.3125 Q168.75,116.5469 167.7344,116.5469 L166.125,116.5469 Z M166.125,114.8438 L167.6875,114.8438 Q168.8125,114.8438 169.4531,114.3438 Q170.1094,113.8438 170.1094,113.1406 Q170.1094,112.5313 169.5781,112.0938 Q169.0625,111.6406 168.0781,111.6406 L166.125,111.6406 L166.125,114.8438 Z " fill="#000000"/><text fill="#000000" font-family="sans-serif" font-size="14" lengthAdjust="spacing" textLength="85" x="179.5" y="120.7285">Low Coupling</text></g><!--class P--><g id="elem_P"><rect codeLine="4" fill="#F1F1F1" height="32" id="P" rx="2.5" ry="2.5" style="stroke:#181818;stroke-width:0.5;" width="120" x="7" y="191"/><ellipse cx="22" cy="207" fill="#F1F1F1" rx="11" ry="11" style="stroke:#181818;stroke-width:1.0;"/><path d="M22.625,208.5469 L22.625,210.2969 L24.3281,210.2969 Q24.9531,210.2969 25.2031,210.5313 Q25.4688,210.7656 25.4688,211.1563 Q25.4688,211.5313 25.2031,211.7656 Q24.9531,212 24.3281,212 L20.6563,212 Q20.0313,212 19.7656,211.7656 Q19.5156,211.5313 19.5156,211.1406 Q19.5156,210.7656 19.7813,210.5313 Q20.0469,210.2969 20.6563,210.2969 L20.9219,210.2969 L20.9219,203.6406 L20.6563,203.6406 Q20.0313,203.6406 19.7656,203.4063 Q19.5156,203.1719 19.5156,202.7813 Q19.5156,202.4063 19.7656,202.1719 Q20.0313,201.9375 20.6563,201.9375 L24.5625,201.9375 Q26.2969,201.9375 27.2969,202.8906 Q28.3125,203.8281 28.3125,205.1719 Q28.3125,205.9219 27.9688,206.5938 Q27.7188,207.0781 27.1094,207.5781 Q26.5156,208.0625 25.875,208.3125 Q25.25,208.5469 24.2344,208.5469 L22.625,208.5469 Z M22.625,206.8438 L24.1875,206.8438 Q25.3125,206.8438 25.9531,206.3438 Q26.6094,205.8438 26.6094,205.1406 Q26.6094,204.5313 26.0781,204.0938 Q25.5625,203.6406 24.5781,203.6406 L22.625,203.6406 L22.625,206.8438 Z " fill="#000000"/><text fill="#000000" font-family="sans-serif" font-size="14" lengthAdjust="spacing" textLength="88" x="36" y="212.7285">Polymorphism</text></g><!--class I--><g id="elem_I"><rect codeLine="5" fill="#F1F1F1" height="32" id="I" rx="2.5" ry="2.5" style="stroke:#181818;stroke-width:0.5;" width="97" x="162.5" y="191"/><ellipse cx="177.5" cy="207" fill="#F1F1F1" rx="11" ry="11" style="stroke:#181818;stroke-width:1.0;"/><path d="M178.125,208.5469 L178.125,210.2969 L179.8281,210.2969 Q180.4531,210.2969 180.7031,210.5313 Q180.9688,210.7656 180.9688,211.1563 Q180.9688,211.5313 180.7031,211.7656 Q180.4531,212 179.8281,212 L176.1563,212 Q175.5313,212 175.2656,211.7656 Q175.0156,211.5313 175.0156,211.1406 Q175.0156,210.7656 175.2813,210.5313 Q175.5469,210.2969 176.1563,210.2969 L176.4219,210.2969 L176.4219,203.6406 L176.1563,203.6406 Q175.5313,203.6406 175.2656,203.4063 Q175.0156,203.1719 175.0156,202.7813 Q175.0156,202.4063 175.2656,202.1719 Q175.5313,201.9375 176.1563,201.9375 L180.0625,201.9375 Q181.7969,201.9375 182.7969,202.8906 Q183.8125,203.8281 183.8125,205.1719 Q183.8125,205.9219 183.4688,206.5938 Q183.2188,207.0781 182.6094,207.5781 Q182.0156,208.0625 181.375,208.3125 Q180.75,208.5469 179.7344,208.5469 L178.125,208.5469 Z M178.125,206.8438 L179.6875,206.8438 Q180.8125,206.8438 181.4531,206.3438 Q182.1094,205.8438 182.1094,205.1406 Q182.1094,204.5313 181.5781,204.0938 Q181.0625,203.6406 180.0781,203.6406 L178.125,203.6406 L178.125,206.8438 Z " fill="#000000"/><text fill="#000000" font-family="sans-serif" font-size="14" lengthAdjust="spacing" textLength="65" x="191.5" y="212.7285">Indirection</text></g><!--class PF--><g id="elem_PF"><rect codeLine="6" fill="#F1F1F1" height="32" id="PF" rx="2.5" ry="2.5" style="stroke:#181818;stroke-width:0.5;" width="137" x="294.5" y="191"/><ellipse cx="309.5" cy="207" fill="#F1F1F1" rx="11" ry="11" style="stroke:#181818;stroke-width:1.0;"/><path d="M310.125,208.5469 L310.125,210.2969 L311.8281,210.2969 Q312.4531,210.2969 312.7031,210.5313 Q312.9688,210.7656 312.9688,211.1563 Q312.9688,211.5313 312.7031,211.7656 Q312.4531,212 311.8281,212 L308.1563,212 Q307.5313,212 307.2656,211.7656 Q307.0156,211.5313 307.0156,211.1406 Q307.0156,210.7656 307.2813,210.5313 Q307.5469,210.2969 308.1563,210.2969 L308.4219,210.2969 L308.4219,203.6406 L308.1563,203.6406 Q307.5313,203.6406 307.2656,203.4063 Q307.0156,203.1719 307.0156,202.7813 Q307.0156,202.4063 307.2656,202.1719 Q307.5313,201.9375 308.1563,201.9375 L312.0625,201.9375 Q313.7969,201.9375 314.7969,202.8906 Q315.8125,203.8281 315.8125,205.1719 Q315.8125,205.9219 315.4688,206.5938 Q315.2188,207.0781 314.6094,207.5781 Q314.0156,208.0625 313.375,208.3125 Q312.75,208.5469 311.7344,208.5469 L310.125,208.5469 Z M310.125,206.8438 L311.6875,206.8438 Q312.8125,206.8438 313.4531,206.3438 Q314.1094,205.8438 314.1094,205.1406 Q314.1094,204.5313 313.5781,204.0938 Q313.0625,203.6406 312.0781,203.6406 L310.125,203.6406 L310.125,206.8438 Z " fill="#000000"/><text fill="#000000" font-family="sans-serif" font-size="14" lengthAdjust="spacing" textLength="105" x="323.5" y="212.7285">Pure Fabrication</text></g><!--class HC--><g id="elem_HC"><rect codeLine="7" fill="#F1F1F1" height="32" id="HC" rx="2.5" ry="2.5" style="stroke:#181818;stroke-width:0.5;" width="124" x="303" y="99"/><ellipse cx="318" cy="115" fill="#F1F1F1" rx="11" ry="11" style="stroke:#181818;stroke-width:1.0;"/><path d="M318.625,116.5469 L318.625,118.2969 L320.3281,118.2969 Q320.9531,118.2969 321.2031,118.5313 Q321.4688,118.7656 321.4688,119.1563 Q321.4688,119.5313 321.2031,119.7656 Q320.9531,120 320.3281,120 L316.6563,120 Q316.0313,120 315.7656,119.7656 Q315.5156,119.5313 315.5156,119.1406 Q315.5156,118.7656 315.7813,118.5313 Q316.0469,118.2969 316.6563,118.2969 L316.9219,118.2969 L316.9219,111.6406 L316.6563,111.6406 Q316.0313,111.6406 315.7656,111.4063 Q315.5156,111.1719 315.5156,110.7813 Q315.5156,110.4063 315.7656,110.1719 Q316.0313,109.9375 316.6563,109.9375 L320.5625,109.9375 Q322.2969,109.9375 323.2969,110.8906 Q324.3125,111.8281 324.3125,113.1719 Q324.3125,113.9219 323.9688,114.5938 Q323.7188,115.0781 323.1094,115.5781 Q322.5156,116.0625 321.875,116.3125 Q321.25,116.5469 320.2344,116.5469 L318.625,116.5469 Z M318.625,114.8438 L320.1875,114.8438 Q321.3125,114.8438 321.9531,114.3438 Q322.6094,113.8438 322.6094,113.1406 Q322.6094,112.5313 322.0781,112.0938 Q321.5625,111.6406 320.5781,111.6406 L318.625,111.6406 L318.625,114.8438 Z " fill="#000000"/><text fill="#000000" font-family="sans-serif" font-size="14" lengthAdjust="spacing" textLength="92" x="332" y="120.7285">High Cohesion</text></g><!--class A--><g id="elem_A"><rect codeLine="8" fill="#F1F1F1" height="42.7031" id="A" rx="2.5" ry="2.5" style="stroke:#181818;stroke-width:0.5;" width="82" x="170" y="283"/><ellipse cx="185" cy="304.3516" fill="#F1F1F1" rx="11" ry="11" style="stroke:#181818;stroke-width:1.0;"/><path d="M185.625,305.8984 L185.625,307.6484 L187.3281,307.6484 Q187.9531,307.6484 188.2031,307.8828 Q188.4688,308.1172 188.4688,308.5078 Q188.4688,308.8828 188.2031,309.1172 Q187.9531,309.3516 187.3281,309.3516 L183.6563,309.3516 Q183.0313,309.3516 182.7656,309.1172 Q182.5156,308.8828 182.5156,308.4922 Q182.5156,308.1172 182.7813,307.8828 Q183.0469,307.6484 183.6563,307.6484 L183.9219,307.6484 L183.9219,300.9922 L183.6563,300.9922 Q183.0313,300.9922 182.7656,300.7578 Q182.5156,300.5234 182.5156,300.1328 Q182.5156,299.7578 182.7656,299.5234 Q183.0313,299.2891 183.6563,299.2891 L187.5625,299.2891 Q189.2969,299.2891 190.2969,300.2422 Q191.3125,301.1797 191.3125,302.5234 Q191.3125,303.2734 190.9688,303.9453 Q190.7188,304.4297 190.1094,304.9297 Q189.5156,305.4141 188.875,305.6641 Q188.25,305.8984 187.2344,305.8984 L185.625,305.8984 Z M185.625,304.1953 L187.1875,304.1953 Q188.3125,304.1953 188.9531,303.6953 Q189.6094,303.1953 189.6094,302.4922 Q189.6094,301.8828 189.0781,301.4453 Q188.5625,300.9922 187.5781,300.9922 L185.625,300.9922 L185.625,304.1953 Z " fill="#000000"/><text fill="#000000" font-family="sans-serif" font-size="12" font-style="italic" lengthAdjust="spacing" textLength="37" x="205.5" y="300.457">&#171;GoF&#187;</text><text fill="#000000" font-family="sans-serif" font-size="14" lengthAdjust="spacing" textLength="50" x="199" y="317.627">Adapter</text></g><!--reverse link PV to LC--><g id="link_PV_LC"><path codeLine="10" d="M209,57.27 C209,73.92 209,82.4 209,98.96 " fill="none" id="PV-backto-LC" style="stroke:#181818;stroke-width:1.0;"/><polygon fill="none" points="209,39.27,203,57.27,215,57.27,209,39.27" style="stroke:#181818;stroke-width:1.0;"/></g><!--reverse link LC to P--><g id="link_LC_P"><path codeLine="11" d="M170.0286,140.6994 C143.8186,157.3194 117.09,174.25 90.85,190.89 " fill="none" id="LC-backto-P" style="stroke:#181818;stroke-width:1.0;"/><polygon fill="none" points="185.23,131.06,166.8155,135.6322,173.2417,145.7665,185.23,131.06" style="stroke:#181818;stroke-width:1.0;"/></g><!--reverse link LC to I--><g id="link_LC_I"><path codeLine="12" d="M209.7399,149.2656 C210.1099,165.9156 210.3,174.4 210.67,190.96 " fill="none" id="LC-backto-I" style="stroke:#181818;stroke-width:1.0;"/><polygon fill="none" points="209.34,131.27,203.7414,149.3989,215.7384,149.1323,209.34,131.27" style="stroke:#181818;stroke-width:1.0;"/></g><!--reverse link LC to PF--><g id="link_LC_PF"><path codeLine="13" d="M250.3181,140.1467 C278.7381,156.7667 308.68,174.25 337.14,190.89 " fill="none" id="LC-backto-PF" style="stroke:#181818;stroke-width:1.0;"/><polygon fill="none" points="234.78,131.06,247.2892,145.326,253.347,134.9673,234.78,131.06" style="stroke:#181818;stroke-width:1.0;"/></g><!--link LC to HC--><!--reverse link HC to PF--><g id="link_HC_PF"><path codeLine="15" d="M364.2601,149.2656 C363.8901,165.9156 363.7,174.4 363.33,190.96 " fill="none" id="HC-backto-PF" style="stroke:#181818;stroke-width:1.0;"/><polygon fill="none" points="364.66,131.27,358.2616,149.1323,370.2586,149.3989,364.66,131.27" style="stroke:#181818;stroke-width:1.0;"/></g><!--reverse link P to A--><g id="link_P_A"><path codeLine="16" d="M104.8187,233.0819 C129.1587,249.2319 152.88,264.96 179.98,282.93 " fill="none" id="P-backto-A" style="stroke:#181818;stroke-width:1.0;"/><polygon fill="none" points="89.82,223.13,101.5014,238.0814,108.136,228.0823,89.82,223.13" style="stroke:#181818;stroke-width:1.0;"/></g><!--reverse link I to A--><g id="link_I_A"><path codeLine="17" d="M211,241.34 C211,257.48 211,264.96 211,282.85 " fill="none" id="I-backto-A" style="stroke:#181818;stroke-width:1.0;"/><polygon fill="none" points="211,223.34,205,241.34,217,241.34,211,223.34" style="stroke:#181818;stroke-width:1.0;"/></g><!--reverse link PF to A--><g id="link_PF_A"><path codeLine="18" d="M323.6794,232.7073 C297.9794,248.8573 272.35,264.96 243.74,282.93 " fill="none" id="PF-backto-A" style="stroke:#181818;stroke-width:1.0;"/><polygon fill="none" points="338.92,223.13,320.487,227.6271,326.8718,237.7875,338.92,223.13" style="stroke:#181818;stroke-width:1.0;"/></g><!--SRC=[LOwn2eCm443tVCNXxX-8849gm26JI-aGpQ41amjHaK8_lcgnnYsFTtSlFj1C7OsGoEs5tOmQ6XMCcWsv1DG4ic7-FrJJ2YKjVZIkFsnTHbRI-BOK_60c-zkDf73QX2rmtXNnuX8Gk6g3wQ8mZoOgqmzRUS3fr5LSBhJoCuP3591b3-9vpfXi8FkacbQNxZ-jomlbZSJTyHtJvs2qHlVQKzLTouiA9cAGF2QsdK2mQ5iC4_i2]--></g></svg>