<?xml version="1.0" encoding="us-ascii" standalone="no"?><svg xmlns="http://www.w3.org/2000/svg" xmlns:xlink="http://www.w3.org/1999/xlink" contentStyleType="text/css" height="666px" preserveAspectRatio="none" style="width:837px;height:666px;background:#FFFFFF;" version="1.1" viewBox="0 0 837 666" width="837px" zoomAndPan="magnify"><defs/><g><!--cluster adventure::v5b--><g id="cluster_adventure::v5b"><path d="M8.5,6 L116.5,6 A3.75,3.75 0 0 1 119,8.5 L126,29.6094 L827.5,29.6094 A2.5,2.5 0 0 1 830,32.1094 L830,656.5 A2.5,2.5 0 0 1 827.5,659 L8.5,659 A2.5,2.5 0 0 1 6,656.5 L6,8.5 A2.5,2.5 0 0 1 8.5,6 " fill="none" style="stroke:#000000;stroke-width:1.5;"/><line style="stroke:#000000;stroke-width:1.5;" x1="6" x2="126" y1="29.6094" y2="29.6094"/><text fill="#000000" font-family="sans-serif" font-size="14" font-weight="bold" lengthAdjust="spacing" textLength="107" x="10" y="22.5332">adventure::v5b</text></g><!--class Action--><g id="elem_Action"><rect codeLine="5" fill="#F1F1F1" height="83.2188" id="Action" rx="2.5" ry="2.5" style="stroke:#181818;stroke-width:0.5;" width="186" x="305" y="327.5"/><ellipse cx="374.25" cy="343.5" fill="#ADD1B2" rx="11" ry="11" style="stroke:#181818;stroke-width:1.0;"/><path d="M377.0156,339.375 Q377.1719,339.1563 377.3594,339.0469 Q377.5469,338.9375 377.7656,338.9375 Q378.1406,338.9375 378.375,339.2031 Q378.6094,339.4531 378.6094,340.0625 L378.6094,341.5156 Q378.6094,342.125 378.375,342.3906 Q378.1406,342.6563 377.7656,342.6563 Q377.4219,342.6563 377.2188,342.4531 Q377.0156,342.2656 376.9063,341.75 Q376.8594,341.3906 376.6719,341.2031 Q376.3438,340.8281 375.7344,340.6094 Q375.125,340.3906 374.5,340.3906 Q373.7344,340.3906 373.0938,340.7188 Q372.4688,341.0469 371.9688,341.7969 Q371.4844,342.5469 371.4844,343.5781 L371.4844,344.6719 Q371.4844,345.9063 372.375,346.7344 Q373.2656,347.5469 374.8594,347.5469 Q375.7969,347.5469 376.4531,347.2969 Q376.8438,347.1406 377.2656,346.7031 Q377.5313,346.4375 377.6719,346.3594 Q377.8281,346.2813 378.0313,346.2813 Q378.3594,346.2813 378.6094,346.5469 Q378.875,346.7969 378.875,347.1406 Q378.875,347.4844 378.5313,347.8906 Q378.0313,348.4688 377.2344,348.7969 Q376.1563,349.25 374.8594,349.25 Q373.3438,349.25 372.1406,348.625 Q371.1563,348.125 370.4688,347.0625 Q369.7813,345.9844 369.7813,344.7031 L369.7813,343.5469 Q369.7813,342.2188 370.3906,341.0781 Q371.0156,339.9219 372.1094,339.3125 Q373.2031,338.6875 374.4375,338.6875 Q375.1719,338.6875 375.8125,338.8594 Q376.4688,339.0156 377.0156,339.375 Z " fill="#000000"/><text fill="#000000" font-family="sans-serif" font-size="14" lengthAdjust="spacing" textLength="39" x="394.75" y="349.2285">Action</text><line style="stroke:#181818;stroke-width:0.5;" x1="306" x2="490" y1="359.5" y2="359.5"/><line style="stroke:#181818;stroke-width:0.5;" x1="306" x2="490" y1="367.5" y2="367.5"/><ellipse cx="316" cy="381.8047" fill="#84BE84" rx="3" ry="3" style="stroke:#038048;stroke-width:1.0;"/><text fill="#000000" font-family="sans-serif" font-size="14" font-style="italic" lengthAdjust="spacing" textLength="124" x="325" y="386.0332">Description(): string</text><ellipse cx="316" cy="399.4141" fill="#84BE84" rx="3" ry="3" style="stroke:#038048;stroke-width:1.0;"/><text fill="#000000" font-family="sans-serif" font-size="14" font-style="italic" lengthAdjust="spacing" textLength="160" x="325" y="403.6426">Perform(instigator: Pawn)</text></g><!--class MoveAction--><g id="elem_MoveAction"><rect codeLine="10" fill="#F1F1F1" height="48" id="MoveAction" rx="2.5" ry="2.5" style="stroke:#181818;stroke-width:0.5;" width="121" x="226.5" y="551"/><ellipse cx="241.5" cy="567" fill="#ADD1B2" rx="11" ry="11" style="stroke:#181818;stroke-width:1.0;"/><path d="M244.2656,562.875 Q244.4219,562.6563 244.6094,562.5469 Q244.7969,562.4375 245.0156,562.4375 Q245.3906,562.4375 245.625,562.7031 Q245.8594,562.9531 245.8594,563.5625 L245.8594,565.0156 Q245.8594,565.625 245.625,565.8906 Q245.3906,566.1563 245.0156,566.1563 Q244.6719,566.1563 244.4688,565.9531 Q244.2656,565.7656 244.1563,565.25 Q244.1094,564.8906 243.9219,564.7031 Q243.5938,564.3281 242.9844,564.1094 Q242.375,563.8906 241.75,563.8906 Q240.9844,563.8906 240.3438,564.2188 Q239.7188,564.5469 239.2188,565.2969 Q238.7344,566.0469 238.7344,567.0781 L238.7344,568.1719 Q238.7344,569.4063 239.625,570.2344 Q240.5156,571.0469 242.1094,571.0469 Q243.0469,571.0469 243.7031,570.7969 Q244.0938,570.6406 244.5156,570.2031 Q244.7813,569.9375 244.9219,569.8594 Q245.0781,569.7813 245.2813,569.7813 Q245.6094,569.7813 245.8594,570.0469 Q246.125,570.2969 246.125,570.6406 Q246.125,570.9844 245.7813,571.3906 Q245.2813,571.9688 244.4844,572.2969 Q243.4063,572.75 242.1094,572.75 Q240.5938,572.75 239.3906,572.125 Q238.4063,571.625 237.7188,570.5625 Q237.0313,569.4844 237.0313,568.2031 L237.0313,567.0469 Q237.0313,565.7188 237.6406,564.5781 Q238.2656,563.4219 239.3594,562.8125 Q240.4531,562.1875 241.6875,562.1875 Q242.4219,562.1875 243.0625,562.3594 Q243.7188,562.5156 244.2656,562.875 Z " fill="#000000"/><text fill="#000000" font-family="sans-serif" font-size="14" lengthAdjust="spacing" textLength="73" x="263.5" y="572.7285">MoveAction</text><line style="stroke:#181818;stroke-width:0.5;" x1="227.5" x2="346.5" y1="583" y2="583"/><line style="stroke:#181818;stroke-width:0.5;" x1="227.5" x2="346.5" y1="591" y2="591"/></g><!--class SkipTurnAction--><g id="elem_SkipTurnAction"><rect codeLine="14" fill="#F1F1F1" height="48" id="SkipTurnAction" rx="2.5" ry="2.5" style="stroke:#181818;stroke-width:0.5;" width="136" x="383" y="551"/><ellipse cx="398" cy="567" fill="#ADD1B2" rx="11" ry="11" style="stroke:#181818;stroke-width:1.0;"/><path d="M400.7656,562.875 Q400.9219,562.6563 401.1094,562.5469 Q401.2969,562.4375 401.5156,562.4375 Q401.8906,562.4375 402.125,562.7031 Q402.3594,562.9531 402.3594,563.5625 L402.3594,565.0156 Q402.3594,565.625 402.125,565.8906 Q401.8906,566.1563 401.5156,566.1563 Q401.1719,566.1563 400.9688,565.9531 Q400.7656,565.7656 400.6563,565.25 Q400.6094,564.8906 400.4219,564.7031 Q400.0938,564.3281 399.4844,564.1094 Q398.875,563.8906 398.25,563.8906 Q397.4844,563.8906 396.8438,564.2188 Q396.2188,564.5469 395.7188,565.2969 Q395.2344,566.0469 395.2344,567.0781 L395.2344,568.1719 Q395.2344,569.4063 396.125,570.2344 Q397.0156,571.0469 398.6094,571.0469 Q399.5469,571.0469 400.2031,570.7969 Q400.5938,570.6406 401.0156,570.2031 Q401.2813,569.9375 401.4219,569.8594 Q401.5781,569.7813 401.7813,569.7813 Q402.1094,569.7813 402.3594,570.0469 Q402.625,570.2969 402.625,570.6406 Q402.625,570.9844 402.2813,571.3906 Q401.7813,571.9688 400.9844,572.2969 Q399.9063,572.75 398.6094,572.75 Q397.0938,572.75 395.8906,572.125 Q394.9063,571.625 394.2188,570.5625 Q393.5313,569.4844 393.5313,568.2031 L393.5313,567.0469 Q393.5313,565.7188 394.1406,564.5781 Q394.7656,563.4219 395.8594,562.8125 Q396.9531,562.1875 398.1875,562.1875 Q398.9219,562.1875 399.5625,562.3594 Q400.2188,562.5156 400.7656,562.875 Z " fill="#000000"/><text fill="#000000" font-family="sans-serif" font-size="14" lengthAdjust="spacing" textLength="96" x="416" y="572.7285">SkipTurnAction</text><line style="stroke:#181818;stroke-width:0.5;" x1="384" x2="518" y1="583" y2="583"/><line style="stroke:#181818;stroke-width:0.5;" x1="384" x2="518" y1="591" y2="591"/></g><!--class PlayerStrategy--><g id="elem_PlayerStrategy"><rect codeLine="19" fill="#F1F1F1" height="136.0469" id="PlayerStrategy" rx="2.5" ry="2.5" style="stroke:#181818;stroke-width:0.5;" width="125" x="607.5" y="507"/><ellipse cx="622.5" cy="523" fill="#EB937F" rx="11" ry="11" style="stroke:#181818;stroke-width:1.0;"/><path d="M621.3594,523.7969 L621.3594,526.2969 L625.6875,526.2969 L625.6875,525.375 Q625.6875,524.7656 625.9219,524.5 Q626.1719,524.2344 626.5469,524.2344 Q626.9219,524.2344 627.1563,524.5 Q627.3906,524.7656 627.3906,525.375 L627.3906,528 L619.3906,528 Q618.7656,528 618.5,527.7656 Q618.25,527.5313 618.25,527.1406 Q618.25,526.7656 618.5156,526.5313 Q618.7813,526.2969 619.3906,526.2969 L619.6563,526.2969 L619.6563,519.6406 L619.3906,519.6406 Q618.7656,519.6406 618.5,519.4063 Q618.25,519.1719 618.25,518.7813 Q618.25,518.4063 618.5,518.1719 Q618.7656,517.9375 619.3906,517.9375 L627.0156,517.9375 L627.0156,520.5313 Q627.0156,521.1406 626.7813,521.4063 Q626.5625,521.6563 626.1719,521.6563 Q625.7969,521.6563 625.5625,521.4063 Q625.3281,521.1406 625.3281,520.5313 L625.3281,519.6406 L621.3594,519.6406 L621.3594,522.0938 L622.8438,522.0938 Q622.8438,521.4375 622.9688,521.25 Q623.2344,520.8438 623.7031,520.8438 Q624.0781,520.8438 624.3125,521.1094 Q624.5469,521.3594 624.5469,521.9688 L624.5469,523.9375 Q624.5469,524.4844 624.4219,524.6719 Q624.1563,525.0625 623.7031,525.0625 Q623.2344,525.0625 622.9688,524.6563 Q622.8438,524.4688 622.8438,523.7969 L621.3594,523.7969 Z " fill="#000000"/><text fill="#000000" font-family="sans-serif" font-size="14" lengthAdjust="spacing" textLength="93" x="636.5" y="528.7285">PlayerStrategy</text><line style="stroke:#181818;stroke-width:0.5;" x1="608.5" x2="731.5" y1="539" y2="539"/><text fill="#000000" font-family="sans-serif" font-size="14" lengthAdjust="spacing" textLength="65" x="613.5" y="557.5332">Interactive</text><text fill="#000000" font-family="sans-serif" font-size="14" lengthAdjust="spacing" textLength="66" x="613.5" y="575.1426">LastAction</text><text fill="#000000" font-family="sans-serif" font-size="14" lengthAdjust="spacing" textLength="92" x="613.5" y="592.752">RandomAction</text><text fill="#000000" font-family="sans-serif" font-size="14" lengthAdjust="spacing" textLength="70" x="613.5" y="610.3613">Aggressive</text><text fill="#000000" font-family="sans-serif" font-size="14" lengthAdjust="spacing" textLength="43" x="613.5" y="627.9707">Helpful</text><line style="stroke:#181818;stroke-width:0.5;" x1="608.5" x2="731.5" y1="635.0469" y2="635.0469"/></g><!--class Player--><g id="elem_Player"><rect codeLine="27" fill="#ADD8E6" height="153.6563" id="Player" rx="2.5" ry="2.5" style="stroke:#00008B;stroke-width:2.0;" width="287" x="526.5" y="292"/><ellipse cx="645.75" cy="308" fill="#ADD1B2" rx="11" ry="11" style="stroke:#181818;stroke-width:1.0;"/><path d="M648.5156,303.875 Q648.6719,303.6563 648.8594,303.5469 Q649.0469,303.4375 649.2656,303.4375 Q649.6406,303.4375 649.875,303.7031 Q650.1094,303.9531 650.1094,304.5625 L650.1094,306.0156 Q650.1094,306.625 649.875,306.8906 Q649.6406,307.1563 649.2656,307.1563 Q648.9219,307.1563 648.7188,306.9531 Q648.5156,306.7656 648.4063,306.25 Q648.3594,305.8906 648.1719,305.7031 Q647.8438,305.3281 647.2344,305.1094 Q646.625,304.8906 646,304.8906 Q645.2344,304.8906 644.5938,305.2188 Q643.9688,305.5469 643.4688,306.2969 Q642.9844,307.0469 642.9844,308.0781 L642.9844,309.1719 Q642.9844,310.4063 643.875,311.2344 Q644.7656,312.0469 646.3594,312.0469 Q647.2969,312.0469 647.9531,311.7969 Q648.3438,311.6406 648.7656,311.2031 Q649.0313,310.9375 649.1719,310.8594 Q649.3281,310.7813 649.5313,310.7813 Q649.8594,310.7813 650.1094,311.0469 Q650.375,311.2969 650.375,311.6406 Q650.375,311.9844 650.0313,312.3906 Q649.5313,312.9688 648.7344,313.2969 Q647.6563,313.75 646.3594,313.75 Q644.8438,313.75 643.6406,313.125 Q642.6563,312.625 641.9688,311.5625 Q641.2813,310.4844 641.2813,309.2031 L641.2813,308.0469 Q641.2813,306.7188 641.8906,305.5781 Q642.5156,304.4219 643.6094,303.8125 Q644.7031,303.1875 645.9375,303.1875 Q646.6719,303.1875 647.3125,303.3594 Q647.9688,303.5156 648.5156,303.875 Z " fill="#000000"/><text fill="#000000" font-family="sans-serif" font-size="14" lengthAdjust="spacing" textLength="40" x="666.25" y="313.7285">Player</text><line style="stroke:#00008B;stroke-width:2.0;" x1="527.5" x2="812.5" y1="324" y2="324"/><line style="stroke:#00008B;stroke-width:2.0;" x1="527.5" x2="812.5" y1="332" y2="332"/><ellipse cx="537.5" cy="346.3047" fill="#84BE84" rx="3" ry="3" style="stroke:#038048;stroke-width:1.0;"/><text fill="#000000" font-family="sans-serif" font-size="14" lengthAdjust="spacing" textLength="109" x="546.5" y="350.5332">GetPawn(): Pawn</text><ellipse cx="537.5" cy="363.9141" fill="#84BE84" rx="3" ry="3" style="stroke:#038048;stroke-width:1.0;"/><text fill="#000000" font-family="sans-serif" font-size="14" lengthAdjust="spacing" textLength="72" x="546.5" y="368.1426">TakeTurn()</text><ellipse cx="537.5" cy="381.5234" fill="#84BE84" rx="3" ry="3" style="stroke:#038048;stroke-width:1.0;"/><text fill="#000000" font-family="sans-serif" font-size="14" lengthAdjust="spacing" textLength="186" x="546.5" y="385.752">GetPossibleActions(): Actions</text><ellipse cx="537.5" cy="399.1328" fill="#84BE84" rx="3" ry="3" style="stroke:#038048;stroke-width:1.0;"/><text fill="#000000" font-family="sans-serif" font-size="14" font-weight="bold" lengthAdjust="spacing" textLength="261" x="546.5" y="403.3613">SelectAction(actions: Actions): Action</text><ellipse cx="537.5" cy="416.7422" fill="#84BE84" rx="3" ry="3" style="stroke:#038048;stroke-width:1.0;"/><text fill="#000000" font-family="sans-serif" font-size="14" lengthAdjust="spacing" textLength="145" x="546.5" y="420.9707">Perform(action: Action)</text><ellipse cx="537.5" cy="434.3516" fill="#84BE84" rx="3" ry="3" style="stroke:#038048;stroke-width:1.0;"/><text fill="#000000" font-family="sans-serif" font-size="14" lengthAdjust="spacing" textLength="205" x="546.5" y="438.5801">PerformIfPossible(action: Action)</text></g><!--class Pawn--><g id="elem_Pawn"><rect codeLine="38" fill="#F1F1F1" height="83.2188" id="Pawn" rx="2.5" ry="2.5" style="stroke:#181818;stroke-width:0.5;" width="282" x="275" y="95"/><ellipse cx="394.75" cy="111" fill="#ADD1B2" rx="11" ry="11" style="stroke:#181818;stroke-width:1.0;"/><path d="M397.5156,106.875 Q397.6719,106.6563 397.8594,106.5469 Q398.0469,106.4375 398.2656,106.4375 Q398.6406,106.4375 398.875,106.7031 Q399.1094,106.9531 399.1094,107.5625 L399.1094,109.0156 Q399.1094,109.625 398.875,109.8906 Q398.6406,110.1563 398.2656,110.1563 Q397.9219,110.1563 397.7188,109.9531 Q397.5156,109.7656 397.4063,109.25 Q397.3594,108.8906 397.1719,108.7031 Q396.8438,108.3281 396.2344,108.1094 Q395.625,107.8906 395,107.8906 Q394.2344,107.8906 393.5938,108.2188 Q392.9688,108.5469 392.4688,109.2969 Q391.9844,110.0469 391.9844,111.0781 L391.9844,112.1719 Q391.9844,113.4063 392.875,114.2344 Q393.7656,115.0469 395.3594,115.0469 Q396.2969,115.0469 396.9531,114.7969 Q397.3438,114.6406 397.7656,114.2031 Q398.0313,113.9375 398.1719,113.8594 Q398.3281,113.7813 398.5313,113.7813 Q398.8594,113.7813 399.1094,114.0469 Q399.375,114.2969 399.375,114.6406 Q399.375,114.9844 399.0313,115.3906 Q398.5313,115.9688 397.7344,116.2969 Q396.6563,116.75 395.3594,116.75 Q393.8438,116.75 392.6406,116.125 Q391.6563,115.625 390.9688,114.5625 Q390.2813,113.4844 390.2813,112.2031 L390.2813,111.0469 Q390.2813,109.7188 390.8906,108.5781 Q391.5156,107.4219 392.6094,106.8125 Q393.7031,106.1875 394.9375,106.1875 Q395.6719,106.1875 396.3125,106.3594 Q396.9688,106.5156 397.5156,106.875 Z " fill="#000000"/><text fill="#000000" font-family="sans-serif" font-size="14" lengthAdjust="spacing" textLength="34" x="415.25" y="116.7285">Pawn</text><line style="stroke:#181818;stroke-width:0.5;" x1="276" x2="556" y1="127" y2="127"/><rect fill="none" height="6" style="stroke:#C82930;stroke-width:1.0;" width="6" x="283" y="138.3047"/><text fill="#000000" font-family="sans-serif" font-size="14" lengthAdjust="spacing" textLength="78" x="295" y="145.5332">name: string</text><line style="stroke:#181818;stroke-width:0.5;" x1="276" x2="556" y1="152.6094" y2="152.6094"/><ellipse cx="286" cy="166.9141" fill="#84BE84" rx="3" ry="3" style="stroke:#038048;stroke-width:1.0;"/><text fill="#000000" font-family="sans-serif" font-size="14" lengthAdjust="spacing" textLength="256" x="295" y="171.1426">MoveToLocation(newLocation: Location)</text></g><!--class ActionKind--><g id="elem_ActionKind"><rect codeLine="46" fill="#F1F1F1" height="188.875" id="ActionKind" rx="2.5" ry="2.5" style="stroke:#181818;stroke-width:0.5;" width="99" x="592.5" y="42"/><ellipse cx="607.5" cy="58" fill="#EB937F" rx="11" ry="11" style="stroke:#181818;stroke-width:1.0;"/><path d="M606.3594,58.7969 L606.3594,61.2969 L610.6875,61.2969 L610.6875,60.375 Q610.6875,59.7656 610.9219,59.5 Q611.1719,59.2344 611.5469,59.2344 Q611.9219,59.2344 612.1563,59.5 Q612.3906,59.7656 612.3906,60.375 L612.3906,63 L604.3906,63 Q603.7656,63 603.5,62.7656 Q603.25,62.5313 603.25,62.1406 Q603.25,61.7656 603.5156,61.5313 Q603.7813,61.2969 604.3906,61.2969 L604.6563,61.2969 L604.6563,54.6406 L604.3906,54.6406 Q603.7656,54.6406 603.5,54.4063 Q603.25,54.1719 603.25,53.7813 Q603.25,53.4063 603.5,53.1719 Q603.7656,52.9375 604.3906,52.9375 L612.0156,52.9375 L612.0156,55.5313 Q612.0156,56.1406 611.7813,56.4063 Q611.5625,56.6563 611.1719,56.6563 Q610.7969,56.6563 610.5625,56.4063 Q610.3281,56.1406 610.3281,55.5313 L610.3281,54.6406 L606.3594,54.6406 L606.3594,57.0938 L607.8438,57.0938 Q607.8438,56.4375 607.9688,56.25 Q608.2344,55.8438 608.7031,55.8438 Q609.0781,55.8438 609.3125,56.1094 Q609.5469,56.3594 609.5469,56.9688 L609.5469,58.9375 Q609.5469,59.4844 609.4219,59.6719 Q609.1563,60.0625 608.7031,60.0625 Q608.2344,60.0625 607.9688,59.6563 Q607.8438,59.4688 607.8438,58.7969 L606.3594,58.7969 Z " fill="#000000"/><text fill="#000000" font-family="sans-serif" font-size="14" lengthAdjust="spacing" textLength="67" x="621.5" y="63.7285">ActionKind</text><line style="stroke:#181818;stroke-width:0.5;" x1="593.5" x2="690.5" y1="74" y2="74"/><text fill="#000000" font-family="sans-serif" font-size="14" lengthAdjust="spacing" textLength="70" x="598.5" y="92.5332">Aggressive</text><text fill="#000000" font-family="sans-serif" font-size="14" lengthAdjust="spacing" textLength="85" x="598.5" y="110.1426">HandleObject</text><text fill="#000000" font-family="sans-serif" font-size="14" lengthAdjust="spacing" textLength="43" x="598.5" y="127.752">Helpful</text><text fill="#000000" font-family="sans-serif" font-size="14" lengthAdjust="spacing" textLength="68" x="598.5" y="145.3613">Investigate</text><text fill="#000000" font-family="sans-serif" font-size="14" lengthAdjust="spacing" textLength="34" x="598.5" y="162.9707">Move</text><text fill="#000000" font-family="sans-serif" font-size="14" lengthAdjust="spacing" textLength="26" x="598.5" y="180.5801">Quit</text><text fill="#000000" font-family="sans-serif" font-size="14" lengthAdjust="spacing" textLength="29" x="598.5" y="198.1895">Rest</text><text fill="#000000" font-family="sans-serif" font-size="14" lengthAdjust="spacing" textLength="57" x="598.5" y="215.7988">SkipTurn</text><line style="stroke:#181818;stroke-width:0.5;" x1="593.5" x2="690.5" y1="222.875" y2="222.875"/></g><!--class Location--><g id="elem_Location"><rect codeLine="59" fill="#F1F1F1" height="48" id="Location" rx="2.5" ry="2.5" style="stroke:#181818;stroke-width:0.5;" width="102" x="22" y="345"/><ellipse cx="37" cy="361" fill="#ADD1B2" rx="11" ry="11" style="stroke:#181818;stroke-width:1.0;"/><path d="M39.7656,356.875 Q39.9219,356.6563 40.1094,356.5469 Q40.2969,356.4375 40.5156,356.4375 Q40.8906,356.4375 41.125,356.7031 Q41.3594,356.9531 41.3594,357.5625 L41.3594,359.0156 Q41.3594,359.625 41.125,359.8906 Q40.8906,360.1563 40.5156,360.1563 Q40.1719,360.1563 39.9688,359.9531 Q39.7656,359.7656 39.6563,359.25 Q39.6094,358.8906 39.4219,358.7031 Q39.0938,358.3281 38.4844,358.1094 Q37.875,357.8906 37.25,357.8906 Q36.4844,357.8906 35.8438,358.2188 Q35.2188,358.5469 34.7188,359.2969 Q34.2344,360.0469 34.2344,361.0781 L34.2344,362.1719 Q34.2344,363.4063 35.125,364.2344 Q36.0156,365.0469 37.6094,365.0469 Q38.5469,365.0469 39.2031,364.7969 Q39.5938,364.6406 40.0156,364.2031 Q40.2813,363.9375 40.4219,363.8594 Q40.5781,363.7813 40.7813,363.7813 Q41.1094,363.7813 41.3594,364.0469 Q41.625,364.2969 41.625,364.6406 Q41.625,364.9844 41.2813,365.3906 Q40.7813,365.9688 39.9844,366.2969 Q38.9063,366.75 37.6094,366.75 Q36.0938,366.75 34.8906,366.125 Q33.9063,365.625 33.2188,364.5625 Q32.5313,363.4844 32.5313,362.2031 L32.5313,361.0469 Q32.5313,359.7188 33.1406,358.5781 Q33.7656,357.4219 34.8594,356.8125 Q35.9531,356.1875 37.1875,356.1875 Q37.9219,356.1875 38.5625,356.3594 Q39.2188,356.5156 39.7656,356.875 Z " fill="#000000"/><text fill="#000000" font-family="sans-serif" font-size="14" lengthAdjust="spacing" textLength="54" x="59" y="366.7285">Location</text><line style="stroke:#181818;stroke-width:0.5;" x1="23" x2="123" y1="377" y2="377"/><line style="stroke:#181818;stroke-width:0.5;" x1="23" x2="123" y1="385" y2="385"/></g><!--class World--><g id="elem_World"><rect codeLine="63" fill="#F1F1F1" height="48" id="World" rx="2.5" ry="2.5" style="stroke:#181818;stroke-width:0.5;" width="89" x="28.5" y="112.5"/><ellipse cx="43.5" cy="128.5" fill="#ADD1B2" rx="11" ry="11" style="stroke:#181818;stroke-width:1.0;"/><path d="M46.2656,124.375 Q46.4219,124.1563 46.6094,124.0469 Q46.7969,123.9375 47.0156,123.9375 Q47.3906,123.9375 47.625,124.2031 Q47.8594,124.4531 47.8594,125.0625 L47.8594,126.5156 Q47.8594,127.125 47.625,127.3906 Q47.3906,127.6563 47.0156,127.6563 Q46.6719,127.6563 46.4688,127.4531 Q46.2656,127.2656 46.1563,126.75 Q46.1094,126.3906 45.9219,126.2031 Q45.5938,125.8281 44.9844,125.6094 Q44.375,125.3906 43.75,125.3906 Q42.9844,125.3906 42.3438,125.7188 Q41.7188,126.0469 41.2188,126.7969 Q40.7344,127.5469 40.7344,128.5781 L40.7344,129.6719 Q40.7344,130.9063 41.625,131.7344 Q42.5156,132.5469 44.1094,132.5469 Q45.0469,132.5469 45.7031,132.2969 Q46.0938,132.1406 46.5156,131.7031 Q46.7813,131.4375 46.9219,131.3594 Q47.0781,131.2813 47.2813,131.2813 Q47.6094,131.2813 47.8594,131.5469 Q48.125,131.7969 48.125,132.1406 Q48.125,132.4844 47.7813,132.8906 Q47.2813,133.4688 46.4844,133.7969 Q45.4063,134.25 44.1094,134.25 Q42.5938,134.25 41.3906,133.625 Q40.4063,133.125 39.7188,132.0625 Q39.0313,130.9844 39.0313,129.7031 L39.0313,128.5469 Q39.0313,127.2188 39.6406,126.0781 Q40.2656,124.9219 41.3594,124.3125 Q42.4531,123.6875 43.6875,123.6875 Q44.4219,123.6875 45.0625,123.8594 Q45.7188,124.0156 46.2656,124.375 Z " fill="#000000"/><text fill="#000000" font-family="sans-serif" font-size="14" lengthAdjust="spacing" textLength="37" x="69.5" y="134.2285">World</text><line style="stroke:#181818;stroke-width:0.5;" x1="29.5" x2="116.5" y1="144.5" y2="144.5"/><line style="stroke:#181818;stroke-width:0.5;" x1="29.5" x2="116.5" y1="152.5" y2="152.5"/></g><!--reverse link Action to MoveAction--><g id="link_Action_MoveAction"><path codeLine="12" d="M367.1976,426.6013 C344.3576,468.5813 318.18,516.69 299.66,550.74 " fill="none" id="Action-backto-MoveAction" style="stroke:#181818;stroke-width:1.0;"/><polygon fill="none" points="375.8,410.79,361.9271,423.7338,372.468,429.4688,375.8,410.79" style="stroke:#181818;stroke-width:1.0;"/></g><!--reverse link Action to SkipTurnAction--><g id="link_Action_SkipTurnAction"><path codeLine="16" d="M413.1237,428.2123 C424.0237,470.1923 436.11,516.69 444.96,550.74 " fill="none" id="Action-backto-SkipTurnAction" style="stroke:#181818;stroke-width:1.0;"/><polygon fill="none" points="408.6,410.79,407.3162,429.7202,418.9311,426.7044,408.6,410.79" style="stroke:#181818;stroke-width:1.0;"/></g><!--link Player to PlayerStrategy--><g id="link_Player_PlayerStrategy"><path codeLine="36" d="M670,446.25 C670,466.17 670,481.49 670,500.89 " fill="none" id="Player-to-PlayerStrategy" style="stroke:#181818;stroke-width:1.0;"/><polygon fill="#181818" points="670,506.89,674,497.89,670,501.89,666,497.89,670,506.89" style="stroke:#181818;stroke-width:1.0;"/><text fill="#000000" font-family="sans-serif" font-size="13" lengthAdjust="spacing" textLength="7" x="658.1797" y="496.0772">1</text></g><!--link Pawn to Player--><g id="link_Pawn_Player"><path codeLine="43" d="M465.2731,182.2122 C499.8731,213.6122 535.4233,245.8761 577.2233,283.8061 " fill="none" id="Pawn-Player" style="stroke:#181818;stroke-width:1.0;"/><polygon fill="#181818" points="460.83,178.18,464.8066,187.1904,464.5326,181.5402,470.1828,181.2662,460.83,178.18" style="stroke:#181818;stroke-width:1.0;"/><polygon fill="#181818" points="586.11,291.87,584.3546,284.8758,577.2233,283.8061,578.9787,290.8003,586.11,291.87" style="stroke:#181818;stroke-width:1.0;"/></g><!--reverse link Action to Player--><g id="link_Action_Player"><path codeLine="44" d="M497.23,369 C508.99,369 514.74,369 526.5,369 " fill="none" id="Action-backto-Player" style="stroke:#181818;stroke-width:1.0;stroke-dasharray:7.0,7.0;"/><polygon fill="#181818" points="491.23,369,500.23,373,496.23,369,500.23,365,491.23,369" style="stroke:#181818;stroke-width:1.0;"/></g><!--link Pawn to ActionKind--><g id="link_Pawn_ActionKind"><path codeLine="57" d="M557.25,136.5 C568.95,136.5 574.64,136.5 586.34,136.5 " fill="none" id="Pawn-to-ActionKind" style="stroke:#181818;stroke-width:1.0;"/><polygon fill="#181818" points="592.34,136.5,583.34,132.5,587.34,136.5,583.34,140.5,592.34,136.5" style="stroke:#181818;stroke-width:1.0;"/><text fill="#000000" font-family="sans-serif" font-size="13" lengthAdjust="spacing" textLength="5" x="575.4425" y="132.9036">*</text></g><!--reverse link Location to Location--><g id="link_Location_Location"><path codeLine="61" d="M136.203,348.7614 C155.283,348.1114 159,355.13 159,369 C159,382.87 143.29,389.48 124.21,388.83 " fill="none" id="Location-backto-Location" style="stroke:#181818;stroke-width:1.0;"/><polygon fill="none" points="124.21,349.17,130.3427,352.9634,136.203,348.7614,130.0703,344.968,124.21,349.17" style="stroke:#181818;stroke-width:1.0;"/><text fill="#000000" font-family="sans-serif" font-size="13" lengthAdjust="spacing" textLength="116" x="165" y="374.4951">connectedLocations</text></g><!--link World to Location--><g id="link_World_Location"><path codeLine="66" d="M73,172.87 C73,217.16 73,294.84 73,338.91 " fill="none" id="World-Location" style="stroke:#181818;stroke-width:1.0;"/><polygon fill="#181818" points="73,160.87,69,166.87,73,172.87,77,166.87,73,160.87" style="stroke:#181818;stroke-width:1.0;"/><polygon fill="#181818" points="73,344.91,77,335.91,73,339.91,69,335.91,73,344.91" style="stroke:#181818;stroke-width:1.0;"/><text fill="#000000" font-family="sans-serif" font-size="13" lengthAdjust="spacing" textLength="5" x="62.3344" y="334.2271">*</text></g><!--link Pawn to Location--><g id="link_Pawn_Location"><path codeLine="67" d="M355.47,178.18 C283.35,226.64 170.3197,302.593 112.3397,341.563 " fill="none" id="Pawn-to-Location" style="stroke:#181818;stroke-width:1.0;"/><polygon fill="#181818" points="107.36,344.91,117.0609,343.2093,111.5098,342.1208,112.5982,336.5697,107.36,344.91" style="stroke:#181818;stroke-width:1.0;"/><text fill="#000000" font-family="sans-serif" font-size="13" lengthAdjust="spacing" textLength="7" x="108.2679" y="334.2271">1</text></g><!--SRC=[TLFVRvim47xFNs5bB_aXKlLXBon2wbHfhTfgMHDfpmOkr8jZ8ziGLIp_-smmS11c2N4-VtV-xlDTJfCJpO3CQLg2C8M2C2o_ndDIpMR4BYCpC1-Wx9xubN2gDNb839C2kTrQauh6sYYQc2jv19qebZlOOXaIwsOY-pzy1-eerNd1X3OieqQgaEpeHIoxaEjin65Eo9iimLEnMwgneqAHhOMEWo8F_aQ-aDlK-nFB3uKI7bqd7_ccBXX1XfUWAa0KPxBZz1FKtYfW8Fj4-Pw50ISBAw7plL9jK1wttgb8vNdaVCWo1LhZq2VW-R7W-Fwcp8O0-SAPW4qiUHe-KdNwpWlu5jlE23dBFanijuZRclm0urx6lQhxevC3FO6hVh4SmQKb57CllNQHtaIuRHpjWKFYgrpG1j51kw3jNHoXkBPp6dmBMjuYdeyjZqciLyPh4gJo8eB8Floz_OOlDP3GAe3K2OYWPxXfztNTUGVvAXDQ5oVWqjeXQQqf7YlNGb4lj6-ixKQvjzbu66gg1l32H8feJJM5RHuEF-C_Ll79JcaQiOHc7c4mGztcLy7ww7UBlPc4GKrEhA1cNakxib_F5yjgPxjLnKzsjwrc_SXrJXa4f1SqaKBOiY1jNNgKc_oMYgS-SsDNc6ZZMWKTopOHAiEUaVazEhh-0m00]--></g></svg>