<?xml version="1.0" encoding="us-ascii" standalone="no"?><svg xmlns="http://www.w3.org/2000/svg" xmlns:xlink="http://www.w3.org/1999/xlink" contentStyleType="text/css" height="366px" preserveAspectRatio="none" style="width:799px;height:366px;background:#FFFFFF;" version="1.1" viewBox="0 0 799 366" width="799px" zoomAndPan="magnify"><defs/><g><!--class Book--><g id="elem_Book"><rect codeLine="2" fill="#F1F1F1" height="100.8281" id="Book" rx="2.5" ry="2.5" style="stroke:#181818;stroke-width:0.5;" width="91" x="355" y="7"/><ellipse cx="382.15" cy="23" fill="#ADD1B2" rx="11" ry="11" style="stroke:#181818;stroke-width:1.0;"/><path d="M384.9156,18.875 Q385.0719,18.6563 385.2594,18.5469 Q385.4469,18.4375 385.6656,18.4375 Q386.0406,18.4375 386.275,18.7031 Q386.5094,18.9531 386.5094,19.5625 L386.5094,21.0156 Q386.5094,21.625 386.275,21.8906 Q386.0406,22.1563 385.6656,22.1563 Q385.3219,22.1563 385.1188,21.9531 Q384.9156,21.7656 384.8063,21.25 Q384.7594,20.8906 384.5719,20.7031 Q384.2438,20.3281 383.6344,20.1094 Q383.025,19.8906 382.4,19.8906 Q381.6344,19.8906 380.9938,20.2188 Q380.3688,20.5469 379.8688,21.2969 Q379.3844,22.0469 379.3844,23.0781 L379.3844,24.1719 Q379.3844,25.4063 380.275,26.2344 Q381.1656,27.0469 382.7594,27.0469 Q383.6969,27.0469 384.3531,26.7969 Q384.7438,26.6406 385.1656,26.2031 Q385.4313,25.9375 385.5719,25.8594 Q385.7281,25.7813 385.9313,25.7813 Q386.2594,25.7813 386.5094,26.0469 Q386.775,26.2969 386.775,26.6406 Q386.775,26.9844 386.4313,27.3906 Q385.9313,27.9688 385.1344,28.2969 Q384.0563,28.75 382.7594,28.75 Q381.2438,28.75 380.0406,28.125 Q379.0563,27.625 378.3688,26.5625 Q377.6813,25.4844 377.6813,24.2031 L377.6813,23.0469 Q377.6813,21.7188 378.2906,20.5781 Q378.9156,19.4219 380.0094,18.8125 Q381.1031,18.1875 382.3375,18.1875 Q383.0719,18.1875 383.7125,18.3594 Q384.3688,18.5156 384.9156,18.875 Z " fill="#000000"/><text fill="#000000" font-family="sans-serif" font-size="14" lengthAdjust="spacing" textLength="32" x="398.85" y="28.7285">Book</text><line style="stroke:#181818;stroke-width:0.5;" x1="356" x2="445" y1="39" y2="39"/><ellipse cx="366" cy="53.3047" fill="none" rx="3" ry="3" style="stroke:#038048;stroke-width:1.0;"/><text fill="#000000" font-family="sans-serif" font-size="14" lengthAdjust="spacing" textLength="46" x="375" y="57.5332">title: str</text><ellipse cx="366" cy="70.9141" fill="none" rx="3" ry="3" style="stroke:#038048;stroke-width:1.0;"/><text fill="#000000" font-family="sans-serif" font-size="14" lengthAdjust="spacing" textLength="65" x="375" y="75.1426">author: str</text><ellipse cx="366" cy="88.5234" fill="none" rx="3" ry="3" style="stroke:#038048;stroke-width:1.0;"/><text fill="#000000" font-family="sans-serif" font-size="14" lengthAdjust="spacing" textLength="62" x="375" y="92.752">pages: int</text><line style="stroke:#181818;stroke-width:0.5;" x1="356" x2="445" y1="99.8281" y2="99.8281"/></g><!--class BookDatabase--><g id="elem_BookDatabase"><rect codeLine="8" fill="#F1F1F1" height="65.6094" id="BookDatabase" rx="2.5" ry="2.5" style="stroke:#181818;stroke-width:0.5;" width="171" x="212" y="168"/><ellipse cx="247.25" cy="184" fill="#B4A7E5" rx="11" ry="11" style="stroke:#181818;stroke-width:1.0;"/><path d="M248.2031,180.6406 L248.2031,187.2969 L249.9219,187.2969 Q250.5313,187.2969 250.7969,187.5313 Q251.0625,187.7656 251.0625,188.1563 Q251.0625,188.5313 250.7969,188.7656 Q250.5313,189 249.9219,189 L244.7813,189 Q244.1719,189 243.9063,188.7656 Q243.6406,188.5313 243.6406,188.1406 Q243.6406,187.7656 243.9063,187.5313 Q244.1719,187.2969 244.7813,187.2969 L246.5,187.2969 L246.5,180.6406 L244.7813,180.6406 Q244.1719,180.6406 243.9063,180.4063 Q243.6406,180.1719 243.6406,179.7813 Q243.6406,179.4063 243.9063,179.1719 Q244.1719,178.9375 244.7813,178.9375 L249.9219,178.9375 Q250.5313,178.9375 250.7969,179.1719 Q251.0625,179.4063 251.0625,179.7813 Q251.0625,180.1719 250.7969,180.4063 Q250.5313,180.6406 249.9219,180.6406 L248.2031,180.6406 Z " fill="#000000"/><text fill="#000000" font-family="sans-serif" font-size="14" font-style="italic" lengthAdjust="spacing" textLength="94" x="265.75" y="189.7285">BookDatabase</text><line style="stroke:#181818;stroke-width:0.5;" x1="213" x2="382" y1="200" y2="200"/><line style="stroke:#181818;stroke-width:0.5;" x1="213" x2="382" y1="208" y2="208"/><ellipse cx="223" cy="222.3047" fill="#84BE84" rx="3" ry="3" style="stroke:#038048;stroke-width:1.0;"/><text fill="#000000" font-family="sans-serif" font-size="14" font-style="italic" lengthAdjust="spacing" textLength="145" x="232" y="226.5332">save(book: Book): void</text></g><!--class SqlBookDatabase--><g id="elem_SqlBookDatabase"><rect codeLine="12" fill="#F1F1F1" height="65.6094" id="SqlBookDatabase" rx="2.5" ry="2.5" style="stroke:#181818;stroke-width:0.5;" width="171" x="7" y="294"/><ellipse cx="33.7" cy="310" fill="#ADD1B2" rx="11" ry="11" style="stroke:#181818;stroke-width:1.0;"/><path d="M36.4656,305.875 Q36.6219,305.6563 36.8094,305.5469 Q36.9969,305.4375 37.2156,305.4375 Q37.5906,305.4375 37.825,305.7031 Q38.0594,305.9531 38.0594,306.5625 L38.0594,308.0156 Q38.0594,308.625 37.825,308.8906 Q37.5906,309.1563 37.2156,309.1563 Q36.8719,309.1563 36.6688,308.9531 Q36.4656,308.7656 36.3563,308.25 Q36.3094,307.8906 36.1219,307.7031 Q35.7938,307.3281 35.1844,307.1094 Q34.575,306.8906 33.95,306.8906 Q33.1844,306.8906 32.5438,307.2188 Q31.9188,307.5469 31.4188,308.2969 Q30.9344,309.0469 30.9344,310.0781 L30.9344,311.1719 Q30.9344,312.4063 31.825,313.2344 Q32.7156,314.0469 34.3094,314.0469 Q35.2469,314.0469 35.9031,313.7969 Q36.2938,313.6406 36.7156,313.2031 Q36.9813,312.9375 37.1219,312.8594 Q37.2781,312.7813 37.4813,312.7813 Q37.8094,312.7813 38.0594,313.0469 Q38.325,313.2969 38.325,313.6406 Q38.325,313.9844 37.9813,314.3906 Q37.4813,314.9688 36.6844,315.2969 Q35.6063,315.75 34.3094,315.75 Q32.7938,315.75 31.5906,315.125 Q30.6063,314.625 29.9188,313.5625 Q29.2313,312.4844 29.2313,311.2031 L29.2313,310.0469 Q29.2313,308.7188 29.8406,307.5781 Q30.4656,306.4219 31.5594,305.8125 Q32.6531,305.1875 33.8875,305.1875 Q34.6219,305.1875 35.2625,305.3594 Q35.9188,305.5156 36.4656,305.875 Z " fill="#000000"/><text fill="#000000" font-family="sans-serif" font-size="14" lengthAdjust="spacing" textLength="113" x="50.3" y="315.7285">SqlBookDatabase</text><line style="stroke:#181818;stroke-width:0.5;" x1="8" x2="177" y1="326" y2="326"/><line style="stroke:#181818;stroke-width:0.5;" x1="8" x2="177" y1="334" y2="334"/><ellipse cx="18" cy="348.3047" fill="#84BE84" rx="3" ry="3" style="stroke:#038048;stroke-width:1.0;"/><text fill="#000000" font-family="sans-serif" font-size="14" lengthAdjust="spacing" textLength="145" x="27" y="352.5332">save(book: Book): void</text></g><!--class MongoBookDatabase--><g id="elem_MongoBookDatabase"><rect codeLine="16" fill="#F1F1F1" height="65.6094" id="MongoBookDatabase" rx="2.5" ry="2.5" style="stroke:#181818;stroke-width:0.5;" width="171" x="213" y="294"/><ellipse cx="229.35" cy="310" fill="#ADD1B2" rx="11" ry="11" style="stroke:#181818;stroke-width:1.0;"/><path d="M232.1156,305.875 Q232.2719,305.6563 232.4594,305.5469 Q232.6469,305.4375 232.8656,305.4375 Q233.2406,305.4375 233.475,305.7031 Q233.7094,305.9531 233.7094,306.5625 L233.7094,308.0156 Q233.7094,308.625 233.475,308.8906 Q233.2406,309.1563 232.8656,309.1563 Q232.5219,309.1563 232.3188,308.9531 Q232.1156,308.7656 232.0063,308.25 Q231.9594,307.8906 231.7719,307.7031 Q231.4438,307.3281 230.8344,307.1094 Q230.225,306.8906 229.6,306.8906 Q228.8344,306.8906 228.1938,307.2188 Q227.5688,307.5469 227.0688,308.2969 Q226.5844,309.0469 226.5844,310.0781 L226.5844,311.1719 Q226.5844,312.4063 227.475,313.2344 Q228.3656,314.0469 229.9594,314.0469 Q230.8969,314.0469 231.5531,313.7969 Q231.9438,313.6406 232.3656,313.2031 Q232.6313,312.9375 232.7719,312.8594 Q232.9281,312.7813 233.1313,312.7813 Q233.4594,312.7813 233.7094,313.0469 Q233.975,313.2969 233.975,313.6406 Q233.975,313.9844 233.6313,314.3906 Q233.1313,314.9688 232.3344,315.2969 Q231.2563,315.75 229.9594,315.75 Q228.4438,315.75 227.2406,315.125 Q226.2563,314.625 225.5688,313.5625 Q224.8813,312.4844 224.8813,311.2031 L224.8813,310.0469 Q224.8813,308.7188 225.4906,307.5781 Q226.1156,306.4219 227.2094,305.8125 Q228.3031,305.1875 229.5375,305.1875 Q230.2719,305.1875 230.9125,305.3594 Q231.5688,305.5156 232.1156,305.875 Z " fill="#000000"/><text fill="#000000" font-family="sans-serif" font-size="14" lengthAdjust="spacing" textLength="136" x="243.65" y="315.7285">MongoBookDatabase</text><line style="stroke:#181818;stroke-width:0.5;" x1="214" x2="383" y1="326" y2="326"/><line style="stroke:#181818;stroke-width:0.5;" x1="214" x2="383" y1="334" y2="334"/><ellipse cx="224" cy="348.3047" fill="#84BE84" rx="3" ry="3" style="stroke:#038048;stroke-width:1.0;"/><text fill="#000000" font-family="sans-serif" font-size="14" lengthAdjust="spacing" textLength="145" x="233" y="352.5332">save(book: Book): void</text></g><!--class BookPrinter--><g id="elem_BookPrinter"><rect codeLine="23" fill="#F1F1F1" height="65.6094" id="BookPrinter" rx="2.5" ry="2.5" style="stroke:#181818;stroke-width:0.5;" width="170" x="418.5" y="168"/><ellipse cx="461.85" cy="184" fill="#B4A7E5" rx="11" ry="11" style="stroke:#181818;stroke-width:1.0;"/><path d="M462.8031,180.6406 L462.8031,187.2969 L464.5219,187.2969 Q465.1313,187.2969 465.3969,187.5313 Q465.6625,187.7656 465.6625,188.1563 Q465.6625,188.5313 465.3969,188.7656 Q465.1313,189 464.5219,189 L459.3813,189 Q458.7719,189 458.5063,188.7656 Q458.2406,188.5313 458.2406,188.1406 Q458.2406,187.7656 458.5063,187.5313 Q458.7719,187.2969 459.3813,187.2969 L461.1,187.2969 L461.1,180.6406 L459.3813,180.6406 Q458.7719,180.6406 458.5063,180.4063 Q458.2406,180.1719 458.2406,179.7813 Q458.2406,179.4063 458.5063,179.1719 Q458.7719,178.9375 459.3813,178.9375 L464.5219,178.9375 Q465.1313,178.9375 465.3969,179.1719 Q465.6625,179.4063 465.6625,179.7813 Q465.6625,180.1719 465.3969,180.4063 Q465.1313,180.6406 464.5219,180.6406 L462.8031,180.6406 Z " fill="#000000"/><text fill="#000000" font-family="sans-serif" font-size="14" font-style="italic" lengthAdjust="spacing" textLength="75" x="482.15" y="189.7285">BookPrinter</text><line style="stroke:#181818;stroke-width:0.5;" x1="419.5" x2="587.5" y1="200" y2="200"/><line style="stroke:#181818;stroke-width:0.5;" x1="419.5" x2="587.5" y1="208" y2="208"/><ellipse cx="429.5" cy="222.3047" fill="#84BE84" rx="3" ry="3" style="stroke:#038048;stroke-width:1.0;"/><text fill="#000000" font-family="sans-serif" font-size="14" font-style="italic" lengthAdjust="spacing" textLength="144" x="438.5" y="226.5332">print(book: Book): void</text></g><!--class BwBookPrinter--><g id="elem_BwBookPrinter"><rect codeLine="27" fill="#F1F1F1" height="65.6094" id="BwBookPrinter" rx="2.5" ry="2.5" style="stroke:#181818;stroke-width:0.5;" width="169" x="419" y="294"/><ellipse cx="454.25" cy="310" fill="#ADD1B2" rx="11" ry="11" style="stroke:#181818;stroke-width:1.0;"/><path d="M457.0156,305.875 Q457.1719,305.6563 457.3594,305.5469 Q457.5469,305.4375 457.7656,305.4375 Q458.1406,305.4375 458.375,305.7031 Q458.6094,305.9531 458.6094,306.5625 L458.6094,308.0156 Q458.6094,308.625 458.375,308.8906 Q458.1406,309.1563 457.7656,309.1563 Q457.4219,309.1563 457.2188,308.9531 Q457.0156,308.7656 456.9063,308.25 Q456.8594,307.8906 456.6719,307.7031 Q456.3438,307.3281 455.7344,307.1094 Q455.125,306.8906 454.5,306.8906 Q453.7344,306.8906 453.0938,307.2188 Q452.4688,307.5469 451.9688,308.2969 Q451.4844,309.0469 451.4844,310.0781 L451.4844,311.1719 Q451.4844,312.4063 452.375,313.2344 Q453.2656,314.0469 454.8594,314.0469 Q455.7969,314.0469 456.4531,313.7969 Q456.8438,313.6406 457.2656,313.2031 Q457.5313,312.9375 457.6719,312.8594 Q457.8281,312.7813 458.0313,312.7813 Q458.3594,312.7813 458.6094,313.0469 Q458.875,313.2969 458.875,313.6406 Q458.875,313.9844 458.5313,314.3906 Q458.0313,314.9688 457.2344,315.2969 Q456.1563,315.75 454.8594,315.75 Q453.3438,315.75 452.1406,315.125 Q451.1563,314.625 450.4688,313.5625 Q449.7813,312.4844 449.7813,311.2031 L449.7813,310.0469 Q449.7813,308.7188 450.3906,307.5781 Q451.0156,306.4219 452.1094,305.8125 Q453.2031,305.1875 454.4375,305.1875 Q455.1719,305.1875 455.8125,305.3594 Q456.4688,305.5156 457.0156,305.875 Z " fill="#000000"/><text fill="#000000" font-family="sans-serif" font-size="14" lengthAdjust="spacing" textLength="92" x="472.75" y="315.7285">BwBookPrinter</text><line style="stroke:#181818;stroke-width:0.5;" x1="420" x2="587" y1="326" y2="326"/><line style="stroke:#181818;stroke-width:0.5;" x1="420" x2="587" y1="334" y2="334"/><ellipse cx="430" cy="348.3047" fill="#84BE84" rx="3" ry="3" style="stroke:#038048;stroke-width:1.0;"/><text fill="#000000" font-family="sans-serif" font-size="14" lengthAdjust="spacing" textLength="143" x="439" y="352.5332">print(book: Book): void</text></g><!--class ColorBookPrinter--><g id="elem_ColorBookPrinter"><rect codeLine="31" fill="#F1F1F1" height="65.6094" id="ColorBookPrinter" rx="2.5" ry="2.5" style="stroke:#181818;stroke-width:0.5;" width="169" x="623" y="294"/><ellipse cx="651.05" cy="310" fill="#ADD1B2" rx="11" ry="11" style="stroke:#181818;stroke-width:1.0;"/><path d="M653.8156,305.875 Q653.9719,305.6563 654.1594,305.5469 Q654.3469,305.4375 654.5656,305.4375 Q654.9406,305.4375 655.175,305.7031 Q655.4094,305.9531 655.4094,306.5625 L655.4094,308.0156 Q655.4094,308.625 655.175,308.8906 Q654.9406,309.1563 654.5656,309.1563 Q654.2219,309.1563 654.0188,308.9531 Q653.8156,308.7656 653.7063,308.25 Q653.6594,307.8906 653.4719,307.7031 Q653.1438,307.3281 652.5344,307.1094 Q651.925,306.8906 651.3,306.8906 Q650.5344,306.8906 649.8938,307.2188 Q649.2688,307.5469 648.7688,308.2969 Q648.2844,309.0469 648.2844,310.0781 L648.2844,311.1719 Q648.2844,312.4063 649.175,313.2344 Q650.0656,314.0469 651.6594,314.0469 Q652.5969,314.0469 653.2531,313.7969 Q653.6438,313.6406 654.0656,313.2031 Q654.3313,312.9375 654.4719,312.8594 Q654.6281,312.7813 654.8313,312.7813 Q655.1594,312.7813 655.4094,313.0469 Q655.675,313.2969 655.675,313.6406 Q655.675,313.9844 655.3313,314.3906 Q654.8313,314.9688 654.0344,315.2969 Q652.9563,315.75 651.6594,315.75 Q650.1438,315.75 648.9406,315.125 Q647.9563,314.625 647.2688,313.5625 Q646.5813,312.4844 646.5813,311.2031 L646.5813,310.0469 Q646.5813,308.7188 647.1906,307.5781 Q647.8156,306.4219 648.9094,305.8125 Q650.0031,305.1875 651.2375,305.1875 Q651.9719,305.1875 652.6125,305.3594 Q653.2688,305.5156 653.8156,305.875 Z " fill="#000000"/><text fill="#000000" font-family="sans-serif" font-size="14" lengthAdjust="spacing" textLength="108" x="667.95" y="315.7285">ColorBookPrinter</text><line style="stroke:#181818;stroke-width:0.5;" x1="624" x2="791" y1="326" y2="326"/><line style="stroke:#181818;stroke-width:0.5;" x1="624" x2="791" y1="334" y2="334"/><ellipse cx="634" cy="348.3047" fill="#84BE84" rx="3" ry="3" style="stroke:#038048;stroke-width:1.0;"/><text fill="#000000" font-family="sans-serif" font-size="14" lengthAdjust="spacing" textLength="143" x="643" y="352.5332">print(book: Book): void</text></g><!--reverse link BookDatabase to SqlBookDatabase--><g id="link_BookDatabase_SqlBookDatabase"><path codeLine="20" d="M229.0383,243.4061 C198.6683,261.7761 176.09,275.44 145.69,293.82 " fill="none" id="BookDatabase-backto-SqlBookDatabase" style="stroke:#181818;stroke-width:1.0;"/><polygon fill="none" points="244.44,234.09,225.933,238.2722,232.1437,248.5399,244.44,234.09" style="stroke:#181818;stroke-width:1.0;"/></g><!--reverse link BookDatabase to MongoBookDatabase--><g id="link_BookDatabase_MongoBookDatabase"><path codeLine="21" d="M297.907,252.2594 C298.057,270.6294 298.09,275.56 298.24,293.91 " fill="none" id="BookDatabase-backto-MongoBookDatabase" style="stroke:#181818;stroke-width:1.0;"/><polygon fill="none" points="297.76,234.26,291.9072,252.3084,303.9068,252.2104,297.76,234.26" style="stroke:#181818;stroke-width:1.0;"/></g><!--reverse link BookPrinter to BwBookPrinter--><g id="link_BookPrinter_BwBookPrinter"><path codeLine="35" d="M503.5,252.26 C503.5,270.63 503.5,275.56 503.5,293.91 " fill="none" id="BookPrinter-backto-BwBookPrinter" style="stroke:#181818;stroke-width:1.0;"/><polygon fill="none" points="503.5,234.26,497.5,252.26,509.5,252.26,503.5,234.26" style="stroke:#181818;stroke-width:1.0;"/></g><!--reverse link BookPrinter to ColorBookPrinter--><g id="link_BookPrinter_ColorBookPrinter"><path codeLine="36" d="M571.6812,243.4398 C601.9012,261.8098 624.32,275.44 654.57,293.82 " fill="none" id="BookPrinter-backto-ColorBookPrinter" style="stroke:#181818;stroke-width:1.0;"/><polygon fill="none" points="556.3,234.09,568.5646,248.5669,574.7978,238.3128,556.3,234.09" style="stroke:#181818;stroke-width:1.0;"/></g><!--reverse link Book to BookDatabase--><g id="link_Book_BookDatabase"><path codeLine="38" d="M360.6576,113.24 C346.2876,132.97 333.73,150.23 320.95,167.79 " fill="none" id="Book-backto-BookDatabase" style="stroke:#181818;stroke-width:1.0;stroke-dasharray:7.0,7.0;"/><polygon fill="#181818" points="364.19,108.39,355.6581,113.31,361.2463,112.4316,362.1247,118.0199,364.19,108.39" style="stroke:#181818;stroke-width:1.0;"/></g><!--reverse link Book to BookPrinter--><g id="link_Book_BookPrinter"><path codeLine="39" d="M440.3424,113.24 C454.7124,132.97 467.27,150.23 480.05,167.79 " fill="none" id="Book-backto-BookPrinter" style="stroke:#181818;stroke-width:1.0;stroke-dasharray:7.0,7.0;"/><polygon fill="#181818" points="436.81,108.39,438.8753,118.0199,439.7537,112.4316,445.3419,113.31,436.81,108.39" style="stroke:#181818;stroke-width:1.0;"/></g><!--SRC=[bL1B3e8m4Dtt5BFK63n0mmhTcfXuWg5M93OCjXKNoDqj9HW-ZOJPD3FpFdqZ51e32T43QWQkTZQtId8mLdSzlkoTz61GOYODXxomh67CFLBVK4WlSaIBAHhPYq6DgIEYi0qOhEGcTI3keLiE5UNNLaFuJroUAYInH3jHaT4wuWWTVw9ewXr0p6ocqS_Qzw7aPRlwbo5v1nGMMGTIfDSHXsWVQ-GyNqyjEWM8ztkOtUitxR5V]--></g></svg>