<?xml version="1.0" encoding="us-ascii" standalone="no"?><svg xmlns="http://www.w3.org/2000/svg" xmlns:xlink="http://www.w3.org/1999/xlink" contentStyleType="text/css" height="467px" preserveAspectRatio="none" style="width:555px;height:467px;background:#FFFFFF;" version="1.1" viewBox="0 0 555 467" width="555px" zoomAndPan="magnify"><defs/><g><!--cluster adventure::v3a--><g id="cluster_adventure::v3a"><path d="M8.5,6 L115.5,6 A3.75,3.75 0 0 1 118,8.5 L125,29.6094 L545.5,29.6094 A2.5,2.5 0 0 1 548,32.1094 L548,457.5 A2.5,2.5 0 0 1 545.5,460 L8.5,460 A2.5,2.5 0 0 1 6,457.5 L6,8.5 A2.5,2.5 0 0 1 8.5,6 " fill="none" style="stroke:#000000;stroke-width:1.5;"/><line style="stroke:#000000;stroke-width:1.5;" x1="6" x2="125" y1="29.6094" y2="29.6094"/><text fill="#000000" font-family="sans-serif" font-size="14" font-weight="bold" lengthAdjust="spacing" textLength="106" x="10" y="22.5332">adventure::v3a</text></g><!--class Location--><g id="elem_Location"><rect codeLine="3" fill="#F1F1F1" height="136.0469" id="Location" rx="2.5" ry="2.5" style="stroke:#181818;stroke-width:0.5;" width="173" x="106.5" y="308"/><ellipse cx="161.75" cy="324" fill="#ADD1B2" rx="11" ry="11" style="stroke:#181818;stroke-width:1.0;"/><path d="M164.5156,319.875 Q164.6719,319.6563 164.8594,319.5469 Q165.0469,319.4375 165.2656,319.4375 Q165.6406,319.4375 165.875,319.7031 Q166.1094,319.9531 166.1094,320.5625 L166.1094,322.0156 Q166.1094,322.625 165.875,322.8906 Q165.6406,323.1563 165.2656,323.1563 Q164.9219,323.1563 164.7188,322.9531 Q164.5156,322.7656 164.4063,322.25 Q164.3594,321.8906 164.1719,321.7031 Q163.8438,321.3281 163.2344,321.1094 Q162.625,320.8906 162,320.8906 Q161.2344,320.8906 160.5938,321.2188 Q159.9688,321.5469 159.4688,322.2969 Q158.9844,323.0469 158.9844,324.0781 L158.9844,325.1719 Q158.9844,326.4063 159.875,327.2344 Q160.7656,328.0469 162.3594,328.0469 Q163.2969,328.0469 163.9531,327.7969 Q164.3438,327.6406 164.7656,327.2031 Q165.0313,326.9375 165.1719,326.8594 Q165.3281,326.7813 165.5313,326.7813 Q165.8594,326.7813 166.1094,327.0469 Q166.375,327.2969 166.375,327.6406 Q166.375,327.9844 166.0313,328.3906 Q165.5313,328.9688 164.7344,329.2969 Q163.6563,329.75 162.3594,329.75 Q160.8438,329.75 159.6406,329.125 Q158.6563,328.625 157.9688,327.5625 Q157.2813,326.4844 157.2813,325.2031 L157.2813,324.0469 Q157.2813,322.7188 157.8906,321.5781 Q158.5156,320.4219 159.6094,319.8125 Q160.7031,319.1875 161.9375,319.1875 Q162.6719,319.1875 163.3125,319.3594 Q163.9688,319.5156 164.5156,319.875 Z " fill="#000000"/><text fill="#000000" font-family="sans-serif" font-size="14" lengthAdjust="spacing" textLength="54" x="182.25" y="329.7285">Location</text><line style="stroke:#181818;stroke-width:0.5;" x1="107.5" x2="278.5" y1="340" y2="340"/><rect fill="none" height="6" style="stroke:#C82930;stroke-width:1.0;" width="6" x="114.5" y="351.3047"/><text fill="#000000" font-family="sans-serif" font-size="14" lengthAdjust="spacing" textLength="78" x="126.5" y="358.5332">name: string</text><rect fill="none" height="6" style="stroke:#C82930;stroke-width:1.0;" width="6" x="114.5" y="368.9141"/><text fill="#000000" font-family="sans-serif" font-size="14" lengthAdjust="spacing" textLength="112" x="126.5" y="376.1426">description: string</text><line style="stroke:#181818;stroke-width:0.5;" x1="107.5" x2="278.5" y1="383.2188" y2="383.2188"/><ellipse cx="117.5" cy="397.5234" fill="#84BE84" rx="3" ry="3" style="stroke:#038048;stroke-width:1.0;"/><text fill="#000000" font-family="sans-serif" font-size="14" lengthAdjust="spacing" textLength="76" x="126.5" y="401.752">Location(...)</text><ellipse cx="117.5" cy="415.1328" fill="#84BE84" rx="3" ry="3" style="stroke:#038048;stroke-width:1.0;"/><text fill="#000000" font-family="sans-serif" font-size="14" lengthAdjust="spacing" textLength="112" x="126.5" y="419.3613">GetName(): string</text><ellipse cx="117.5" cy="432.7422" fill="#84BE84" rx="3" ry="3" style="stroke:#038048;stroke-width:1.0;"/><text fill="#000000" font-family="sans-serif" font-size="14" lengthAdjust="spacing" textLength="147" x="126.5" y="436.9707">GetDescription(): string</text></g><!--class Connection--><g id="elem_Connection"><rect codeLine="12" fill="#ADD8E6" height="118.4375" id="Connection" rx="2.5" ry="2.5" style="stroke:#00008B;stroke-width:2.0;" width="123" x="314.5" y="317"/><ellipse cx="338.05" cy="333" fill="#ADD1B2" rx="11" ry="11" style="stroke:#181818;stroke-width:1.0;"/><path d="M340.8156,328.875 Q340.9719,328.6563 341.1594,328.5469 Q341.3469,328.4375 341.5656,328.4375 Q341.9406,328.4375 342.175,328.7031 Q342.4094,328.9531 342.4094,329.5625 L342.4094,331.0156 Q342.4094,331.625 342.175,331.8906 Q341.9406,332.1563 341.5656,332.1563 Q341.2219,332.1563 341.0188,331.9531 Q340.8156,331.7656 340.7063,331.25 Q340.6594,330.8906 340.4719,330.7031 Q340.1438,330.3281 339.5344,330.1094 Q338.925,329.8906 338.3,329.8906 Q337.5344,329.8906 336.8938,330.2188 Q336.2688,330.5469 335.7688,331.2969 Q335.2844,332.0469 335.2844,333.0781 L335.2844,334.1719 Q335.2844,335.4063 336.175,336.2344 Q337.0656,337.0469 338.6594,337.0469 Q339.5969,337.0469 340.2531,336.7969 Q340.6438,336.6406 341.0656,336.2031 Q341.3313,335.9375 341.4719,335.8594 Q341.6281,335.7813 341.8313,335.7813 Q342.1594,335.7813 342.4094,336.0469 Q342.675,336.2969 342.675,336.6406 Q342.675,336.9844 342.3313,337.3906 Q341.8313,337.9688 341.0344,338.2969 Q339.9563,338.75 338.6594,338.75 Q337.1438,338.75 335.9406,338.125 Q334.9563,337.625 334.2688,336.5625 Q333.5813,335.4844 333.5813,334.2031 L333.5813,333.0469 Q333.5813,331.7188 334.1906,330.5781 Q334.8156,329.4219 335.9094,328.8125 Q337.0031,328.1875 338.2375,328.1875 Q338.9719,328.1875 339.6125,328.3594 Q340.2688,328.5156 340.8156,328.875 Z " fill="#000000"/><text fill="#000000" font-family="sans-serif" font-size="14" lengthAdjust="spacing" textLength="72" x="353.95" y="338.7285">Connection</text><line style="stroke:#00008B;stroke-width:2.0;" x1="315.5" x2="436.5" y1="349" y2="349"/><rect fill="none" height="6" style="stroke:#C82930;stroke-width:1.0;" width="6" x="322.5" y="360.3047"/><text fill="#000000" font-family="sans-serif" font-size="14" lengthAdjust="spacing" textLength="90" x="334.5" y="367.5332">from: Location</text><rect fill="none" height="6" style="stroke:#C82930;stroke-width:1.0;" width="6" x="322.5" y="377.9141"/><text fill="#000000" font-family="sans-serif" font-size="14" lengthAdjust="spacing" textLength="97" x="334.5" y="385.1426">direction: string</text><rect fill="none" height="6" style="stroke:#C82930;stroke-width:1.0;" width="6" x="322.5" y="395.5234"/><text fill="#000000" font-family="sans-serif" font-size="14" lengthAdjust="spacing" textLength="74" x="334.5" y="402.752">to: Location</text><line style="stroke:#00008B;stroke-width:2.0;" x1="315.5" x2="436.5" y1="409.8281" y2="409.8281"/><ellipse cx="325.5" cy="424.1328" fill="#84BE84" rx="3" ry="3" style="stroke:#038048;stroke-width:1.0;"/><text fill="#000000" font-family="sans-serif" font-size="14" lengthAdjust="spacing" textLength="94" x="334.5" y="428.3613">Connection(...)</text></g><!--class World--><g id="elem_World"><rect codeLine="19" fill="#F1F1F1" height="206.4844" id="World" rx="2.5" ry="2.5" style="stroke:#181818;stroke-width:0.5;" width="510" x="22" y="42"/><ellipse cx="254.25" cy="58" fill="#ADD1B2" rx="11" ry="11" style="stroke:#181818;stroke-width:1.0;"/><path d="M257.0156,53.875 Q257.1719,53.6563 257.3594,53.5469 Q257.5469,53.4375 257.7656,53.4375 Q258.1406,53.4375 258.375,53.7031 Q258.6094,53.9531 258.6094,54.5625 L258.6094,56.0156 Q258.6094,56.625 258.375,56.8906 Q258.1406,57.1563 257.7656,57.1563 Q257.4219,57.1563 257.2188,56.9531 Q257.0156,56.7656 256.9063,56.25 Q256.8594,55.8906 256.6719,55.7031 Q256.3438,55.3281 255.7344,55.1094 Q255.125,54.8906 254.5,54.8906 Q253.7344,54.8906 253.0938,55.2188 Q252.4688,55.5469 251.9688,56.2969 Q251.4844,57.0469 251.4844,58.0781 L251.4844,59.1719 Q251.4844,60.4063 252.375,61.2344 Q253.2656,62.0469 254.8594,62.0469 Q255.7969,62.0469 256.4531,61.7969 Q256.8438,61.6406 257.2656,61.2031 Q257.5313,60.9375 257.6719,60.8594 Q257.8281,60.7813 258.0313,60.7813 Q258.3594,60.7813 258.6094,61.0469 Q258.875,61.2969 258.875,61.6406 Q258.875,61.9844 258.5313,62.3906 Q258.0313,62.9688 257.2344,63.2969 Q256.1563,63.75 254.8594,63.75 Q253.3438,63.75 252.1406,63.125 Q251.1563,62.625 250.4688,61.5625 Q249.7813,60.4844 249.7813,59.2031 L249.7813,58.0469 Q249.7813,56.7188 250.3906,55.5781 Q251.0156,54.4219 252.1094,53.8125 Q253.2031,53.1875 254.4375,53.1875 Q255.1719,53.1875 255.8125,53.3594 Q256.4688,53.5156 257.0156,53.875 Z " fill="#000000"/><text fill="#000000" font-family="sans-serif" font-size="14" lengthAdjust="spacing" textLength="37" x="274.75" y="63.7285">World</text><line style="stroke:#181818;stroke-width:0.5;" x1="23" x2="531" y1="74" y2="74"/><rect fill="none" height="6" style="stroke:#C82930;stroke-width:1.0;" width="6" x="30" y="85.3047"/><text fill="#000000" font-family="sans-serif" font-size="14" lengthAdjust="spacing" textLength="145" x="42" y="92.5332">locations: LocationMap</text><rect fill="none" height="6" style="stroke:#C82930;stroke-width:1.0;" width="6" x="30" y="102.9141"/><text fill="#000000" font-family="sans-serif" font-size="14" lengthAdjust="spacing" textLength="165" x="42" y="110.1426">initialLocationName: string</text><rect fill="none" height="6" style="stroke:#C82930;stroke-width:1.0;" width="6" x="30" y="120.5234"/><text fill="#000000" font-family="sans-serif" font-size="14" font-weight="bold" lengthAdjust="spacing" textLength="238" x="42" y="127.752">connections: vector&lt;Connection&gt;</text><line style="stroke:#181818;stroke-width:0.5;" x1="23" x2="531" y1="134.8281" y2="134.8281"/><ellipse cx="33" cy="149.1328" fill="#84BE84" rx="3" ry="3" style="stroke:#038048;stroke-width:1.0;"/><text fill="#000000" font-family="sans-serif" font-size="14" lengthAdjust="spacing" textLength="59" x="42" y="153.3613">World(...)</text><ellipse cx="33" cy="166.7422" fill="#84BE84" rx="3" ry="3" style="stroke:#038048;stroke-width:1.0;"/><text fill="#000000" font-family="sans-serif" font-size="14" lengthAdjust="spacing" textLength="227" x="42" y="170.9707">GetLocation(name: string): Location</text><ellipse cx="33" cy="184.3516" fill="#84BE84" rx="3" ry="3" style="stroke:#038048;stroke-width:1.0;"/><text fill="#000000" font-family="sans-serif" font-size="14" lengthAdjust="spacing" textLength="183" x="42" y="188.5801">GetLocations(): LocationMap</text><ellipse cx="33" cy="201.9609" fill="#84BE84" rx="3" ry="3" style="stroke:#038048;stroke-width:1.0;"/><text fill="#000000" font-family="sans-serif" font-size="14" lengthAdjust="spacing" textLength="198" x="42" y="206.1895">GetInitialLocationName(): string</text><ellipse cx="33" cy="219.5703" fill="#84BE84" rx="3" ry="3" style="stroke:#038048;stroke-width:1.0;"/><text fill="#000000" font-family="sans-serif" font-size="14" font-weight="bold" lengthAdjust="spacing" textLength="275" x="42" y="223.7988">GetConnections(): vector&lt;Connection&gt;</text><ellipse cx="33" cy="237.1797" fill="#84BE84" rx="3" ry="3" style="stroke:#038048;stroke-width:1.0;"/><text fill="#000000" font-family="sans-serif" font-size="14" font-weight="bold" lengthAdjust="spacing" textLength="484" x="42" y="241.4082">GetConnectedLocation(location: Location, direction: string): Location</text></g><!--link World to Connection--><g id="link_World_Connection"><path codeLine="31" d="M321.14,248.11 C331.3,271.61 339.3784,290.3029 348.4084,311.1829 " fill="none" id="World-to-Connection" style="stroke:#181818;stroke-width:1.0;"/><polygon fill="#181818" points="350.79,316.69,350.8889,306.8416,348.8053,312.1008,343.5462,310.0172,350.79,316.69" style="stroke:#181818;stroke-width:1.0;"/></g><!--reverse link Location to Connection--><g id="link_Location_Connection"><path codeLine="32" d="M285.85,376 C297.37,376 302.89,376 314.41,376 " fill="none" id="Location-backto-Connection" style="stroke:#181818;stroke-width:1.0;"/><polygon fill="#181818" points="279.85,376,288.85,380,284.85,376,288.85,372,279.85,376" style="stroke:#181818;stroke-width:1.0;"/></g><!--link World to Location--><g id="link_World_Location"><path codeLine="33" d="M235.4119,259.3776 C227.9819,279.6576 226.5478,283.5576 219.6678,302.2976 " fill="none" id="World-Location" style="stroke:#181818;stroke-width:1.0;"/><polygon fill="#181818" points="239.54,248.11,233.7201,252.3678,235.4119,259.3776,241.2318,255.1198,239.54,248.11" style="stroke:#181818;stroke-width:1.0;"/><polygon fill="#181818" points="217.6,307.93,224.4567,300.8599,219.3232,303.2363,216.9468,298.1028,217.6,307.93" style="stroke:#181818;stroke-width:1.0;"/></g><!--SRC=[XPExRiCW58PtFmLI5xkftQ4RjJoqaQfARTREW6c2Gi02ugNoknVVE3HOAfDzBZ_VER-jo8NRZZ2EIDjpvQw6Ozm_4VIJ8N-O9DQY3ys84rejmV6KoZTYP9qHwWZHbbjcH3SM9ydTAfDNLLL0-8sxWnVBYxJ3f_QWU5CnP5d4-AgLucoYl9D2yOfgsU8zCUSNUUNFbB0pbk9uSjI_neDy6tt1OSHe565clNHAfpSQTa000munufSsieslbek61RbFqa5UAE44aMlkiBdocZOitEoLUl-aJGqqJVr86y2SA58BWZcniSNMd56npOjjzB7eFQNVyjZp-sB0dJJ_6-9F4sy3_BfHe7f0YP4HSr1TZ9ejAfleSvhYuG-eozlKt79V-gQmg-4N]--></g></svg>