<?xml version="1.0" encoding="us-ascii" standalone="no"?><svg xmlns="http://www.w3.org/2000/svg" xmlns:xlink="http://www.w3.org/1999/xlink" contentStyleType="text/css" height="730px" preserveAspectRatio="none" style="width:616px;height:730px;background:#FFFFFF;" version="1.1" viewBox="0 0 616 730" width="616px" zoomAndPan="magnify"><defs/><g><!--cluster adventure::v5a--><g id="cluster_adventure::v5a"><path d="M8.5,6 L115.5,6 A3.75,3.75 0 0 1 118,8.5 L125,29.6094 L606.5,29.6094 A2.5,2.5 0 0 1 609,32.1094 L609,720.5 A2.5,2.5 0 0 1 606.5,723 L8.5,723 A2.5,2.5 0 0 1 6,720.5 L6,8.5 A2.5,2.5 0 0 1 8.5,6 " fill="none" style="stroke:#000000;stroke-width:1.5;"/><line style="stroke:#000000;stroke-width:1.5;" x1="6" x2="125" y1="29.6094" y2="29.6094"/><text fill="#000000" font-family="sans-serif" font-size="14" font-weight="bold" lengthAdjust="spacing" textLength="106" x="10" y="22.5332">adventure::v5a</text></g><!--class Action--><g id="elem_Action"><rect codeLine="5" fill="#F1F1F1" height="83.2188" id="Action" rx="2.5" ry="2.5" style="stroke:#181818;stroke-width:0.5;" width="186" x="356" y="454"/><ellipse cx="425.25" cy="470" fill="#ADD1B2" rx="11" ry="11" style="stroke:#181818;stroke-width:1.0;"/><path d="M428.0156,465.875 Q428.1719,465.6563 428.3594,465.5469 Q428.5469,465.4375 428.7656,465.4375 Q429.1406,465.4375 429.375,465.7031 Q429.6094,465.9531 429.6094,466.5625 L429.6094,468.0156 Q429.6094,468.625 429.375,468.8906 Q429.1406,469.1563 428.7656,469.1563 Q428.4219,469.1563 428.2188,468.9531 Q428.0156,468.7656 427.9063,468.25 Q427.8594,467.8906 427.6719,467.7031 Q427.3438,467.3281 426.7344,467.1094 Q426.125,466.8906 425.5,466.8906 Q424.7344,466.8906 424.0938,467.2188 Q423.4688,467.5469 422.9688,468.2969 Q422.4844,469.0469 422.4844,470.0781 L422.4844,471.1719 Q422.4844,472.4063 423.375,473.2344 Q424.2656,474.0469 425.8594,474.0469 Q426.7969,474.0469 427.4531,473.7969 Q427.8438,473.6406 428.2656,473.2031 Q428.5313,472.9375 428.6719,472.8594 Q428.8281,472.7813 429.0313,472.7813 Q429.3594,472.7813 429.6094,473.0469 Q429.875,473.2969 429.875,473.6406 Q429.875,473.9844 429.5313,474.3906 Q429.0313,474.9688 428.2344,475.2969 Q427.1563,475.75 425.8594,475.75 Q424.3438,475.75 423.1406,475.125 Q422.1563,474.625 421.4688,473.5625 Q420.7813,472.4844 420.7813,471.2031 L420.7813,470.0469 Q420.7813,468.7188 421.3906,467.5781 Q422.0156,466.4219 423.1094,465.8125 Q424.2031,465.1875 425.4375,465.1875 Q426.1719,465.1875 426.8125,465.3594 Q427.4688,465.5156 428.0156,465.875 Z " fill="#000000"/><text fill="#000000" font-family="sans-serif" font-size="14" lengthAdjust="spacing" textLength="39" x="445.75" y="475.7285">Action</text><line style="stroke:#181818;stroke-width:0.5;" x1="357" x2="541" y1="486" y2="486"/><line style="stroke:#181818;stroke-width:0.5;" x1="357" x2="541" y1="494" y2="494"/><ellipse cx="367" cy="508.3047" fill="#84BE84" rx="3" ry="3" style="stroke:#038048;stroke-width:1.0;"/><text fill="#000000" font-family="sans-serif" font-size="14" font-style="italic" lengthAdjust="spacing" textLength="124" x="376" y="512.5332">Description(): string</text><ellipse cx="367" cy="525.9141" fill="#84BE84" rx="3" ry="3" style="stroke:#038048;stroke-width:1.0;"/><text fill="#000000" font-family="sans-serif" font-size="14" font-style="italic" lengthAdjust="spacing" textLength="160" x="376" y="530.1426">Perform(instigator: Pawn)</text></g><!--class MoveAction--><g id="elem_MoveAction"><rect codeLine="10" fill="#F1F1F1" height="48" id="MoveAction" rx="2.5" ry="2.5" style="stroke:#181818;stroke-width:0.5;" width="121" x="275.5" y="651"/><ellipse cx="290.5" cy="667" fill="#ADD1B2" rx="11" ry="11" style="stroke:#181818;stroke-width:1.0;"/><path d="M293.2656,662.875 Q293.4219,662.6563 293.6094,662.5469 Q293.7969,662.4375 294.0156,662.4375 Q294.3906,662.4375 294.625,662.7031 Q294.8594,662.9531 294.8594,663.5625 L294.8594,665.0156 Q294.8594,665.625 294.625,665.8906 Q294.3906,666.1563 294.0156,666.1563 Q293.6719,666.1563 293.4688,665.9531 Q293.2656,665.7656 293.1563,665.25 Q293.1094,664.8906 292.9219,664.7031 Q292.5938,664.3281 291.9844,664.1094 Q291.375,663.8906 290.75,663.8906 Q289.9844,663.8906 289.3438,664.2188 Q288.7188,664.5469 288.2188,665.2969 Q287.7344,666.0469 287.7344,667.0781 L287.7344,668.1719 Q287.7344,669.4063 288.625,670.2344 Q289.5156,671.0469 291.1094,671.0469 Q292.0469,671.0469 292.7031,670.7969 Q293.0938,670.6406 293.5156,670.2031 Q293.7813,669.9375 293.9219,669.8594 Q294.0781,669.7813 294.2813,669.7813 Q294.6094,669.7813 294.8594,670.0469 Q295.125,670.2969 295.125,670.6406 Q295.125,670.9844 294.7813,671.3906 Q294.2813,671.9688 293.4844,672.2969 Q292.4063,672.75 291.1094,672.75 Q289.5938,672.75 288.3906,672.125 Q287.4063,671.625 286.7188,670.5625 Q286.0313,669.4844 286.0313,668.2031 L286.0313,667.0469 Q286.0313,665.7188 286.6406,664.5781 Q287.2656,663.4219 288.3594,662.8125 Q289.4531,662.1875 290.6875,662.1875 Q291.4219,662.1875 292.0625,662.3594 Q292.7188,662.5156 293.2656,662.875 Z " fill="#000000"/><text fill="#000000" font-family="sans-serif" font-size="14" lengthAdjust="spacing" textLength="73" x="312.5" y="672.7285">MoveAction</text><line style="stroke:#181818;stroke-width:0.5;" x1="276.5" x2="395.5" y1="683" y2="683"/><line style="stroke:#181818;stroke-width:0.5;" x1="276.5" x2="395.5" y1="691" y2="691"/></g><!--class SkipTurnAction--><g id="elem_SkipTurnAction"><rect codeLine="14" fill="#F1F1F1" height="48" id="SkipTurnAction" rx="2.5" ry="2.5" style="stroke:#181818;stroke-width:0.5;" width="136" x="432" y="651"/><ellipse cx="447" cy="667" fill="#ADD1B2" rx="11" ry="11" style="stroke:#181818;stroke-width:1.0;"/><path d="M449.7656,662.875 Q449.9219,662.6563 450.1094,662.5469 Q450.2969,662.4375 450.5156,662.4375 Q450.8906,662.4375 451.125,662.7031 Q451.3594,662.9531 451.3594,663.5625 L451.3594,665.0156 Q451.3594,665.625 451.125,665.8906 Q450.8906,666.1563 450.5156,666.1563 Q450.1719,666.1563 449.9688,665.9531 Q449.7656,665.7656 449.6563,665.25 Q449.6094,664.8906 449.4219,664.7031 Q449.0938,664.3281 448.4844,664.1094 Q447.875,663.8906 447.25,663.8906 Q446.4844,663.8906 445.8438,664.2188 Q445.2188,664.5469 444.7188,665.2969 Q444.2344,666.0469 444.2344,667.0781 L444.2344,668.1719 Q444.2344,669.4063 445.125,670.2344 Q446.0156,671.0469 447.6094,671.0469 Q448.5469,671.0469 449.2031,670.7969 Q449.5938,670.6406 450.0156,670.2031 Q450.2813,669.9375 450.4219,669.8594 Q450.5781,669.7813 450.7813,669.7813 Q451.1094,669.7813 451.3594,670.0469 Q451.625,670.2969 451.625,670.6406 Q451.625,670.9844 451.2813,671.3906 Q450.7813,671.9688 449.9844,672.2969 Q448.9063,672.75 447.6094,672.75 Q446.0938,672.75 444.8906,672.125 Q443.9063,671.625 443.2188,670.5625 Q442.5313,669.4844 442.5313,668.2031 L442.5313,667.0469 Q442.5313,665.7188 443.1406,664.5781 Q443.7656,663.4219 444.8594,662.8125 Q445.9531,662.1875 447.1875,662.1875 Q447.9219,662.1875 448.5625,662.3594 Q449.2188,662.5156 449.7656,662.875 Z " fill="#000000"/><text fill="#000000" font-family="sans-serif" font-size="14" lengthAdjust="spacing" textLength="96" x="465" y="672.7285">SkipTurnAction</text><line style="stroke:#181818;stroke-width:0.5;" x1="433" x2="567" y1="683" y2="683"/><line style="stroke:#181818;stroke-width:0.5;" x1="433" x2="567" y1="691" y2="691"/></g><!--class Player--><g id="elem_Player"><rect codeLine="19" fill="#ADD8E6" height="153.6563" id="Player" rx="2.5" ry="2.5" style="stroke:#00008B;stroke-width:2.0;" width="287" x="305.5" y="186"/><ellipse cx="424.75" cy="202" fill="#ADD1B2" rx="11" ry="11" style="stroke:#181818;stroke-width:1.0;"/><path d="M427.5156,197.875 Q427.6719,197.6563 427.8594,197.5469 Q428.0469,197.4375 428.2656,197.4375 Q428.6406,197.4375 428.875,197.7031 Q429.1094,197.9531 429.1094,198.5625 L429.1094,200.0156 Q429.1094,200.625 428.875,200.8906 Q428.6406,201.1563 428.2656,201.1563 Q427.9219,201.1563 427.7188,200.9531 Q427.5156,200.7656 427.4063,200.25 Q427.3594,199.8906 427.1719,199.7031 Q426.8438,199.3281 426.2344,199.1094 Q425.625,198.8906 425,198.8906 Q424.2344,198.8906 423.5938,199.2188 Q422.9688,199.5469 422.4688,200.2969 Q421.9844,201.0469 421.9844,202.0781 L421.9844,203.1719 Q421.9844,204.4063 422.875,205.2344 Q423.7656,206.0469 425.3594,206.0469 Q426.2969,206.0469 426.9531,205.7969 Q427.3438,205.6406 427.7656,205.2031 Q428.0313,204.9375 428.1719,204.8594 Q428.3281,204.7813 428.5313,204.7813 Q428.8594,204.7813 429.1094,205.0469 Q429.375,205.2969 429.375,205.6406 Q429.375,205.9844 429.0313,206.3906 Q428.5313,206.9688 427.7344,207.2969 Q426.6563,207.75 425.3594,207.75 Q423.8438,207.75 422.6406,207.125 Q421.6563,206.625 420.9688,205.5625 Q420.2813,204.4844 420.2813,203.2031 L420.2813,202.0469 Q420.2813,200.7188 420.8906,199.5781 Q421.5156,198.4219 422.6094,197.8125 Q423.7031,197.1875 424.9375,197.1875 Q425.6719,197.1875 426.3125,197.3594 Q426.9688,197.5156 427.5156,197.875 Z " fill="#000000"/><text fill="#000000" font-family="sans-serif" font-size="14" lengthAdjust="spacing" textLength="40" x="445.25" y="207.7285">Player</text><line style="stroke:#00008B;stroke-width:2.0;" x1="306.5" x2="591.5" y1="218" y2="218"/><line style="stroke:#00008B;stroke-width:2.0;" x1="306.5" x2="591.5" y1="226" y2="226"/><ellipse cx="316.5" cy="240.3047" fill="#84BE84" rx="3" ry="3" style="stroke:#038048;stroke-width:1.0;"/><text fill="#000000" font-family="sans-serif" font-size="14" lengthAdjust="spacing" textLength="109" x="325.5" y="244.5332">GetPawn(): Pawn</text><ellipse cx="316.5" cy="257.9141" fill="#84BE84" rx="3" ry="3" style="stroke:#038048;stroke-width:1.0;"/><text fill="#000000" font-family="sans-serif" font-size="14" font-weight="bold" lengthAdjust="spacing" textLength="75" x="325.5" y="262.1426">TakeTurn()</text><ellipse cx="316.5" cy="275.5234" fill="#84BE84" rx="3" ry="3" style="stroke:#038048;stroke-width:1.0;"/><text fill="#000000" font-family="sans-serif" font-size="14" font-weight="bold" lengthAdjust="spacing" textLength="207" x="325.5" y="279.752">GetPossibleActions(): Actions</text><ellipse cx="316.5" cy="293.1328" fill="#84BE84" rx="3" ry="3" style="stroke:#038048;stroke-width:1.0;"/><text fill="#000000" font-family="sans-serif" font-size="14" font-weight="bold" lengthAdjust="spacing" textLength="261" x="325.5" y="297.3613">SelectAction(actions: Actions): Action</text><ellipse cx="316.5" cy="310.7422" fill="#84BE84" rx="3" ry="3" style="stroke:#038048;stroke-width:1.0;"/><text fill="#000000" font-family="sans-serif" font-size="14" font-weight="bold" lengthAdjust="spacing" textLength="161" x="325.5" y="314.9707">Perform(action: Action)</text><ellipse cx="316.5" cy="328.3516" fill="#84BE84" rx="3" ry="3" style="stroke:#038048;stroke-width:1.0;"/><text fill="#000000" font-family="sans-serif" font-size="14" font-weight="bold" lengthAdjust="spacing" textLength="230" x="325.5" y="332.5801">PerformIfPossible(action: Action)</text></g><!--class Pawn--><g id="elem_Pawn"><rect codeLine="28" fill="#F1F1F1" height="83.2188" id="Pawn" rx="2.5" ry="2.5" style="stroke:#181818;stroke-width:0.5;" width="282" x="230" y="42"/><ellipse cx="349.75" cy="58" fill="#ADD1B2" rx="11" ry="11" style="stroke:#181818;stroke-width:1.0;"/><path d="M352.5156,53.875 Q352.6719,53.6563 352.8594,53.5469 Q353.0469,53.4375 353.2656,53.4375 Q353.6406,53.4375 353.875,53.7031 Q354.1094,53.9531 354.1094,54.5625 L354.1094,56.0156 Q354.1094,56.625 353.875,56.8906 Q353.6406,57.1563 353.2656,57.1563 Q352.9219,57.1563 352.7188,56.9531 Q352.5156,56.7656 352.4063,56.25 Q352.3594,55.8906 352.1719,55.7031 Q351.8438,55.3281 351.2344,55.1094 Q350.625,54.8906 350,54.8906 Q349.2344,54.8906 348.5938,55.2188 Q347.9688,55.5469 347.4688,56.2969 Q346.9844,57.0469 346.9844,58.0781 L346.9844,59.1719 Q346.9844,60.4063 347.875,61.2344 Q348.7656,62.0469 350.3594,62.0469 Q351.2969,62.0469 351.9531,61.7969 Q352.3438,61.6406 352.7656,61.2031 Q353.0313,60.9375 353.1719,60.8594 Q353.3281,60.7813 353.5313,60.7813 Q353.8594,60.7813 354.1094,61.0469 Q354.375,61.2969 354.375,61.6406 Q354.375,61.9844 354.0313,62.3906 Q353.5313,62.9688 352.7344,63.2969 Q351.6563,63.75 350.3594,63.75 Q348.8438,63.75 347.6406,63.125 Q346.6563,62.625 345.9688,61.5625 Q345.2813,60.4844 345.2813,59.2031 L345.2813,58.0469 Q345.2813,56.7188 345.8906,55.5781 Q346.5156,54.4219 347.6094,53.8125 Q348.7031,53.1875 349.9375,53.1875 Q350.6719,53.1875 351.3125,53.3594 Q351.9688,53.5156 352.5156,53.875 Z " fill="#000000"/><text fill="#000000" font-family="sans-serif" font-size="14" lengthAdjust="spacing" textLength="34" x="370.25" y="63.7285">Pawn</text><line style="stroke:#181818;stroke-width:0.5;" x1="231" x2="511" y1="74" y2="74"/><rect fill="none" height="6" style="stroke:#C82930;stroke-width:1.0;" width="6" x="238" y="85.3047"/><text fill="#000000" font-family="sans-serif" font-size="14" lengthAdjust="spacing" textLength="78" x="250" y="92.5332">name: string</text><line style="stroke:#181818;stroke-width:0.5;" x1="231" x2="511" y1="99.6094" y2="99.6094"/><ellipse cx="241" cy="113.9141" fill="#84BE84" rx="3" ry="3" style="stroke:#038048;stroke-width:1.0;"/><text fill="#000000" font-family="sans-serif" font-size="14" lengthAdjust="spacing" textLength="256" x="250" y="118.1426">MoveToLocation(newLocation: Location)</text></g><!--class ActionKind--><g id="elem_ActionKind"><rect codeLine="36" fill="#F1F1F1" height="188.875" id="ActionKind" rx="2.5" ry="2.5" style="stroke:#181818;stroke-width:0.5;" width="99" x="221.5" y="401"/><ellipse cx="236.5" cy="417" fill="#EB937F" rx="11" ry="11" style="stroke:#181818;stroke-width:1.0;"/><path d="M235.3594,417.7969 L235.3594,420.2969 L239.6875,420.2969 L239.6875,419.375 Q239.6875,418.7656 239.9219,418.5 Q240.1719,418.2344 240.5469,418.2344 Q240.9219,418.2344 241.1563,418.5 Q241.3906,418.7656 241.3906,419.375 L241.3906,422 L233.3906,422 Q232.7656,422 232.5,421.7656 Q232.25,421.5313 232.25,421.1406 Q232.25,420.7656 232.5156,420.5313 Q232.7813,420.2969 233.3906,420.2969 L233.6563,420.2969 L233.6563,413.6406 L233.3906,413.6406 Q232.7656,413.6406 232.5,413.4063 Q232.25,413.1719 232.25,412.7813 Q232.25,412.4063 232.5,412.1719 Q232.7656,411.9375 233.3906,411.9375 L241.0156,411.9375 L241.0156,414.5313 Q241.0156,415.1406 240.7813,415.4063 Q240.5625,415.6563 240.1719,415.6563 Q239.7969,415.6563 239.5625,415.4063 Q239.3281,415.1406 239.3281,414.5313 L239.3281,413.6406 L235.3594,413.6406 L235.3594,416.0938 L236.8438,416.0938 Q236.8438,415.4375 236.9688,415.25 Q237.2344,414.8438 237.7031,414.8438 Q238.0781,414.8438 238.3125,415.1094 Q238.5469,415.3594 238.5469,415.9688 L238.5469,417.9375 Q238.5469,418.4844 238.4219,418.6719 Q238.1563,419.0625 237.7031,419.0625 Q237.2344,419.0625 236.9688,418.6563 Q236.8438,418.4688 236.8438,417.7969 L235.3594,417.7969 Z " fill="#000000"/><text fill="#000000" font-family="sans-serif" font-size="14" lengthAdjust="spacing" textLength="67" x="250.5" y="422.7285">ActionKind</text><line style="stroke:#181818;stroke-width:0.5;" x1="222.5" x2="319.5" y1="433" y2="433"/><text fill="#000000" font-family="sans-serif" font-size="14" lengthAdjust="spacing" textLength="70" x="227.5" y="451.5332">Aggressive</text><text fill="#000000" font-family="sans-serif" font-size="14" lengthAdjust="spacing" textLength="85" x="227.5" y="469.1426">HandleObject</text><text fill="#000000" font-family="sans-serif" font-size="14" lengthAdjust="spacing" textLength="43" x="227.5" y="486.752">Helpful</text><text fill="#000000" font-family="sans-serif" font-size="14" lengthAdjust="spacing" textLength="68" x="227.5" y="504.3613">Investigate</text><text fill="#000000" font-family="sans-serif" font-size="14" lengthAdjust="spacing" textLength="34" x="227.5" y="521.9707">Move</text><text fill="#000000" font-family="sans-serif" font-size="14" lengthAdjust="spacing" textLength="26" x="227.5" y="539.5801">Quit</text><text fill="#000000" font-family="sans-serif" font-size="14" lengthAdjust="spacing" textLength="29" x="227.5" y="557.1895">Rest</text><text fill="#000000" font-family="sans-serif" font-size="14" lengthAdjust="spacing" textLength="57" x="227.5" y="574.7988">SkipTurn</text><line style="stroke:#181818;stroke-width:0.5;" x1="222.5" x2="319.5" y1="581.875" y2="581.875"/></g><!--class Location--><g id="elem_Location"><rect codeLine="49" fill="#F1F1F1" height="48" id="Location" rx="2.5" ry="2.5" style="stroke:#181818;stroke-width:0.5;" width="102" x="22" y="239"/><ellipse cx="37" cy="255" fill="#ADD1B2" rx="11" ry="11" style="stroke:#181818;stroke-width:1.0;"/><path d="M39.7656,250.875 Q39.9219,250.6563 40.1094,250.5469 Q40.2969,250.4375 40.5156,250.4375 Q40.8906,250.4375 41.125,250.7031 Q41.3594,250.9531 41.3594,251.5625 L41.3594,253.0156 Q41.3594,253.625 41.125,253.8906 Q40.8906,254.1563 40.5156,254.1563 Q40.1719,254.1563 39.9688,253.9531 Q39.7656,253.7656 39.6563,253.25 Q39.6094,252.8906 39.4219,252.7031 Q39.0938,252.3281 38.4844,252.1094 Q37.875,251.8906 37.25,251.8906 Q36.4844,251.8906 35.8438,252.2188 Q35.2188,252.5469 34.7188,253.2969 Q34.2344,254.0469 34.2344,255.0781 L34.2344,256.1719 Q34.2344,257.4063 35.125,258.2344 Q36.0156,259.0469 37.6094,259.0469 Q38.5469,259.0469 39.2031,258.7969 Q39.5938,258.6406 40.0156,258.2031 Q40.2813,257.9375 40.4219,257.8594 Q40.5781,257.7813 40.7813,257.7813 Q41.1094,257.7813 41.3594,258.0469 Q41.625,258.2969 41.625,258.6406 Q41.625,258.9844 41.2813,259.3906 Q40.7813,259.9688 39.9844,260.2969 Q38.9063,260.75 37.6094,260.75 Q36.0938,260.75 34.8906,260.125 Q33.9063,259.625 33.2188,258.5625 Q32.5313,257.4844 32.5313,256.2031 L32.5313,255.0469 Q32.5313,253.7188 33.1406,252.5781 Q33.7656,251.4219 34.8594,250.8125 Q35.9531,250.1875 37.1875,250.1875 Q37.9219,250.1875 38.5625,250.3594 Q39.2188,250.5156 39.7656,250.875 Z " fill="#000000"/><text fill="#000000" font-family="sans-serif" font-size="14" lengthAdjust="spacing" textLength="54" x="59" y="260.7285">Location</text><line style="stroke:#181818;stroke-width:0.5;" x1="23" x2="123" y1="271" y2="271"/><line style="stroke:#181818;stroke-width:0.5;" x1="23" x2="123" y1="279" y2="279"/></g><!--class World--><g id="elem_World"><rect codeLine="53" fill="#F1F1F1" height="48" id="World" rx="2.5" ry="2.5" style="stroke:#181818;stroke-width:0.5;" width="89" x="28.5" y="59.5"/><ellipse cx="43.5" cy="75.5" fill="#ADD1B2" rx="11" ry="11" style="stroke:#181818;stroke-width:1.0;"/><path d="M46.2656,71.375 Q46.4219,71.1563 46.6094,71.0469 Q46.7969,70.9375 47.0156,70.9375 Q47.3906,70.9375 47.625,71.2031 Q47.8594,71.4531 47.8594,72.0625 L47.8594,73.5156 Q47.8594,74.125 47.625,74.3906 Q47.3906,74.6563 47.0156,74.6563 Q46.6719,74.6563 46.4688,74.4531 Q46.2656,74.2656 46.1563,73.75 Q46.1094,73.3906 45.9219,73.2031 Q45.5938,72.8281 44.9844,72.6094 Q44.375,72.3906 43.75,72.3906 Q42.9844,72.3906 42.3438,72.7188 Q41.7188,73.0469 41.2188,73.7969 Q40.7344,74.5469 40.7344,75.5781 L40.7344,76.6719 Q40.7344,77.9063 41.625,78.7344 Q42.5156,79.5469 44.1094,79.5469 Q45.0469,79.5469 45.7031,79.2969 Q46.0938,79.1406 46.5156,78.7031 Q46.7813,78.4375 46.9219,78.3594 Q47.0781,78.2813 47.2813,78.2813 Q47.6094,78.2813 47.8594,78.5469 Q48.125,78.7969 48.125,79.1406 Q48.125,79.4844 47.7813,79.8906 Q47.2813,80.4688 46.4844,80.7969 Q45.4063,81.25 44.1094,81.25 Q42.5938,81.25 41.3906,80.625 Q40.4063,80.125 39.7188,79.0625 Q39.0313,77.9844 39.0313,76.7031 L39.0313,75.5469 Q39.0313,74.2188 39.6406,73.0781 Q40.2656,71.9219 41.3594,71.3125 Q42.4531,70.6875 43.6875,70.6875 Q44.4219,70.6875 45.0625,70.8594 Q45.7188,71.0156 46.2656,71.375 Z " fill="#000000"/><text fill="#000000" font-family="sans-serif" font-size="14" lengthAdjust="spacing" textLength="37" x="69.5" y="81.2285">World</text><line style="stroke:#181818;stroke-width:0.5;" x1="29.5" x2="116.5" y1="91.5" y2="91.5"/><line style="stroke:#181818;stroke-width:0.5;" x1="29.5" x2="116.5" y1="99.5" y2="99.5"/></g><!--reverse link Action to MoveAction--><g id="link_Action_MoveAction"><path codeLine="12" d="M413.4121,552.4032 C390.9921,587.6132 369.06,622.07 350.73,650.86 " fill="none" id="Action-backto-MoveAction" style="stroke:#181818;stroke-width:1.0;"/><polygon fill="none" points="423.08,537.22,408.351,549.1806,418.4731,555.6259,423.08,537.22" style="stroke:#181818;stroke-width:1.0;"/></g><!--reverse link Action to SkipTurnAction--><g id="link_Action_SkipTurnAction"><path codeLine="16" d="M465.6722,554.5196 C475.7922,589.7296 485.08,622.07 493.35,650.86 " fill="none" id="Action-backto-SkipTurnAction" style="stroke:#181818;stroke-width:1.0;"/><polygon fill="none" points="460.7,537.22,459.9057,556.177,471.4388,552.8622,460.7,537.22" style="stroke:#181818;stroke-width:1.0;"/></g><!--link Pawn to Player--><g id="link_Pawn_Player"><path codeLine="33" d="M391.3042,130.7129 C399.2242,148.7329 401.5614,154.0444 410.7214,174.8844 " fill="none" id="Pawn-Player" style="stroke:#181818;stroke-width:1.0;"/><polygon fill="#181818" points="388.89,125.22,388.8494,135.0688,390.9018,129.7974,396.1732,131.8499,388.89,125.22" style="stroke:#181818;stroke-width:1.0;"/><polygon fill="#181818" points="415.55,185.87,416.7976,178.7676,410.7214,174.8844,409.4738,181.9867,415.55,185.87" style="stroke:#181818;stroke-width:1.0;"/></g><!--link Player to Action--><g id="link_Player_Action"><path codeLine="34" d="M449,340.11 C449,378.01 449,416.31 449,447.72 " fill="none" id="Player-to-Action" style="stroke:#181818;stroke-width:1.0;stroke-dasharray:7.0,7.0;"/><polygon fill="#181818" points="449,453.72,453,444.72,449,448.72,445,444.72,449,453.72" style="stroke:#181818;stroke-width:1.0;"/></g><!--reverse link ActionKind to Action--><g id="link_ActionKind_Action"><path codeLine="47" d="M326.71,495.5 C338.41,495.5 344.1,495.5 355.79,495.5 " fill="none" id="ActionKind-backto-Action" style="stroke:#181818;stroke-width:1.0;"/><polygon fill="#181818" points="320.71,495.5,329.71,499.5,325.71,495.5,329.71,491.5,320.71,495.5" style="stroke:#181818;stroke-width:1.0;"/><text fill="#000000" font-family="sans-serif" font-size="13" lengthAdjust="spacing" textLength="5" x="332.6145" y="491.9036">*</text></g><!--reverse link Location to Location--><g id="link_Location_Location"><path codeLine="51" d="M136.203,242.7614 C155.283,242.1114 159,249.13 159,263 C159,276.87 143.29,283.48 124.21,282.83 " fill="none" id="Location-backto-Location" style="stroke:#181818;stroke-width:1.0;"/><polygon fill="none" points="124.21,243.17,130.3427,246.9634,136.203,242.7614,130.0703,238.968,124.21,243.17" style="stroke:#181818;stroke-width:1.0;"/><text fill="#000000" font-family="sans-serif" font-size="13" lengthAdjust="spacing" textLength="116" x="165" y="268.4951">connectedLocations</text></g><!--link World to Location--><g id="link_World_Location"><path codeLine="56" d="M73,119.71 C73,153.72 73,198.77 73,232.79 " fill="none" id="World-Location" style="stroke:#181818;stroke-width:1.0;"/><polygon fill="#181818" points="73,107.71,69,113.71,73,119.71,77,113.71,73,107.71" style="stroke:#181818;stroke-width:1.0;"/><polygon fill="#181818" points="73,238.79,77,229.79,73,233.79,69,229.79,73,238.79" style="stroke:#181818;stroke-width:1.0;"/><text fill="#000000" font-family="sans-serif" font-size="13" lengthAdjust="spacing" textLength="5" x="62.3344" y="228.0763">*</text></g><!--link Pawn to Location--><g id="link_Pawn_Location"><path codeLine="57" d="M302.63,125.22 C243.52,160.43 165.3347,206.9994 117.0047,235.7894 " fill="none" id="Pawn-to-Location" style="stroke:#181818;stroke-width:1.0;"/><polygon fill="#181818" points="111.85,238.86,121.6292,237.6905,116.1456,236.3011,117.535,230.8176,111.85,238.86" style="stroke:#181818;stroke-width:1.0;"/><text fill="#000000" font-family="sans-serif" font-size="13" lengthAdjust="spacing" textLength="7" x="113.9084" y="228.1643">1</text></g><!--SRC=[TLDDRzim3BtdLn3U9KxW53liuWK1EXHOYtPOjWROMROPLuiY6PBiOl3otoV5agp4Ym33_7Yao4Ug8UM1r0W9gJhakfMOvzqdaa0_cu4vMjIetr0Q7Tmf6L4AxajD1O_CzYoX9uNIafJw10-eIaaR2vkdEHWpvVLj-1RbNiZZd7AbQKsqa3bioJjFGyXfTbL30l1DTEXACIfHiQ6F8hqKkREsoVvkN2FJrAy7sknQoHtwdFpAzhyBhY2NbqHT3DTi6VbZoFt0ACTL8LYLFn1v-C9Q_5oOoUICrc-wC6fqrnA-ehRCM5RjF_AiYysE7D0MC4_NTyNcqcS3XLAqO8u4PNCuSGf_HOQb7jnpCg02F0HEu_meXn2FIsy2d_Q-gfiXbwoPfYD2Ck3aY9CDMvw7lHCleYJd3ZY-Upa7BwLnUZUEXPtQPkJMpNAzQfkLmmnuvEtHUPyfhwAQxkjQekcfms1w9BnY-BtuRJWTZSYQVSk2_iGx7FOVBtOsA3zQEaR_DDZ9viKD-IrakDUcemGMvXiBZaarZybpufvIKFlPkEF1AB8CHZfBmRdf2ojlKbUvuPUGh7AP1xcFAnrCYonKwHCDWx4Jjpv8FaQkqpy0]--></g></svg>