<?xml version="1.0" encoding="us-ascii" standalone="no"?><svg xmlns="http://www.w3.org/2000/svg" xmlns:xlink="http://www.w3.org/1999/xlink" contentStyleType="text/css" height="441px" preserveAspectRatio="none" style="width:819px;height:441px;background:#FFFFFF;" version="1.1" viewBox="0 0 819 441" width="819px" zoomAndPan="magnify"><defs/><g><!--class Book--><g id="elem_Book"><rect codeLine="3" fill="#F1F1F1" height="136.0469" id="Book" rx="2.5" ry="2.5" style="stroke:#181818;stroke-width:0.5;" width="100" x="360.5" y="7"/><ellipse cx="391.7" cy="23" fill="#ADD1B2" rx="11" ry="11" style="stroke:#181818;stroke-width:1.0;"/><path d="M394.4656,18.875 Q394.6219,18.6563 394.8094,18.5469 Q394.9969,18.4375 395.2156,18.4375 Q395.5906,18.4375 395.825,18.7031 Q396.0594,18.9531 396.0594,19.5625 L396.0594,21.0156 Q396.0594,21.625 395.825,21.8906 Q395.5906,22.1563 395.2156,22.1563 Q394.8719,22.1563 394.6688,21.9531 Q394.4656,21.7656 394.3563,21.25 Q394.3094,20.8906 394.1219,20.7031 Q393.7938,20.3281 393.1844,20.1094 Q392.575,19.8906 391.95,19.8906 Q391.1844,19.8906 390.5438,20.2188 Q389.9188,20.5469 389.4188,21.2969 Q388.9344,22.0469 388.9344,23.0781 L388.9344,24.1719 Q388.9344,25.4063 389.825,26.2344 Q390.7156,27.0469 392.3094,27.0469 Q393.2469,27.0469 393.9031,26.7969 Q394.2938,26.6406 394.7156,26.2031 Q394.9813,25.9375 395.1219,25.8594 Q395.2781,25.7813 395.4813,25.7813 Q395.8094,25.7813 396.0594,26.0469 Q396.325,26.2969 396.325,26.6406 Q396.325,26.9844 395.9813,27.3906 Q395.4813,27.9688 394.6844,28.2969 Q393.6063,28.75 392.3094,28.75 Q390.7938,28.75 389.5906,28.125 Q388.6063,27.625 387.9188,26.5625 Q387.2313,25.4844 387.2313,24.2031 L387.2313,23.0469 Q387.2313,21.7188 387.8406,20.5781 Q388.4656,19.4219 389.5594,18.8125 Q390.6531,18.1875 391.8875,18.1875 Q392.6219,18.1875 393.2625,18.3594 Q393.9188,18.5156 394.4656,18.875 Z " fill="#000000"/><text fill="#000000" font-family="sans-serif" font-size="14" lengthAdjust="spacing" textLength="32" x="409.3" y="28.7285">Book</text><line style="stroke:#181818;stroke-width:0.5;" x1="361.5" x2="459.5" y1="39" y2="39"/><text fill="#000000" font-family="sans-serif" font-size="14" lengthAdjust="spacing" textLength="46" x="366.5" y="57.5332">title: str</text><text fill="#000000" font-family="sans-serif" font-size="14" lengthAdjust="spacing" textLength="65" x="366.5" y="75.1426">author: str</text><text fill="#000000" font-family="sans-serif" font-size="14" lengthAdjust="spacing" textLength="62" x="366.5" y="92.752">pages: int</text><line style="stroke:#181818;stroke-width:0.5;" x1="361.5" x2="459.5" y1="99.8281" y2="99.8281"/><ellipse cx="371.5" cy="114.1328" fill="#84BE84" rx="3" ry="3" style="stroke:#038048;stroke-width:1.0;"/><text fill="#000000" font-family="sans-serif" font-size="14" lengthAdjust="spacing" textLength="72" x="380.5" y="118.3613">print(): void</text><ellipse cx="371.5" cy="131.7422" fill="#84BE84" rx="3" ry="3" style="stroke:#038048;stroke-width:1.0;"/><text fill="#000000" font-family="sans-serif" font-size="14" lengthAdjust="spacing" textLength="74" x="380.5" y="135.9707">save(): void</text></g><path d="M495.5,48.5 L495.5,65.8516 L452.5,112.6328 L495.5,73.8516 L495.5,91.2031 A0,0 0 0 0 495.5,91.2031 L639.5,91.2031 A0,0 0 0 0 639.5,91.2031 L639.5,58.5 L629.5,48.5 L495.5,48.5 A0,0 0 0 0 495.5,48.5 " fill="#FEFFDD" style="stroke:#181818;stroke-width:0.5;"/><path d="M629.5,48.5 L629.5,58.5 L639.5,58.5 L629.5,48.5 " fill="#FEFFDD" style="stroke:#181818;stroke-width:0.5;"/><text fill="#000000" font-family="sans-serif" font-size="13" lengthAdjust="spacing" textLength="66" x="501.5" y="66.9951">Delegate to</text><text fill="#000000" font-family="sans-serif" font-size="13" lengthAdjust="spacing" textLength="123" x="501.5" y="83.3467">BookDatabase.save()</text><path d="M199.5,48.5 L199.5,91.2031 A0,0 0 0 0 199.5,91.2031 L325.5,91.2031 A0,0 0 0 0 325.5,91.2031 L325.5,73.8516 L364.5,130.2422 L325.5,65.8516 L325.5,58.5 L315.5,48.5 L199.5,48.5 A0,0 0 0 0 199.5,48.5 " fill="#FEFFDD" style="stroke:#181818;stroke-width:0.5;"/><path d="M315.5,48.5 L315.5,58.5 L325.5,58.5 L315.5,48.5 " fill="#FEFFDD" style="stroke:#181818;stroke-width:0.5;"/><text fill="#000000" font-family="sans-serif" font-size="13" lengthAdjust="spacing" textLength="66" x="205.5" y="66.9951">Delegate to</text><text fill="#000000" font-family="sans-serif" font-size="13" lengthAdjust="spacing" textLength="105" x="205.5" y="83.3467">BookPrinter.print()</text><!--class BookDatabase--><g id="elem_BookDatabase"><rect codeLine="21" fill="#F1F1F1" height="65.6094" id="BookDatabase" rx="2.5" ry="2.5" style="stroke:#181818;stroke-width:0.5;" width="171" x="202" y="223"/><ellipse cx="237.25" cy="239" fill="#B4A7E5" rx="11" ry="11" style="stroke:#181818;stroke-width:1.0;"/><path d="M238.2031,235.6406 L238.2031,242.2969 L239.9219,242.2969 Q240.5313,242.2969 240.7969,242.5313 Q241.0625,242.7656 241.0625,243.1563 Q241.0625,243.5313 240.7969,243.7656 Q240.5313,244 239.9219,244 L234.7813,244 Q234.1719,244 233.9063,243.7656 Q233.6406,243.5313 233.6406,243.1406 Q233.6406,242.7656 233.9063,242.5313 Q234.1719,242.2969 234.7813,242.2969 L236.5,242.2969 L236.5,235.6406 L234.7813,235.6406 Q234.1719,235.6406 233.9063,235.4063 Q233.6406,235.1719 233.6406,234.7813 Q233.6406,234.4063 233.9063,234.1719 Q234.1719,233.9375 234.7813,233.9375 L239.9219,233.9375 Q240.5313,233.9375 240.7969,234.1719 Q241.0625,234.4063 241.0625,234.7813 Q241.0625,235.1719 240.7969,235.4063 Q240.5313,235.6406 239.9219,235.6406 L238.2031,235.6406 Z " fill="#000000"/><text fill="#000000" font-family="sans-serif" font-size="14" font-style="italic" lengthAdjust="spacing" textLength="94" x="255.75" y="244.7285">BookDatabase</text><line style="stroke:#181818;stroke-width:0.5;" x1="203" x2="372" y1="255" y2="255"/><line style="stroke:#181818;stroke-width:0.5;" x1="203" x2="372" y1="263" y2="263"/><ellipse cx="213" cy="277.3047" fill="#84BE84" rx="3" ry="3" style="stroke:#038048;stroke-width:1.0;"/><text fill="#000000" font-family="sans-serif" font-size="14" font-style="italic" lengthAdjust="spacing" textLength="145" x="222" y="281.5332">save(book: Book): void</text></g><polygon fill="none" points="272.9727,288.6094,271.2749,309.7309,258.4739,304.0621" style="stroke:#181818;stroke-width:1.0;"/><line style="stroke:#181818;stroke-width:1.0;" x1="264.8744" x2="263.5" y1="306.8965" y2="310"/><line style="stroke:#181818;stroke-width:1.0;" x1="309.7295" x2="326.7358" y1="223" y2="197.9034"/><!--class SqlBookDatabase--><g id="elem_SqlBookDatabase"><rect codeLine="25" fill="#F1F1F1" height="65.6094" id="SqlBookDatabase" rx="2.5" ry="2.5" style="stroke:#181818;stroke-width:0.5;" width="171" x="7" y="369"/><ellipse cx="33.7" cy="385" fill="#ADD1B2" rx="11" ry="11" style="stroke:#181818;stroke-width:1.0;"/><path d="M36.4656,380.875 Q36.6219,380.6563 36.8094,380.5469 Q36.9969,380.4375 37.2156,380.4375 Q37.5906,380.4375 37.825,380.7031 Q38.0594,380.9531 38.0594,381.5625 L38.0594,383.0156 Q38.0594,383.625 37.825,383.8906 Q37.5906,384.1563 37.2156,384.1563 Q36.8719,384.1563 36.6688,383.9531 Q36.4656,383.7656 36.3563,383.25 Q36.3094,382.8906 36.1219,382.7031 Q35.7938,382.3281 35.1844,382.1094 Q34.575,381.8906 33.95,381.8906 Q33.1844,381.8906 32.5438,382.2188 Q31.9188,382.5469 31.4188,383.2969 Q30.9344,384.0469 30.9344,385.0781 L30.9344,386.1719 Q30.9344,387.4063 31.825,388.2344 Q32.7156,389.0469 34.3094,389.0469 Q35.2469,389.0469 35.9031,388.7969 Q36.2938,388.6406 36.7156,388.2031 Q36.9813,387.9375 37.1219,387.8594 Q37.2781,387.7813 37.4813,387.7813 Q37.8094,387.7813 38.0594,388.0469 Q38.325,388.2969 38.325,388.6406 Q38.325,388.9844 37.9813,389.3906 Q37.4813,389.9688 36.6844,390.2969 Q35.6063,390.75 34.3094,390.75 Q32.7938,390.75 31.5906,390.125 Q30.6063,389.625 29.9188,388.5625 Q29.2313,387.4844 29.2313,386.2031 L29.2313,385.0469 Q29.2313,383.7188 29.8406,382.5781 Q30.4656,381.4219 31.5594,380.8125 Q32.6531,380.1875 33.8875,380.1875 Q34.6219,380.1875 35.2625,380.3594 Q35.9188,380.5156 36.4656,380.875 Z " fill="#000000"/><text fill="#000000" font-family="sans-serif" font-size="14" lengthAdjust="spacing" textLength="113" x="50.3" y="390.7285">SqlBookDatabase</text><line style="stroke:#181818;stroke-width:0.5;" x1="8" x2="177" y1="401" y2="401"/><line style="stroke:#181818;stroke-width:0.5;" x1="8" x2="177" y1="409" y2="409"/><ellipse cx="18" cy="423.3047" fill="#84BE84" rx="3" ry="3" style="stroke:#038048;stroke-width:1.0;"/><text fill="#000000" font-family="sans-serif" font-size="14" lengthAdjust="spacing" textLength="145" x="27" y="427.5332">save(book: Book): void</text></g><!--class MongoBookDatabase--><g id="elem_MongoBookDatabase"><rect codeLine="28" fill="#F1F1F1" height="65.6094" id="MongoBookDatabase" rx="2.5" ry="2.5" style="stroke:#181818;stroke-width:0.5;" width="171" x="213" y="369"/><ellipse cx="229.35" cy="385" fill="#ADD1B2" rx="11" ry="11" style="stroke:#181818;stroke-width:1.0;"/><path d="M232.1156,380.875 Q232.2719,380.6563 232.4594,380.5469 Q232.6469,380.4375 232.8656,380.4375 Q233.2406,380.4375 233.475,380.7031 Q233.7094,380.9531 233.7094,381.5625 L233.7094,383.0156 Q233.7094,383.625 233.475,383.8906 Q233.2406,384.1563 232.8656,384.1563 Q232.5219,384.1563 232.3188,383.9531 Q232.1156,383.7656 232.0063,383.25 Q231.9594,382.8906 231.7719,382.7031 Q231.4438,382.3281 230.8344,382.1094 Q230.225,381.8906 229.6,381.8906 Q228.8344,381.8906 228.1938,382.2188 Q227.5688,382.5469 227.0688,383.2969 Q226.5844,384.0469 226.5844,385.0781 L226.5844,386.1719 Q226.5844,387.4063 227.475,388.2344 Q228.3656,389.0469 229.9594,389.0469 Q230.8969,389.0469 231.5531,388.7969 Q231.9438,388.6406 232.3656,388.2031 Q232.6313,387.9375 232.7719,387.8594 Q232.9281,387.7813 233.1313,387.7813 Q233.4594,387.7813 233.7094,388.0469 Q233.975,388.2969 233.975,388.6406 Q233.975,388.9844 233.6313,389.3906 Q233.1313,389.9688 232.3344,390.2969 Q231.2563,390.75 229.9594,390.75 Q228.4438,390.75 227.2406,390.125 Q226.2563,389.625 225.5688,388.5625 Q224.8813,387.4844 224.8813,386.2031 L224.8813,385.0469 Q224.8813,383.7188 225.4906,382.5781 Q226.1156,381.4219 227.2094,380.8125 Q228.3031,380.1875 229.5375,380.1875 Q230.2719,380.1875 230.9125,380.3594 Q231.5688,380.5156 232.1156,380.875 Z " fill="#000000"/><text fill="#000000" font-family="sans-serif" font-size="14" lengthAdjust="spacing" textLength="136" x="243.65" y="390.7285">MongoBookDatabase</text><line style="stroke:#181818;stroke-width:0.5;" x1="214" x2="383" y1="401" y2="401"/><line style="stroke:#181818;stroke-width:0.5;" x1="214" x2="383" y1="409" y2="409"/><ellipse cx="224" cy="423.3047" fill="#84BE84" rx="3" ry="3" style="stroke:#038048;stroke-width:1.0;"/><text fill="#000000" font-family="sans-serif" font-size="14" lengthAdjust="spacing" textLength="145" x="233" y="427.5332">save(book: Book): void</text></g><!--class BookPrinter--><g id="elem_BookPrinter"><rect codeLine="35" fill="#F1F1F1" height="65.6094" id="BookPrinter" rx="2.5" ry="2.5" style="stroke:#181818;stroke-width:0.5;" width="170" x="448.5" y="223"/><ellipse cx="491.85" cy="239" fill="#B4A7E5" rx="11" ry="11" style="stroke:#181818;stroke-width:1.0;"/><path d="M492.8031,235.6406 L492.8031,242.2969 L494.5219,242.2969 Q495.1313,242.2969 495.3969,242.5313 Q495.6625,242.7656 495.6625,243.1563 Q495.6625,243.5313 495.3969,243.7656 Q495.1313,244 494.5219,244 L489.3813,244 Q488.7719,244 488.5063,243.7656 Q488.2406,243.5313 488.2406,243.1406 Q488.2406,242.7656 488.5063,242.5313 Q488.7719,242.2969 489.3813,242.2969 L491.1,242.2969 L491.1,235.6406 L489.3813,235.6406 Q488.7719,235.6406 488.5063,235.4063 Q488.2406,235.1719 488.2406,234.7813 Q488.2406,234.4063 488.5063,234.1719 Q488.7719,233.9375 489.3813,233.9375 L494.5219,233.9375 Q495.1313,233.9375 495.3969,234.1719 Q495.6625,234.4063 495.6625,234.7813 Q495.6625,235.1719 495.3969,235.4063 Q495.1313,235.6406 494.5219,235.6406 L492.8031,235.6406 Z " fill="#000000"/><text fill="#000000" font-family="sans-serif" font-size="14" font-style="italic" lengthAdjust="spacing" textLength="75" x="512.15" y="244.7285">BookPrinter</text><line style="stroke:#181818;stroke-width:0.5;" x1="449.5" x2="617.5" y1="255" y2="255"/><line style="stroke:#181818;stroke-width:0.5;" x1="449.5" x2="617.5" y1="263" y2="263"/><ellipse cx="459.5" cy="277.3047" fill="#84BE84" rx="3" ry="3" style="stroke:#038048;stroke-width:1.0;"/><text fill="#000000" font-family="sans-serif" font-size="14" font-style="italic" lengthAdjust="spacing" textLength="144" x="468.5" y="281.5332">print(book: Book): void</text></g><polygon fill="none" points="548.0273,288.6094,562.5261,304.0621,549.7251,309.7309" style="stroke:#181818;stroke-width:1.0;"/><line style="stroke:#181818;stroke-width:1.0;" x1="556.1256" x2="557.5" y1="306.8965" y2="310"/><line style="stroke:#181818;stroke-width:1.0;" x1="511.2705" x2="494.2642" y1="223" y2="197.9034"/><!--class BwBookPrinter--><g id="elem_BwBookPrinter"><rect codeLine="39" fill="#F1F1F1" height="65.6094" id="BwBookPrinter" rx="2.5" ry="2.5" style="stroke:#181818;stroke-width:0.5;" width="169" x="439" y="369"/><ellipse cx="474.25" cy="385" fill="#ADD1B2" rx="11" ry="11" style="stroke:#181818;stroke-width:1.0;"/><path d="M477.0156,380.875 Q477.1719,380.6563 477.3594,380.5469 Q477.5469,380.4375 477.7656,380.4375 Q478.1406,380.4375 478.375,380.7031 Q478.6094,380.9531 478.6094,381.5625 L478.6094,383.0156 Q478.6094,383.625 478.375,383.8906 Q478.1406,384.1563 477.7656,384.1563 Q477.4219,384.1563 477.2188,383.9531 Q477.0156,383.7656 476.9063,383.25 Q476.8594,382.8906 476.6719,382.7031 Q476.3438,382.3281 475.7344,382.1094 Q475.125,381.8906 474.5,381.8906 Q473.7344,381.8906 473.0938,382.2188 Q472.4688,382.5469 471.9688,383.2969 Q471.4844,384.0469 471.4844,385.0781 L471.4844,386.1719 Q471.4844,387.4063 472.375,388.2344 Q473.2656,389.0469 474.8594,389.0469 Q475.7969,389.0469 476.4531,388.7969 Q476.8438,388.6406 477.2656,388.2031 Q477.5313,387.9375 477.6719,387.8594 Q477.8281,387.7813 478.0313,387.7813 Q478.3594,387.7813 478.6094,388.0469 Q478.875,388.2969 478.875,388.6406 Q478.875,388.9844 478.5313,389.3906 Q478.0313,389.9688 477.2344,390.2969 Q476.1563,390.75 474.8594,390.75 Q473.3438,390.75 472.1406,390.125 Q471.1563,389.625 470.4688,388.5625 Q469.7813,387.4844 469.7813,386.2031 L469.7813,385.0469 Q469.7813,383.7188 470.3906,382.5781 Q471.0156,381.4219 472.1094,380.8125 Q473.2031,380.1875 474.4375,380.1875 Q475.1719,380.1875 475.8125,380.3594 Q476.4688,380.5156 477.0156,380.875 Z " fill="#000000"/><text fill="#000000" font-family="sans-serif" font-size="14" lengthAdjust="spacing" textLength="92" x="492.75" y="390.7285">BwBookPrinter</text><line style="stroke:#181818;stroke-width:0.5;" x1="440" x2="607" y1="401" y2="401"/><line style="stroke:#181818;stroke-width:0.5;" x1="440" x2="607" y1="409" y2="409"/><ellipse cx="450" cy="423.3047" fill="#84BE84" rx="3" ry="3" style="stroke:#038048;stroke-width:1.0;"/><text fill="#000000" font-family="sans-serif" font-size="14" lengthAdjust="spacing" textLength="143" x="459" y="427.5332">print(book: Book): void</text></g><!--class ColorBookPrinter--><g id="elem_ColorBookPrinter"><rect codeLine="43" fill="#F1F1F1" height="65.6094" id="ColorBookPrinter" rx="2.5" ry="2.5" style="stroke:#181818;stroke-width:0.5;" width="169" x="643" y="369"/><ellipse cx="671.05" cy="385" fill="#ADD1B2" rx="11" ry="11" style="stroke:#181818;stroke-width:1.0;"/><path d="M673.8156,380.875 Q673.9719,380.6563 674.1594,380.5469 Q674.3469,380.4375 674.5656,380.4375 Q674.9406,380.4375 675.175,380.7031 Q675.4094,380.9531 675.4094,381.5625 L675.4094,383.0156 Q675.4094,383.625 675.175,383.8906 Q674.9406,384.1563 674.5656,384.1563 Q674.2219,384.1563 674.0188,383.9531 Q673.8156,383.7656 673.7063,383.25 Q673.6594,382.8906 673.4719,382.7031 Q673.1438,382.3281 672.5344,382.1094 Q671.925,381.8906 671.3,381.8906 Q670.5344,381.8906 669.8938,382.2188 Q669.2688,382.5469 668.7688,383.2969 Q668.2844,384.0469 668.2844,385.0781 L668.2844,386.1719 Q668.2844,387.4063 669.175,388.2344 Q670.0656,389.0469 671.6594,389.0469 Q672.5969,389.0469 673.2531,388.7969 Q673.6438,388.6406 674.0656,388.2031 Q674.3313,387.9375 674.4719,387.8594 Q674.6281,387.7813 674.8313,387.7813 Q675.1594,387.7813 675.4094,388.0469 Q675.675,388.2969 675.675,388.6406 Q675.675,388.9844 675.3313,389.3906 Q674.8313,389.9688 674.0344,390.2969 Q672.9563,390.75 671.6594,390.75 Q670.1438,390.75 668.9406,390.125 Q667.9563,389.625 667.2688,388.5625 Q666.5813,387.4844 666.5813,386.2031 L666.5813,385.0469 Q666.5813,383.7188 667.1906,382.5781 Q667.8156,381.4219 668.9094,380.8125 Q670.0031,380.1875 671.2375,380.1875 Q671.9719,380.1875 672.6125,380.3594 Q673.2688,380.5156 673.8156,380.875 Z " fill="#000000"/><text fill="#000000" font-family="sans-serif" font-size="14" lengthAdjust="spacing" textLength="108" x="687.95" y="390.7285">ColorBookPrinter</text><line style="stroke:#181818;stroke-width:0.5;" x1="644" x2="811" y1="401" y2="401"/><line style="stroke:#181818;stroke-width:0.5;" x1="644" x2="811" y1="409" y2="409"/><ellipse cx="654" cy="423.3047" fill="#84BE84" rx="3" ry="3" style="stroke:#038048;stroke-width:1.0;"/><text fill="#000000" font-family="sans-serif" font-size="14" lengthAdjust="spacing" textLength="143" x="663" y="427.5332">print(book: Book): void</text></g><!--reverse link BookDatabase to SqlBookDatabase--><g id="link_BookDatabase_SqlBookDatabase"><path codeLine="32" d="M263.5,310 C263.5,310 202.02,342.72 152.79,368.92 " fill="none" id="BookDatabase-backto-SqlBookDatabase" style="stroke:#181818;stroke-width:1.0;"/></g><!--reverse link BookDatabase to MongoBookDatabase--><g id="link_BookDatabase_MongoBookDatabase"><path codeLine="33" d="M263.5,310 C263.5,310 276.08,342.72 286.16,368.92 " fill="none" id="BookDatabase-backto-MongoBookDatabase" style="stroke:#181818;stroke-width:1.0;"/></g><!--reverse link BookPrinter to BwBookPrinter--><g id="link_BookPrinter_BwBookPrinter"><path codeLine="47" d="M557.5,310 C557.5,310 545.28,342.72 535.49,368.92 " fill="none" id="BookPrinter-backto-BwBookPrinter" style="stroke:#181818;stroke-width:1.0;"/></g><!--reverse link BookPrinter to ColorBookPrinter--><g id="link_BookPrinter_ColorBookPrinter"><path codeLine="48" d="M557.5,310 C557.5,310 618.62,342.72 667.56,368.92 " fill="none" id="BookPrinter-backto-ColorBookPrinter" style="stroke:#181818;stroke-width:1.0;"/></g><!--link Book to BookDatabase--><g id="link_Book_BookDatabase"><path codeLine="50" d="M364.35,143.16 C350.78,162.9 339.5458,179.2434 326.7358,197.9034 " fill="none" id="Book-to-BookDatabase" style="stroke:#181818;stroke-width:1.0;"/><polygon fill="#181818" points="323.34,202.85,331.7314,197.694,326.1698,198.7279,325.136,193.1663,323.34,202.85" style="stroke:#181818;stroke-width:1.0;"/></g><!--link Book to BookPrinter--><g id="link_Book_BookPrinter"><path codeLine="51" d="M456.65,143.16 C470.22,162.9 481.4542,179.2434 494.2642,197.9034 " fill="none" id="Book-to-BookPrinter" style="stroke:#181818;stroke-width:1.0;"/><polygon fill="#181818" points="497.66,202.85,495.864,193.1663,494.8302,198.7279,489.2686,197.694,497.66,202.85" style="stroke:#181818;stroke-width:1.0;"/></g><!--SRC=[bL0zJyCm4DtzAsu4LUd0Q266qeMX4XA_u99U4gl65-nh6Kh_EuaTIfgae7hodT-7tmixunhq-0wLvttpuchoHj0L10zA5HP3W1Np3euAsYD6B6a8ukE8UwdP_yuDLXGq62TnN3I-lTxTQpYmsQPLm0ETDoUb70k1DrKjm6MqqZhI8dnDbYfi4S9nxjxNA9XZe6MIKkIsqAdqMfRAWLI7kQhqslcGN_RV72Z5VObj2qF7leG5735l8sCX9uYVo3kl21qaI-MzVTWvYQkqnDgmg_Wcdhf0FtvbsTXw1Z6n6IVl6veBdahx8_dgSqRXNzOpM_Qt4OVe6El2UVeyjaWAa6LFCEdhlFt1VWC0]--></g></svg>