<?xml version="1.0" encoding="us-ascii" standalone="no"?><svg xmlns="http://www.w3.org/2000/svg" xmlns:xlink="http://www.w3.org/1999/xlink" contentStyleType="text/css" height="240px" preserveAspectRatio="none" style="width:600px;height:240px;background:#FFFFFF;" version="1.1" viewBox="0 0 600 240" width="600px" zoomAndPan="magnify"><defs/><g><!--class MovieV2--><g id="elem_MovieV2"><rect codeLine="2" fill="#F1F1F1" height="100.8281" id="MovieV2" rx="2.5" ry="2.5" style="stroke:#181818;stroke-width:0.5;" width="172" x="214" y="7"/><ellipse cx="268.75" cy="23" fill="#ADD1B2" rx="11" ry="11" style="stroke:#181818;stroke-width:1.0;"/><path d="M271.5156,18.875 Q271.6719,18.6563 271.8594,18.5469 Q272.0469,18.4375 272.2656,18.4375 Q272.6406,18.4375 272.875,18.7031 Q273.1094,18.9531 273.1094,19.5625 L273.1094,21.0156 Q273.1094,21.625 272.875,21.8906 Q272.6406,22.1563 272.2656,22.1563 Q271.9219,22.1563 271.7188,21.9531 Q271.5156,21.7656 271.4063,21.25 Q271.3594,20.8906 271.1719,20.7031 Q270.8438,20.3281 270.2344,20.1094 Q269.625,19.8906 269,19.8906 Q268.2344,19.8906 267.5938,20.2188 Q266.9688,20.5469 266.4688,21.2969 Q265.9844,22.0469 265.9844,23.0781 L265.9844,24.1719 Q265.9844,25.4063 266.875,26.2344 Q267.7656,27.0469 269.3594,27.0469 Q270.2969,27.0469 270.9531,26.7969 Q271.3438,26.6406 271.7656,26.2031 Q272.0313,25.9375 272.1719,25.8594 Q272.3281,25.7813 272.5313,25.7813 Q272.8594,25.7813 273.1094,26.0469 Q273.375,26.2969 273.375,26.6406 Q273.375,26.9844 273.0313,27.3906 Q272.5313,27.9688 271.7344,28.2969 Q270.6563,28.75 269.3594,28.75 Q267.8438,28.75 266.6406,28.125 Q265.6563,27.625 264.9688,26.5625 Q264.2813,25.4844 264.2813,24.2031 L264.2813,23.0469 Q264.2813,21.7188 264.8906,20.5781 Q265.5156,19.4219 266.6094,18.8125 Q267.7031,18.1875 268.9375,18.1875 Q269.6719,18.1875 270.3125,18.3594 Q270.9688,18.5156 271.5156,18.875 Z " fill="#000000"/><text fill="#000000" font-family="sans-serif" font-size="14" lengthAdjust="spacing" textLength="54" x="289.25" y="28.7285">MovieV2</text><line style="stroke:#181818;stroke-width:0.5;" x1="215" x2="385" y1="39" y2="39"/><rect fill="none" height="6" style="stroke:#C82930;stroke-width:1.0;" width="6" x="222" y="50.3047"/><text fill="#000000" font-family="sans-serif" font-size="14" lengthAdjust="spacing" textLength="96" x="234" y="57.5332">std::string title_</text><line style="stroke:#181818;stroke-width:0.5;" x1="215" x2="385" y1="64.6094" y2="64.6094"/><ellipse cx="225" cy="78.9141" fill="#84BE84" rx="3" ry="3" style="stroke:#038048;stroke-width:1.0;"/><text fill="#000000" font-family="sans-serif" font-size="14" font-style="italic" lengthAdjust="spacing" textLength="146" x="234" y="83.1426">double ComputePrice()</text><ellipse cx="225" cy="96.5234" fill="#84BE84" rx="3" ry="3" style="stroke:#038048;stroke-width:1.0;"/><text fill="#000000" font-family="sans-serif" font-size="14" lengthAdjust="spacing" textLength="92" x="234" y="100.752">void PrintInfo()</text></g><!--class RegularMovie--><g id="elem_RegularMovie"><rect codeLine="8" fill="#F1F1F1" height="65.6094" id="RegularMovie" rx="2.5" ry="2.5" style="stroke:#181818;stroke-width:0.5;" width="172" x="7" y="168"/><ellipse cx="45.85" cy="184" fill="#ADD1B2" rx="11" ry="11" style="stroke:#181818;stroke-width:1.0;"/><path d="M48.6156,179.875 Q48.7719,179.6563 48.9594,179.5469 Q49.1469,179.4375 49.3656,179.4375 Q49.7406,179.4375 49.975,179.7031 Q50.2094,179.9531 50.2094,180.5625 L50.2094,182.0156 Q50.2094,182.625 49.975,182.8906 Q49.7406,183.1563 49.3656,183.1563 Q49.0219,183.1563 48.8188,182.9531 Q48.6156,182.7656 48.5063,182.25 Q48.4594,181.8906 48.2719,181.7031 Q47.9438,181.3281 47.3344,181.1094 Q46.725,180.8906 46.1,180.8906 Q45.3344,180.8906 44.6938,181.2188 Q44.0688,181.5469 43.5688,182.2969 Q43.0844,183.0469 43.0844,184.0781 L43.0844,185.1719 Q43.0844,186.4063 43.975,187.2344 Q44.8656,188.0469 46.4594,188.0469 Q47.3969,188.0469 48.0531,187.7969 Q48.4438,187.6406 48.8656,187.2031 Q49.1313,186.9375 49.2719,186.8594 Q49.4281,186.7813 49.6313,186.7813 Q49.9594,186.7813 50.2094,187.0469 Q50.475,187.2969 50.475,187.6406 Q50.475,187.9844 50.1313,188.3906 Q49.6313,188.9688 48.8344,189.2969 Q47.7563,189.75 46.4594,189.75 Q44.9438,189.75 43.7406,189.125 Q42.7563,188.625 42.0688,187.5625 Q41.3813,186.4844 41.3813,185.2031 L41.3813,184.0469 Q41.3813,182.7188 41.9906,181.5781 Q42.6156,180.4219 43.7094,179.8125 Q44.8031,179.1875 46.0375,179.1875 Q46.7719,179.1875 47.4125,179.3594 Q48.0688,179.5156 48.6156,179.875 Z " fill="#000000"/><text fill="#000000" font-family="sans-serif" font-size="14" lengthAdjust="spacing" textLength="87" x="65.15" y="189.7285">RegularMovie</text><line style="stroke:#181818;stroke-width:0.5;" x1="8" x2="178" y1="200" y2="200"/><line style="stroke:#181818;stroke-width:0.5;" x1="8" x2="178" y1="208" y2="208"/><ellipse cx="18" cy="222.3047" fill="#84BE84" rx="3" ry="3" style="stroke:#038048;stroke-width:1.0;"/><text fill="#000000" font-family="sans-serif" font-size="14" lengthAdjust="spacing" textLength="146" x="27" y="226.5332">double ComputePrice()</text></g><!--class ChildrenMovie--><g id="elem_ChildrenMovie"><rect codeLine="12" fill="#F1F1F1" height="65.6094" id="ChildrenMovie" rx="2.5" ry="2.5" style="stroke:#181818;stroke-width:0.5;" width="172" x="214" y="168"/><ellipse cx="251.5" cy="184" fill="#ADD1B2" rx="11" ry="11" style="stroke:#181818;stroke-width:1.0;"/><path d="M254.2656,179.875 Q254.4219,179.6563 254.6094,179.5469 Q254.7969,179.4375 255.0156,179.4375 Q255.3906,179.4375 255.625,179.7031 Q255.8594,179.9531 255.8594,180.5625 L255.8594,182.0156 Q255.8594,182.625 255.625,182.8906 Q255.3906,183.1563 255.0156,183.1563 Q254.6719,183.1563 254.4688,182.9531 Q254.2656,182.7656 254.1563,182.25 Q254.1094,181.8906 253.9219,181.7031 Q253.5938,181.3281 252.9844,181.1094 Q252.375,180.8906 251.75,180.8906 Q250.9844,180.8906 250.3438,181.2188 Q249.7188,181.5469 249.2188,182.2969 Q248.7344,183.0469 248.7344,184.0781 L248.7344,185.1719 Q248.7344,186.4063 249.625,187.2344 Q250.5156,188.0469 252.1094,188.0469 Q253.0469,188.0469 253.7031,187.7969 Q254.0938,187.6406 254.5156,187.2031 Q254.7813,186.9375 254.9219,186.8594 Q255.0781,186.7813 255.2813,186.7813 Q255.6094,186.7813 255.8594,187.0469 Q256.125,187.2969 256.125,187.6406 Q256.125,187.9844 255.7813,188.3906 Q255.2813,188.9688 254.4844,189.2969 Q253.4063,189.75 252.1094,189.75 Q250.5938,189.75 249.3906,189.125 Q248.4063,188.625 247.7188,187.5625 Q247.0313,186.4844 247.0313,185.2031 L247.0313,184.0469 Q247.0313,182.7188 247.6406,181.5781 Q248.2656,180.4219 249.3594,179.8125 Q250.4531,179.1875 251.6875,179.1875 Q252.4219,179.1875 253.0625,179.3594 Q253.7188,179.5156 254.2656,179.875 Z " fill="#000000"/><text fill="#000000" font-family="sans-serif" font-size="14" lengthAdjust="spacing" textLength="90" x="270.5" y="189.7285">ChildrenMovie</text><line style="stroke:#181818;stroke-width:0.5;" x1="215" x2="385" y1="200" y2="200"/><line style="stroke:#181818;stroke-width:0.5;" x1="215" x2="385" y1="208" y2="208"/><ellipse cx="225" cy="222.3047" fill="#84BE84" rx="3" ry="3" style="stroke:#038048;stroke-width:1.0;"/><text fill="#000000" font-family="sans-serif" font-size="14" lengthAdjust="spacing" textLength="146" x="234" y="226.5332">double ComputePrice()</text></g><!--class NewReleaseMovie--><g id="elem_NewReleaseMovie"><rect codeLine="16" fill="#F1F1F1" height="65.6094" id="NewReleaseMovie" rx="2.5" ry="2.5" style="stroke:#181818;stroke-width:0.5;" width="172" x="421" y="168"/><ellipse cx="447.25" cy="184" fill="#ADD1B2" rx="11" ry="11" style="stroke:#181818;stroke-width:1.0;"/><path d="M450.0156,179.875 Q450.1719,179.6563 450.3594,179.5469 Q450.5469,179.4375 450.7656,179.4375 Q451.1406,179.4375 451.375,179.7031 Q451.6094,179.9531 451.6094,180.5625 L451.6094,182.0156 Q451.6094,182.625 451.375,182.8906 Q451.1406,183.1563 450.7656,183.1563 Q450.4219,183.1563 450.2188,182.9531 Q450.0156,182.7656 449.9063,182.25 Q449.8594,181.8906 449.6719,181.7031 Q449.3438,181.3281 448.7344,181.1094 Q448.125,180.8906 447.5,180.8906 Q446.7344,180.8906 446.0938,181.2188 Q445.4688,181.5469 444.9688,182.2969 Q444.4844,183.0469 444.4844,184.0781 L444.4844,185.1719 Q444.4844,186.4063 445.375,187.2344 Q446.2656,188.0469 447.8594,188.0469 Q448.7969,188.0469 449.4531,187.7969 Q449.8438,187.6406 450.2656,187.2031 Q450.5313,186.9375 450.6719,186.8594 Q450.8281,186.7813 451.0313,186.7813 Q451.3594,186.7813 451.6094,187.0469 Q451.875,187.2969 451.875,187.6406 Q451.875,187.9844 451.5313,188.3906 Q451.0313,188.9688 450.2344,189.2969 Q449.1563,189.75 447.8594,189.75 Q446.3438,189.75 445.1406,189.125 Q444.1563,188.625 443.4688,187.5625 Q442.7813,186.4844 442.7813,185.2031 L442.7813,184.0469 Q442.7813,182.7188 443.3906,181.5781 Q444.0156,180.4219 445.1094,179.8125 Q446.2031,179.1875 447.4375,179.1875 Q448.1719,179.1875 448.8125,179.3594 Q449.4688,179.5156 450.0156,179.875 Z " fill="#000000"/><text fill="#000000" font-family="sans-serif" font-size="14" lengthAdjust="spacing" textLength="115" x="463.75" y="189.7285">NewReleaseMovie</text><line style="stroke:#181818;stroke-width:0.5;" x1="422" x2="592" y1="200" y2="200"/><line style="stroke:#181818;stroke-width:0.5;" x1="422" x2="592" y1="208" y2="208"/><ellipse cx="432" cy="222.3047" fill="#84BE84" rx="3" ry="3" style="stroke:#038048;stroke-width:1.0;"/><text fill="#000000" font-family="sans-serif" font-size="14" lengthAdjust="spacing" textLength="146" x="441" y="226.5332">double ComputePrice()</text></g><!--reverse link MovieV2 to RegularMovie--><g id="link_MovieV2_RegularMovie"><path codeLine="20" d="M212.4499,118.3477 C183.4399,138.1777 165.74,150.27 139.95,167.91 " fill="none" id="MovieV2-backto-RegularMovie" style="stroke:#181818;stroke-width:1.0;"/><polygon fill="none" points="227.31,108.19,209.064,113.3943,215.8358,123.301,227.31,108.19" style="stroke:#181818;stroke-width:1.0;"/></g><!--reverse link MovieV2 to ChildrenMovie--><g id="link_MovieV2_ChildrenMovie"><path codeLine="21" d="M300,126.39 C300,146.12 300,150.23 300,167.79 " fill="none" id="MovieV2-backto-ChildrenMovie" style="stroke:#181818;stroke-width:1.0;"/><polygon fill="none" points="300,108.39,294,126.39,306,126.39,300,108.39" style="stroke:#181818;stroke-width:1.0;"/></g><!--reverse link MovieV2 to NewReleaseMovie--><g id="link_MovieV2_NewReleaseMovie"><path codeLine="22" d="M387.5501,118.3477 C416.5601,138.1777 434.26,150.27 460.05,167.91 " fill="none" id="MovieV2-backto-NewReleaseMovie" style="stroke:#181818;stroke-width:1.0;"/><polygon fill="none" points="372.69,108.19,384.1642,123.301,390.936,113.3943,372.69,108.19" style="stroke:#181818;stroke-width:1.0;"/></g><!--SRC=[bP0n2y8m48Nt_8eRbPB5iRXrSb2aGrT9axC6OYB9fGwr_zqGgX11q1lVktVVuwGH8S3UZHgx3KmCqd08fEewaDTs0D9ay9ID2YRH9rb8ca6vs1k4nbrlaV3ejSJLUbaRdLQG94ixUtP9dXcJcTJY48tm6RZWgY-dtfdceetoQFyA7V3Uea4HyCVOwmVR1-T5pT8fofJM1v8z0G00]--></g></svg>