<?xml version="1.0" encoding="us-ascii" standalone="no"?><svg xmlns="http://www.w3.org/2000/svg" xmlns:xlink="http://www.w3.org/1999/xlink" contentStyleType="text/css" height="311px" preserveAspectRatio="none" style="width:917px;height:311px;background:#FFFFFF;" version="1.1" viewBox="0 0 917 311" width="917px" zoomAndPan="magnify"><defs/><g><!--class WeatherErrorLogger--><g id="elem_WeatherErrorLogger"><rect codeLine="2" fill="#F1F1F1" height="65.6094" id="WeatherErrorLogger" rx="2.5" ry="2.5" style="stroke:#181818;stroke-width:0.5;" width="230" x="319" y="15.5"/><ellipse cx="364.25" cy="31.5" fill="#ADD1B2" rx="11" ry="11" style="stroke:#181818;stroke-width:1.0;"/><path d="M367.0156,27.375 Q367.1719,27.1563 367.3594,27.0469 Q367.5469,26.9375 367.7656,26.9375 Q368.1406,26.9375 368.375,27.2031 Q368.6094,27.4531 368.6094,28.0625 L368.6094,29.5156 Q368.6094,30.125 368.375,30.3906 Q368.1406,30.6563 367.7656,30.6563 Q367.4219,30.6563 367.2188,30.4531 Q367.0156,30.2656 366.9063,29.75 Q366.8594,29.3906 366.6719,29.2031 Q366.3438,28.8281 365.7344,28.6094 Q365.125,28.3906 364.5,28.3906 Q363.7344,28.3906 363.0938,28.7188 Q362.4688,29.0469 361.9688,29.7969 Q361.4844,30.5469 361.4844,31.5781 L361.4844,32.6719 Q361.4844,33.9063 362.375,34.7344 Q363.2656,35.5469 364.8594,35.5469 Q365.7969,35.5469 366.4531,35.2969 Q366.8438,35.1406 367.2656,34.7031 Q367.5313,34.4375 367.6719,34.3594 Q367.8281,34.2813 368.0313,34.2813 Q368.3594,34.2813 368.6094,34.5469 Q368.875,34.7969 368.875,35.1406 Q368.875,35.4844 368.5313,35.8906 Q368.0313,36.4688 367.2344,36.7969 Q366.1563,37.25 364.8594,37.25 Q363.3438,37.25 362.1406,36.625 Q361.1563,36.125 360.4688,35.0625 Q359.7813,33.9844 359.7813,32.7031 L359.7813,31.5469 Q359.7813,30.2188 360.3906,29.0781 Q361.0156,27.9219 362.1094,27.3125 Q363.2031,26.6875 364.4375,26.6875 Q365.1719,26.6875 365.8125,26.8594 Q366.4688,27.0156 367.0156,27.375 Z " fill="#000000"/><text fill="#000000" font-family="sans-serif" font-size="14" lengthAdjust="spacing" textLength="131" x="384.75" y="37.2285">WeatherErrorLogger</text><line style="stroke:#181818;stroke-width:0.5;" x1="320" x2="548" y1="47.5" y2="47.5"/><line style="stroke:#181818;stroke-width:0.5;" x1="320" x2="548" y1="55.5" y2="55.5"/><ellipse cx="330" cy="69.8047" fill="#84BE84" rx="3" ry="3" style="stroke:#038048;stroke-width:1.0;"/><text fill="#000000" font-family="sans-serif" font-size="14" lengthAdjust="spacing" textLength="204" x="339" y="74.0332">LogError(errorMsg: string) : void</text></g><!--class WeatherData--><g id="elem_WeatherData"><rect codeLine="6" fill="#F1F1F1" height="83.2188" id="WeatherData" rx="2.5" ry="2.5" style="stroke:#181818;stroke-width:0.5;" width="178" x="584" y="7"/><ellipse cx="626.9" cy="23" fill="#ADD1B2" rx="11" ry="11" style="stroke:#181818;stroke-width:1.0;"/><path d="M629.6656,18.875 Q629.8219,18.6563 630.0094,18.5469 Q630.1969,18.4375 630.4156,18.4375 Q630.7906,18.4375 631.025,18.7031 Q631.2594,18.9531 631.2594,19.5625 L631.2594,21.0156 Q631.2594,21.625 631.025,21.8906 Q630.7906,22.1563 630.4156,22.1563 Q630.0719,22.1563 629.8688,21.9531 Q629.6656,21.7656 629.5563,21.25 Q629.5094,20.8906 629.3219,20.7031 Q628.9938,20.3281 628.3844,20.1094 Q627.775,19.8906 627.15,19.8906 Q626.3844,19.8906 625.7438,20.2188 Q625.1188,20.5469 624.6188,21.2969 Q624.1344,22.0469 624.1344,23.0781 L624.1344,24.1719 Q624.1344,25.4063 625.025,26.2344 Q625.9156,27.0469 627.5094,27.0469 Q628.4469,27.0469 629.1031,26.7969 Q629.4938,26.6406 629.9156,26.2031 Q630.1813,25.9375 630.3219,25.8594 Q630.4781,25.7813 630.6813,25.7813 Q631.0094,25.7813 631.2594,26.0469 Q631.525,26.2969 631.525,26.6406 Q631.525,26.9844 631.1813,27.3906 Q630.6813,27.9688 629.8844,28.2969 Q628.8063,28.75 627.5094,28.75 Q625.9938,28.75 624.7906,28.125 Q623.8063,27.625 623.1188,26.5625 Q622.4313,25.4844 622.4313,24.2031 L622.4313,23.0469 Q622.4313,21.7188 623.0406,20.5781 Q623.6656,19.4219 624.7594,18.8125 Q625.8531,18.1875 627.0875,18.1875 Q627.8219,18.1875 628.4625,18.3594 Q629.1188,18.5156 629.6656,18.875 Z " fill="#000000"/><text fill="#000000" font-family="sans-serif" font-size="14" lengthAdjust="spacing" textLength="84" x="647.1" y="28.7285">WeatherData</text><line style="stroke:#181818;stroke-width:0.5;" x1="585" x2="761" y1="39" y2="39"/><rect fill="none" height="6" style="stroke:#C82930;stroke-width:1.0;" width="6" x="592" y="50.3047"/><text fill="#000000" font-family="sans-serif" font-size="14" lengthAdjust="spacing" textLength="146" x="604" y="57.5332">data_ : vector&lt;double&gt;</text><line style="stroke:#181818;stroke-width:0.5;" x1="585" x2="761" y1="64.6094" y2="64.6094"/><ellipse cx="595" cy="78.9141" fill="#84BE84" rx="3" ry="3" style="stroke:#038048;stroke-width:1.0;"/><text fill="#000000" font-family="sans-serif" font-size="14" lengthAdjust="spacing" textLength="152" x="604" y="83.1426">FormattedData() : string</text></g><!--class WeatherDataSource--><g id="elem_WeatherDataSource"><rect codeLine="11" fill="#F1F1F1" height="136.0469" id="WeatherDataSource" rx="2.5" ry="2.5" style="stroke:#181818;stroke-width:0.5;" width="258" x="7" y="168"/><ellipse cx="67.25" cy="184" fill="#ADD1B2" rx="11" ry="11" style="stroke:#181818;stroke-width:1.0;"/><path d="M70.0156,179.875 Q70.1719,179.6563 70.3594,179.5469 Q70.5469,179.4375 70.7656,179.4375 Q71.1406,179.4375 71.375,179.7031 Q71.6094,179.9531 71.6094,180.5625 L71.6094,182.0156 Q71.6094,182.625 71.375,182.8906 Q71.1406,183.1563 70.7656,183.1563 Q70.4219,183.1563 70.2188,182.9531 Q70.0156,182.7656 69.9063,182.25 Q69.8594,181.8906 69.6719,181.7031 Q69.3438,181.3281 68.7344,181.1094 Q68.125,180.8906 67.5,180.8906 Q66.7344,180.8906 66.0938,181.2188 Q65.4688,181.5469 64.9688,182.2969 Q64.4844,183.0469 64.4844,184.0781 L64.4844,185.1719 Q64.4844,186.4063 65.375,187.2344 Q66.2656,188.0469 67.8594,188.0469 Q68.7969,188.0469 69.4531,187.7969 Q69.8438,187.6406 70.2656,187.2031 Q70.5313,186.9375 70.6719,186.8594 Q70.8281,186.7813 71.0313,186.7813 Q71.3594,186.7813 71.6094,187.0469 Q71.875,187.2969 71.875,187.6406 Q71.875,187.9844 71.5313,188.3906 Q71.0313,188.9688 70.2344,189.2969 Q69.1563,189.75 67.8594,189.75 Q66.3438,189.75 65.1406,189.125 Q64.1563,188.625 63.4688,187.5625 Q62.7813,186.4844 62.7813,185.2031 L62.7813,184.0469 Q62.7813,182.7188 63.3906,181.5781 Q64.0156,180.4219 65.1094,179.8125 Q66.2031,179.1875 67.4375,179.1875 Q68.1719,179.1875 68.8125,179.3594 Q69.4688,179.5156 70.0156,179.875 Z " fill="#000000"/><text fill="#000000" font-family="sans-serif" font-size="14" lengthAdjust="spacing" textLength="129" x="87.75" y="189.7285">WeatherDataSource</text><line style="stroke:#181818;stroke-width:0.5;" x1="8" x2="264" y1="200" y2="200"/><rect fill="none" height="6" style="stroke:#C82930;stroke-width:1.0;" width="6" x="15" y="211.3047"/><text fill="#000000" font-family="sans-serif" font-size="14" lengthAdjust="spacing" textLength="107" x="27" y="218.5332">rawData_ : string</text><rect fill="none" height="6" style="stroke:#C82930;stroke-width:1.0;" width="6" x="15" y="228.9141"/><text fill="#000000" font-family="sans-serif" font-size="14" lengthAdjust="spacing" textLength="100" x="27" y="236.1426">hasData_ : bool</text><rect fill="none" height="6" style="stroke:#C82930;stroke-width:1.0;" width="6" x="15" y="246.5234"/><text fill="#000000" font-family="sans-serif" font-size="14" lengthAdjust="spacing" textLength="232" x="27" y="253.752">errorLogger_ : WeatherErrorLogger*</text><line style="stroke:#181818;stroke-width:0.5;" x1="8" x2="264" y1="260.8281" y2="260.8281"/><ellipse cx="18" cy="275.1328" fill="#84BE84" rx="3" ry="3" style="stroke:#038048;stroke-width:1.0;"/><text fill="#000000" font-family="sans-serif" font-size="14" lengthAdjust="spacing" textLength="114" x="27" y="279.3613">FetchData() : void</text><ellipse cx="18" cy="292.7422" fill="#84BE84" rx="3" ry="3" style="stroke:#038048;stroke-width:1.0;"/><text fill="#000000" font-family="sans-serif" font-size="14" lengthAdjust="spacing" textLength="137" x="27" y="296.9707">GetRawData() : string</text></g><!--class WeatherDataParser--><g id="elem_WeatherDataParser"><rect codeLine="19" fill="#F1F1F1" height="83.2188" id="WeatherDataParser" rx="2.5" ry="2.5" style="stroke:#181818;stroke-width:0.5;" width="268" x="300" y="194.5"/><ellipse cx="366.75" cy="210.5" fill="#ADD1B2" rx="11" ry="11" style="stroke:#181818;stroke-width:1.0;"/><path d="M369.5156,206.375 Q369.6719,206.1563 369.8594,206.0469 Q370.0469,205.9375 370.2656,205.9375 Q370.6406,205.9375 370.875,206.2031 Q371.1094,206.4531 371.1094,207.0625 L371.1094,208.5156 Q371.1094,209.125 370.875,209.3906 Q370.6406,209.6563 370.2656,209.6563 Q369.9219,209.6563 369.7188,209.4531 Q369.5156,209.2656 369.4063,208.75 Q369.3594,208.3906 369.1719,208.2031 Q368.8438,207.8281 368.2344,207.6094 Q367.625,207.3906 367,207.3906 Q366.2344,207.3906 365.5938,207.7188 Q364.9688,208.0469 364.4688,208.7969 Q363.9844,209.5469 363.9844,210.5781 L363.9844,211.6719 Q363.9844,212.9063 364.875,213.7344 Q365.7656,214.5469 367.3594,214.5469 Q368.2969,214.5469 368.9531,214.2969 Q369.3438,214.1406 369.7656,213.7031 Q370.0313,213.4375 370.1719,213.3594 Q370.3281,213.2813 370.5313,213.2813 Q370.8594,213.2813 371.1094,213.5469 Q371.375,213.7969 371.375,214.1406 Q371.375,214.4844 371.0313,214.8906 Q370.5313,215.4688 369.7344,215.7969 Q368.6563,216.25 367.3594,216.25 Q365.8438,216.25 364.6406,215.625 Q363.6563,215.125 362.9688,214.0625 Q362.2813,212.9844 362.2813,211.7031 L362.2813,210.5469 Q362.2813,209.2188 362.8906,208.0781 Q363.5156,206.9219 364.6094,206.3125 Q365.7031,205.6875 366.9375,205.6875 Q367.6719,205.6875 368.3125,205.8594 Q368.9688,206.0156 369.5156,206.375 Z " fill="#000000"/><text fill="#000000" font-family="sans-serif" font-size="14" lengthAdjust="spacing" textLength="126" x="387.25" y="216.2285">WeatherDataParser</text><line style="stroke:#181818;stroke-width:0.5;" x1="301" x2="567" y1="226.5" y2="226.5"/><rect fill="none" height="6" style="stroke:#C82930;stroke-width:1.0;" width="6" x="308" y="237.8047"/><text fill="#000000" font-family="sans-serif" font-size="14" lengthAdjust="spacing" textLength="232" x="320" y="245.0332">errorLogger_ : WeatherErrorLogger*</text><line style="stroke:#181818;stroke-width:0.5;" x1="301" x2="567" y1="252.1094" y2="252.1094"/><ellipse cx="311" cy="266.4141" fill="#84BE84" rx="3" ry="3" style="stroke:#038048;stroke-width:1.0;"/><text fill="#000000" font-family="sans-serif" font-size="14" lengthAdjust="spacing" textLength="242" x="320" y="270.6426">Parse(rawData : string) : WeatherData</text></g><!--class WeatherDisplay--><g id="elem_WeatherDisplay"><rect codeLine="24" fill="#F1F1F1" height="100.8281" id="WeatherDisplay" rx="2.5" ry="2.5" style="stroke:#181818;stroke-width:0.5;" width="307" x="603.5" y="185.5"/><ellipse cx="702.75" cy="201.5" fill="#ADD1B2" rx="11" ry="11" style="stroke:#181818;stroke-width:1.0;"/><path d="M705.5156,197.375 Q705.6719,197.1563 705.8594,197.0469 Q706.0469,196.9375 706.2656,196.9375 Q706.6406,196.9375 706.875,197.2031 Q707.1094,197.4531 707.1094,198.0625 L707.1094,199.5156 Q707.1094,200.125 706.875,200.3906 Q706.6406,200.6563 706.2656,200.6563 Q705.9219,200.6563 705.7188,200.4531 Q705.5156,200.2656 705.4063,199.75 Q705.3594,199.3906 705.1719,199.2031 Q704.8438,198.8281 704.2344,198.6094 Q703.625,198.3906 703,198.3906 Q702.2344,198.3906 701.5938,198.7188 Q700.9688,199.0469 700.4688,199.7969 Q699.9844,200.5469 699.9844,201.5781 L699.9844,202.6719 Q699.9844,203.9063 700.875,204.7344 Q701.7656,205.5469 703.3594,205.5469 Q704.2969,205.5469 704.9531,205.2969 Q705.3438,205.1406 705.7656,204.7031 Q706.0313,204.4375 706.1719,204.3594 Q706.3281,204.2813 706.5313,204.2813 Q706.8594,204.2813 707.1094,204.5469 Q707.375,204.7969 707.375,205.1406 Q707.375,205.4844 707.0313,205.8906 Q706.5313,206.4688 705.7344,206.7969 Q704.6563,207.25 703.3594,207.25 Q701.8438,207.25 700.6406,206.625 Q699.6563,206.125 698.9688,205.0625 Q698.2813,203.9844 698.2813,202.7031 L698.2813,201.5469 Q698.2813,200.2188 698.8906,199.0781 Q699.5156,197.9219 700.6094,197.3125 Q701.7031,196.6875 702.9375,196.6875 Q703.6719,196.6875 704.3125,196.8594 Q704.9688,197.0156 705.5156,197.375 Z " fill="#000000"/><text fill="#000000" font-family="sans-serif" font-size="14" lengthAdjust="spacing" textLength="100" x="723.25" y="207.2285">WeatherDisplay</text><line style="stroke:#181818;stroke-width:0.5;" x1="604.5" x2="909.5" y1="217.5" y2="217.5"/><rect fill="none" height="6" style="stroke:#C82930;stroke-width:1.0;" width="6" x="611.5" y="228.8047"/><text fill="#000000" font-family="sans-serif" font-size="14" lengthAdjust="spacing" textLength="232" x="623.5" y="236.0332">errorLogger_ : WeatherErrorLogger*</text><line style="stroke:#181818;stroke-width:0.5;" x1="604.5" x2="909.5" y1="243.1094" y2="243.1094"/><ellipse cx="614.5" cy="257.4141" fill="#84BE84" rx="3" ry="3" style="stroke:#038048;stroke-width:1.0;"/><text fill="#000000" font-family="sans-serif" font-size="14" lengthAdjust="spacing" textLength="281" x="623.5" y="261.6426">displayInFormatA(data : WeatherData) : void</text><ellipse cx="614.5" cy="275.0234" fill="#84BE84" rx="3" ry="3" style="stroke:#038048;stroke-width:1.0;"/><text fill="#000000" font-family="sans-serif" font-size="14" lengthAdjust="spacing" textLength="281" x="623.5" y="279.252">displayInFormatB(data : WeatherData) : void</text></g><!--reverse link WeatherErrorLogger to WeatherDataSource--><g id="link_WeatherErrorLogger_WeatherDataSource"><path codeLine="30" d="M377.3364,84.771 C339.1864,108.521 290.96,138.54 243.67,167.98 " fill="none" id="WeatherErrorLogger-backto-WeatherDataSource" style="stroke:#181818;stroke-width:1.0;stroke-dasharray:7.0,7.0;"/><polygon fill="#181818" points="382.43,81.6,372.6756,82.9607,378.1853,84.2425,376.9036,89.7522,382.43,81.6" style="stroke:#181818;stroke-width:1.0;"/><text fill="#000000" font-family="sans-serif" font-size="13" lengthAdjust="spacing" textLength="21" x="322" y="134.4951">has</text></g><!--reverse link WeatherErrorLogger to WeatherDataParser--><g id="link_WeatherErrorLogger_WeatherDataParser"><path codeLine="31" d="M434,87.81 C434,119.06 434,160.51 434,194.31 " fill="none" id="WeatherErrorLogger-backto-WeatherDataParser" style="stroke:#181818;stroke-width:1.0;stroke-dasharray:7.0,7.0;"/><polygon fill="#181818" points="434,81.81,430,90.81,434,86.81,438,90.81,434,81.81" style="stroke:#181818;stroke-width:1.0;"/><text fill="#000000" font-family="sans-serif" font-size="13" lengthAdjust="spacing" textLength="21" x="435" y="134.4951">has</text></g><!--reverse link WeatherErrorLogger to WeatherDisplay--><g id="link_WeatherErrorLogger_WeatherDisplay"><path codeLine="32" d="M495.0931,84.588 C544.8431,113.158 613.19,152.41 670.52,185.33 " fill="none" id="WeatherErrorLogger-backto-WeatherDisplay" style="stroke:#181818;stroke-width:1.0;stroke-dasharray:7.0,7.0;"/><polygon fill="#181818" points="489.89,81.6,495.7026,89.5507,494.2259,84.09,499.6866,82.6132,489.89,81.6" style="stroke:#181818;stroke-width:1.0;"/><text fill="#000000" font-family="sans-serif" font-size="13" lengthAdjust="spacing" textLength="21" x="587" y="134.4951">has</text></g><!--SRC=[bL9TQy9047pFhxZ7LD4V44HGj2AqKFJ1HrdlbYGGNTaxMqJyxzwNcjQWQHv2CjcPsPcBh41hiK8m1VAKcVY3yXnPd19XhwvzysYAxlwfyqnem-KkVnEP-API9USaaNMH2HY8x9wopsitYD8G3nGTDXKEW_8xyHQCGUK8gPCBmes2IpgmnAiimyyaAaUEXmlGLtX3L0KGxvdSXyUadRWE6bdSLl79F3v3imXshtRy0jQtubhxUbOQ4ubwkpNfHxzIxoiu_jTC1Tfy5yeVfIgOrgn-f_z363yZs1qR_gD1lzzma9cmXzLYF7RQQZnM4cOl]--></g></svg>