<?xml version="1.0" encoding="us-ascii" standalone="no"?><svg xmlns="http://www.w3.org/2000/svg" xmlns:xlink="http://www.w3.org/1999/xlink" contentStyleType="text/css" height="624px" preserveAspectRatio="none" style="width:530px;height:624px;background:#FFFFFF;" version="1.1" viewBox="0 0 530 624" width="530px" zoomAndPan="magnify"><defs/><g><!--cluster adventure::v4c--><g id="cluster_adventure::v4c"><path d="M8.5,6 L115.5,6 A3.75,3.75 0 0 1 118,8.5 L125,29.6094 L520.5,29.6094 A2.5,2.5 0 0 1 523,32.1094 L523,614.5 A2.5,2.5 0 0 1 520.5,617 L8.5,617 A2.5,2.5 0 0 1 6,614.5 L6,8.5 A2.5,2.5 0 0 1 8.5,6 " fill="none" style="stroke:#000000;stroke-width:1.5;"/><line style="stroke:#000000;stroke-width:1.5;" x1="6" x2="125" y1="29.6094" y2="29.6094"/><text fill="#000000" font-family="sans-serif" font-size="14" font-weight="bold" lengthAdjust="spacing" textLength="106" x="10" y="22.5332">adventure::v4c</text></g><!--class Action--><g id="elem_Action"><rect codeLine="5" fill="#ADD8E6" height="118.4375" id="Action" rx="2.5" ry="2.5" style="stroke:#00008B;stroke-width:2.0;" width="186" x="321" y="366"/><ellipse cx="390.25" cy="382" fill="#ADD1B2" rx="11" ry="11" style="stroke:#181818;stroke-width:1.0;"/><path d="M393.0156,377.875 Q393.1719,377.6563 393.3594,377.5469 Q393.5469,377.4375 393.7656,377.4375 Q394.1406,377.4375 394.375,377.7031 Q394.6094,377.9531 394.6094,378.5625 L394.6094,380.0156 Q394.6094,380.625 394.375,380.8906 Q394.1406,381.1563 393.7656,381.1563 Q393.4219,381.1563 393.2188,380.9531 Q393.0156,380.7656 392.9063,380.25 Q392.8594,379.8906 392.6719,379.7031 Q392.3438,379.3281 391.7344,379.1094 Q391.125,378.8906 390.5,378.8906 Q389.7344,378.8906 389.0938,379.2188 Q388.4688,379.5469 387.9688,380.2969 Q387.4844,381.0469 387.4844,382.0781 L387.4844,383.1719 Q387.4844,384.4063 388.375,385.2344 Q389.2656,386.0469 390.8594,386.0469 Q391.7969,386.0469 392.4531,385.7969 Q392.8438,385.6406 393.2656,385.2031 Q393.5313,384.9375 393.6719,384.8594 Q393.8281,384.7813 394.0313,384.7813 Q394.3594,384.7813 394.6094,385.0469 Q394.875,385.2969 394.875,385.6406 Q394.875,385.9844 394.5313,386.3906 Q394.0313,386.9688 393.2344,387.2969 Q392.1563,387.75 390.8594,387.75 Q389.3438,387.75 388.1406,387.125 Q387.1563,386.625 386.4688,385.5625 Q385.7813,384.4844 385.7813,383.2031 L385.7813,382.0469 Q385.7813,380.7188 386.3906,379.5781 Q387.0156,378.4219 388.1094,377.8125 Q389.2031,377.1875 390.4375,377.1875 Q391.1719,377.1875 391.8125,377.3594 Q392.4688,377.5156 393.0156,377.875 Z " fill="#000000"/><text fill="#000000" font-family="sans-serif" font-size="14" lengthAdjust="spacing" textLength="39" x="410.75" y="387.7285">Action</text><line style="stroke:#00008B;stroke-width:2.0;" x1="322" x2="506" y1="398" y2="398"/><line style="stroke:#00008B;stroke-width:2.0;" x1="322" x2="506" y1="406" y2="406"/><rect fill="#F24D5C" height="6" style="stroke:#C82930;stroke-width:1.0;" width="6" x="329" y="417.3047"/><text fill="#000000" font-family="sans-serif" font-size="14" lengthAdjust="spacing" textLength="49" x="341" y="424.5332">Action()</text><rect fill="#F24D5C" height="6" style="stroke:#C82930;stroke-width:1.0;" width="6" x="329" y="434.9141"/><text fill="#000000" font-family="sans-serif" font-size="14" font-style="italic" lengthAdjust="spacing" textLength="57" x="341" y="442.1426">~Action()</text><ellipse cx="332" cy="455.5234" fill="#84BE84" rx="3" ry="3" style="stroke:#038048;stroke-width:1.0;"/><text fill="#000000" font-family="sans-serif" font-size="14" font-style="italic" lengthAdjust="spacing" textLength="124" x="341" y="459.752">Description(): string</text><ellipse cx="332" cy="473.1328" fill="#84BE84" rx="3" ry="3" style="stroke:#038048;stroke-width:1.0;"/><text fill="#000000" font-family="sans-serif" font-size="14" font-style="italic" lengthAdjust="spacing" textLength="160" x="341" y="477.3613">Perform(instigator: Pawn)</text></g><!--class   MoveAction  --><g id="elem_  MoveAction  "><rect codeLine="12" fill="#ADD8E6" height="48" id="  MoveAction  " rx="2.5" ry="2.5" style="stroke:#00008B;stroke-width:2.0;" width="121" x="201.5" y="545"/><ellipse cx="216.5" cy="561" fill="#ADD1B2" rx="11" ry="11" style="stroke:#181818;stroke-width:1.0;"/><path d="M219.2656,556.875 Q219.4219,556.6563 219.6094,556.5469 Q219.7969,556.4375 220.0156,556.4375 Q220.3906,556.4375 220.625,556.7031 Q220.8594,556.9531 220.8594,557.5625 L220.8594,559.0156 Q220.8594,559.625 220.625,559.8906 Q220.3906,560.1563 220.0156,560.1563 Q219.6719,560.1563 219.4688,559.9531 Q219.2656,559.7656 219.1563,559.25 Q219.1094,558.8906 218.9219,558.7031 Q218.5938,558.3281 217.9844,558.1094 Q217.375,557.8906 216.75,557.8906 Q215.9844,557.8906 215.3438,558.2188 Q214.7188,558.5469 214.2188,559.2969 Q213.7344,560.0469 213.7344,561.0781 L213.7344,562.1719 Q213.7344,563.4063 214.625,564.2344 Q215.5156,565.0469 217.1094,565.0469 Q218.0469,565.0469 218.7031,564.7969 Q219.0938,564.6406 219.5156,564.2031 Q219.7813,563.9375 219.9219,563.8594 Q220.0781,563.7813 220.2813,563.7813 Q220.6094,563.7813 220.8594,564.0469 Q221.125,564.2969 221.125,564.6406 Q221.125,564.9844 220.7813,565.3906 Q220.2813,565.9688 219.4844,566.2969 Q218.4063,566.75 217.1094,566.75 Q215.5938,566.75 214.3906,566.125 Q213.4063,565.625 212.7188,564.5625 Q212.0313,563.4844 212.0313,562.2031 L212.0313,561.0469 Q212.0313,559.7188 212.6406,558.5781 Q213.2656,557.4219 214.3594,556.8125 Q215.4531,556.1875 216.6875,556.1875 Q217.4219,556.1875 218.0625,556.3594 Q218.7188,556.5156 219.2656,556.875 Z " fill="#000000"/><text fill="#000000" font-family="sans-serif" font-size="14" lengthAdjust="spacing" textLength="73" x="238.5" y="566.7285">MoveAction</text><line style="stroke:#00008B;stroke-width:2.0;" x1="202.5" x2="321.5" y1="577" y2="577"/><line style="stroke:#00008B;stroke-width:2.0;" x1="202.5" x2="321.5" y1="585" y2="585"/></g><!--class  SkipTurnAction --><g id="elem_ SkipTurnAction "><rect codeLine="16" fill="#ADD8E6" height="48" id=" SkipTurnAction " rx="2.5" ry="2.5" style="stroke:#00008B;stroke-width:2.0;" width="136" x="358" y="545"/><ellipse cx="373" cy="561" fill="#ADD1B2" rx="11" ry="11" style="stroke:#181818;stroke-width:1.0;"/><path d="M375.7656,556.875 Q375.9219,556.6563 376.1094,556.5469 Q376.2969,556.4375 376.5156,556.4375 Q376.8906,556.4375 377.125,556.7031 Q377.3594,556.9531 377.3594,557.5625 L377.3594,559.0156 Q377.3594,559.625 377.125,559.8906 Q376.8906,560.1563 376.5156,560.1563 Q376.1719,560.1563 375.9688,559.9531 Q375.7656,559.7656 375.6563,559.25 Q375.6094,558.8906 375.4219,558.7031 Q375.0938,558.3281 374.4844,558.1094 Q373.875,557.8906 373.25,557.8906 Q372.4844,557.8906 371.8438,558.2188 Q371.2188,558.5469 370.7188,559.2969 Q370.2344,560.0469 370.2344,561.0781 L370.2344,562.1719 Q370.2344,563.4063 371.125,564.2344 Q372.0156,565.0469 373.6094,565.0469 Q374.5469,565.0469 375.2031,564.7969 Q375.5938,564.6406 376.0156,564.2031 Q376.2813,563.9375 376.4219,563.8594 Q376.5781,563.7813 376.7813,563.7813 Q377.1094,563.7813 377.3594,564.0469 Q377.625,564.2969 377.625,564.6406 Q377.625,564.9844 377.2813,565.3906 Q376.7813,565.9688 375.9844,566.2969 Q374.9063,566.75 373.6094,566.75 Q372.0938,566.75 370.8906,566.125 Q369.9063,565.625 369.2188,564.5625 Q368.5313,563.4844 368.5313,562.2031 L368.5313,561.0469 Q368.5313,559.7188 369.1406,558.5781 Q369.7656,557.4219 370.8594,556.8125 Q371.9531,556.1875 373.1875,556.1875 Q373.9219,556.1875 374.5625,556.3594 Q375.2188,556.5156 375.7656,556.875 Z " fill="#000000"/><text fill="#000000" font-family="sans-serif" font-size="14" lengthAdjust="spacing" textLength="96" x="391" y="566.7285">SkipTurnAction</text><line style="stroke:#00008B;stroke-width:2.0;" x1="359" x2="493" y1="577" y2="577"/><line style="stroke:#00008B;stroke-width:2.0;" x1="359" x2="493" y1="585" y2="585"/></g><!--class Pawn--><g id="elem_Pawn"><rect codeLine="21" fill="#F1F1F1" height="153.6563" id="Pawn" rx="2.5" ry="2.5" style="stroke:#181818;stroke-width:0.5;" width="310" x="194" y="151"/><ellipse cx="327.75" cy="167" fill="#ADD1B2" rx="11" ry="11" style="stroke:#181818;stroke-width:1.0;"/><path d="M330.5156,162.875 Q330.6719,162.6563 330.8594,162.5469 Q331.0469,162.4375 331.2656,162.4375 Q331.6406,162.4375 331.875,162.7031 Q332.1094,162.9531 332.1094,163.5625 L332.1094,165.0156 Q332.1094,165.625 331.875,165.8906 Q331.6406,166.1563 331.2656,166.1563 Q330.9219,166.1563 330.7188,165.9531 Q330.5156,165.7656 330.4063,165.25 Q330.3594,164.8906 330.1719,164.7031 Q329.8438,164.3281 329.2344,164.1094 Q328.625,163.8906 328,163.8906 Q327.2344,163.8906 326.5938,164.2188 Q325.9688,164.5469 325.4688,165.2969 Q324.9844,166.0469 324.9844,167.0781 L324.9844,168.1719 Q324.9844,169.4063 325.875,170.2344 Q326.7656,171.0469 328.3594,171.0469 Q329.2969,171.0469 329.9531,170.7969 Q330.3438,170.6406 330.7656,170.2031 Q331.0313,169.9375 331.1719,169.8594 Q331.3281,169.7813 331.5313,169.7813 Q331.8594,169.7813 332.1094,170.0469 Q332.375,170.2969 332.375,170.6406 Q332.375,170.9844 332.0313,171.3906 Q331.5313,171.9688 330.7344,172.2969 Q329.6563,172.75 328.3594,172.75 Q326.8438,172.75 325.6406,172.125 Q324.6563,171.625 323.9688,170.5625 Q323.2813,169.4844 323.2813,168.2031 L323.2813,167.0469 Q323.2813,165.7188 323.8906,164.5781 Q324.5156,163.4219 325.6094,162.8125 Q326.7031,162.1875 327.9375,162.1875 Q328.6719,162.1875 329.3125,162.3594 Q329.9688,162.5156 330.5156,162.875 Z " fill="#000000"/><text fill="#000000" font-family="sans-serif" font-size="14" lengthAdjust="spacing" textLength="34" x="348.25" y="172.7285">Pawn</text><line style="stroke:#181818;stroke-width:0.5;" x1="195" x2="503" y1="183" y2="183"/><rect fill="none" height="6" style="stroke:#C82930;stroke-width:1.0;" width="6" x="202" y="194.3047"/><text fill="#000000" font-family="sans-serif" font-size="14" lengthAdjust="spacing" textLength="78" x="214" y="201.5332">name: string</text><rect fill="none" height="6" style="stroke:#C82930;stroke-width:1.0;" width="6" x="202" y="211.9141"/><text fill="#000000" font-family="sans-serif" font-size="14" lengthAdjust="spacing" textLength="111" x="214" y="219.1426">location: Location</text><line style="stroke:#181818;stroke-width:0.5;" x1="195" x2="503" y1="226.2188" y2="226.2188"/><ellipse cx="205" cy="240.5234" fill="#84BE84" rx="3" ry="3" style="stroke:#038048;stroke-width:1.0;"/><text fill="#000000" font-family="sans-serif" font-size="14" lengthAdjust="spacing" textLength="241" x="214" y="244.752">Pawn(name: string, location: Location)</text><ellipse cx="205" cy="258.1328" fill="#84BE84" rx="3" ry="3" style="stroke:#038048;stroke-width:1.0;"/><text fill="#000000" font-family="sans-serif" font-size="14" font-weight="bold" lengthAdjust="spacing" textLength="161" x="214" y="262.3613">Perform(action: Action)</text><ellipse cx="205" cy="275.7422" fill="#84BE84" rx="3" ry="3" style="stroke:#038048;stroke-width:1.0;"/><text fill="#000000" font-family="sans-serif" font-size="14" font-weight="bold" lengthAdjust="spacing" textLength="230" x="214" y="279.9707">PerformIfPossible(action: Action)</text><ellipse cx="205" cy="293.3516" fill="#84BE84" rx="3" ry="3" style="stroke:#038048;stroke-width:1.0;"/><text fill="#000000" font-family="sans-serif" font-size="14" font-weight="bold" lengthAdjust="spacing" textLength="284" x="214" y="297.5801">MoveToLocation(newLocation: Location)</text></g><!--class     Location    --><g id="elem_    Location    "><rect codeLine="32" fill="#F1F1F1" height="48" id="    Location    " rx="2.5" ry="2.5" style="stroke:#181818;stroke-width:0.5;" width="118" x="22" y="401"/><ellipse cx="37" cy="417" fill="#ADD1B2" rx="11" ry="11" style="stroke:#181818;stroke-width:1.0;"/><path d="M39.7656,412.875 Q39.9219,412.6563 40.1094,412.5469 Q40.2969,412.4375 40.5156,412.4375 Q40.8906,412.4375 41.125,412.7031 Q41.3594,412.9531 41.3594,413.5625 L41.3594,415.0156 Q41.3594,415.625 41.125,415.8906 Q40.8906,416.1563 40.5156,416.1563 Q40.1719,416.1563 39.9688,415.9531 Q39.7656,415.7656 39.6563,415.25 Q39.6094,414.8906 39.4219,414.7031 Q39.0938,414.3281 38.4844,414.1094 Q37.875,413.8906 37.25,413.8906 Q36.4844,413.8906 35.8438,414.2188 Q35.2188,414.5469 34.7188,415.2969 Q34.2344,416.0469 34.2344,417.0781 L34.2344,418.1719 Q34.2344,419.4063 35.125,420.2344 Q36.0156,421.0469 37.6094,421.0469 Q38.5469,421.0469 39.2031,420.7969 Q39.5938,420.6406 40.0156,420.2031 Q40.2813,419.9375 40.4219,419.8594 Q40.5781,419.7813 40.7813,419.7813 Q41.1094,419.7813 41.3594,420.0469 Q41.625,420.2969 41.625,420.6406 Q41.625,420.9844 41.2813,421.3906 Q40.7813,421.9688 39.9844,422.2969 Q38.9063,422.75 37.6094,422.75 Q36.0938,422.75 34.8906,422.125 Q33.9063,421.625 33.2188,420.5625 Q32.5313,419.4844 32.5313,418.2031 L32.5313,417.0469 Q32.5313,415.7188 33.1406,414.5781 Q33.7656,413.4219 34.8594,412.8125 Q35.9531,412.1875 37.1875,412.1875 Q37.9219,412.1875 38.5625,412.3594 Q39.2188,412.5156 39.7656,412.875 Z " fill="#000000"/><text fill="#000000" font-family="sans-serif" font-size="14" lengthAdjust="spacing" textLength="54" x="67" y="422.7285">Location</text><line style="stroke:#181818;stroke-width:0.5;" x1="23" x2="139" y1="433" y2="433"/><line style="stroke:#181818;stroke-width:0.5;" x1="23" x2="139" y1="441" y2="441"/></g><!--class         World        --><g id="elem_        World        "><rect codeLine="36" fill="#F1F1F1" height="48" id="        World        " rx="2.5" ry="2.5" style="stroke:#181818;stroke-width:0.5;" width="133" x="22.5" y="204"/><ellipse cx="37.5" cy="220" fill="#ADD1B2" rx="11" ry="11" style="stroke:#181818;stroke-width:1.0;"/><path d="M40.2656,215.875 Q40.4219,215.6563 40.6094,215.5469 Q40.7969,215.4375 41.0156,215.4375 Q41.3906,215.4375 41.625,215.7031 Q41.8594,215.9531 41.8594,216.5625 L41.8594,218.0156 Q41.8594,218.625 41.625,218.8906 Q41.3906,219.1563 41.0156,219.1563 Q40.6719,219.1563 40.4688,218.9531 Q40.2656,218.7656 40.1563,218.25 Q40.1094,217.8906 39.9219,217.7031 Q39.5938,217.3281 38.9844,217.1094 Q38.375,216.8906 37.75,216.8906 Q36.9844,216.8906 36.3438,217.2188 Q35.7188,217.5469 35.2188,218.2969 Q34.7344,219.0469 34.7344,220.0781 L34.7344,221.1719 Q34.7344,222.4063 35.625,223.2344 Q36.5156,224.0469 38.1094,224.0469 Q39.0469,224.0469 39.7031,223.7969 Q40.0938,223.6406 40.5156,223.2031 Q40.7813,222.9375 40.9219,222.8594 Q41.0781,222.7813 41.2813,222.7813 Q41.6094,222.7813 41.8594,223.0469 Q42.125,223.2969 42.125,223.6406 Q42.125,223.9844 41.7813,224.3906 Q41.2813,224.9688 40.4844,225.2969 Q39.4063,225.75 38.1094,225.75 Q36.5938,225.75 35.3906,225.125 Q34.4063,224.625 33.7188,223.5625 Q33.0313,222.4844 33.0313,221.2031 L33.0313,220.0469 Q33.0313,218.7188 33.6406,217.5781 Q34.2656,216.4219 35.3594,215.8125 Q36.4531,215.1875 37.6875,215.1875 Q38.4219,215.1875 39.0625,215.3594 Q39.7188,215.5156 40.2656,215.875 Z " fill="#000000"/><text fill="#000000" font-family="sans-serif" font-size="14" lengthAdjust="spacing" textLength="37" x="83.5" y="225.7285">World</text><line style="stroke:#181818;stroke-width:0.5;" x1="23.5" x2="154.5" y1="236" y2="236"/><line style="stroke:#181818;stroke-width:0.5;" x1="23.5" x2="154.5" y1="244" y2="244"/></g><!--class WorldFactory--><g id="elem_WorldFactory"><rect codeLine="42" fill="#F1F1F1" height="48" id="WorldFactory" rx="2.5" ry="2.5" style="stroke:#181818;stroke-width:0.5;" width="117" x="30.5" y="42"/><ellipse cx="45.5" cy="58" fill="#ADD1B2" rx="11" ry="11" style="stroke:#181818;stroke-width:1.0;"/><path d="M48.2656,53.875 Q48.4219,53.6563 48.6094,53.5469 Q48.7969,53.4375 49.0156,53.4375 Q49.3906,53.4375 49.625,53.7031 Q49.8594,53.9531 49.8594,54.5625 L49.8594,56.0156 Q49.8594,56.625 49.625,56.8906 Q49.3906,57.1563 49.0156,57.1563 Q48.6719,57.1563 48.4688,56.9531 Q48.2656,56.7656 48.1563,56.25 Q48.1094,55.8906 47.9219,55.7031 Q47.5938,55.3281 46.9844,55.1094 Q46.375,54.8906 45.75,54.8906 Q44.9844,54.8906 44.3438,55.2188 Q43.7188,55.5469 43.2188,56.2969 Q42.7344,57.0469 42.7344,58.0781 L42.7344,59.1719 Q42.7344,60.4063 43.625,61.2344 Q44.5156,62.0469 46.1094,62.0469 Q47.0469,62.0469 47.7031,61.7969 Q48.0938,61.6406 48.5156,61.2031 Q48.7813,60.9375 48.9219,60.8594 Q49.0781,60.7813 49.2813,60.7813 Q49.6094,60.7813 49.8594,61.0469 Q50.125,61.2969 50.125,61.6406 Q50.125,61.9844 49.7813,62.3906 Q49.2813,62.9688 48.4844,63.2969 Q47.4063,63.75 46.1094,63.75 Q44.5938,63.75 43.3906,63.125 Q42.4063,62.625 41.7188,61.5625 Q41.0313,60.4844 41.0313,59.2031 L41.0313,58.0469 Q41.0313,56.7188 41.6406,55.5781 Q42.2656,54.4219 43.3594,53.8125 Q44.4531,53.1875 45.6875,53.1875 Q46.4219,53.1875 47.0625,53.3594 Q47.7188,53.5156 48.2656,53.875 Z " fill="#000000"/><text fill="#000000" font-family="sans-serif" font-size="14" lengthAdjust="spacing" textLength="85" x="59.5" y="63.7285">WorldFactory</text><line style="stroke:#181818;stroke-width:0.5;" x1="31.5" x2="146.5" y1="74" y2="74"/><line style="stroke:#181818;stroke-width:0.5;" x1="31.5" x2="146.5" y1="82" y2="82"/></g><!--reverse link Action to   MoveAction  --><g id="link_Action_  MoveAction  "><path codeLine="14" d="M338.5866,496.4577 C315.7966,517.7477 304.45,528.34 286.82,544.82 " fill="none" id="Action-backto-  MoveAction  " style="stroke:#181818;stroke-width:1.0;"/><polygon fill="none" points="351.74,484.17,334.4907,492.0732,342.6825,500.8422,351.74,484.17" style="stroke:#181818;stroke-width:1.0;"/></g><!--reverse link Action to  SkipTurnAction --><g id="link_Action_ SkipTurnAction "><path codeLine="18" d="M420.4281,502.1067 C422.2181,523.3967 422.65,528.34 424.04,544.82 " fill="none" id="Action-backto- SkipTurnAction " style="stroke:#181818;stroke-width:1.0;"/><polygon fill="none" points="418.92,484.17,414.4492,502.6094,426.407,501.604,418.92,484.17" style="stroke:#181818;stroke-width:1.0;"/></g><!--link Pawn to Action--><g id="link_Pawn_Action"><path codeLine="30" d="M374.41,305.23 C381.14,325.42 386.4026,341.1979 392.7526,360.2479 " fill="none" id="Pawn-to-Action" style="stroke:#181818;stroke-width:1.0;stroke-dasharray:7.0,7.0;"/><polygon fill="#181818" points="394.65,365.94,395.5987,356.1369,393.0689,361.1966,388.0092,358.6668,394.65,365.94" style="stroke:#181818;stroke-width:1.0;"/></g><!--reverse link     Location     to     Location    --><g id="link_    Location    _    Location    "><path codeLine="34" d="M152.2099,408.5558 C171.5799,408.6458 175,414.09 175,425 C175,435.91 159.58,441.41 140.21,441.5 " fill="none" id="    Location    -backto-    Location    " style="stroke:#181818;stroke-width:1.0;"/><polygon fill="none" points="140.21,408.5,146.1913,412.5278,152.2099,408.5558,146.2285,404.5279,140.21,408.5" style="stroke:#181818;stroke-width:1.0;"/><text fill="#000000" font-family="sans-serif" font-size="13" lengthAdjust="spacing" textLength="116" x="181" y="430.4951">connectedLocations</text></g><!--link         World         to     Location    --><g id="link_        World        _    Location    "><path codeLine="39" d="M87.558,264.1199 C86.018,301.6499 83.7361,357.3951 82.1961,394.9051 " fill="none" id="        World        -    Location    " style="stroke:#181818;stroke-width:1.0;"/><polygon fill="#181818" points="88.05,252.13,83.8074,257.961,87.558,264.1199,91.8006,258.289,88.05,252.13" style="stroke:#181818;stroke-width:1.0;"/><polygon fill="#181818" points="81.95,400.9,86.3158,392.0717,82.1551,395.9042,78.3226,391.7435,81.95,400.9" style="stroke:#181818;stroke-width:1.0;"/></g><!--link Pawn to     Location    --><g id="link_Pawn_    Location    "><path codeLine="40" d="M244.23,305.23 C197.25,339.41 150.0918,373.7301 117.6818,397.3101 " fill="none" id="Pawn-to-    Location    " style="stroke:#181818;stroke-width:1.0;"/><polygon fill="#181818" points="112.83,400.84,122.4609,398.7796,116.8731,397.8984,117.7544,392.3106,112.83,400.84" style="stroke:#181818;stroke-width:1.0;"/></g><!--link WorldFactory to         World        --><g id="link_WorldFactory_        World        "><path codeLine="45" d="M89,90.27 C89,120.69 89,167.66 89,197.97 " fill="none" id="WorldFactory-to-        World        " style="stroke:#181818;stroke-width:1.0;stroke-dasharray:7.0,7.0;"/><polygon fill="#181818" points="89,203.97,93,194.97,89,198.97,85,194.97,89,203.97" style="stroke:#181818;stroke-width:1.0;"/></g><!--SRC=[fL5RIyCm57xlhmZrfLDJNtoAew0CGPWmSE1pccPTM9QK9DsGMd-xlQHhjhOCyJmb9z_bd2yP9ZkSKk3Zv425oHL5wF18V51u7gZAo9IQBLNL7TWY76iDdebXKe0RpWGDOyaJjC1gzy9p-XHNceYpT6lYwkemwuAM6SmksWMEjL6Oc1ByZ4BkNCY2Qg9Ori8GgDfCfDFm5LKRgVO14zgm51kf45ZXe-WTIkzYGH-0TtcWTi_g-gTLozDfe0Fp37v7DeQXwyUEPUjS2KluX-z0wTpPsRhrhWDnf20GU4y7sKB09S6r0W9BU_Bwq6kHm2NUZ-1d3c4UHztlODB2sW5dyuSu6WM-RLPIQnPpUfrIPx-MdN4Ww74v7ET4itdOnEPXdeNDHcvCVdtig6tIXTTdF_8i8Hnf8q2a49GOcdHzFV2fwrCgdlJVMhYJJe5k8On6F1jEyyyJxuv_e_XQ1IpLrxdfsKiOHbDJUEKl]--></g></svg>