<?xml version="1.0" encoding="us-ascii" standalone="no"?><svg xmlns="http://www.w3.org/2000/svg" xmlns:xlink="http://www.w3.org/1999/xlink" contentStyleType="text/css" height="471px" preserveAspectRatio="none" style="width:489px;height:471px;background:#FFFFFF;" version="1.1" viewBox="0 0 489 471" width="489px" zoomAndPan="magnify"><defs/><g><!--cluster adventure::v4a--><g id="cluster_adventure::v4a"><path d="M8.5,6 L115.5,6 A3.75,3.75 0 0 1 118,8.5 L125,29.6094 L479.5,29.6094 A2.5,2.5 0 0 1 482,32.1094 L482,461.5 A2.5,2.5 0 0 1 479.5,464 L8.5,464 A2.5,2.5 0 0 1 6,461.5 L6,8.5 A2.5,2.5 0 0 1 8.5,6 " fill="none" style="stroke:#000000;stroke-width:1.5;"/><line style="stroke:#000000;stroke-width:1.5;" x1="6" x2="125" y1="29.6094" y2="29.6094"/><text fill="#000000" font-family="sans-serif" font-size="14" font-weight="bold" lengthAdjust="spacing" textLength="106" x="10" y="22.5332">adventure::v4a</text></g><!--class Pawn--><g id="elem_Pawn"><rect codeLine="4" fill="#ADD8E6" height="171.2656" id="Pawn" rx="2.5" ry="2.5" style="stroke:#00008B;stroke-width:2.0;" width="267" x="198.5" y="168"/><ellipse cx="310.75" cy="184" fill="#ADD1B2" rx="11" ry="11" style="stroke:#181818;stroke-width:1.0;"/><path d="M313.5156,179.875 Q313.6719,179.6563 313.8594,179.5469 Q314.0469,179.4375 314.2656,179.4375 Q314.6406,179.4375 314.875,179.7031 Q315.1094,179.9531 315.1094,180.5625 L315.1094,182.0156 Q315.1094,182.625 314.875,182.8906 Q314.6406,183.1563 314.2656,183.1563 Q313.9219,183.1563 313.7188,182.9531 Q313.5156,182.7656 313.4063,182.25 Q313.3594,181.8906 313.1719,181.7031 Q312.8438,181.3281 312.2344,181.1094 Q311.625,180.8906 311,180.8906 Q310.2344,180.8906 309.5938,181.2188 Q308.9688,181.5469 308.4688,182.2969 Q307.9844,183.0469 307.9844,184.0781 L307.9844,185.1719 Q307.9844,186.4063 308.875,187.2344 Q309.7656,188.0469 311.3594,188.0469 Q312.2969,188.0469 312.9531,187.7969 Q313.3438,187.6406 313.7656,187.2031 Q314.0313,186.9375 314.1719,186.8594 Q314.3281,186.7813 314.5313,186.7813 Q314.8594,186.7813 315.1094,187.0469 Q315.375,187.2969 315.375,187.6406 Q315.375,187.9844 315.0313,188.3906 Q314.5313,188.9688 313.7344,189.2969 Q312.6563,189.75 311.3594,189.75 Q309.8438,189.75 308.6406,189.125 Q307.6563,188.625 306.9688,187.5625 Q306.2813,186.4844 306.2813,185.2031 L306.2813,184.0469 Q306.2813,182.7188 306.8906,181.5781 Q307.5156,180.4219 308.6094,179.8125 Q309.7031,179.1875 310.9375,179.1875 Q311.6719,179.1875 312.3125,179.3594 Q312.9688,179.5156 313.5156,179.875 Z " fill="#000000"/><text fill="#000000" font-family="sans-serif" font-size="14" lengthAdjust="spacing" textLength="34" x="331.25" y="189.7285">Pawn</text><line style="stroke:#00008B;stroke-width:2.0;" x1="199.5" x2="464.5" y1="200" y2="200"/><rect fill="none" height="6" style="stroke:#C82930;stroke-width:1.0;" width="6" x="206.5" y="211.3047"/><text fill="#000000" font-family="sans-serif" font-size="14" lengthAdjust="spacing" textLength="78" x="218.5" y="218.5332">name: string</text><rect fill="none" height="6" style="stroke:#C82930;stroke-width:1.0;" width="6" x="206.5" y="228.9141"/><text fill="#000000" font-family="sans-serif" font-size="14" lengthAdjust="spacing" textLength="111" x="218.5" y="236.1426">location: Location</text><line style="stroke:#00008B;stroke-width:2.0;" x1="199.5" x2="464.5" y1="243.2188" y2="243.2188"/><ellipse cx="209.5" cy="257.5234" fill="#84BE84" rx="3" ry="3" style="stroke:#038048;stroke-width:1.0;"/><text fill="#000000" font-family="sans-serif" font-size="14" lengthAdjust="spacing" textLength="241" x="218.5" y="261.752">Pawn(name: string, location: Location)</text><ellipse cx="209.5" cy="275.1328" fill="#84BE84" rx="3" ry="3" style="stroke:#038048;stroke-width:1.0;"/><text fill="#000000" font-family="sans-serif" font-size="14" lengthAdjust="spacing" textLength="141" x="218.5" y="279.3613">Move(direction: string)</text><ellipse cx="209.5" cy="292.7422" fill="#84BE84" rx="3" ry="3" style="stroke:#038048;stroke-width:1.0;"/><text fill="#000000" font-family="sans-serif" font-size="14" lengthAdjust="spacing" textLength="201" x="218.5" y="296.9707">MoveIfPossible(direction: string)</text><ellipse cx="209.5" cy="310.3516" fill="#84BE84" rx="3" ry="3" style="stroke:#038048;stroke-width:1.0;"/><text fill="#000000" font-family="sans-serif" font-size="14" lengthAdjust="spacing" textLength="112" x="218.5" y="314.5801">GetName(): string</text><ellipse cx="209.5" cy="327.9609" fill="#84BE84" rx="3" ry="3" style="stroke:#038048;stroke-width:1.0;"/><text fill="#000000" font-family="sans-serif" font-size="14" lengthAdjust="spacing" textLength="149" x="218.5" y="332.1895">GetLocation(): Location</text></g><!--class WorldFactory--><g id="elem_WorldFactory"><rect codeLine="14" fill="#F1F1F1" height="48" id="WorldFactory" rx="2.5" ry="2.5" style="stroke:#181818;stroke-width:0.5;" width="117" x="34.5" y="42"/><ellipse cx="49.5" cy="58" fill="#ADD1B2" rx="11" ry="11" style="stroke:#181818;stroke-width:1.0;"/><path d="M52.2656,53.875 Q52.4219,53.6563 52.6094,53.5469 Q52.7969,53.4375 53.0156,53.4375 Q53.3906,53.4375 53.625,53.7031 Q53.8594,53.9531 53.8594,54.5625 L53.8594,56.0156 Q53.8594,56.625 53.625,56.8906 Q53.3906,57.1563 53.0156,57.1563 Q52.6719,57.1563 52.4688,56.9531 Q52.2656,56.7656 52.1563,56.25 Q52.1094,55.8906 51.9219,55.7031 Q51.5938,55.3281 50.9844,55.1094 Q50.375,54.8906 49.75,54.8906 Q48.9844,54.8906 48.3438,55.2188 Q47.7188,55.5469 47.2188,56.2969 Q46.7344,57.0469 46.7344,58.0781 L46.7344,59.1719 Q46.7344,60.4063 47.625,61.2344 Q48.5156,62.0469 50.1094,62.0469 Q51.0469,62.0469 51.7031,61.7969 Q52.0938,61.6406 52.5156,61.2031 Q52.7813,60.9375 52.9219,60.8594 Q53.0781,60.7813 53.2813,60.7813 Q53.6094,60.7813 53.8594,61.0469 Q54.125,61.2969 54.125,61.6406 Q54.125,61.9844 53.7813,62.3906 Q53.2813,62.9688 52.4844,63.2969 Q51.4063,63.75 50.1094,63.75 Q48.5938,63.75 47.3906,63.125 Q46.4063,62.625 45.7188,61.5625 Q45.0313,60.4844 45.0313,59.2031 L45.0313,58.0469 Q45.0313,56.7188 45.6406,55.5781 Q46.2656,54.4219 47.3594,53.8125 Q48.4531,53.1875 49.6875,53.1875 Q50.4219,53.1875 51.0625,53.3594 Q51.7188,53.5156 52.2656,53.875 Z " fill="#000000"/><text fill="#000000" font-family="sans-serif" font-size="14" lengthAdjust="spacing" textLength="85" x="63.5" y="63.7285">WorldFactory</text><line style="stroke:#181818;stroke-width:0.5;" x1="35.5" x2="150.5" y1="74" y2="74"/><line style="stroke:#181818;stroke-width:0.5;" x1="35.5" x2="150.5" y1="82" y2="82"/></g><!--class         World          --><g id="elem_        World          "><rect codeLine="17" fill="#F1F1F1" height="48" id="        World          " rx="2.5" ry="2.5" style="stroke:#181818;stroke-width:0.5;" width="141" x="22.5" y="229.5"/><ellipse cx="37.5" cy="245.5" fill="#ADD1B2" rx="11" ry="11" style="stroke:#181818;stroke-width:1.0;"/><path d="M40.2656,241.375 Q40.4219,241.1563 40.6094,241.0469 Q40.7969,240.9375 41.0156,240.9375 Q41.3906,240.9375 41.625,241.2031 Q41.8594,241.4531 41.8594,242.0625 L41.8594,243.5156 Q41.8594,244.125 41.625,244.3906 Q41.3906,244.6563 41.0156,244.6563 Q40.6719,244.6563 40.4688,244.4531 Q40.2656,244.2656 40.1563,243.75 Q40.1094,243.3906 39.9219,243.2031 Q39.5938,242.8281 38.9844,242.6094 Q38.375,242.3906 37.75,242.3906 Q36.9844,242.3906 36.3438,242.7188 Q35.7188,243.0469 35.2188,243.7969 Q34.7344,244.5469 34.7344,245.5781 L34.7344,246.6719 Q34.7344,247.9063 35.625,248.7344 Q36.5156,249.5469 38.1094,249.5469 Q39.0469,249.5469 39.7031,249.2969 Q40.0938,249.1406 40.5156,248.7031 Q40.7813,248.4375 40.9219,248.3594 Q41.0781,248.2813 41.2813,248.2813 Q41.6094,248.2813 41.8594,248.5469 Q42.125,248.7969 42.125,249.1406 Q42.125,249.4844 41.7813,249.8906 Q41.2813,250.4688 40.4844,250.7969 Q39.4063,251.25 38.1094,251.25 Q36.5938,251.25 35.3906,250.625 Q34.4063,250.125 33.7188,249.0625 Q33.0313,247.9844 33.0313,246.7031 L33.0313,245.5469 Q33.0313,244.2188 33.6406,243.0781 Q34.2656,241.9219 35.3594,241.3125 Q36.4531,240.6875 37.6875,240.6875 Q38.4219,240.6875 39.0625,240.8594 Q39.7188,241.0156 40.2656,241.375 Z " fill="#000000"/><text fill="#000000" font-family="sans-serif" font-size="14" lengthAdjust="spacing" textLength="37" x="83.5" y="251.2285">World</text><line style="stroke:#181818;stroke-width:0.5;" x1="23.5" x2="162.5" y1="261.5" y2="261.5"/><line style="stroke:#181818;stroke-width:0.5;" x1="23.5" x2="162.5" y1="269.5" y2="269.5"/></g><!--class Location--><g id="elem_Location"><rect codeLine="20" fill="#F1F1F1" height="48" id="Location" rx="2.5" ry="2.5" style="stroke:#181818;stroke-width:0.5;" width="86" x="170" y="400"/><ellipse cx="185" cy="416" fill="#ADD1B2" rx="11" ry="11" style="stroke:#181818;stroke-width:1.0;"/><path d="M187.7656,411.875 Q187.9219,411.6563 188.1094,411.5469 Q188.2969,411.4375 188.5156,411.4375 Q188.8906,411.4375 189.125,411.7031 Q189.3594,411.9531 189.3594,412.5625 L189.3594,414.0156 Q189.3594,414.625 189.125,414.8906 Q188.8906,415.1563 188.5156,415.1563 Q188.1719,415.1563 187.9688,414.9531 Q187.7656,414.7656 187.6563,414.25 Q187.6094,413.8906 187.4219,413.7031 Q187.0938,413.3281 186.4844,413.1094 Q185.875,412.8906 185.25,412.8906 Q184.4844,412.8906 183.8438,413.2188 Q183.2188,413.5469 182.7188,414.2969 Q182.2344,415.0469 182.2344,416.0781 L182.2344,417.1719 Q182.2344,418.4063 183.125,419.2344 Q184.0156,420.0469 185.6094,420.0469 Q186.5469,420.0469 187.2031,419.7969 Q187.5938,419.6406 188.0156,419.2031 Q188.2813,418.9375 188.4219,418.8594 Q188.5781,418.7813 188.7813,418.7813 Q189.1094,418.7813 189.3594,419.0469 Q189.625,419.2969 189.625,419.6406 Q189.625,419.9844 189.2813,420.3906 Q188.7813,420.9688 187.9844,421.2969 Q186.9063,421.75 185.6094,421.75 Q184.0938,421.75 182.8906,421.125 Q181.9063,420.625 181.2188,419.5625 Q180.5313,418.4844 180.5313,417.2031 L180.5313,416.0469 Q180.5313,414.7188 181.1406,413.5781 Q181.7656,412.4219 182.8594,411.8125 Q183.9531,411.1875 185.1875,411.1875 Q185.9219,411.1875 186.5625,411.3594 Q187.2188,411.5156 187.7656,411.875 Z " fill="#000000"/><text fill="#000000" font-family="sans-serif" font-size="14" lengthAdjust="spacing" textLength="54" x="199" y="421.7285">Location</text><line style="stroke:#181818;stroke-width:0.5;" x1="171" x2="255" y1="432" y2="432"/><line style="stroke:#181818;stroke-width:0.5;" x1="171" x2="255" y1="440" y2="440"/></g><!--link         World           to Location--><g id="link_        World          _Location"><path codeLine="23" d="M109.43,277.58 C132.35,309.75 170.1795,362.8727 193.0895,395.0427 " fill="none" id="        World          -to-Location" style="stroke:#181818;stroke-width:1.0;"/><polygon fill="#181818" points="196.57,399.93,194.6074,390.2787,193.6696,395.8572,188.091,394.9194,196.57,399.93" style="stroke:#181818;stroke-width:1.0;"/></g><!--link WorldFactory to         World          --><g id="link_WorldFactory_        World          "><path codeLine="24" d="M93,90.12 C93,125.76 93,187.74 93,223.38 " fill="none" id="WorldFactory-to-        World          " style="stroke:#181818;stroke-width:1.0;stroke-dasharray:7.0,7.0;"/><polygon fill="#181818" points="93,229.38,97,220.38,93,224.38,89,220.38,93,229.38" style="stroke:#181818;stroke-width:1.0;"/><text fill="#000000" font-family="sans-serif" font-size="13" lengthAdjust="spacing" textLength="45" x="98" y="134.4951">Creates</text></g><!--link Pawn to Location--><g id="link_Pawn_Location"><path codeLine="25" d="M272.15,339.24 C256.41,361.53 244.1609,378.8788 232.8909,394.8388 " fill="none" id="Pawn-to-Location" style="stroke:#181818;stroke-width:1.0;"/><polygon fill="#181818" points="229.43,399.74,237.8889,394.6955,232.3141,395.6557,231.3539,390.0809,229.43,399.74" style="stroke:#181818;stroke-width:1.0;"/></g><!--SRC=[VL4xRy8m4DxpAqxfagWa4vChCRIe5H8WjiuNvqejN1lP9WWX_dkT5yHDuIRRtrDdXJzazyW9iAn8kOCXngefmZcAm0-NQ2riyAZWIGf5UQ5boUPeTg_oG2y5yXsJOllj2d_r8kWcKzwOWNL6gEtjLMgEJcZ5ODcThjXp7P8CPHCOqzCRVwKhIafXYBUKLlI7iFZQQ6j58HzJFyYjVNAIZYhNK1zUmq7lot19dzh8yXsvq-RKRIB0uzwo8S9rul_8VKo8tRV8ibbOBMYJvxFxMkQXDqFeoCQDjFdjeU4l]--></g></svg>