<?xml version="1.0" encoding="us-ascii" standalone="no"?><svg xmlns="http://www.w3.org/2000/svg" xmlns:xlink="http://www.w3.org/1999/xlink" contentStyleType="text/css" height="415px" preserveAspectRatio="none" style="width:321px;height:415px;background:#FFFFFF;" version="1.1" viewBox="0 0 321 415" width="321px" zoomAndPan="magnify"><defs/><g><!--cluster adventure::v2--><g id="cluster_adventure::v2"><path d="M8.5,6 L107.5,6 A3.75,3.75 0 0 1 110,8.5 L117,29.6094 L311.5,29.6094 A2.5,2.5 0 0 1 314,32.1094 L314,405.5 A2.5,2.5 0 0 1 311.5,408 L8.5,408 A2.5,2.5 0 0 1 6,405.5 L6,8.5 A2.5,2.5 0 0 1 8.5,6 " fill="none" style="stroke:#000000;stroke-width:1.5;"/><line style="stroke:#000000;stroke-width:1.5;" x1="6" x2="117" y1="29.6094" y2="29.6094"/><text fill="#000000" font-family="sans-serif" font-size="14" font-weight="bold" lengthAdjust="spacing" textLength="98" x="10" y="22.5332">adventure::v2</text></g><!--class Location--><g id="elem_Location"><rect codeLine="3" fill="#F1F1F1" height="136.0469" id="Location" rx="2.5" ry="2.5" style="stroke:#181818;stroke-width:0.5;" width="173" x="73.5" y="256"/><ellipse cx="128.75" cy="272" fill="#ADD1B2" rx="11" ry="11" style="stroke:#181818;stroke-width:1.0;"/><path d="M131.5156,267.875 Q131.6719,267.6563 131.8594,267.5469 Q132.0469,267.4375 132.2656,267.4375 Q132.6406,267.4375 132.875,267.7031 Q133.1094,267.9531 133.1094,268.5625 L133.1094,270.0156 Q133.1094,270.625 132.875,270.8906 Q132.6406,271.1563 132.2656,271.1563 Q131.9219,271.1563 131.7188,270.9531 Q131.5156,270.7656 131.4063,270.25 Q131.3594,269.8906 131.1719,269.7031 Q130.8438,269.3281 130.2344,269.1094 Q129.625,268.8906 129,268.8906 Q128.2344,268.8906 127.5938,269.2188 Q126.9688,269.5469 126.4688,270.2969 Q125.9844,271.0469 125.9844,272.0781 L125.9844,273.1719 Q125.9844,274.4063 126.875,275.2344 Q127.7656,276.0469 129.3594,276.0469 Q130.2969,276.0469 130.9531,275.7969 Q131.3438,275.6406 131.7656,275.2031 Q132.0313,274.9375 132.1719,274.8594 Q132.3281,274.7813 132.5313,274.7813 Q132.8594,274.7813 133.1094,275.0469 Q133.375,275.2969 133.375,275.6406 Q133.375,275.9844 133.0313,276.3906 Q132.5313,276.9688 131.7344,277.2969 Q130.6563,277.75 129.3594,277.75 Q127.8438,277.75 126.6406,277.125 Q125.6563,276.625 124.9688,275.5625 Q124.2813,274.4844 124.2813,273.2031 L124.2813,272.0469 Q124.2813,270.7188 124.8906,269.5781 Q125.5156,268.4219 126.6094,267.8125 Q127.7031,267.1875 128.9375,267.1875 Q129.6719,267.1875 130.3125,267.3594 Q130.9688,267.5156 131.5156,267.875 Z " fill="#000000"/><text fill="#000000" font-family="sans-serif" font-size="14" lengthAdjust="spacing" textLength="54" x="149.25" y="277.7285">Location</text><line style="stroke:#181818;stroke-width:0.5;" x1="74.5" x2="245.5" y1="288" y2="288"/><rect fill="none" height="6" style="stroke:#C82930;stroke-width:1.0;" width="6" x="81.5" y="299.3047"/><text fill="#000000" font-family="sans-serif" font-size="14" lengthAdjust="spacing" textLength="78" x="93.5" y="306.5332">name: string</text><rect fill="none" height="6" style="stroke:#C82930;stroke-width:1.0;" width="6" x="81.5" y="316.9141"/><text fill="#000000" font-family="sans-serif" font-size="14" lengthAdjust="spacing" textLength="112" x="93.5" y="324.1426">description: string</text><line style="stroke:#181818;stroke-width:0.5;" x1="74.5" x2="245.5" y1="331.2188" y2="331.2188"/><ellipse cx="84.5" cy="345.5234" fill="#84BE84" rx="3" ry="3" style="stroke:#038048;stroke-width:1.0;"/><text fill="#000000" font-family="sans-serif" font-size="14" lengthAdjust="spacing" textLength="76" x="93.5" y="349.752">Location(...)</text><ellipse cx="84.5" cy="363.1328" fill="#84BE84" rx="3" ry="3" style="stroke:#038048;stroke-width:1.0;"/><text fill="#000000" font-family="sans-serif" font-size="14" lengthAdjust="spacing" textLength="112" x="93.5" y="367.3613">GetName(): string</text><ellipse cx="84.5" cy="380.7422" fill="#84BE84" rx="3" ry="3" style="stroke:#038048;stroke-width:1.0;"/><text fill="#000000" font-family="sans-serif" font-size="14" lengthAdjust="spacing" textLength="147" x="93.5" y="384.9707">GetDescription(): string</text></g><!--class World--><g id="elem_World"><rect codeLine="11" fill="#F1F1F1" height="153.6563" id="World" rx="2.5" ry="2.5" style="stroke:#181818;stroke-width:0.5;" width="276" x="22" y="42"/><ellipse cx="137.25" cy="58" fill="#ADD1B2" rx="11" ry="11" style="stroke:#181818;stroke-width:1.0;"/><path d="M140.0156,53.875 Q140.1719,53.6563 140.3594,53.5469 Q140.5469,53.4375 140.7656,53.4375 Q141.1406,53.4375 141.375,53.7031 Q141.6094,53.9531 141.6094,54.5625 L141.6094,56.0156 Q141.6094,56.625 141.375,56.8906 Q141.1406,57.1563 140.7656,57.1563 Q140.4219,57.1563 140.2188,56.9531 Q140.0156,56.7656 139.9063,56.25 Q139.8594,55.8906 139.6719,55.7031 Q139.3438,55.3281 138.7344,55.1094 Q138.125,54.8906 137.5,54.8906 Q136.7344,54.8906 136.0938,55.2188 Q135.4688,55.5469 134.9688,56.2969 Q134.4844,57.0469 134.4844,58.0781 L134.4844,59.1719 Q134.4844,60.4063 135.375,61.2344 Q136.2656,62.0469 137.8594,62.0469 Q138.7969,62.0469 139.4531,61.7969 Q139.8438,61.6406 140.2656,61.2031 Q140.5313,60.9375 140.6719,60.8594 Q140.8281,60.7813 141.0313,60.7813 Q141.3594,60.7813 141.6094,61.0469 Q141.875,61.2969 141.875,61.6406 Q141.875,61.9844 141.5313,62.3906 Q141.0313,62.9688 140.2344,63.2969 Q139.1563,63.75 137.8594,63.75 Q136.3438,63.75 135.1406,63.125 Q134.1563,62.625 133.4688,61.5625 Q132.7813,60.4844 132.7813,59.2031 L132.7813,58.0469 Q132.7813,56.7188 133.3906,55.5781 Q134.0156,54.4219 135.1094,53.8125 Q136.2031,53.1875 137.4375,53.1875 Q138.1719,53.1875 138.8125,53.3594 Q139.4688,53.5156 140.0156,53.875 Z " fill="#000000"/><text fill="#000000" font-family="sans-serif" font-size="14" lengthAdjust="spacing" textLength="37" x="157.75" y="63.7285">World</text><line style="stroke:#181818;stroke-width:0.5;" x1="23" x2="297" y1="74" y2="74"/><rect fill="none" height="6" style="stroke:#C82930;stroke-width:1.0;" width="6" x="30" y="85.3047"/><text fill="#000000" font-family="sans-serif" font-size="14" lengthAdjust="spacing" textLength="145" x="42" y="92.5332">locations: LocationMap</text><rect fill="none" height="6" style="stroke:#C82930;stroke-width:1.0;" width="6" x="30" y="102.9141"/><text fill="#000000" font-family="sans-serif" font-size="14" lengthAdjust="spacing" textLength="165" x="42" y="110.1426">initialLocationName: string</text><line style="stroke:#181818;stroke-width:0.5;" x1="23" x2="297" y1="117.2188" y2="117.2188"/><ellipse cx="33" cy="131.5234" fill="#84BE84" rx="3" ry="3" style="stroke:#038048;stroke-width:1.0;"/><text fill="#000000" font-family="sans-serif" font-size="14" lengthAdjust="spacing" textLength="59" x="42" y="135.752">World(...)</text><ellipse cx="33" cy="149.1328" fill="#84BE84" rx="3" ry="3" style="stroke:#038048;stroke-width:1.0;"/><text fill="#000000" font-family="sans-serif" font-size="14" font-weight="bold" lengthAdjust="spacing" textLength="250" x="42" y="153.3613">GetLocation(name: string): Location</text><ellipse cx="33" cy="166.7422" fill="#84BE84" rx="3" ry="3" style="stroke:#038048;stroke-width:1.0;"/><text fill="#000000" font-family="sans-serif" font-size="14" lengthAdjust="spacing" textLength="183" x="42" y="170.9707">GetLocations(): LocationMap</text><ellipse cx="33" cy="184.3516" fill="#84BE84" rx="3" ry="3" style="stroke:#038048;stroke-width:1.0;"/><text fill="#000000" font-family="sans-serif" font-size="14" lengthAdjust="spacing" textLength="198" x="42" y="188.5801">GetInitialLocationName(): string</text></g><!--link World to Location--><g id="link_World_Location"><path codeLine="20" d="M160,208.17 C160,227.74 160,230.66 160,249.75 " fill="none" id="World-Location" style="stroke:#181818;stroke-width:1.0;"/><polygon fill="#181818" points="160,196.17,156,202.17,160,208.17,164,202.17,160,196.17" style="stroke:#181818;stroke-width:1.0;"/><polygon fill="#181818" points="160,255.75,164,246.75,160,250.75,156,246.75,160,255.75" style="stroke:#181818;stroke-width:1.0;"/></g><!--SRC=[RP0n3u8m48LtVaL7AW4JnuOmcHWIPNK-IcEQrDBqAelXlriKA08tthjxzxtJy1HeW0i2JIUqUrd1M7SYxuZuuWeGoRNbu6Ihn-PGgVPxZA2pKZz2jn78hJJ3y4PC9fiuop8QsXVXAcyMq-s6byx1SJNHHml4UsjLi-HJup5aC_uDJD2bbaw2chHgBqxoTLtXvdNXiUOiop_GS2i_riLVZad0cEuJ3KFb5ce_z2_k8KsBsIlgFm00]--></g></svg>