<?xml version="1.0" encoding="us-ascii" standalone="no"?><svg xmlns="http://www.w3.org/2000/svg" xmlns:xlink="http://www.w3.org/1999/xlink" contentStyleType="text/css" height="366px" preserveAspectRatio="none" style="width:389px;height:366px;background:#FFFFFF;" version="1.1" viewBox="0 0 389 366" width="389px" zoomAndPan="magnify"><defs/><g><!--class Book--><g id="elem_Book"><rect codeLine="2" fill="#F1F1F1" height="100.8281" id="Book" rx="2.5" ry="2.5" style="stroke:#181818;stroke-width:0.5;" width="91" x="149" y="7"/><ellipse cx="176.15" cy="23" fill="#ADD1B2" rx="11" ry="11" style="stroke:#181818;stroke-width:1.0;"/><path d="M178.9156,18.875 Q179.0719,18.6563 179.2594,18.5469 Q179.4469,18.4375 179.6656,18.4375 Q180.0406,18.4375 180.275,18.7031 Q180.5094,18.9531 180.5094,19.5625 L180.5094,21.0156 Q180.5094,21.625 180.275,21.8906 Q180.0406,22.1563 179.6656,22.1563 Q179.3219,22.1563 179.1188,21.9531 Q178.9156,21.7656 178.8063,21.25 Q178.7594,20.8906 178.5719,20.7031 Q178.2438,20.3281 177.6344,20.1094 Q177.025,19.8906 176.4,19.8906 Q175.6344,19.8906 174.9938,20.2188 Q174.3688,20.5469 173.8688,21.2969 Q173.3844,22.0469 173.3844,23.0781 L173.3844,24.1719 Q173.3844,25.4063 174.275,26.2344 Q175.1656,27.0469 176.7594,27.0469 Q177.6969,27.0469 178.3531,26.7969 Q178.7438,26.6406 179.1656,26.2031 Q179.4313,25.9375 179.5719,25.8594 Q179.7281,25.7813 179.9313,25.7813 Q180.2594,25.7813 180.5094,26.0469 Q180.775,26.2969 180.775,26.6406 Q180.775,26.9844 180.4313,27.3906 Q179.9313,27.9688 179.1344,28.2969 Q178.0563,28.75 176.7594,28.75 Q175.2438,28.75 174.0406,28.125 Q173.0563,27.625 172.3688,26.5625 Q171.6813,25.4844 171.6813,24.2031 L171.6813,23.0469 Q171.6813,21.7188 172.2906,20.5781 Q172.9156,19.4219 174.0094,18.8125 Q175.1031,18.1875 176.3375,18.1875 Q177.0719,18.1875 177.7125,18.3594 Q178.3688,18.5156 178.9156,18.875 Z " fill="#000000"/><text fill="#000000" font-family="sans-serif" font-size="14" lengthAdjust="spacing" textLength="32" x="192.85" y="28.7285">Book</text><line style="stroke:#181818;stroke-width:0.5;" x1="150" x2="239" y1="39" y2="39"/><ellipse cx="160" cy="53.3047" fill="none" rx="3" ry="3" style="stroke:#038048;stroke-width:1.0;"/><text fill="#000000" font-family="sans-serif" font-size="14" lengthAdjust="spacing" textLength="46" x="169" y="57.5332">title: str</text><ellipse cx="160" cy="70.9141" fill="none" rx="3" ry="3" style="stroke:#038048;stroke-width:1.0;"/><text fill="#000000" font-family="sans-serif" font-size="14" lengthAdjust="spacing" textLength="65" x="169" y="75.1426">author: str</text><ellipse cx="160" cy="88.5234" fill="none" rx="3" ry="3" style="stroke:#038048;stroke-width:1.0;"/><text fill="#000000" font-family="sans-serif" font-size="14" lengthAdjust="spacing" textLength="62" x="169" y="92.752">pages: int</text><line style="stroke:#181818;stroke-width:0.5;" x1="150" x2="239" y1="99.8281" y2="99.8281"/></g><!--class BookDatabase--><g id="elem_BookDatabase"><rect codeLine="8" fill="#F1F1F1" height="65.6094" id="BookDatabase" rx="2.5" ry="2.5" style="stroke:#181818;stroke-width:0.5;" width="171" x="7" y="168"/><ellipse cx="42.25" cy="184" fill="#B4A7E5" rx="11" ry="11" style="stroke:#181818;stroke-width:1.0;"/><path d="M43.2031,180.6406 L43.2031,187.2969 L44.9219,187.2969 Q45.5313,187.2969 45.7969,187.5313 Q46.0625,187.7656 46.0625,188.1563 Q46.0625,188.5313 45.7969,188.7656 Q45.5313,189 44.9219,189 L39.7813,189 Q39.1719,189 38.9063,188.7656 Q38.6406,188.5313 38.6406,188.1406 Q38.6406,187.7656 38.9063,187.5313 Q39.1719,187.2969 39.7813,187.2969 L41.5,187.2969 L41.5,180.6406 L39.7813,180.6406 Q39.1719,180.6406 38.9063,180.4063 Q38.6406,180.1719 38.6406,179.7813 Q38.6406,179.4063 38.9063,179.1719 Q39.1719,178.9375 39.7813,178.9375 L44.9219,178.9375 Q45.5313,178.9375 45.7969,179.1719 Q46.0625,179.4063 46.0625,179.7813 Q46.0625,180.1719 45.7969,180.4063 Q45.5313,180.6406 44.9219,180.6406 L43.2031,180.6406 Z " fill="#000000"/><text fill="#000000" font-family="sans-serif" font-size="14" font-style="italic" lengthAdjust="spacing" textLength="94" x="60.75" y="189.7285">BookDatabase</text><line style="stroke:#181818;stroke-width:0.5;" x1="8" x2="177" y1="200" y2="200"/><line style="stroke:#181818;stroke-width:0.5;" x1="8" x2="177" y1="208" y2="208"/><ellipse cx="18" cy="222.3047" fill="#84BE84" rx="3" ry="3" style="stroke:#038048;stroke-width:1.0;"/><text fill="#000000" font-family="sans-serif" font-size="14" lengthAdjust="spacing" textLength="145" x="27" y="226.5332">save(book: Book): void</text></g><!--class SqlBookDatabase--><g id="elem_SqlBookDatabase"><rect codeLine="12" fill="#F1F1F1" height="65.6094" id="SqlBookDatabase" rx="2.5" ry="2.5" style="stroke:#181818;stroke-width:0.5;" width="171" x="7" y="294"/><ellipse cx="33.7" cy="310" fill="#ADD1B2" rx="11" ry="11" style="stroke:#181818;stroke-width:1.0;"/><path d="M36.4656,305.875 Q36.6219,305.6563 36.8094,305.5469 Q36.9969,305.4375 37.2156,305.4375 Q37.5906,305.4375 37.825,305.7031 Q38.0594,305.9531 38.0594,306.5625 L38.0594,308.0156 Q38.0594,308.625 37.825,308.8906 Q37.5906,309.1563 37.2156,309.1563 Q36.8719,309.1563 36.6688,308.9531 Q36.4656,308.7656 36.3563,308.25 Q36.3094,307.8906 36.1219,307.7031 Q35.7938,307.3281 35.1844,307.1094 Q34.575,306.8906 33.95,306.8906 Q33.1844,306.8906 32.5438,307.2188 Q31.9188,307.5469 31.4188,308.2969 Q30.9344,309.0469 30.9344,310.0781 L30.9344,311.1719 Q30.9344,312.4063 31.825,313.2344 Q32.7156,314.0469 34.3094,314.0469 Q35.2469,314.0469 35.9031,313.7969 Q36.2938,313.6406 36.7156,313.2031 Q36.9813,312.9375 37.1219,312.8594 Q37.2781,312.7813 37.4813,312.7813 Q37.8094,312.7813 38.0594,313.0469 Q38.325,313.2969 38.325,313.6406 Q38.325,313.9844 37.9813,314.3906 Q37.4813,314.9688 36.6844,315.2969 Q35.6063,315.75 34.3094,315.75 Q32.7938,315.75 31.5906,315.125 Q30.6063,314.625 29.9188,313.5625 Q29.2313,312.4844 29.2313,311.2031 L29.2313,310.0469 Q29.2313,308.7188 29.8406,307.5781 Q30.4656,306.4219 31.5594,305.8125 Q32.6531,305.1875 33.8875,305.1875 Q34.6219,305.1875 35.2625,305.3594 Q35.9188,305.5156 36.4656,305.875 Z " fill="#000000"/><text fill="#000000" font-family="sans-serif" font-size="14" lengthAdjust="spacing" textLength="113" x="50.3" y="315.7285">SqlBookDatabase</text><line style="stroke:#181818;stroke-width:0.5;" x1="8" x2="177" y1="326" y2="326"/><line style="stroke:#181818;stroke-width:0.5;" x1="8" x2="177" y1="334" y2="334"/><ellipse cx="18" cy="348.3047" fill="#84BE84" rx="3" ry="3" style="stroke:#038048;stroke-width:1.0;"/><text fill="#000000" font-family="sans-serif" font-size="14" lengthAdjust="spacing" textLength="145" x="27" y="352.5332">save(book: Book): void</text></g><!--class BookPrinter--><g id="elem_BookPrinter"><rect codeLine="18" fill="#F1F1F1" height="65.6094" id="BookPrinter" rx="2.5" ry="2.5" style="stroke:#181818;stroke-width:0.5;" width="169" x="213" y="168"/><ellipse cx="255.9" cy="184" fill="#B4A7E5" rx="11" ry="11" style="stroke:#181818;stroke-width:1.0;"/><path d="M256.8531,180.6406 L256.8531,187.2969 L258.5719,187.2969 Q259.1813,187.2969 259.4469,187.5313 Q259.7125,187.7656 259.7125,188.1563 Q259.7125,188.5313 259.4469,188.7656 Q259.1813,189 258.5719,189 L253.4313,189 Q252.8219,189 252.5563,188.7656 Q252.2906,188.5313 252.2906,188.1406 Q252.2906,187.7656 252.5563,187.5313 Q252.8219,187.2969 253.4313,187.2969 L255.15,187.2969 L255.15,180.6406 L253.4313,180.6406 Q252.8219,180.6406 252.5563,180.4063 Q252.2906,180.1719 252.2906,179.7813 Q252.2906,179.4063 252.5563,179.1719 Q252.8219,178.9375 253.4313,178.9375 L258.5719,178.9375 Q259.1813,178.9375 259.4469,179.1719 Q259.7125,179.4063 259.7125,179.7813 Q259.7125,180.1719 259.4469,180.4063 Q259.1813,180.6406 258.5719,180.6406 L256.8531,180.6406 Z " fill="#000000"/><text fill="#000000" font-family="sans-serif" font-size="14" font-style="italic" lengthAdjust="spacing" textLength="75" x="276.1" y="189.7285">BookPrinter</text><line style="stroke:#181818;stroke-width:0.5;" x1="214" x2="381" y1="200" y2="200"/><line style="stroke:#181818;stroke-width:0.5;" x1="214" x2="381" y1="208" y2="208"/><ellipse cx="224" cy="222.3047" fill="#84BE84" rx="3" ry="3" style="stroke:#038048;stroke-width:1.0;"/><text fill="#000000" font-family="sans-serif" font-size="14" lengthAdjust="spacing" textLength="143" x="233" y="226.5332">print(book: Book): void</text></g><!--class ColorBookPrinter--><g id="elem_ColorBookPrinter"><rect codeLine="22" fill="#F1F1F1" height="65.6094" id="ColorBookPrinter" rx="2.5" ry="2.5" style="stroke:#181818;stroke-width:0.5;" width="169" x="213" y="294"/><ellipse cx="241.05" cy="310" fill="#ADD1B2" rx="11" ry="11" style="stroke:#181818;stroke-width:1.0;"/><path d="M243.8156,305.875 Q243.9719,305.6563 244.1594,305.5469 Q244.3469,305.4375 244.5656,305.4375 Q244.9406,305.4375 245.175,305.7031 Q245.4094,305.9531 245.4094,306.5625 L245.4094,308.0156 Q245.4094,308.625 245.175,308.8906 Q244.9406,309.1563 244.5656,309.1563 Q244.2219,309.1563 244.0188,308.9531 Q243.8156,308.7656 243.7063,308.25 Q243.6594,307.8906 243.4719,307.7031 Q243.1438,307.3281 242.5344,307.1094 Q241.925,306.8906 241.3,306.8906 Q240.5344,306.8906 239.8938,307.2188 Q239.2688,307.5469 238.7688,308.2969 Q238.2844,309.0469 238.2844,310.0781 L238.2844,311.1719 Q238.2844,312.4063 239.175,313.2344 Q240.0656,314.0469 241.6594,314.0469 Q242.5969,314.0469 243.2531,313.7969 Q243.6438,313.6406 244.0656,313.2031 Q244.3313,312.9375 244.4719,312.8594 Q244.6281,312.7813 244.8313,312.7813 Q245.1594,312.7813 245.4094,313.0469 Q245.675,313.2969 245.675,313.6406 Q245.675,313.9844 245.3313,314.3906 Q244.8313,314.9688 244.0344,315.2969 Q242.9563,315.75 241.6594,315.75 Q240.1438,315.75 238.9406,315.125 Q237.9563,314.625 237.2688,313.5625 Q236.5813,312.4844 236.5813,311.2031 L236.5813,310.0469 Q236.5813,308.7188 237.1906,307.5781 Q237.8156,306.4219 238.9094,305.8125 Q240.0031,305.1875 241.2375,305.1875 Q241.9719,305.1875 242.6125,305.3594 Q243.2688,305.5156 243.8156,305.875 Z " fill="#000000"/><text fill="#000000" font-family="sans-serif" font-size="14" lengthAdjust="spacing" textLength="108" x="257.95" y="315.7285">ColorBookPrinter</text><line style="stroke:#181818;stroke-width:0.5;" x1="214" x2="381" y1="326" y2="326"/><line style="stroke:#181818;stroke-width:0.5;" x1="214" x2="381" y1="334" y2="334"/><ellipse cx="224" cy="348.3047" fill="#84BE84" rx="3" ry="3" style="stroke:#038048;stroke-width:1.0;"/><text fill="#000000" font-family="sans-serif" font-size="14" lengthAdjust="spacing" textLength="143" x="233" y="352.5332">print(book: Book): void</text></g><!--reverse link BookDatabase to SqlBookDatabase--><g id="link_BookDatabase_SqlBookDatabase"><path codeLine="16" d="M92.5,252.26 C92.5,270.63 92.5,275.56 92.5,293.91 " fill="none" id="BookDatabase-backto-SqlBookDatabase" style="stroke:#181818;stroke-width:1.0;"/><polygon fill="none" points="92.5,234.26,86.5,252.26,98.5,252.26,92.5,234.26" style="stroke:#181818;stroke-width:1.0;"/></g><!--reverse link BookPrinter to ColorBookPrinter--><g id="link_BookPrinter_ColorBookPrinter"><path codeLine="26" d="M297.5,252.26 C297.5,270.63 297.5,275.56 297.5,293.91 " fill="none" id="BookPrinter-backto-ColorBookPrinter" style="stroke:#181818;stroke-width:1.0;"/><polygon fill="none" points="297.5,234.26,291.5,252.26,303.5,252.26,297.5,234.26" style="stroke:#181818;stroke-width:1.0;"/></g><!--reverse link Book to BookDatabase--><g id="link_Book_BookDatabase"><path codeLine="28" d="M155.0302,113.2564 C140.8002,132.9864 128.38,150.23 115.72,167.79 " fill="none" id="Book-backto-BookDatabase" style="stroke:#181818;stroke-width:1.0;"/><polygon fill="#181818" points="158.54,108.39,150.0311,113.3497,155.6152,112.4453,156.5195,118.0294,158.54,108.39" style="stroke:#181818;stroke-width:1.0;"/></g><!--reverse link Book to BookPrinter--><g id="link_Book_BookPrinter"><path codeLine="29" d="M234.3424,113.24 C248.7124,132.97 261.27,150.23 274.05,167.79 " fill="none" id="Book-backto-BookPrinter" style="stroke:#181818;stroke-width:1.0;"/><polygon fill="#181818" points="230.81,108.39,232.8753,118.0199,233.7537,112.4316,239.3419,113.31,230.81,108.39" style="stroke:#181818;stroke-width:1.0;"/></g><!--SRC=[bKux3i8m3Drp2eyWr0j4dO038742DmI8Y729tIx0tKbJHMeo8DMBzVm-ViOZC-o97l1M46SdJhpLm19cZ8FSAImEFTuiQt1FKL-buhBXYiQca2CATiWsXp6ETjD5GYTwgs4aTvby9Zq-l_mwMw5kFqrJHzIDJY7XdDnFy5-Z0taAwunBTQfKPymIQ2DLL2skMVi3]--></g></svg>