<?xml version="1.0" encoding="us-ascii" standalone="no"?><svg xmlns="http://www.w3.org/2000/svg" xmlns:xlink="http://www.w3.org/1999/xlink" contentStyleType="text/css" height="240px" preserveAspectRatio="none" style="width:389px;height:240px;background:#FFFFFF;" version="1.1" viewBox="0 0 389 240" width="389px" zoomAndPan="magnify"><defs/><g><!--class BookFacade--><g id="elem_BookFacade"><rect codeLine="3" fill="#F1F1F1" height="83.2188" id="BookFacade" rx="2.5" ry="2.5" style="stroke:#181818;stroke-width:0.5;" width="112" x="137.5" y="16"/><ellipse cx="152.5" cy="32" fill="#ADD1B2" rx="11" ry="11" style="stroke:#181818;stroke-width:1.0;"/><path d="M155.2656,27.875 Q155.4219,27.6563 155.6094,27.5469 Q155.7969,27.4375 156.0156,27.4375 Q156.3906,27.4375 156.625,27.7031 Q156.8594,27.9531 156.8594,28.5625 L156.8594,30.0156 Q156.8594,30.625 156.625,30.8906 Q156.3906,31.1563 156.0156,31.1563 Q155.6719,31.1563 155.4688,30.9531 Q155.2656,30.7656 155.1563,30.25 Q155.1094,29.8906 154.9219,29.7031 Q154.5938,29.3281 153.9844,29.1094 Q153.375,28.8906 152.75,28.8906 Q151.9844,28.8906 151.3438,29.2188 Q150.7188,29.5469 150.2188,30.2969 Q149.7344,31.0469 149.7344,32.0781 L149.7344,33.1719 Q149.7344,34.4063 150.625,35.2344 Q151.5156,36.0469 153.1094,36.0469 Q154.0469,36.0469 154.7031,35.7969 Q155.0938,35.6406 155.5156,35.2031 Q155.7813,34.9375 155.9219,34.8594 Q156.0781,34.7813 156.2813,34.7813 Q156.6094,34.7813 156.8594,35.0469 Q157.125,35.2969 157.125,35.6406 Q157.125,35.9844 156.7813,36.3906 Q156.2813,36.9688 155.4844,37.2969 Q154.4063,37.75 153.1094,37.75 Q151.5938,37.75 150.3906,37.125 Q149.4063,36.625 148.7188,35.5625 Q148.0313,34.4844 148.0313,33.2031 L148.0313,32.0469 Q148.0313,30.7188 148.6406,29.5781 Q149.2656,28.4219 150.3594,27.8125 Q151.4531,27.1875 152.6875,27.1875 Q153.4219,27.1875 154.0625,27.3594 Q154.7188,27.5156 155.2656,27.875 Z " fill="#000000"/><text fill="#000000" font-family="sans-serif" font-size="14" lengthAdjust="spacing" textLength="80" x="166.5" y="37.7285">BookFacade</text><line style="stroke:#181818;stroke-width:0.5;" x1="138.5" x2="248.5" y1="48" y2="48"/><line style="stroke:#181818;stroke-width:0.5;" x1="138.5" x2="248.5" y1="56" y2="56"/><ellipse cx="148.5" cy="70.3047" fill="#84BE84" rx="3" ry="3" style="stroke:#038048;stroke-width:1.0;"/><text fill="#000000" font-family="sans-serif" font-size="14" lengthAdjust="spacing" textLength="74" x="157.5" y="74.5332">save(): void</text><ellipse cx="148.5" cy="87.9141" fill="#84BE84" rx="3" ry="3" style="stroke:#038048;stroke-width:1.0;"/><text fill="#000000" font-family="sans-serif" font-size="14" lengthAdjust="spacing" textLength="72" x="157.5" y="92.1426">print(): void</text></g><!--class BookDatabase--><g id="elem_BookDatabase"><rect codeLine="9" fill="#F1F1F1" height="65.6094" id="BookDatabase" rx="2.5" ry="2.5" style="stroke:#181818;stroke-width:0.5;" width="171" x="211" y="168"/><ellipse cx="246.7" cy="184" fill="#ADD1B2" rx="11" ry="11" style="stroke:#181818;stroke-width:1.0;"/><path d="M249.4656,179.875 Q249.6219,179.6563 249.8094,179.5469 Q249.9969,179.4375 250.2156,179.4375 Q250.5906,179.4375 250.825,179.7031 Q251.0594,179.9531 251.0594,180.5625 L251.0594,182.0156 Q251.0594,182.625 250.825,182.8906 Q250.5906,183.1563 250.2156,183.1563 Q249.8719,183.1563 249.6688,182.9531 Q249.4656,182.7656 249.3563,182.25 Q249.3094,181.8906 249.1219,181.7031 Q248.7938,181.3281 248.1844,181.1094 Q247.575,180.8906 246.95,180.8906 Q246.1844,180.8906 245.5438,181.2188 Q244.9188,181.5469 244.4188,182.2969 Q243.9344,183.0469 243.9344,184.0781 L243.9344,185.1719 Q243.9344,186.4063 244.825,187.2344 Q245.7156,188.0469 247.3094,188.0469 Q248.2469,188.0469 248.9031,187.7969 Q249.2938,187.6406 249.7156,187.2031 Q249.9813,186.9375 250.1219,186.8594 Q250.2781,186.7813 250.4813,186.7813 Q250.8094,186.7813 251.0594,187.0469 Q251.325,187.2969 251.325,187.6406 Q251.325,187.9844 250.9813,188.3906 Q250.4813,188.9688 249.6844,189.2969 Q248.6063,189.75 247.3094,189.75 Q245.7938,189.75 244.5906,189.125 Q243.6063,188.625 242.9188,187.5625 Q242.2313,186.4844 242.2313,185.2031 L242.2313,184.0469 Q242.2313,182.7188 242.8406,181.5781 Q243.4656,180.4219 244.5594,179.8125 Q245.6531,179.1875 246.8875,179.1875 Q247.6219,179.1875 248.2625,179.3594 Q248.9188,179.5156 249.4656,179.875 Z " fill="#000000"/><text fill="#000000" font-family="sans-serif" font-size="14" lengthAdjust="spacing" textLength="93" x="265.3" y="189.7285">BookDatabase</text><line style="stroke:#181818;stroke-width:0.5;" x1="212" x2="381" y1="200" y2="200"/><line style="stroke:#181818;stroke-width:0.5;" x1="212" x2="381" y1="208" y2="208"/><ellipse cx="222" cy="222.3047" fill="#84BE84" rx="3" ry="3" style="stroke:#038048;stroke-width:1.0;"/><text fill="#000000" font-family="sans-serif" font-size="14" lengthAdjust="spacing" textLength="145" x="231" y="226.5332">save(book: Book): void</text></g><!--class BookPrinter--><g id="elem_BookPrinter"><rect codeLine="13" fill="#F1F1F1" height="65.6094" id="BookPrinter" rx="2.5" ry="2.5" style="stroke:#181818;stroke-width:0.5;" width="169" x="7" y="168"/><ellipse cx="50.35" cy="184" fill="#ADD1B2" rx="11" ry="11" style="stroke:#181818;stroke-width:1.0;"/><path d="M53.1156,179.875 Q53.2719,179.6563 53.4594,179.5469 Q53.6469,179.4375 53.8656,179.4375 Q54.2406,179.4375 54.475,179.7031 Q54.7094,179.9531 54.7094,180.5625 L54.7094,182.0156 Q54.7094,182.625 54.475,182.8906 Q54.2406,183.1563 53.8656,183.1563 Q53.5219,183.1563 53.3188,182.9531 Q53.1156,182.7656 53.0063,182.25 Q52.9594,181.8906 52.7719,181.7031 Q52.4438,181.3281 51.8344,181.1094 Q51.225,180.8906 50.6,180.8906 Q49.8344,180.8906 49.1938,181.2188 Q48.5688,181.5469 48.0688,182.2969 Q47.5844,183.0469 47.5844,184.0781 L47.5844,185.1719 Q47.5844,186.4063 48.475,187.2344 Q49.3656,188.0469 50.9594,188.0469 Q51.8969,188.0469 52.5531,187.7969 Q52.9438,187.6406 53.3656,187.2031 Q53.6313,186.9375 53.7719,186.8594 Q53.9281,186.7813 54.1313,186.7813 Q54.4594,186.7813 54.7094,187.0469 Q54.975,187.2969 54.975,187.6406 Q54.975,187.9844 54.6313,188.3906 Q54.1313,188.9688 53.3344,189.2969 Q52.2563,189.75 50.9594,189.75 Q49.4438,189.75 48.2406,189.125 Q47.2563,188.625 46.5688,187.5625 Q45.8813,186.4844 45.8813,185.2031 L45.8813,184.0469 Q45.8813,182.7188 46.4906,181.5781 Q47.1156,180.4219 48.2094,179.8125 Q49.3031,179.1875 50.5375,179.1875 Q51.2719,179.1875 51.9125,179.3594 Q52.5688,179.5156 53.1156,179.875 Z " fill="#000000"/><text fill="#000000" font-family="sans-serif" font-size="14" lengthAdjust="spacing" textLength="74" x="70.65" y="189.7285">BookPrinter</text><line style="stroke:#181818;stroke-width:0.5;" x1="8" x2="175" y1="200" y2="200"/><line style="stroke:#181818;stroke-width:0.5;" x1="8" x2="175" y1="208" y2="208"/><ellipse cx="18" cy="222.3047" fill="#84BE84" rx="3" ry="3" style="stroke:#038048;stroke-width:1.0;"/><text fill="#000000" font-family="sans-serif" font-size="14" lengthAdjust="spacing" textLength="143" x="27" y="226.5332">print(book: Book): void</text></g><!--class Book--><g id="elem_Book"><rect codeLine="18" fill="#F1F1F1" height="100.8281" id="Book" rx="2.5" ry="2.5" style="stroke:#181818;stroke-width:0.5;" width="91" x="11" y="7"/><ellipse cx="38.15" cy="23" fill="#ADD1B2" rx="11" ry="11" style="stroke:#181818;stroke-width:1.0;"/><path d="M40.9156,18.875 Q41.0719,18.6563 41.2594,18.5469 Q41.4469,18.4375 41.6656,18.4375 Q42.0406,18.4375 42.275,18.7031 Q42.5094,18.9531 42.5094,19.5625 L42.5094,21.0156 Q42.5094,21.625 42.275,21.8906 Q42.0406,22.1563 41.6656,22.1563 Q41.3219,22.1563 41.1188,21.9531 Q40.9156,21.7656 40.8063,21.25 Q40.7594,20.8906 40.5719,20.7031 Q40.2438,20.3281 39.6344,20.1094 Q39.025,19.8906 38.4,19.8906 Q37.6344,19.8906 36.9938,20.2188 Q36.3688,20.5469 35.8688,21.2969 Q35.3844,22.0469 35.3844,23.0781 L35.3844,24.1719 Q35.3844,25.4063 36.275,26.2344 Q37.1656,27.0469 38.7594,27.0469 Q39.6969,27.0469 40.3531,26.7969 Q40.7438,26.6406 41.1656,26.2031 Q41.4313,25.9375 41.5719,25.8594 Q41.7281,25.7813 41.9313,25.7813 Q42.2594,25.7813 42.5094,26.0469 Q42.775,26.2969 42.775,26.6406 Q42.775,26.9844 42.4313,27.3906 Q41.9313,27.9688 41.1344,28.2969 Q40.0563,28.75 38.7594,28.75 Q37.2438,28.75 36.0406,28.125 Q35.0563,27.625 34.3688,26.5625 Q33.6813,25.4844 33.6813,24.2031 L33.6813,23.0469 Q33.6813,21.7188 34.2906,20.5781 Q34.9156,19.4219 36.0094,18.8125 Q37.1031,18.1875 38.3375,18.1875 Q39.0719,18.1875 39.7125,18.3594 Q40.3688,18.5156 40.9156,18.875 Z " fill="#000000"/><text fill="#000000" font-family="sans-serif" font-size="14" lengthAdjust="spacing" textLength="32" x="54.85" y="28.7285">Book</text><line style="stroke:#181818;stroke-width:0.5;" x1="12" x2="101" y1="39" y2="39"/><ellipse cx="22" cy="53.3047" fill="none" rx="3" ry="3" style="stroke:#038048;stroke-width:1.0;"/><text fill="#000000" font-family="sans-serif" font-size="14" lengthAdjust="spacing" textLength="46" x="31" y="57.5332">title: str</text><ellipse cx="22" cy="70.9141" fill="none" rx="3" ry="3" style="stroke:#038048;stroke-width:1.0;"/><text fill="#000000" font-family="sans-serif" font-size="14" lengthAdjust="spacing" textLength="65" x="31" y="75.1426">author: str</text><ellipse cx="22" cy="88.5234" fill="none" rx="3" ry="3" style="stroke:#038048;stroke-width:1.0;"/><text fill="#000000" font-family="sans-serif" font-size="14" lengthAdjust="spacing" textLength="62" x="31" y="92.752">pages: int</text><line style="stroke:#181818;stroke-width:0.5;" x1="12" x2="101" y1="99.8281" y2="99.8281"/></g><!--link BookFacade to BookDatabase--><g id="link_BookFacade_BookDatabase"><path codeLine="25" d="M223.02,99.05 C238.95,120.93 254.7984,142.7194 269.6584,163.1294 " fill="none" id="BookFacade-to-BookDatabase" style="stroke:#181818;stroke-width:1.0;"/><polygon fill="#181818" points="273.19,167.98,271.1264,158.3498,270.247,163.9379,264.6589,163.0585,273.19,167.98" style="stroke:#181818;stroke-width:1.0;"/></g><!--link BookFacade to BookPrinter--><g id="link_BookFacade_BookPrinter"><path codeLine="26" d="M164.27,99.05 C148.49,120.93 132.8097,142.7036 118.0897,163.1136 " fill="none" id="BookFacade-to-BookPrinter" style="stroke:#181818;stroke-width:1.0;"/><polygon fill="#181818" points="114.58,167.98,123.0888,163.0202,117.5048,163.9247,116.6003,158.3406,114.58,167.98" style="stroke:#181818;stroke-width:1.0;"/></g><!--reverse link Book to BookFacade--><g id="link_Book_BookFacade"><path codeLine="27" d="M108.26,57.5 C119.9,57.5 125.54,57.5 137.19,57.5 " fill="none" id="Book-backto-BookFacade" style="stroke:#181818;stroke-width:1.0;"/><polygon fill="#181818" points="102.26,57.5,111.26,61.5,107.26,57.5,111.26,53.5,102.26,57.5" style="stroke:#181818;stroke-width:1.0;"/></g><!--SRC=[RP113i8W44Ntd6AM6iC5Y75XZ6klCAMJbjX8mupT6EykfLg7fEpud_SOy0Compd6-nKzjWGl0taT62VQxHrCCRHBCgRma3Lw6oEn8-afPSIlbWiADiYrfyc5AxN2_ynjDXUFkcYBgQZVSGaoa0EMjEpnANrCAXYn8tQGfRF0gBTQUwg6tkg-mvKAZbPzbVa0]--></g></svg>