<?xml version="1.0" encoding="us-ascii" standalone="no"?><svg xmlns="http://www.w3.org/2000/svg" xmlns:xlink="http://www.w3.org/1999/xlink" contentStyleType="text/css" height="665px" preserveAspectRatio="none" style="width:441px;height:665px;background:#FFFFFF;" version="1.1" viewBox="0 0 441 665" width="441px" zoomAndPan="magnify"><defs/><g><!--cluster adventure::v3c--><g id="cluster_adventure::v3c"><path d="M8.5,6 L115.5,6 A3.75,3.75 0 0 1 118,8.5 L125,29.6094 L431.5,29.6094 A2.5,2.5 0 0 1 434,32.1094 L434,655.5 A2.5,2.5 0 0 1 431.5,658 L8.5,658 A2.5,2.5 0 0 1 6,655.5 L6,8.5 A2.5,2.5 0 0 1 8.5,6 " fill="none" style="stroke:#000000;stroke-width:1.5;"/><line style="stroke:#000000;stroke-width:1.5;" x1="6" x2="125" y1="29.6094" y2="29.6094"/><text fill="#000000" font-family="sans-serif" font-size="14" font-weight="bold" lengthAdjust="spacing" textLength="106" x="10" y="22.5332">adventure::v3c</text></g><!--class Location--><g id="elem_Location"><rect codeLine="4" fill="#F1F1F1" height="224.0938" id="Location" rx="2.5" ry="2.5" style="stroke:#181818;stroke-width:0.5;" width="396" x="22" y="418"/><ellipse cx="188.75" cy="434" fill="#ADD1B2" rx="11" ry="11" style="stroke:#181818;stroke-width:1.0;"/><path d="M191.5156,429.875 Q191.6719,429.6563 191.8594,429.5469 Q192.0469,429.4375 192.2656,429.4375 Q192.6406,429.4375 192.875,429.7031 Q193.1094,429.9531 193.1094,430.5625 L193.1094,432.0156 Q193.1094,432.625 192.875,432.8906 Q192.6406,433.1563 192.2656,433.1563 Q191.9219,433.1563 191.7188,432.9531 Q191.5156,432.7656 191.4063,432.25 Q191.3594,431.8906 191.1719,431.7031 Q190.8438,431.3281 190.2344,431.1094 Q189.625,430.8906 189,430.8906 Q188.2344,430.8906 187.5938,431.2188 Q186.9688,431.5469 186.4688,432.2969 Q185.9844,433.0469 185.9844,434.0781 L185.9844,435.1719 Q185.9844,436.4063 186.875,437.2344 Q187.7656,438.0469 189.3594,438.0469 Q190.2969,438.0469 190.9531,437.7969 Q191.3438,437.6406 191.7656,437.2031 Q192.0313,436.9375 192.1719,436.8594 Q192.3281,436.7813 192.5313,436.7813 Q192.8594,436.7813 193.1094,437.0469 Q193.375,437.2969 193.375,437.6406 Q193.375,437.9844 193.0313,438.3906 Q192.5313,438.9688 191.7344,439.2969 Q190.6563,439.75 189.3594,439.75 Q187.8438,439.75 186.6406,439.125 Q185.6563,438.625 184.9688,437.5625 Q184.2813,436.4844 184.2813,435.2031 L184.2813,434.0469 Q184.2813,432.7188 184.8906,431.5781 Q185.5156,430.4219 186.6094,429.8125 Q187.7031,429.1875 188.9375,429.1875 Q189.6719,429.1875 190.3125,429.3594 Q190.9688,429.5156 191.5156,429.875 Z " fill="#000000"/><text fill="#000000" font-family="sans-serif" font-size="14" lengthAdjust="spacing" textLength="54" x="209.25" y="439.7285">Location</text><line style="stroke:#181818;stroke-width:0.5;" x1="23" x2="417" y1="450" y2="450"/><rect fill="none" height="6" style="stroke:#C82930;stroke-width:1.0;" width="6" x="30" y="461.3047"/><text fill="#000000" font-family="sans-serif" font-size="14" lengthAdjust="spacing" textLength="78" x="42" y="468.5332">name: string</text><rect fill="none" height="6" style="stroke:#C82930;stroke-width:1.0;" width="6" x="30" y="478.9141"/><text fill="#000000" font-family="sans-serif" font-size="14" lengthAdjust="spacing" textLength="112" x="42" y="486.1426">description: string</text><rect fill="none" height="6" style="stroke:#C82930;stroke-width:1.0;" width="6" x="30" y="496.5234"/><text fill="#000000" font-family="sans-serif" font-size="14" lengthAdjust="spacing" textLength="216" x="42" y="503.752">connectedLocations: LocationMap</text><line style="stroke:#181818;stroke-width:0.5;" x1="23" x2="417" y1="510.8281" y2="510.8281"/><ellipse cx="33" cy="525.1328" fill="#84BE84" rx="3" ry="3" style="stroke:#038048;stroke-width:1.0;"/><text fill="#000000" font-family="sans-serif" font-size="14" lengthAdjust="spacing" textLength="262" x="42" y="529.3613">Location(name: string, description: string)</text><ellipse cx="33" cy="542.7422" fill="#84BE84" rx="3" ry="3" style="stroke:#038048;stroke-width:1.0;"/><text fill="#000000" font-family="sans-serif" font-size="14" lengthAdjust="spacing" textLength="271" x="42" y="546.9707">Location(locationData: data::LocationData)</text><ellipse cx="33" cy="560.3516" fill="#84BE84" rx="3" ry="3" style="stroke:#038048;stroke-width:1.0;"/><text fill="#000000" font-family="sans-serif" font-size="14" lengthAdjust="spacing" textLength="112" x="42" y="564.5801">GetName(): string</text><ellipse cx="33" cy="577.9609" fill="#84BE84" rx="3" ry="3" style="stroke:#038048;stroke-width:1.0;"/><text fill="#000000" font-family="sans-serif" font-size="14" lengthAdjust="spacing" textLength="147" x="42" y="582.1895">GetDescription(): string</text><ellipse cx="33" cy="595.5703" fill="#84BE84" rx="3" ry="3" style="stroke:#038048;stroke-width:1.0;"/><text fill="#000000" font-family="sans-serif" font-size="14" lengthAdjust="spacing" textLength="315" x="42" y="599.7988">GetConnectedLocation(direction: string): Location</text><ellipse cx="33" cy="613.1797" fill="#84BE84" rx="3" ry="3" style="stroke:#038048;stroke-width:1.0;"/><text fill="#000000" font-family="sans-serif" font-size="14" lengthAdjust="spacing" textLength="370" x="42" y="617.4082">SetConnectedLocation(direction: string, location: Location)</text><ellipse cx="33" cy="630.7891" fill="#84BE84" rx="3" ry="3" style="stroke:#038048;stroke-width:1.0;"/><text fill="#000000" font-family="sans-serif" font-size="14" lengthAdjust="spacing" textLength="263" x="42" y="635.0176">GetConnectedDirections(): vector&lt;string&gt;</text></g><!--class World--><g id="elem_World"><rect codeLine="17" fill="#F1F1F1" height="171.2656" id="World" rx="2.5" ry="2.5" style="stroke:#181818;stroke-width:0.5;" width="304" x="68" y="186"/><ellipse cx="197.25" cy="202" fill="#ADD1B2" rx="11" ry="11" style="stroke:#181818;stroke-width:1.0;"/><path d="M200.0156,197.875 Q200.1719,197.6563 200.3594,197.5469 Q200.5469,197.4375 200.7656,197.4375 Q201.1406,197.4375 201.375,197.7031 Q201.6094,197.9531 201.6094,198.5625 L201.6094,200.0156 Q201.6094,200.625 201.375,200.8906 Q201.1406,201.1563 200.7656,201.1563 Q200.4219,201.1563 200.2188,200.9531 Q200.0156,200.7656 199.9063,200.25 Q199.8594,199.8906 199.6719,199.7031 Q199.3438,199.3281 198.7344,199.1094 Q198.125,198.8906 197.5,198.8906 Q196.7344,198.8906 196.0938,199.2188 Q195.4688,199.5469 194.9688,200.2969 Q194.4844,201.0469 194.4844,202.0781 L194.4844,203.1719 Q194.4844,204.4063 195.375,205.2344 Q196.2656,206.0469 197.8594,206.0469 Q198.7969,206.0469 199.4531,205.7969 Q199.8438,205.6406 200.2656,205.2031 Q200.5313,204.9375 200.6719,204.8594 Q200.8281,204.7813 201.0313,204.7813 Q201.3594,204.7813 201.6094,205.0469 Q201.875,205.2969 201.875,205.6406 Q201.875,205.9844 201.5313,206.3906 Q201.0313,206.9688 200.2344,207.2969 Q199.1563,207.75 197.8594,207.75 Q196.3438,207.75 195.1406,207.125 Q194.1563,206.625 193.4688,205.5625 Q192.7813,204.4844 192.7813,203.2031 L192.7813,202.0469 Q192.7813,200.7188 193.3906,199.5781 Q194.0156,198.4219 195.1094,197.8125 Q196.2031,197.1875 197.4375,197.1875 Q198.1719,197.1875 198.8125,197.3594 Q199.4688,197.5156 200.0156,197.875 Z " fill="#000000"/><text fill="#000000" font-family="sans-serif" font-size="14" lengthAdjust="spacing" textLength="37" x="217.75" y="207.7285">World</text><line style="stroke:#181818;stroke-width:0.5;" x1="69" x2="371" y1="218" y2="218"/><rect fill="none" height="6" style="stroke:#C82930;stroke-width:1.0;" width="6" x="76" y="229.3047"/><text fill="#000000" font-family="sans-serif" font-size="14" lengthAdjust="spacing" textLength="278" x="88" y="236.5332">locations: unordered_map&lt;string, Location&gt;</text><rect fill="none" height="6" style="stroke:#C82930;stroke-width:1.0;" width="6" x="76" y="246.9141"/><text fill="#000000" font-family="sans-serif" font-size="14" lengthAdjust="spacing" textLength="165" x="88" y="254.1426">initialLocationName: string</text><line style="stroke:#181818;stroke-width:0.5;" x1="69" x2="371" y1="261.2188" y2="261.2188"/><rect fill="#F24D5C" height="6" style="stroke:#C82930;stroke-width:1.0;" width="6" x="76" y="272.5234"/><text fill="#000000" font-family="sans-serif" font-size="14" font-weight="bold" lengthAdjust="spacing" textLength="237" x="88" y="279.752">World(initialLocationName: string)</text><ellipse cx="79" cy="293.1328" fill="#84BE84" rx="3" ry="3" style="stroke:#038048;stroke-width:1.0;"/><text fill="#000000" font-family="sans-serif" font-size="14" lengthAdjust="spacing" textLength="227" x="88" y="297.3613">GetLocation(name: string): Location</text><ellipse cx="79" cy="310.7422" fill="#84BE84" rx="3" ry="3" style="stroke:#038048;stroke-width:1.0;"/><text fill="#000000" font-family="sans-serif" font-size="14" lengthAdjust="spacing" textLength="227" x="88" y="314.9707">GetLocation(name: string): Location</text><ellipse cx="79" cy="328.3516" fill="#84BE84" rx="3" ry="3" style="stroke:#038048;stroke-width:1.0;"/><text fill="#000000" font-family="sans-serif" font-size="14" lengthAdjust="spacing" textLength="183" x="88" y="332.5801">GetLocations(): LocationMap</text><ellipse cx="79" cy="345.9609" fill="#84BE84" rx="3" ry="3" style="stroke:#038048;stroke-width:1.0;"/><text fill="#000000" font-family="sans-serif" font-size="14" lengthAdjust="spacing" textLength="198" x="88" y="350.1895">GetInitialLocationName(): string</text></g><!--class WorldFactory--><g id="elem_WorldFactory"><rect codeLine="27" fill="#ADD8E6" height="65.6094" id="WorldFactory" rx="2.5" ry="2.5" style="stroke:#00008B;stroke-width:2.0;" width="133" x="153.5" y="42"/><ellipse cx="175.7" cy="58" fill="#ADD1B2" rx="11" ry="11" style="stroke:#181818;stroke-width:1.0;"/><path d="M178.4656,53.875 Q178.6219,53.6563 178.8094,53.5469 Q178.9969,53.4375 179.2156,53.4375 Q179.5906,53.4375 179.825,53.7031 Q180.0594,53.9531 180.0594,54.5625 L180.0594,56.0156 Q180.0594,56.625 179.825,56.8906 Q179.5906,57.1563 179.2156,57.1563 Q178.8719,57.1563 178.6688,56.9531 Q178.4656,56.7656 178.3563,56.25 Q178.3094,55.8906 178.1219,55.7031 Q177.7938,55.3281 177.1844,55.1094 Q176.575,54.8906 175.95,54.8906 Q175.1844,54.8906 174.5438,55.2188 Q173.9188,55.5469 173.4188,56.2969 Q172.9344,57.0469 172.9344,58.0781 L172.9344,59.1719 Q172.9344,60.4063 173.825,61.2344 Q174.7156,62.0469 176.3094,62.0469 Q177.2469,62.0469 177.9031,61.7969 Q178.2938,61.6406 178.7156,61.2031 Q178.9813,60.9375 179.1219,60.8594 Q179.2781,60.7813 179.4813,60.7813 Q179.8094,60.7813 180.0594,61.0469 Q180.325,61.2969 180.325,61.6406 Q180.325,61.9844 179.9813,62.3906 Q179.4813,62.9688 178.6844,63.2969 Q177.6063,63.75 176.3094,63.75 Q174.7938,63.75 173.5906,63.125 Q172.6063,62.625 171.9188,61.5625 Q171.2313,60.4844 171.2313,59.2031 L171.2313,58.0469 Q171.2313,56.7188 171.8406,55.5781 Q172.4656,54.4219 173.5594,53.8125 Q174.6531,53.1875 175.8875,53.1875 Q176.6219,53.1875 177.2625,53.3594 Q177.9188,53.5156 178.4656,53.875 Z " fill="#000000"/><text fill="#000000" font-family="sans-serif" font-size="14" lengthAdjust="spacing" textLength="85" x="191.3" y="63.7285">WorldFactory</text><line style="stroke:#00008B;stroke-width:2.0;" x1="154.5" x2="285.5" y1="74" y2="74"/><line style="stroke:#00008B;stroke-width:2.0;" x1="154.5" x2="285.5" y1="82" y2="82"/><ellipse cx="164.5" cy="96.3047" fill="#84BE84" rx="3" ry="3" style="stroke:#038048;stroke-width:1.0;"/><text fill="#000000" font-family="sans-serif" font-size="14" lengthAdjust="spacing" textLength="107" x="173.5" y="100.5332">create(...): World</text></g><!--link World to Location--><g id="link_World_Location"><path codeLine="31" d="M220,369.2 C220,388.61 220,391.52 220,411.86 " fill="none" id="World-Location" style="stroke:#181818;stroke-width:1.0;"/><polygon fill="#181818" points="220,357.2,216,363.2,220,369.2,224,363.2,220,357.2" style="stroke:#181818;stroke-width:1.0;"/><polygon fill="#181818" points="220,417.86,224,408.86,220,412.86,216,408.86,220,417.86" style="stroke:#181818;stroke-width:1.0;"/></g><!--link WorldFactory to World--><g id="link_WorldFactory_World"><path codeLine="32" d="M220,108.12 C220,129.37 220,152.31 220,179.87 " fill="none" id="WorldFactory-to-World" style="stroke:#181818;stroke-width:1.0;stroke-dasharray:7.0,7.0;"/><polygon fill="#181818" points="220,185.87,224,176.87,220,180.87,216,176.87,220,185.87" style="stroke:#181818;stroke-width:1.0;"/><text fill="#000000" font-family="sans-serif" font-size="13" lengthAdjust="spacing" textLength="45" x="225" y="152.4951">Creates</text></g><!--SRC=[dLBDJyCW5B_tho1wQTrM3zwmwS4r6fEvYmUFXiBB96FG05jYpFvtQJS6Mz4OEJJqlT_7-q2I3PYEK424xK3QhGQCTtSKVMKPSeSAOWnQA4eiLz95qV7Cf6DYPApcSXMY30pLlEl1uoHLKWArmBoUmIVf5zATW1CVp6EJAKg85mcIE5uQOWb6hF_YHHIBE4zWbyuYBqR5zgac-Fs0c5zsb3EkNI2kCFGOgAz_eawHRoLe56d_ndDDN-dEtPMk3YhrmDZ7-tnJMh1ucI8iP2kLPg21lMz8L_b2l7qTE5nooudmcMNoFLHjFPZblw2BwhQjpzfAxZyvoF-2Xp4btvu3FOzhlTZ_U9gFf1_v9xeMN4BPAi5mG_JwGMpXlYLqZGLVVTZM_KPpdr0Dn49UbgNJ7tHY-SEQRcQp-hoPCyEoh0y1ZAxGVD0pLrcs_mO0]--></g></svg>