<?xml version="1.0" encoding="us-ascii" standalone="no"?><svg xmlns="http://www.w3.org/2000/svg" xmlns:xlink="http://www.w3.org/1999/xlink" contentStyleType="text/css" height="397px" preserveAspectRatio="none" style="width:297px;height:397px;background:#FFFFFF;" version="1.1" viewBox="0 0 297 397" width="297px" zoomAndPan="magnify"><defs/><g><!--cluster adventure::v1--><g id="cluster_adventure::v1"><path d="M8.5,6 L107.5,6 A3.75,3.75 0 0 1 110,8.5 L117,29.6094 L287.5,29.6094 A2.5,2.5 0 0 1 290,32.1094 L290,387.5 A2.5,2.5 0 0 1 287.5,390 L8.5,390 A2.5,2.5 0 0 1 6,387.5 L6,8.5 A2.5,2.5 0 0 1 8.5,6 " fill="none" style="stroke:#000000;stroke-width:1.5;"/><line style="stroke:#000000;stroke-width:1.5;" x1="6" x2="117" y1="29.6094" y2="29.6094"/><text fill="#000000" font-family="sans-serif" font-size="14" font-weight="bold" lengthAdjust="spacing" textLength="98" x="10" y="22.5332">adventure::v1</text></g><!--class Location--><g id="elem_Location"><rect codeLine="3" fill="#F1F1F1" height="136.0469" id="Location" rx="2.5" ry="2.5" style="stroke:#181818;stroke-width:0.5;" width="200" x="48" y="238"/><ellipse cx="116.75" cy="254" fill="#ADD1B2" rx="11" ry="11" style="stroke:#181818;stroke-width:1.0;"/><path d="M119.5156,249.875 Q119.6719,249.6563 119.8594,249.5469 Q120.0469,249.4375 120.2656,249.4375 Q120.6406,249.4375 120.875,249.7031 Q121.1094,249.9531 121.1094,250.5625 L121.1094,252.0156 Q121.1094,252.625 120.875,252.8906 Q120.6406,253.1563 120.2656,253.1563 Q119.9219,253.1563 119.7188,252.9531 Q119.5156,252.7656 119.4063,252.25 Q119.3594,251.8906 119.1719,251.7031 Q118.8438,251.3281 118.2344,251.1094 Q117.625,250.8906 117,250.8906 Q116.2344,250.8906 115.5938,251.2188 Q114.9688,251.5469 114.4688,252.2969 Q113.9844,253.0469 113.9844,254.0781 L113.9844,255.1719 Q113.9844,256.4063 114.875,257.2344 Q115.7656,258.0469 117.3594,258.0469 Q118.2969,258.0469 118.9531,257.7969 Q119.3438,257.6406 119.7656,257.2031 Q120.0313,256.9375 120.1719,256.8594 Q120.3281,256.7813 120.5313,256.7813 Q120.8594,256.7813 121.1094,257.0469 Q121.375,257.2969 121.375,257.6406 Q121.375,257.9844 121.0313,258.3906 Q120.5313,258.9688 119.7344,259.2969 Q118.6563,259.75 117.3594,259.75 Q115.8438,259.75 114.6406,259.125 Q113.6563,258.625 112.9688,257.5625 Q112.2813,256.4844 112.2813,255.2031 L112.2813,254.0469 Q112.2813,252.7188 112.8906,251.5781 Q113.5156,250.4219 114.6094,249.8125 Q115.7031,249.1875 116.9375,249.1875 Q117.6719,249.1875 118.3125,249.3594 Q118.9688,249.5156 119.5156,249.875 Z " fill="#000000"/><text fill="#000000" font-family="sans-serif" font-size="14" lengthAdjust="spacing" textLength="54" x="137.25" y="259.7285">Location</text><line style="stroke:#181818;stroke-width:0.5;" x1="49" x2="247" y1="270" y2="270"/><rect fill="none" height="6" style="stroke:#C82930;stroke-width:1.0;" width="6" x="56" y="281.3047"/><text fill="#000000" font-family="sans-serif" font-size="14" lengthAdjust="spacing" textLength="105" x="68" y="288.5332">name: std::string</text><rect fill="none" height="6" style="stroke:#C82930;stroke-width:1.0;" width="6" x="56" y="298.9141"/><text fill="#000000" font-family="sans-serif" font-size="14" lengthAdjust="spacing" textLength="139" x="68" y="306.1426">description: std::string</text><line style="stroke:#181818;stroke-width:0.5;" x1="49" x2="247" y1="313.2188" y2="313.2188"/><ellipse cx="59" cy="327.5234" fill="#84BE84" rx="3" ry="3" style="stroke:#038048;stroke-width:1.0;"/><text fill="#000000" font-family="sans-serif" font-size="14" lengthAdjust="spacing" textLength="76" x="68" y="331.752">Location(...)</text><ellipse cx="59" cy="345.1328" fill="#84BE84" rx="3" ry="3" style="stroke:#038048;stroke-width:1.0;"/><text fill="#000000" font-family="sans-serif" font-size="14" lengthAdjust="spacing" textLength="139" x="68" y="349.3613">GetName(): std::string</text><ellipse cx="59" cy="362.7422" fill="#84BE84" rx="3" ry="3" style="stroke:#038048;stroke-width:1.0;"/><text fill="#000000" font-family="sans-serif" font-size="14" lengthAdjust="spacing" textLength="174" x="68" y="366.9707">GetDescription(): std::string</text></g><!--class World--><g id="elem_World"><rect codeLine="11" fill="#F1F1F1" height="136.0469" id="World" rx="2.5" ry="2.5" style="stroke:#181818;stroke-width:0.5;" width="251" x="22.5" y="42"/><ellipse cx="125.25" cy="58" fill="#ADD1B2" rx="11" ry="11" style="stroke:#181818;stroke-width:1.0;"/><path d="M128.0156,53.875 Q128.1719,53.6563 128.3594,53.5469 Q128.5469,53.4375 128.7656,53.4375 Q129.1406,53.4375 129.375,53.7031 Q129.6094,53.9531 129.6094,54.5625 L129.6094,56.0156 Q129.6094,56.625 129.375,56.8906 Q129.1406,57.1563 128.7656,57.1563 Q128.4219,57.1563 128.2188,56.9531 Q128.0156,56.7656 127.9063,56.25 Q127.8594,55.8906 127.6719,55.7031 Q127.3438,55.3281 126.7344,55.1094 Q126.125,54.8906 125.5,54.8906 Q124.7344,54.8906 124.0938,55.2188 Q123.4688,55.5469 122.9688,56.2969 Q122.4844,57.0469 122.4844,58.0781 L122.4844,59.1719 Q122.4844,60.4063 123.375,61.2344 Q124.2656,62.0469 125.8594,62.0469 Q126.7969,62.0469 127.4531,61.7969 Q127.8438,61.6406 128.2656,61.2031 Q128.5313,60.9375 128.6719,60.8594 Q128.8281,60.7813 129.0313,60.7813 Q129.3594,60.7813 129.6094,61.0469 Q129.875,61.2969 129.875,61.6406 Q129.875,61.9844 129.5313,62.3906 Q129.0313,62.9688 128.2344,63.2969 Q127.1563,63.75 125.8594,63.75 Q124.3438,63.75 123.1406,63.125 Q122.1563,62.625 121.4688,61.5625 Q120.7813,60.4844 120.7813,59.2031 L120.7813,58.0469 Q120.7813,56.7188 121.3906,55.5781 Q122.0156,54.4219 123.1094,53.8125 Q124.2031,53.1875 125.4375,53.1875 Q126.1719,53.1875 126.8125,53.3594 Q127.4688,53.5156 128.0156,53.875 Z " fill="#000000"/><text fill="#000000" font-family="sans-serif" font-size="14" lengthAdjust="spacing" textLength="37" x="145.75" y="63.7285">World</text><line style="stroke:#181818;stroke-width:0.5;" x1="23.5" x2="272.5" y1="74" y2="74"/><rect fill="none" height="6" style="stroke:#C82930;stroke-width:1.0;" width="6" x="30.5" y="85.3047"/><text fill="#000000" font-family="sans-serif" font-size="14" lengthAdjust="spacing" textLength="145" x="42.5" y="92.5332">locations: LocationMap</text><rect fill="none" height="6" style="stroke:#C82930;stroke-width:1.0;" width="6" x="30.5" y="102.9141"/><text fill="#000000" font-family="sans-serif" font-size="14" lengthAdjust="spacing" textLength="192" x="42.5" y="110.1426">initialLocationName: std::string</text><line style="stroke:#181818;stroke-width:0.5;" x1="23.5" x2="272.5" y1="117.2188" y2="117.2188"/><ellipse cx="33.5" cy="131.5234" fill="#84BE84" rx="3" ry="3" style="stroke:#038048;stroke-width:1.0;"/><text fill="#000000" font-family="sans-serif" font-size="14" lengthAdjust="spacing" textLength="59" x="42.5" y="135.752">World(...)</text><ellipse cx="33.5" cy="149.1328" fill="#84BE84" rx="3" ry="3" style="stroke:#038048;stroke-width:1.0;"/><text fill="#000000" font-family="sans-serif" font-size="14" lengthAdjust="spacing" textLength="183" x="42.5" y="153.3613">GetLocations(): LocationMap</text><ellipse cx="33.5" cy="166.7422" fill="#84BE84" rx="3" ry="3" style="stroke:#038048;stroke-width:1.0;"/><text fill="#000000" font-family="sans-serif" font-size="14" lengthAdjust="spacing" textLength="225" x="42.5" y="170.9707">GetInitialLocationName(): std::string</text></g><!--link World to Location--><g id="link_World_Location"><path codeLine="19" d="M148,190.04 C148,209.42 148,212.58 148,231.96 " fill="none" id="World-Location" style="stroke:#181818;stroke-width:1.0;"/><polygon fill="#181818" points="148,178.04,144,184.04,148,190.04,152,184.04,148,178.04" style="stroke:#181818;stroke-width:1.0;"/><polygon fill="#181818" points="148,237.96,152,228.96,148,232.96,144,228.96,148,237.96" style="stroke:#181818;stroke-width:1.0;"/></g><!--SRC=[VK-z2iCW4Dvz2iUaGQ6hGwT2ARHPEnygHR0cU2PBoRjNsoG6alJ6-_uTl3Is83K5rMiNEg-5w8_qJMWyQG6HtXe9mJHkVAPZBke4nQ24mE2DUsP8QPJUj4cnpQWcmu9pNkRtHOSwsXRbZYpYv-ozHHl8elQZyLOjEzin5iKywGvjneqpmO2Ti7ftOlMrNhUVb9YwRKKaqdMTycVARyI1iTDiI8OF]--></g></svg>