<?xml version="1.0" encoding="us-ascii" standalone="no"?><svg xmlns="http://www.w3.org/2000/svg" xmlns:xlink="http://www.w3.org/1999/xlink" contentStyleType="text/css" height="275px" preserveAspectRatio="none" style="width:341px;height:275px;background:#FFFFFF;" version="1.1" viewBox="0 0 341 275" width="341px" zoomAndPan="magnify"><defs/><g><!--class MovieKindV0--><g id="elem_MovieKindV0"><rect codeLine="2" fill="#F1F1F1" height="83.2188" id="MovieKindV0" rx="2.5" ry="2.5" style="stroke:#181818;stroke-width:0.5;" width="114" x="36" y="185"/><ellipse cx="51" cy="201" fill="#EB937F" rx="11" ry="11" style="stroke:#181818;stroke-width:1.0;"/><path d="M49.8594,201.7969 L49.8594,204.2969 L54.1875,204.2969 L54.1875,203.375 Q54.1875,202.7656 54.4219,202.5 Q54.6719,202.2344 55.0469,202.2344 Q55.4219,202.2344 55.6563,202.5 Q55.8906,202.7656 55.8906,203.375 L55.8906,206 L47.8906,206 Q47.2656,206 47,205.7656 Q46.75,205.5313 46.75,205.1406 Q46.75,204.7656 47.0156,204.5313 Q47.2813,204.2969 47.8906,204.2969 L48.1563,204.2969 L48.1563,197.6406 L47.8906,197.6406 Q47.2656,197.6406 47,197.4063 Q46.75,197.1719 46.75,196.7813 Q46.75,196.4063 47,196.1719 Q47.2656,195.9375 47.8906,195.9375 L55.5156,195.9375 L55.5156,198.5313 Q55.5156,199.1406 55.2813,199.4063 Q55.0625,199.6563 54.6719,199.6563 Q54.2969,199.6563 54.0625,199.4063 Q53.8281,199.1406 53.8281,198.5313 L53.8281,197.6406 L49.8594,197.6406 L49.8594,200.0938 L51.3438,200.0938 Q51.3438,199.4375 51.4688,199.25 Q51.7344,198.8438 52.2031,198.8438 Q52.5781,198.8438 52.8125,199.1094 Q53.0469,199.3594 53.0469,199.9688 L53.0469,201.9375 Q53.0469,202.4844 52.9219,202.6719 Q52.6563,203.0625 52.2031,203.0625 Q51.7344,203.0625 51.4688,202.6563 Q51.3438,202.4688 51.3438,201.7969 L49.8594,201.7969 Z " fill="#000000"/><text fill="#000000" font-family="sans-serif" font-size="14" lengthAdjust="spacing" textLength="82" x="65" y="206.7285">MovieKindV0</text><line style="stroke:#181818;stroke-width:0.5;" x1="37" x2="149" y1="217" y2="217"/><text fill="#000000" font-family="sans-serif" font-size="14" lengthAdjust="spacing" textLength="50" x="42" y="235.5332">Regular</text><text fill="#000000" font-family="sans-serif" font-size="14" lengthAdjust="spacing" textLength="53" x="42" y="253.1426">Children</text><line style="stroke:#181818;stroke-width:0.5;" x1="37" x2="149" y1="260.2188" y2="260.2188"/></g><!--class MovieV0--><g id="elem_MovieV0"><rect codeLine="7" fill="#F1F1F1" height="118.4375" id="MovieV0" rx="2.5" ry="2.5" style="stroke:#181818;stroke-width:0.5;" width="172" x="7" y="7"/><ellipse cx="61.75" cy="23" fill="#ADD1B2" rx="11" ry="11" style="stroke:#181818;stroke-width:1.0;"/><path d="M64.5156,18.875 Q64.6719,18.6563 64.8594,18.5469 Q65.0469,18.4375 65.2656,18.4375 Q65.6406,18.4375 65.875,18.7031 Q66.1094,18.9531 66.1094,19.5625 L66.1094,21.0156 Q66.1094,21.625 65.875,21.8906 Q65.6406,22.1563 65.2656,22.1563 Q64.9219,22.1563 64.7188,21.9531 Q64.5156,21.7656 64.4063,21.25 Q64.3594,20.8906 64.1719,20.7031 Q63.8438,20.3281 63.2344,20.1094 Q62.625,19.8906 62,19.8906 Q61.2344,19.8906 60.5938,20.2188 Q59.9688,20.5469 59.4688,21.2969 Q58.9844,22.0469 58.9844,23.0781 L58.9844,24.1719 Q58.9844,25.4063 59.875,26.2344 Q60.7656,27.0469 62.3594,27.0469 Q63.2969,27.0469 63.9531,26.7969 Q64.3438,26.6406 64.7656,26.2031 Q65.0313,25.9375 65.1719,25.8594 Q65.3281,25.7813 65.5313,25.7813 Q65.8594,25.7813 66.1094,26.0469 Q66.375,26.2969 66.375,26.6406 Q66.375,26.9844 66.0313,27.3906 Q65.5313,27.9688 64.7344,28.2969 Q63.6563,28.75 62.3594,28.75 Q60.8438,28.75 59.6406,28.125 Q58.6563,27.625 57.9688,26.5625 Q57.2813,25.4844 57.2813,24.2031 L57.2813,23.0469 Q57.2813,21.7188 57.8906,20.5781 Q58.5156,19.4219 59.6094,18.8125 Q60.7031,18.1875 61.9375,18.1875 Q62.6719,18.1875 63.3125,18.3594 Q63.9688,18.5156 64.5156,18.875 Z " fill="#000000"/><text fill="#000000" font-family="sans-serif" font-size="14" lengthAdjust="spacing" textLength="54" x="82.25" y="28.7285">MovieV0</text><line style="stroke:#181818;stroke-width:0.5;" x1="8" x2="178" y1="39" y2="39"/><rect fill="none" height="6" style="stroke:#C82930;stroke-width:1.0;" width="6" x="15" y="50.3047"/><text fill="#000000" font-family="sans-serif" font-size="14" lengthAdjust="spacing" textLength="96" x="27" y="57.5332">std::string title_</text><rect fill="none" height="6" style="stroke:#C82930;stroke-width:1.0;" width="6" x="15" y="67.9141"/><text fill="#000000" font-family="sans-serif" font-size="14" lengthAdjust="spacing" textLength="120" x="27" y="75.1426">MovieKindV0 kind_</text><line style="stroke:#181818;stroke-width:0.5;" x1="8" x2="178" y1="82.2188" y2="82.2188"/><ellipse cx="18" cy="96.5234" fill="#84BE84" rx="3" ry="3" style="stroke:#038048;stroke-width:1.0;"/><text fill="#000000" font-family="sans-serif" font-size="14" lengthAdjust="spacing" textLength="146" x="27" y="100.752">double ComputePrice()</text><ellipse cx="18" cy="114.1328" fill="#84BE84" rx="3" ry="3" style="stroke:#038048;stroke-width:1.0;"/><text fill="#000000" font-family="sans-serif" font-size="14" lengthAdjust="spacing" textLength="92" x="27" y="118.3613">void PrintInfo()</text></g><path d="M214,7 L214,57.0547 L173,95.0234 L214,65.0547 L214,115.1094 A0,0 0 0 0 214,115.1094 L334,115.1094 A0,0 0 0 0 334,115.1094 L334,17 L324,7 L214,7 A0,0 0 0 0 214,7 " fill="#FEFFDD" style="stroke:#181818;stroke-width:0.5;"/><path d="M324,7 L324,17 L334,17 L324,7 " fill="#FEFFDD" style="stroke:#181818;stroke-width:0.5;"/><text fill="#000000" font-family="sans-serif" font-size="13" lengthAdjust="spacing" textLength="88" x="220" y="25.4951">switch (kind_) {</text><text fill="#000000" font-family="sans-serif" font-size="13" lengthAdjust="spacing" textLength="80" x="236" y="41.8467">case Regular:</text><text fill="#000000" font-family="sans-serif" font-size="13" lengthAdjust="spacing" textLength="24" x="252" y="58.1982">// ...</text><text fill="#000000" font-family="sans-serif" font-size="13" lengthAdjust="spacing" textLength="83" x="236" y="74.5498">case Children:</text><text fill="#000000" font-family="sans-serif" font-size="13" lengthAdjust="spacing" textLength="24" x="252" y="90.9014">// ...</text><text fill="#000000" font-family="sans-serif" font-size="13" lengthAdjust="spacing" textLength="4" x="220" y="107.2529">}</text><!--link MovieV0 to MovieKindV0--><g id="link_MovieV0_MovieKindV0"><path codeLine="23" d="M93,125.12 C93,144.91 93,160.6 93,178.73 " fill="none" id="MovieV0-to-MovieKindV0" style="stroke:#181818;stroke-width:1.0;"/><polygon fill="#181818" points="93,184.73,97,175.73,93,179.73,89,175.73,93,184.73" style="stroke:#181818;stroke-width:1.0;"/></g><!--SRC=[TL0n3i8m3Dpp2eyWr9Ov0qidX90G0oigYTjQX0GbRXaGVoSj3Ie3jyGwdtC-e-rki7SzuOwiFgtXAI3YY4rdAZ_MPKj6UxJY9OGoLGWV_LURGM0jPM1FjW4cDdYU6lEFh_7vy2lGhhiOXDBTxXtZmPF2nNBgzOuqHChorjOkqj7MEaRmrBGChaxsKixdn-dm85OjB4QlvRJV05K5JA7abnrG593d-Qym9VwhV0cq6eQjX4Z7oBBDFEyR]--></g></svg>