<?xml version="1.0" encoding="us-ascii" standalone="no"?><svg xmlns="http://www.w3.org/2000/svg" xmlns:xlink="http://www.w3.org/1999/xlink" contentStyleType="text/css" height="324px" preserveAspectRatio="none" style="width:366px;height:324px;background:#FFFFFF;" version="1.1" viewBox="0 0 366 324" width="366px" zoomAndPan="magnify"><defs/><g><!--class MovieKind--><g id="elem_MovieKind"><rect codeLine="2" fill="#F1F1F1" height="100.8281" id="MovieKind" rx="2.5" ry="2.5" style="stroke:#181818;stroke-width:0.5;" width="97" x="44.5" y="217"/><ellipse cx="59.5" cy="233" fill="#EB937F" rx="11" ry="11" style="stroke:#181818;stroke-width:1.0;"/><path d="M58.3594,233.7969 L58.3594,236.2969 L62.6875,236.2969 L62.6875,235.375 Q62.6875,234.7656 62.9219,234.5 Q63.1719,234.2344 63.5469,234.2344 Q63.9219,234.2344 64.1563,234.5 Q64.3906,234.7656 64.3906,235.375 L64.3906,238 L56.3906,238 Q55.7656,238 55.5,237.7656 Q55.25,237.5313 55.25,237.1406 Q55.25,236.7656 55.5156,236.5313 Q55.7813,236.2969 56.3906,236.2969 L56.6563,236.2969 L56.6563,229.6406 L56.3906,229.6406 Q55.7656,229.6406 55.5,229.4063 Q55.25,229.1719 55.25,228.7813 Q55.25,228.4063 55.5,228.1719 Q55.7656,227.9375 56.3906,227.9375 L64.0156,227.9375 L64.0156,230.5313 Q64.0156,231.1406 63.7813,231.4063 Q63.5625,231.6563 63.1719,231.6563 Q62.7969,231.6563 62.5625,231.4063 Q62.3281,231.1406 62.3281,230.5313 L62.3281,229.6406 L58.3594,229.6406 L58.3594,232.0938 L59.8438,232.0938 Q59.8438,231.4375 59.9688,231.25 Q60.2344,230.8438 60.7031,230.8438 Q61.0781,230.8438 61.3125,231.1094 Q61.5469,231.3594 61.5469,231.9688 L61.5469,233.9375 Q61.5469,234.4844 61.4219,234.6719 Q61.1563,235.0625 60.7031,235.0625 Q60.2344,235.0625 59.9688,234.6563 Q59.8438,234.4688 59.8438,233.7969 L58.3594,233.7969 Z " fill="#000000"/><text fill="#000000" font-family="sans-serif" font-size="14" lengthAdjust="spacing" textLength="65" x="73.5" y="238.7285">MovieKind</text><line style="stroke:#181818;stroke-width:0.5;" x1="45.5" x2="140.5" y1="249" y2="249"/><text fill="#000000" font-family="sans-serif" font-size="14" lengthAdjust="spacing" textLength="50" x="50.5" y="267.5332">Regular</text><text fill="#000000" font-family="sans-serif" font-size="14" lengthAdjust="spacing" textLength="53" x="50.5" y="285.1426">Children</text><text fill="#000000" font-family="sans-serif" font-size="14" lengthAdjust="spacing" textLength="78" x="50.5" y="302.752">NewRelease</text><line style="stroke:#181818;stroke-width:0.5;" x1="45.5" x2="140.5" y1="309.8281" y2="309.8281"/></g><!--class MovieV1--><g id="elem_MovieV1"><rect codeLine="8" fill="#F1F1F1" height="118.4375" id="MovieV1" rx="2.5" ry="2.5" style="stroke:#181818;stroke-width:0.5;" width="172" x="7" y="22.5"/><ellipse cx="61.75" cy="38.5" fill="#ADD1B2" rx="11" ry="11" style="stroke:#181818;stroke-width:1.0;"/><path d="M64.5156,34.375 Q64.6719,34.1563 64.8594,34.0469 Q65.0469,33.9375 65.2656,33.9375 Q65.6406,33.9375 65.875,34.2031 Q66.1094,34.4531 66.1094,35.0625 L66.1094,36.5156 Q66.1094,37.125 65.875,37.3906 Q65.6406,37.6563 65.2656,37.6563 Q64.9219,37.6563 64.7188,37.4531 Q64.5156,37.2656 64.4063,36.75 Q64.3594,36.3906 64.1719,36.2031 Q63.8438,35.8281 63.2344,35.6094 Q62.625,35.3906 62,35.3906 Q61.2344,35.3906 60.5938,35.7188 Q59.9688,36.0469 59.4688,36.7969 Q58.9844,37.5469 58.9844,38.5781 L58.9844,39.6719 Q58.9844,40.9063 59.875,41.7344 Q60.7656,42.5469 62.3594,42.5469 Q63.2969,42.5469 63.9531,42.2969 Q64.3438,42.1406 64.7656,41.7031 Q65.0313,41.4375 65.1719,41.3594 Q65.3281,41.2813 65.5313,41.2813 Q65.8594,41.2813 66.1094,41.5469 Q66.375,41.7969 66.375,42.1406 Q66.375,42.4844 66.0313,42.8906 Q65.5313,43.4688 64.7344,43.7969 Q63.6563,44.25 62.3594,44.25 Q60.8438,44.25 59.6406,43.625 Q58.6563,43.125 57.9688,42.0625 Q57.2813,40.9844 57.2813,39.7031 L57.2813,38.5469 Q57.2813,37.2188 57.8906,36.0781 Q58.5156,34.9219 59.6094,34.3125 Q60.7031,33.6875 61.9375,33.6875 Q62.6719,33.6875 63.3125,33.8594 Q63.9688,34.0156 64.5156,34.375 Z " fill="#000000"/><text fill="#000000" font-family="sans-serif" font-size="14" lengthAdjust="spacing" textLength="54" x="82.25" y="44.2285">MovieV1</text><line style="stroke:#181818;stroke-width:0.5;" x1="8" x2="178" y1="54.5" y2="54.5"/><rect fill="none" height="6" style="stroke:#C82930;stroke-width:1.0;" width="6" x="15" y="65.8047"/><text fill="#000000" font-family="sans-serif" font-size="14" lengthAdjust="spacing" textLength="96" x="27" y="73.0332">std::string title_</text><rect fill="none" height="6" style="stroke:#C82930;stroke-width:1.0;" width="6" x="15" y="83.4141"/><text fill="#000000" font-family="sans-serif" font-size="14" lengthAdjust="spacing" textLength="103" x="27" y="90.6426">MovieKind kind_</text><line style="stroke:#181818;stroke-width:0.5;" x1="8" x2="178" y1="97.7188" y2="97.7188"/><ellipse cx="18" cy="112.0234" fill="#84BE84" rx="3" ry="3" style="stroke:#038048;stroke-width:1.0;"/><text fill="#000000" font-family="sans-serif" font-size="14" lengthAdjust="spacing" textLength="146" x="27" y="116.252">double ComputePrice()</text><ellipse cx="18" cy="129.6328" fill="#84BE84" rx="3" ry="3" style="stroke:#038048;stroke-width:1.0;"/><text fill="#000000" font-family="sans-serif" font-size="14" lengthAdjust="spacing" textLength="92" x="27" y="133.8613">void PrintInfo()</text></g><path d="M214.5,6 L214.5,72.4063 L173,110.5234 L214.5,80.4063 L214.5,146.8125 A0,0 0 0 0 214.5,146.8125 L359.5,146.8125 A0,0 0 0 0 359.5,146.8125 L359.5,16 L349.5,6 L214.5,6 A0,0 0 0 0 214.5,6 " fill="#FEFFDD" style="stroke:#181818;stroke-width:0.5;"/><path d="M349.5,6 L349.5,16 L359.5,16 L349.5,6 " fill="#FEFFDD" style="stroke:#181818;stroke-width:0.5;"/><text fill="#000000" font-family="sans-serif" font-size="13" lengthAdjust="spacing" textLength="88" x="220.5" y="24.4951">switch (kind_) {</text><text fill="#000000" font-family="sans-serif" font-size="13" lengthAdjust="spacing" textLength="80" x="236.5" y="40.8467">case Regular:</text><text fill="#000000" font-family="sans-serif" font-size="13" lengthAdjust="spacing" textLength="24" x="252.5" y="57.1982">// ...</text><text fill="#000000" font-family="sans-serif" font-size="13" lengthAdjust="spacing" textLength="83" x="236.5" y="73.5498">case Children:</text><text fill="#000000" font-family="sans-serif" font-size="13" lengthAdjust="spacing" textLength="24" x="252.5" y="89.9014">// ...</text><text fill="#000000" font-family="sans-serif" font-size="13" lengthAdjust="spacing" textLength="108" x="236.5" y="106.2529">case NewRelease:</text><text fill="#000000" font-family="sans-serif" font-size="13" lengthAdjust="spacing" textLength="24" x="252.5" y="122.6045">// ...</text><text fill="#000000" font-family="sans-serif" font-size="13" lengthAdjust="spacing" textLength="4" x="220.5" y="138.9561">}</text><!--link MovieV1 to MovieKind--><g id="link_MovieV1_MovieKind"><path codeLine="26" d="M93,140.72 C93,165.15 93,187.26 93,210.71 " fill="none" id="MovieV1-to-MovieKind" style="stroke:#181818;stroke-width:1.0;"/><polygon fill="#181818" points="93,216.71,97,207.71,93,211.71,89,207.71,93,216.71" style="stroke:#181818;stroke-width:1.0;"/></g><!--SRC=[XL2n3e8m4Dtx5JTY313N3YvEncWCWwj1Ui35qfhsqC7uxnO4qS5uGzDxTo_ltaFJDh2rLy8D6GLt0Q4oh5gTk_w_gaahXwPlTdZBK6FkKJo4A7Jk_OjyM0pK63mhAJqxCXKmiSRZC9XKpk5veNDGjZrfX9LjBYtZtb61qMoONIqf293XjIbjW8EeiOpWgAePR3cAI_d9xzd-HbpK4FLQi-6whefm_UXGlj6kqXII9FbU7Et_tvoo-Rdx41ZSTmw466EBu-MKp1C0]--></g></svg>