<?xml version="1.0" encoding="us-ascii" standalone="no"?><svg xmlns="http://www.w3.org/2000/svg" xmlns:xlink="http://www.w3.org/1999/xlink" contentStyleType="text/css" height="665px" preserveAspectRatio="none" style="width:652px;height:665px;background:#FFFFFF;" version="1.1" viewBox="0 0 652 665" width="652px" zoomAndPan="magnify"><defs/><g><!--cluster adventure::v4a--><g id="cluster_adventure::v4a"><path d="M8.5,6 L115.5,6 A3.75,3.75 0 0 1 118,8.5 L125,29.6094 L642.5,29.6094 A2.5,2.5 0 0 1 645,32.1094 L645,655.5 A2.5,2.5 0 0 1 642.5,658 L8.5,658 A2.5,2.5 0 0 1 6,655.5 L6,8.5 A2.5,2.5 0 0 1 8.5,6 " fill="none" style="stroke:#000000;stroke-width:1.5;"/><line style="stroke:#000000;stroke-width:1.5;" x1="6" x2="125" y1="29.6094" y2="29.6094"/><text fill="#000000" font-family="sans-serif" font-size="14" font-weight="bold" lengthAdjust="spacing" textLength="106" x="10" y="22.5332">adventure::v4a</text></g><!--class Location--><g id="elem_Location"><rect codeLine="4" fill="#F1F1F1" height="224.0938" id="Location" rx="2.5" ry="2.5" style="stroke:#181818;stroke-width:0.5;" width="396" x="127" y="418"/><ellipse cx="293.75" cy="434" fill="#ADD1B2" rx="11" ry="11" style="stroke:#181818;stroke-width:1.0;"/><path d="M296.5156,429.875 Q296.6719,429.6563 296.8594,429.5469 Q297.0469,429.4375 297.2656,429.4375 Q297.6406,429.4375 297.875,429.7031 Q298.1094,429.9531 298.1094,430.5625 L298.1094,432.0156 Q298.1094,432.625 297.875,432.8906 Q297.6406,433.1563 297.2656,433.1563 Q296.9219,433.1563 296.7188,432.9531 Q296.5156,432.7656 296.4063,432.25 Q296.3594,431.8906 296.1719,431.7031 Q295.8438,431.3281 295.2344,431.1094 Q294.625,430.8906 294,430.8906 Q293.2344,430.8906 292.5938,431.2188 Q291.9688,431.5469 291.4688,432.2969 Q290.9844,433.0469 290.9844,434.0781 L290.9844,435.1719 Q290.9844,436.4063 291.875,437.2344 Q292.7656,438.0469 294.3594,438.0469 Q295.2969,438.0469 295.9531,437.7969 Q296.3438,437.6406 296.7656,437.2031 Q297.0313,436.9375 297.1719,436.8594 Q297.3281,436.7813 297.5313,436.7813 Q297.8594,436.7813 298.1094,437.0469 Q298.375,437.2969 298.375,437.6406 Q298.375,437.9844 298.0313,438.3906 Q297.5313,438.9688 296.7344,439.2969 Q295.6563,439.75 294.3594,439.75 Q292.8438,439.75 291.6406,439.125 Q290.6563,438.625 289.9688,437.5625 Q289.2813,436.4844 289.2813,435.2031 L289.2813,434.0469 Q289.2813,432.7188 289.8906,431.5781 Q290.5156,430.4219 291.6094,429.8125 Q292.7031,429.1875 293.9375,429.1875 Q294.6719,429.1875 295.3125,429.3594 Q295.9688,429.5156 296.5156,429.875 Z " fill="#000000"/><text fill="#000000" font-family="sans-serif" font-size="14" lengthAdjust="spacing" textLength="54" x="314.25" y="439.7285">Location</text><line style="stroke:#181818;stroke-width:0.5;" x1="128" x2="522" y1="450" y2="450"/><rect fill="none" height="6" style="stroke:#C82930;stroke-width:1.0;" width="6" x="135" y="461.3047"/><text fill="#000000" font-family="sans-serif" font-size="14" lengthAdjust="spacing" textLength="78" x="147" y="468.5332">name: string</text><rect fill="none" height="6" style="stroke:#C82930;stroke-width:1.0;" width="6" x="135" y="478.9141"/><text fill="#000000" font-family="sans-serif" font-size="14" lengthAdjust="spacing" textLength="112" x="147" y="486.1426">description: string</text><rect fill="none" height="6" style="stroke:#C82930;stroke-width:1.0;" width="6" x="135" y="496.5234"/><text fill="#000000" font-family="sans-serif" font-size="14" lengthAdjust="spacing" textLength="216" x="147" y="503.752">connectedLocations: LocationMap</text><line style="stroke:#181818;stroke-width:0.5;" x1="128" x2="522" y1="510.8281" y2="510.8281"/><ellipse cx="138" cy="525.1328" fill="#84BE84" rx="3" ry="3" style="stroke:#038048;stroke-width:1.0;"/><text fill="#000000" font-family="sans-serif" font-size="14" lengthAdjust="spacing" textLength="262" x="147" y="529.3613">Location(name: string, description: string)</text><ellipse cx="138" cy="542.7422" fill="#84BE84" rx="3" ry="3" style="stroke:#038048;stroke-width:1.0;"/><text fill="#000000" font-family="sans-serif" font-size="14" lengthAdjust="spacing" textLength="271" x="147" y="546.9707">Location(locationData: data::LocationData)</text><ellipse cx="138" cy="560.3516" fill="#84BE84" rx="3" ry="3" style="stroke:#038048;stroke-width:1.0;"/><text fill="#000000" font-family="sans-serif" font-size="14" lengthAdjust="spacing" textLength="112" x="147" y="564.5801">GetName(): string</text><ellipse cx="138" cy="577.9609" fill="#84BE84" rx="3" ry="3" style="stroke:#038048;stroke-width:1.0;"/><text fill="#000000" font-family="sans-serif" font-size="14" lengthAdjust="spacing" textLength="147" x="147" y="582.1895">GetDescription(): string</text><ellipse cx="138" cy="595.5703" fill="#84BE84" rx="3" ry="3" style="stroke:#038048;stroke-width:1.0;"/><text fill="#000000" font-family="sans-serif" font-size="14" lengthAdjust="spacing" textLength="315" x="147" y="599.7988">GetConnectedLocation(direction: string): Location</text><ellipse cx="138" cy="613.1797" fill="#84BE84" rx="3" ry="3" style="stroke:#038048;stroke-width:1.0;"/><text fill="#000000" font-family="sans-serif" font-size="14" lengthAdjust="spacing" textLength="370" x="147" y="617.4082">SetConnectedLocation(direction: string, location: Location)</text><ellipse cx="138" cy="630.7891" fill="#84BE84" rx="3" ry="3" style="stroke:#038048;stroke-width:1.0;"/><text fill="#000000" font-family="sans-serif" font-size="14" lengthAdjust="spacing" textLength="263" x="147" y="635.0176">GetConnectedDirections(): vector&lt;string&gt;</text></g><!--class Pawn--><g id="elem_Pawn"><rect codeLine="17" fill="#ADD8E6" height="171.2656" id="Pawn" rx="2.5" ry="2.5" style="stroke:#00008B;stroke-width:2.0;" width="267" x="361.5" y="186"/><ellipse cx="473.75" cy="202" fill="#ADD1B2" rx="11" ry="11" style="stroke:#181818;stroke-width:1.0;"/><path d="M476.5156,197.875 Q476.6719,197.6563 476.8594,197.5469 Q477.0469,197.4375 477.2656,197.4375 Q477.6406,197.4375 477.875,197.7031 Q478.1094,197.9531 478.1094,198.5625 L478.1094,200.0156 Q478.1094,200.625 477.875,200.8906 Q477.6406,201.1563 477.2656,201.1563 Q476.9219,201.1563 476.7188,200.9531 Q476.5156,200.7656 476.4063,200.25 Q476.3594,199.8906 476.1719,199.7031 Q475.8438,199.3281 475.2344,199.1094 Q474.625,198.8906 474,198.8906 Q473.2344,198.8906 472.5938,199.2188 Q471.9688,199.5469 471.4688,200.2969 Q470.9844,201.0469 470.9844,202.0781 L470.9844,203.1719 Q470.9844,204.4063 471.875,205.2344 Q472.7656,206.0469 474.3594,206.0469 Q475.2969,206.0469 475.9531,205.7969 Q476.3438,205.6406 476.7656,205.2031 Q477.0313,204.9375 477.1719,204.8594 Q477.3281,204.7813 477.5313,204.7813 Q477.8594,204.7813 478.1094,205.0469 Q478.375,205.2969 478.375,205.6406 Q478.375,205.9844 478.0313,206.3906 Q477.5313,206.9688 476.7344,207.2969 Q475.6563,207.75 474.3594,207.75 Q472.8438,207.75 471.6406,207.125 Q470.6563,206.625 469.9688,205.5625 Q469.2813,204.4844 469.2813,203.2031 L469.2813,202.0469 Q469.2813,200.7188 469.8906,199.5781 Q470.5156,198.4219 471.6094,197.8125 Q472.7031,197.1875 473.9375,197.1875 Q474.6719,197.1875 475.3125,197.3594 Q475.9688,197.5156 476.5156,197.875 Z " fill="#000000"/><text fill="#000000" font-family="sans-serif" font-size="14" lengthAdjust="spacing" textLength="34" x="494.25" y="207.7285">Pawn</text><line style="stroke:#00008B;stroke-width:2.0;" x1="362.5" x2="627.5" y1="218" y2="218"/><rect fill="none" height="6" style="stroke:#C82930;stroke-width:1.0;" width="6" x="369.5" y="229.3047"/><text fill="#000000" font-family="sans-serif" font-size="14" lengthAdjust="spacing" textLength="78" x="381.5" y="236.5332">name: string</text><rect fill="none" height="6" style="stroke:#C82930;stroke-width:1.0;" width="6" x="369.5" y="246.9141"/><text fill="#000000" font-family="sans-serif" font-size="14" lengthAdjust="spacing" textLength="111" x="381.5" y="254.1426">location: Location</text><line style="stroke:#00008B;stroke-width:2.0;" x1="362.5" x2="627.5" y1="261.2188" y2="261.2188"/><ellipse cx="372.5" cy="275.5234" fill="#84BE84" rx="3" ry="3" style="stroke:#038048;stroke-width:1.0;"/><text fill="#000000" font-family="sans-serif" font-size="14" lengthAdjust="spacing" textLength="241" x="381.5" y="279.752">Pawn(name: string, location: Location)</text><ellipse cx="372.5" cy="293.1328" fill="#84BE84" rx="3" ry="3" style="stroke:#038048;stroke-width:1.0;"/><text fill="#000000" font-family="sans-serif" font-size="14" lengthAdjust="spacing" textLength="141" x="381.5" y="297.3613">Move(direction: string)</text><ellipse cx="372.5" cy="310.7422" fill="#84BE84" rx="3" ry="3" style="stroke:#038048;stroke-width:1.0;"/><text fill="#000000" font-family="sans-serif" font-size="14" lengthAdjust="spacing" textLength="201" x="381.5" y="314.9707">MoveIfPossible(direction: string)</text><ellipse cx="372.5" cy="328.3516" fill="#84BE84" rx="3" ry="3" style="stroke:#038048;stroke-width:1.0;"/><text fill="#000000" font-family="sans-serif" font-size="14" lengthAdjust="spacing" textLength="112" x="381.5" y="332.5801">GetName(): string</text><ellipse cx="372.5" cy="345.9609" fill="#84BE84" rx="3" ry="3" style="stroke:#038048;stroke-width:1.0;"/><text fill="#000000" font-family="sans-serif" font-size="14" lengthAdjust="spacing" textLength="149" x="381.5" y="350.1895">GetLocation(): Location</text></g><!--class World--><g id="elem_World"><rect codeLine="27" fill="#F1F1F1" height="171.2656" id="World" rx="2.5" ry="2.5" style="stroke:#181818;stroke-width:0.5;" width="304" x="22" y="186"/><ellipse cx="151.25" cy="202" fill="#ADD1B2" rx="11" ry="11" style="stroke:#181818;stroke-width:1.0;"/><path d="M154.0156,197.875 Q154.1719,197.6563 154.3594,197.5469 Q154.5469,197.4375 154.7656,197.4375 Q155.1406,197.4375 155.375,197.7031 Q155.6094,197.9531 155.6094,198.5625 L155.6094,200.0156 Q155.6094,200.625 155.375,200.8906 Q155.1406,201.1563 154.7656,201.1563 Q154.4219,201.1563 154.2188,200.9531 Q154.0156,200.7656 153.9063,200.25 Q153.8594,199.8906 153.6719,199.7031 Q153.3438,199.3281 152.7344,199.1094 Q152.125,198.8906 151.5,198.8906 Q150.7344,198.8906 150.0938,199.2188 Q149.4688,199.5469 148.9688,200.2969 Q148.4844,201.0469 148.4844,202.0781 L148.4844,203.1719 Q148.4844,204.4063 149.375,205.2344 Q150.2656,206.0469 151.8594,206.0469 Q152.7969,206.0469 153.4531,205.7969 Q153.8438,205.6406 154.2656,205.2031 Q154.5313,204.9375 154.6719,204.8594 Q154.8281,204.7813 155.0313,204.7813 Q155.3594,204.7813 155.6094,205.0469 Q155.875,205.2969 155.875,205.6406 Q155.875,205.9844 155.5313,206.3906 Q155.0313,206.9688 154.2344,207.2969 Q153.1563,207.75 151.8594,207.75 Q150.3438,207.75 149.1406,207.125 Q148.1563,206.625 147.4688,205.5625 Q146.7813,204.4844 146.7813,203.2031 L146.7813,202.0469 Q146.7813,200.7188 147.3906,199.5781 Q148.0156,198.4219 149.1094,197.8125 Q150.2031,197.1875 151.4375,197.1875 Q152.1719,197.1875 152.8125,197.3594 Q153.4688,197.5156 154.0156,197.875 Z " fill="#000000"/><text fill="#000000" font-family="sans-serif" font-size="14" lengthAdjust="spacing" textLength="37" x="171.75" y="207.7285">World</text><line style="stroke:#181818;stroke-width:0.5;" x1="23" x2="325" y1="218" y2="218"/><rect fill="none" height="6" style="stroke:#C82930;stroke-width:1.0;" width="6" x="30" y="229.3047"/><text fill="#000000" font-family="sans-serif" font-size="14" lengthAdjust="spacing" textLength="278" x="42" y="236.5332">locations: unordered_map&lt;string, Location&gt;</text><rect fill="none" height="6" style="stroke:#C82930;stroke-width:1.0;" width="6" x="30" y="246.9141"/><text fill="#000000" font-family="sans-serif" font-size="14" lengthAdjust="spacing" textLength="165" x="42" y="254.1426">initialLocationName: string</text><line style="stroke:#181818;stroke-width:0.5;" x1="23" x2="325" y1="261.2188" y2="261.2188"/><rect fill="#F24D5C" height="6" style="stroke:#C82930;stroke-width:1.0;" width="6" x="30" y="272.5234"/><text fill="#000000" font-family="sans-serif" font-size="14" lengthAdjust="spacing" textLength="212" x="42" y="279.752">World(initialLocationName: string)</text><ellipse cx="33" cy="293.1328" fill="#84BE84" rx="3" ry="3" style="stroke:#038048;stroke-width:1.0;"/><text fill="#000000" font-family="sans-serif" font-size="14" lengthAdjust="spacing" textLength="227" x="42" y="297.3613">GetLocation(name: string): Location</text><ellipse cx="33" cy="310.7422" fill="#84BE84" rx="3" ry="3" style="stroke:#038048;stroke-width:1.0;"/><text fill="#000000" font-family="sans-serif" font-size="14" lengthAdjust="spacing" textLength="227" x="42" y="314.9707">GetLocation(name: string): Location</text><ellipse cx="33" cy="328.3516" fill="#84BE84" rx="3" ry="3" style="stroke:#038048;stroke-width:1.0;"/><text fill="#000000" font-family="sans-serif" font-size="14" lengthAdjust="spacing" textLength="183" x="42" y="332.5801">GetLocations(): LocationMap</text><ellipse cx="33" cy="345.9609" fill="#84BE84" rx="3" ry="3" style="stroke:#038048;stroke-width:1.0;"/><text fill="#000000" font-family="sans-serif" font-size="14" lengthAdjust="spacing" textLength="198" x="42" y="350.1895">GetInitialLocationName(): string</text></g><!--class WorldFactory--><g id="elem_WorldFactory"><rect codeLine="37" fill="#F1F1F1" height="65.6094" id="WorldFactory" rx="2.5" ry="2.5" style="stroke:#181818;stroke-width:0.5;" width="133" x="107.5" y="42"/><ellipse cx="129.7" cy="58" fill="#ADD1B2" rx="11" ry="11" style="stroke:#181818;stroke-width:1.0;"/><path d="M132.4656,53.875 Q132.6219,53.6563 132.8094,53.5469 Q132.9969,53.4375 133.2156,53.4375 Q133.5906,53.4375 133.825,53.7031 Q134.0594,53.9531 134.0594,54.5625 L134.0594,56.0156 Q134.0594,56.625 133.825,56.8906 Q133.5906,57.1563 133.2156,57.1563 Q132.8719,57.1563 132.6688,56.9531 Q132.4656,56.7656 132.3563,56.25 Q132.3094,55.8906 132.1219,55.7031 Q131.7938,55.3281 131.1844,55.1094 Q130.575,54.8906 129.95,54.8906 Q129.1844,54.8906 128.5438,55.2188 Q127.9187,55.5469 127.4187,56.2969 Q126.9344,57.0469 126.9344,58.0781 L126.9344,59.1719 Q126.9344,60.4063 127.825,61.2344 Q128.7156,62.0469 130.3094,62.0469 Q131.2469,62.0469 131.9031,61.7969 Q132.2938,61.6406 132.7156,61.2031 Q132.9813,60.9375 133.1219,60.8594 Q133.2781,60.7813 133.4813,60.7813 Q133.8094,60.7813 134.0594,61.0469 Q134.325,61.2969 134.325,61.6406 Q134.325,61.9844 133.9813,62.3906 Q133.4813,62.9688 132.6844,63.2969 Q131.6063,63.75 130.3094,63.75 Q128.7938,63.75 127.5906,63.125 Q126.6062,62.625 125.9187,61.5625 Q125.2312,60.4844 125.2312,59.2031 L125.2312,58.0469 Q125.2312,56.7188 125.8406,55.5781 Q126.4656,54.4219 127.5594,53.8125 Q128.6531,53.1875 129.8875,53.1875 Q130.6219,53.1875 131.2625,53.3594 Q131.9188,53.5156 132.4656,53.875 Z " fill="#000000"/><text fill="#000000" font-family="sans-serif" font-size="14" lengthAdjust="spacing" textLength="85" x="145.3" y="63.7285">WorldFactory</text><line style="stroke:#181818;stroke-width:0.5;" x1="108.5" x2="239.5" y1="74" y2="74"/><line style="stroke:#181818;stroke-width:0.5;" x1="108.5" x2="239.5" y1="82" y2="82"/><ellipse cx="118.5" cy="96.3047" fill="#84BE84" rx="3" ry="3" style="stroke:#038048;stroke-width:1.0;"/><text fill="#000000" font-family="sans-serif" font-size="14" lengthAdjust="spacing" textLength="107" x="127.5" y="100.5332">create(...): World</text></g><!--link World to Location--><g id="link_World_Location"><path codeLine="41" d="M229.9491,367.5403 C241.3791,386.9503 244.5569,392.349 256.5269,412.689 " fill="none" id="World-Location" style="stroke:#181818;stroke-width:1.0;"/><polygon fill="#181818" points="223.86,357.2,223.4578,364.3999,229.9491,367.5403,230.3513,360.3405,223.86,357.2" style="stroke:#181818;stroke-width:1.0;"/><polygon fill="#181818" points="259.57,417.86,258.4527,408.0747,257.0341,413.5508,251.558,412.1322,259.57,417.86" style="stroke:#181818;stroke-width:1.0;"/></g><!--link WorldFactory to World--><g id="link_WorldFactory_World"><path codeLine="42" d="M174,108.12 C174,129.37 174,152.31 174,179.87 " fill="none" id="WorldFactory-to-World" style="stroke:#181818;stroke-width:1.0;stroke-dasharray:7.0,7.0;"/><polygon fill="#181818" points="174,185.87,178,176.87,174,180.87,170,176.87,174,185.87" style="stroke:#181818;stroke-width:1.0;"/><text fill="#000000" font-family="sans-serif" font-size="13" lengthAdjust="spacing" textLength="45" x="179" y="152.4951">Creates</text></g><!--link Pawn to Location--><g id="link_Pawn_Location"><path codeLine="43" d="M438.86,357.2 C426,376.61 415.4546,392.5186 401.9746,412.8586 " fill="none" id="Pawn-to-Location" style="stroke:#181818;stroke-width:1.0;"/><polygon fill="#181818" points="398.66,417.86,406.9661,412.5677,401.4221,413.6922,400.2976,408.1482,398.66,417.86" style="stroke:#181818;stroke-width:1.0;"/></g><!--SRC=[dLCzJyCm4DtxAwoo9BJDn6HG1Xg1AhLL9GP6TBLDiUhQaUq68SH_nqcRslaW83n4oVczTtVlBX8EpEH0609QC6cFcc5St03w78sGEqI0CMYf25Ykf8kYyvb9nyJ8MCtbpaSfCqJpl0HtBucIaX7BQArdy4Lw1Va5EAc3KPXaYdh4unwIEBzaO04ZMZxnCeW5d4Tcrov557UABQyod-y7nBpTKKIvTe6mGj-ZfpxzYJf5TIjU8-xFdzLSKrPQk7UbxqugQSNu2kUvWNU9q9NWaYLR9IZEGE_lnP7TRe7iiU2xDxjrdx_FkrkWhw_CqfhWO3yhLR0U_vg0nUj66SEtOXWwFDYBvUtXD5nwLbhGq0BXr_OebQPCC_foWFokRg_MIZs7IsuvYFfctUjYbIaQWCRzvOVczkxPVy4cTARnQphGebjdo-UkZGzGRkH7uEQ4Q0QMHKcIE7852hadywzdixHPQKCjIT9J0ACncbTwPbp1gWqFoTy0]--></g></svg>