<?xml version="1.0" encoding="us-ascii" standalone="no"?><svg xmlns="http://www.w3.org/2000/svg" xmlns:xlink="http://www.w3.org/1999/xlink" contentStyleType="text/css" height="292px" preserveAspectRatio="none" style="width:662px;height:292px;background:#FFFFFF;" version="1.1" viewBox="0 0 662 292" width="662px" zoomAndPan="magnify"><defs/><g><!--class BookFacade--><g id="elem_BookFacade"><rect codeLine="2" fill="#F1F1F1" height="83.2188" id="BookFacade" rx="2.5" ry="2.5" style="stroke:#181818;stroke-width:0.5;" width="112" x="7" y="68.14"/><ellipse cx="22" cy="84.14" fill="#ADD1B2" rx="11" ry="11" style="stroke:#181818;stroke-width:1.0;"/><path d="M24.7656,80.015 Q24.9219,79.7962 25.1094,79.6869 Q25.2969,79.5775 25.5156,79.5775 Q25.8906,79.5775 26.125,79.8431 Q26.3594,80.0931 26.3594,80.7025 L26.3594,82.1556 Q26.3594,82.765 26.125,83.0306 Q25.8906,83.2962 25.5156,83.2962 Q25.1719,83.2962 24.9688,83.0931 Q24.7656,82.9056 24.6563,82.39 Q24.6094,82.0306 24.4219,81.8431 Q24.0938,81.4681 23.4844,81.2494 Q22.875,81.0306 22.25,81.0306 Q21.4844,81.0306 20.8438,81.3587 Q20.2188,81.6869 19.7188,82.4369 Q19.2344,83.1869 19.2344,84.2181 L19.2344,85.3119 Q19.2344,86.5462 20.125,87.3744 Q21.0156,88.1869 22.6094,88.1869 Q23.5469,88.1869 24.2031,87.9369 Q24.5938,87.7806 25.0156,87.3431 Q25.2813,87.0775 25.4219,86.9994 Q25.5781,86.9212 25.7813,86.9212 Q26.1094,86.9212 26.3594,87.1869 Q26.625,87.4369 26.625,87.7806 Q26.625,88.1244 26.2813,88.5306 Q25.7813,89.1087 24.9844,89.4369 Q23.9063,89.89 22.6094,89.89 Q21.0938,89.89 19.8906,89.265 Q18.9063,88.765 18.2188,87.7025 Q17.5313,86.6244 17.5313,85.3431 L17.5313,84.1869 Q17.5313,82.8587 18.1406,81.7181 Q18.7656,80.5619 19.8594,79.9525 Q20.9531,79.3275 22.1875,79.3275 Q22.9219,79.3275 23.5625,79.4994 Q24.2188,79.6556 24.7656,80.015 Z " fill="#000000"/><text fill="#000000" font-family="sans-serif" font-size="14" lengthAdjust="spacing" textLength="80" x="36" y="89.8685">BookFacade</text><line style="stroke:#181818;stroke-width:0.5;" x1="8" x2="118" y1="100.14" y2="100.14"/><line style="stroke:#181818;stroke-width:0.5;" x1="8" x2="118" y1="108.14" y2="108.14"/><ellipse cx="18" cy="122.4447" fill="#84BE84" rx="3" ry="3" style="stroke:#038048;stroke-width:1.0;"/><text fill="#000000" font-family="sans-serif" font-size="14" lengthAdjust="spacing" textLength="74" x="27" y="126.6732">save(): void</text><ellipse cx="18" cy="140.0541" fill="#84BE84" rx="3" ry="3" style="stroke:#038048;stroke-width:1.0;"/><text fill="#000000" font-family="sans-serif" font-size="14" lengthAdjust="spacing" textLength="72" x="27" y="144.2826">print(): void</text></g><!--class Book--><g id="elem_Book"><rect codeLine="7" fill="#F1F1F1" height="100.8281" id="Book" rx="2.5" ry="2.5" style="stroke:#181818;stroke-width:0.5;" width="91" x="358.5" y="59.14"/><ellipse cx="385.65" cy="75.14" fill="#ADD1B2" rx="11" ry="11" style="stroke:#181818;stroke-width:1.0;"/><path d="M388.4156,71.015 Q388.5719,70.7962 388.7594,70.6869 Q388.9469,70.5775 389.1656,70.5775 Q389.5406,70.5775 389.775,70.8431 Q390.0094,71.0931 390.0094,71.7025 L390.0094,73.1556 Q390.0094,73.765 389.775,74.0306 Q389.5406,74.2962 389.1656,74.2962 Q388.8219,74.2962 388.6188,74.0931 Q388.4156,73.9056 388.3063,73.39 Q388.2594,73.0306 388.0719,72.8431 Q387.7438,72.4681 387.1344,72.2494 Q386.525,72.0306 385.9,72.0306 Q385.1344,72.0306 384.4938,72.3587 Q383.8688,72.6869 383.3688,73.4369 Q382.8844,74.1869 382.8844,75.2181 L382.8844,76.3119 Q382.8844,77.5462 383.775,78.3744 Q384.6656,79.1869 386.2594,79.1869 Q387.1969,79.1869 387.8531,78.9369 Q388.2438,78.7806 388.6656,78.3431 Q388.9313,78.0775 389.0719,77.9994 Q389.2281,77.9212 389.4313,77.9212 Q389.7594,77.9212 390.0094,78.1869 Q390.275,78.4369 390.275,78.7806 Q390.275,79.1244 389.9313,79.5306 Q389.4313,80.1087 388.6344,80.4369 Q387.5563,80.89 386.2594,80.89 Q384.7438,80.89 383.5406,80.265 Q382.5563,79.765 381.8688,78.7025 Q381.1813,77.6244 381.1813,76.3431 L381.1813,75.1869 Q381.1813,73.8587 381.7906,72.7181 Q382.4156,71.5619 383.5094,70.9525 Q384.6031,70.3275 385.8375,70.3275 Q386.5719,70.3275 387.2125,70.4994 Q387.8688,70.6556 388.4156,71.015 Z " fill="#000000"/><text fill="#000000" font-family="sans-serif" font-size="14" lengthAdjust="spacing" textLength="32" x="402.35" y="80.8685">Book</text><line style="stroke:#181818;stroke-width:0.5;" x1="359.5" x2="448.5" y1="91.14" y2="91.14"/><ellipse cx="369.5" cy="105.4447" fill="none" rx="3" ry="3" style="stroke:#038048;stroke-width:1.0;"/><text fill="#000000" font-family="sans-serif" font-size="14" lengthAdjust="spacing" textLength="46" x="378.5" y="109.6732">title: str</text><ellipse cx="369.5" cy="123.0541" fill="none" rx="3" ry="3" style="stroke:#038048;stroke-width:1.0;"/><text fill="#000000" font-family="sans-serif" font-size="14" lengthAdjust="spacing" textLength="65" x="378.5" y="127.2826">author: str</text><ellipse cx="369.5" cy="140.6634" fill="none" rx="3" ry="3" style="stroke:#038048;stroke-width:1.0;"/><text fill="#000000" font-family="sans-serif" font-size="14" lengthAdjust="spacing" textLength="62" x="378.5" y="144.892">pages: int</text><line style="stroke:#181818;stroke-width:0.5;" x1="359.5" x2="448.5" y1="151.9681" y2="151.9681"/></g><!--class BookDatabase--><g id="elem_BookDatabase"><rect codeLine="13" fill="#F1F1F1" height="65.6094" id="BookDatabase" rx="2.5" ry="2.5" style="stroke:#181818;stroke-width:0.5;" width="171" x="484.5" y="76.64"/><ellipse cx="519.75" cy="92.64" fill="#B4A7E5" rx="11" ry="11" style="stroke:#181818;stroke-width:1.0;"/><path d="M520.7031,89.2806 L520.7031,95.9369 L522.4219,95.9369 Q523.0313,95.9369 523.2969,96.1712 Q523.5625,96.4056 523.5625,96.7962 Q523.5625,97.1712 523.2969,97.4056 Q523.0313,97.64 522.4219,97.64 L517.2813,97.64 Q516.6719,97.64 516.4063,97.4056 Q516.1406,97.1712 516.1406,96.7806 Q516.1406,96.4056 516.4063,96.1712 Q516.6719,95.9369 517.2813,95.9369 L519,95.9369 L519,89.2806 L517.2813,89.2806 Q516.6719,89.2806 516.4063,89.0462 Q516.1406,88.8119 516.1406,88.4212 Q516.1406,88.0462 516.4063,87.8119 Q516.6719,87.5775 517.2813,87.5775 L522.4219,87.5775 Q523.0313,87.5775 523.2969,87.8119 Q523.5625,88.0462 523.5625,88.4212 Q523.5625,88.8119 523.2969,89.0462 Q523.0313,89.2806 522.4219,89.2806 L520.7031,89.2806 Z " fill="#000000"/><text fill="#000000" font-family="sans-serif" font-size="14" font-style="italic" lengthAdjust="spacing" textLength="94" x="538.25" y="98.3685">BookDatabase</text><line style="stroke:#181818;stroke-width:0.5;" x1="485.5" x2="654.5" y1="108.64" y2="108.64"/><line style="stroke:#181818;stroke-width:0.5;" x1="485.5" x2="654.5" y1="116.64" y2="116.64"/><ellipse cx="495.5" cy="130.9447" fill="#84BE84" rx="3" ry="3" style="stroke:#038048;stroke-width:1.0;"/><text fill="#000000" font-family="sans-serif" font-size="14" lengthAdjust="spacing" textLength="145" x="504.5" y="135.1732">save(book: Book): void</text></g><!--class SqlBookDatabase--><g id="elem_SqlBookDatabase"><rect codeLine="17" fill="#F1F1F1" height="65.6094" id="SqlBookDatabase" rx="2.5" ry="2.5" style="stroke:#181818;stroke-width:0.5;" width="171" x="452.5" y="220.14"/><ellipse cx="479.2" cy="236.14" fill="#ADD1B2" rx="11" ry="11" style="stroke:#181818;stroke-width:1.0;"/><path d="M481.9656,232.015 Q482.1219,231.7963 482.3094,231.6869 Q482.4969,231.5775 482.7156,231.5775 Q483.0906,231.5775 483.325,231.8431 Q483.5594,232.0931 483.5594,232.7025 L483.5594,234.1556 Q483.5594,234.765 483.325,235.0306 Q483.0906,235.2963 482.7156,235.2963 Q482.3719,235.2963 482.1688,235.0931 Q481.9656,234.9056 481.8563,234.39 Q481.8094,234.0306 481.6219,233.8431 Q481.2938,233.4681 480.6844,233.2494 Q480.075,233.0306 479.45,233.0306 Q478.6844,233.0306 478.0438,233.3588 Q477.4188,233.6869 476.9188,234.4369 Q476.4344,235.1869 476.4344,236.2181 L476.4344,237.3119 Q476.4344,238.5463 477.325,239.3744 Q478.2156,240.1869 479.8094,240.1869 Q480.7469,240.1869 481.4031,239.9369 Q481.7938,239.7806 482.2156,239.3431 Q482.4813,239.0775 482.6219,238.9994 Q482.7781,238.9213 482.9813,238.9213 Q483.3094,238.9213 483.5594,239.1869 Q483.825,239.4369 483.825,239.7806 Q483.825,240.1244 483.4813,240.5306 Q482.9813,241.1088 482.1844,241.4369 Q481.1063,241.89 479.8094,241.89 Q478.2938,241.89 477.0906,241.265 Q476.1063,240.765 475.4188,239.7025 Q474.7313,238.6244 474.7313,237.3431 L474.7313,236.1869 Q474.7313,234.8588 475.3406,233.7181 Q475.9656,232.5619 477.0594,231.9525 Q478.1531,231.3275 479.3875,231.3275 Q480.1219,231.3275 480.7625,231.4994 Q481.4188,231.6556 481.9656,232.015 Z " fill="#000000"/><text fill="#000000" font-family="sans-serif" font-size="14" lengthAdjust="spacing" textLength="113" x="495.8" y="241.8685">SqlBookDatabase</text><line style="stroke:#181818;stroke-width:0.5;" x1="453.5" x2="622.5" y1="252.14" y2="252.14"/><line style="stroke:#181818;stroke-width:0.5;" x1="453.5" x2="622.5" y1="260.14" y2="260.14"/><ellipse cx="463.5" cy="274.4447" fill="#84BE84" rx="3" ry="3" style="stroke:#038048;stroke-width:1.0;"/><text fill="#000000" font-family="sans-serif" font-size="14" lengthAdjust="spacing" textLength="145" x="472.5" y="278.6732">save(book: Book): void</text></g><!--class BookPrinter--><g id="elem_BookPrinter"><rect codeLine="23" fill="#F1F1F1" height="65.6094" id="BookPrinter" rx="2.5" ry="2.5" style="stroke:#181818;stroke-width:0.5;" width="169" x="154.5" y="76.64"/><ellipse cx="197.4" cy="92.64" fill="#B4A7E5" rx="11" ry="11" style="stroke:#181818;stroke-width:1.0;"/><path d="M198.3531,89.2806 L198.3531,95.9369 L200.0719,95.9369 Q200.6813,95.9369 200.9469,96.1712 Q201.2125,96.4056 201.2125,96.7962 Q201.2125,97.1712 200.9469,97.4056 Q200.6813,97.64 200.0719,97.64 L194.9313,97.64 Q194.3219,97.64 194.0563,97.4056 Q193.7906,97.1712 193.7906,96.7806 Q193.7906,96.4056 194.0563,96.1712 Q194.3219,95.9369 194.9313,95.9369 L196.65,95.9369 L196.65,89.2806 L194.9313,89.2806 Q194.3219,89.2806 194.0563,89.0462 Q193.7906,88.8119 193.7906,88.4212 Q193.7906,88.0462 194.0563,87.8119 Q194.3219,87.5775 194.9313,87.5775 L200.0719,87.5775 Q200.6813,87.5775 200.9469,87.8119 Q201.2125,88.0462 201.2125,88.4212 Q201.2125,88.8119 200.9469,89.0462 Q200.6813,89.2806 200.0719,89.2806 L198.3531,89.2806 Z " fill="#000000"/><text fill="#000000" font-family="sans-serif" font-size="14" font-style="italic" lengthAdjust="spacing" textLength="75" x="217.6" y="98.3685">BookPrinter</text><line style="stroke:#181818;stroke-width:0.5;" x1="155.5" x2="322.5" y1="108.64" y2="108.64"/><line style="stroke:#181818;stroke-width:0.5;" x1="155.5" x2="322.5" y1="116.64" y2="116.64"/><ellipse cx="165.5" cy="130.9447" fill="#84BE84" rx="3" ry="3" style="stroke:#038048;stroke-width:1.0;"/><text fill="#000000" font-family="sans-serif" font-size="14" lengthAdjust="spacing" textLength="143" x="174.5" y="135.1732">print(book: Book): void</text></g><!--class ColorBookPrinter--><g id="elem_ColorBookPrinter"><rect codeLine="27" fill="#F1F1F1" height="65.6094" id="ColorBookPrinter" rx="2.5" ry="2.5" style="stroke:#181818;stroke-width:0.5;" width="169" x="217.5" y="220.14"/><ellipse cx="245.55" cy="236.14" fill="#ADD1B2" rx="11" ry="11" style="stroke:#181818;stroke-width:1.0;"/><path d="M248.3156,232.015 Q248.4719,231.7963 248.6594,231.6869 Q248.8469,231.5775 249.0656,231.5775 Q249.4406,231.5775 249.675,231.8431 Q249.9094,232.0931 249.9094,232.7025 L249.9094,234.1556 Q249.9094,234.765 249.675,235.0306 Q249.4406,235.2963 249.0656,235.2963 Q248.7219,235.2963 248.5188,235.0931 Q248.3156,234.9056 248.2063,234.39 Q248.1594,234.0306 247.9719,233.8431 Q247.6438,233.4681 247.0344,233.2494 Q246.425,233.0306 245.8,233.0306 Q245.0344,233.0306 244.3938,233.3588 Q243.7688,233.6869 243.2688,234.4369 Q242.7844,235.1869 242.7844,236.2181 L242.7844,237.3119 Q242.7844,238.5463 243.675,239.3744 Q244.5656,240.1869 246.1594,240.1869 Q247.0969,240.1869 247.7531,239.9369 Q248.1438,239.7806 248.5656,239.3431 Q248.8313,239.0775 248.9719,238.9994 Q249.1281,238.9213 249.3313,238.9213 Q249.6594,238.9213 249.9094,239.1869 Q250.175,239.4369 250.175,239.7806 Q250.175,240.1244 249.8313,240.5306 Q249.3313,241.1088 248.5344,241.4369 Q247.4563,241.89 246.1594,241.89 Q244.6438,241.89 243.4406,241.265 Q242.4563,240.765 241.7688,239.7025 Q241.0813,238.6244 241.0813,237.3431 L241.0813,236.1869 Q241.0813,234.8588 241.6906,233.7181 Q242.3156,232.5619 243.4094,231.9525 Q244.5031,231.3275 245.7375,231.3275 Q246.4719,231.3275 247.1125,231.4994 Q247.7688,231.6556 248.3156,232.015 Z " fill="#000000"/><text fill="#000000" font-family="sans-serif" font-size="14" lengthAdjust="spacing" textLength="108" x="262.45" y="241.8685">ColorBookPrinter</text><line style="stroke:#181818;stroke-width:0.5;" x1="218.5" x2="385.5" y1="252.14" y2="252.14"/><line style="stroke:#181818;stroke-width:0.5;" x1="218.5" x2="385.5" y1="260.14" y2="260.14"/><ellipse cx="228.5" cy="274.4447" fill="#84BE84" rx="3" ry="3" style="stroke:#038048;stroke-width:1.0;"/><text fill="#000000" font-family="sans-serif" font-size="14" lengthAdjust="spacing" textLength="143" x="237.5" y="278.6732">print(book: Book): void</text></g><!--reverse link BookDatabase to SqlBookDatabase--><g id="link_BookDatabase_SqlBookDatabase"><path codeLine="21" d="M558.769,160.3065 C553.569,183.2965 550.56,196.59 545.34,219.67 " fill="none" id="BookDatabase-backto-SqlBookDatabase" style="stroke:#181818;stroke-width:1.0;"/><polygon fill="none" points="562.74,142.75,552.9168,158.9828,564.6211,161.6302,562.74,142.75" style="stroke:#181818;stroke-width:1.0;"/></g><!--reverse link BookPrinter to ColorBookPrinter--><g id="link_BookPrinter_ColorBookPrinter"><path codeLine="31" d="M260.6178,159.1954 C270.8478,182.1854 277.27,196.59 287.54,219.67 " fill="none" id="BookPrinter-backto-ColorBookPrinter" style="stroke:#181818;stroke-width:1.0;"/><polygon fill="none" points="253.3,142.75,255.136,161.6346,266.0996,156.7561,253.3,142.75" style="stroke:#181818;stroke-width:1.0;"/></g><!--link BookFacade to BookDatabase--><g id="link_BookFacade_BookDatabase"><path codeLine="33" d="M97.95,68.12 C113.49,52.79 133.12,37.21 154.5,29.14 C215.84,6 386.77,10.11 449.5,29.14 C480.44,38.52 505.9826,55.0372 528.4326,72.8772 " fill="none" id="BookFacade-to-BookDatabase" style="stroke:#181818;stroke-width:1.0;"/><polygon fill="#181818" points="533.13,76.61,528.5724,67.8791,529.2155,73.4993,523.5953,74.1424,533.13,76.61" style="stroke:#181818;stroke-width:1.0;"/></g><!--link BookFacade to BookPrinter--><g id="link_BookFacade_BookPrinter"><path codeLine="34" d="M119.03,109.64 C130.75,109.64 136.46,109.64 148.18,109.64 " fill="none" id="BookFacade-to-BookPrinter" style="stroke:#181818;stroke-width:1.0;"/><polygon fill="#181818" points="154.18,109.64,145.18,105.64,149.18,109.64,145.18,113.64,154.18,109.64" style="stroke:#181818;stroke-width:1.0;"/></g><!--reverse link Book to SqlBookDatabase--><g id="link_Book_SqlBookDatabase"><path codeLine="35" d="M453.8656,163.2966 C472.9756,183.4766 490.53,202.01 507.62,220.06 " fill="none" id="Book-backto-SqlBookDatabase" style="stroke:#181818;stroke-width:1.0;"/><polygon fill="#181818" points="449.74,158.94,453.024,168.2252,453.178,162.5705,458.8327,162.7245,449.74,158.94" style="stroke:#181818;stroke-width:1.0;"/></g><!--reverse link Book to ColorBookPrinter--><g id="link_Book_ColorBookPrinter"><path codeLine="36" d="M364.5302,165.3964 C350.3002,185.1264 337.88,202.37 325.22,219.93 " fill="none" id="Book-backto-ColorBookPrinter" style="stroke:#181818;stroke-width:1.0;"/><polygon fill="#181818" points="368.04,160.53,359.5311,165.4897,365.1152,164.5853,366.0195,170.1694,368.04,160.53" style="stroke:#181818;stroke-width:1.0;"/></g><!--SRC=[bL713i8W3BtlApXg33z05WzgF9lu1Hr39HAPK7TH_rq48OCj9kD2sjVt-jfo1TQIZTRNFN1e1NbMnBsLXLuibepqMhOXqnbvmvHwLnLFr4X2YKemOj6461vuqMQGwE0iB2DEw2lWFc5Em8KNsG520pPtq3Y0UNZK-7XNysXPTVsYj9Ge7HsCZwDoMC0VHrkjj9b775PxIwL6AFdTXgwpJKr0aUMlKa-Cc81Hemy0]--></g></svg>