<?xml version="1.0" encoding="us-ascii" standalone="no"?><svg xmlns="http://www.w3.org/2000/svg" xmlns:xlink="http://www.w3.org/1999/xlink" contentStyleType="text/css" height="645px" preserveAspectRatio="none" style="width:555px;height:645px;background:#FFFFFF;" version="1.1" viewBox="0 0 555 645" width="555px" zoomAndPan="magnify"><defs/><g><!--cluster adventure::v3a--><g id="cluster_adventure::v3a"><path d="M8.5,6 L115.5,6 A3.75,3.75 0 0 1 118,8.5 L125,29.6094 L545.5,29.6094 A2.5,2.5 0 0 1 548,32.1094 L548,635.5 A2.5,2.5 0 0 1 545.5,638 L8.5,638 A2.5,2.5 0 0 1 6,635.5 L6,8.5 A2.5,2.5 0 0 1 8.5,6 " fill="none" style="stroke:#000000;stroke-width:1.5;"/><line style="stroke:#000000;stroke-width:1.5;" x1="6" x2="125" y1="29.6094" y2="29.6094"/><text fill="#000000" font-family="sans-serif" font-size="14" font-weight="bold" lengthAdjust="spacing" textLength="106" x="10" y="22.5332">adventure::v3a</text></g><!--class Location--><g id="elem_Location"><rect codeLine="3" fill="#F1F1F1" height="136.0469" id="Location" rx="2.5" ry="2.5" style="stroke:#181818;stroke-width:0.5;" width="173" x="190.5" y="486"/><ellipse cx="245.75" cy="502" fill="#ADD1B2" rx="11" ry="11" style="stroke:#181818;stroke-width:1.0;"/><path d="M248.5156,497.875 Q248.6719,497.6563 248.8594,497.5469 Q249.0469,497.4375 249.2656,497.4375 Q249.6406,497.4375 249.875,497.7031 Q250.1094,497.9531 250.1094,498.5625 L250.1094,500.0156 Q250.1094,500.625 249.875,500.8906 Q249.6406,501.1563 249.2656,501.1563 Q248.9219,501.1563 248.7188,500.9531 Q248.5156,500.7656 248.4063,500.25 Q248.3594,499.8906 248.1719,499.7031 Q247.8438,499.3281 247.2344,499.1094 Q246.625,498.8906 246,498.8906 Q245.2344,498.8906 244.5938,499.2188 Q243.9688,499.5469 243.4688,500.2969 Q242.9844,501.0469 242.9844,502.0781 L242.9844,503.1719 Q242.9844,504.4063 243.875,505.2344 Q244.7656,506.0469 246.3594,506.0469 Q247.2969,506.0469 247.9531,505.7969 Q248.3438,505.6406 248.7656,505.2031 Q249.0313,504.9375 249.1719,504.8594 Q249.3281,504.7813 249.5313,504.7813 Q249.8594,504.7813 250.1094,505.0469 Q250.375,505.2969 250.375,505.6406 Q250.375,505.9844 250.0313,506.3906 Q249.5313,506.9688 248.7344,507.2969 Q247.6563,507.75 246.3594,507.75 Q244.8438,507.75 243.6406,507.125 Q242.6563,506.625 241.9688,505.5625 Q241.2813,504.4844 241.2813,503.2031 L241.2813,502.0469 Q241.2813,500.7188 241.8906,499.5781 Q242.5156,498.4219 243.6094,497.8125 Q244.7031,497.1875 245.9375,497.1875 Q246.6719,497.1875 247.3125,497.3594 Q247.9688,497.5156 248.5156,497.875 Z " fill="#000000"/><text fill="#000000" font-family="sans-serif" font-size="14" lengthAdjust="spacing" textLength="54" x="266.25" y="507.7285">Location</text><line style="stroke:#181818;stroke-width:0.5;" x1="191.5" x2="362.5" y1="518" y2="518"/><rect fill="none" height="6" style="stroke:#C82930;stroke-width:1.0;" width="6" x="198.5" y="529.3047"/><text fill="#000000" font-family="sans-serif" font-size="14" lengthAdjust="spacing" textLength="78" x="210.5" y="536.5332">name: string</text><rect fill="none" height="6" style="stroke:#C82930;stroke-width:1.0;" width="6" x="198.5" y="546.9141"/><text fill="#000000" font-family="sans-serif" font-size="14" lengthAdjust="spacing" textLength="112" x="210.5" y="554.1426">description: string</text><line style="stroke:#181818;stroke-width:0.5;" x1="191.5" x2="362.5" y1="561.2188" y2="561.2188"/><ellipse cx="201.5" cy="575.5234" fill="#84BE84" rx="3" ry="3" style="stroke:#038048;stroke-width:1.0;"/><text fill="#000000" font-family="sans-serif" font-size="14" lengthAdjust="spacing" textLength="76" x="210.5" y="579.752">Location(...)</text><ellipse cx="201.5" cy="593.1328" fill="#84BE84" rx="3" ry="3" style="stroke:#038048;stroke-width:1.0;"/><text fill="#000000" font-family="sans-serif" font-size="14" lengthAdjust="spacing" textLength="112" x="210.5" y="597.3613">GetName(): string</text><ellipse cx="201.5" cy="610.7422" fill="#84BE84" rx="3" ry="3" style="stroke:#038048;stroke-width:1.0;"/><text fill="#000000" font-family="sans-serif" font-size="14" lengthAdjust="spacing" textLength="147" x="210.5" y="614.9707">GetDescription(): string</text></g><!--class Connection--><g id="elem_Connection"><rect codeLine="12" fill="#ADD8E6" height="118.4375" id="Connection" rx="2.5" ry="2.5" style="stroke:#00008B;stroke-width:2.0;" width="123" x="264.5" y="308"/><ellipse cx="288.05" cy="324" fill="#ADD1B2" rx="11" ry="11" style="stroke:#181818;stroke-width:1.0;"/><path d="M290.8156,319.875 Q290.9719,319.6563 291.1594,319.5469 Q291.3469,319.4375 291.5656,319.4375 Q291.9406,319.4375 292.175,319.7031 Q292.4094,319.9531 292.4094,320.5625 L292.4094,322.0156 Q292.4094,322.625 292.175,322.8906 Q291.9406,323.1563 291.5656,323.1563 Q291.2219,323.1563 291.0188,322.9531 Q290.8156,322.7656 290.7063,322.25 Q290.6594,321.8906 290.4719,321.7031 Q290.1438,321.3281 289.5344,321.1094 Q288.925,320.8906 288.3,320.8906 Q287.5344,320.8906 286.8938,321.2188 Q286.2688,321.5469 285.7688,322.2969 Q285.2844,323.0469 285.2844,324.0781 L285.2844,325.1719 Q285.2844,326.4063 286.175,327.2344 Q287.0656,328.0469 288.6594,328.0469 Q289.5969,328.0469 290.2531,327.7969 Q290.6438,327.6406 291.0656,327.2031 Q291.3313,326.9375 291.4719,326.8594 Q291.6281,326.7813 291.8313,326.7813 Q292.1594,326.7813 292.4094,327.0469 Q292.675,327.2969 292.675,327.6406 Q292.675,327.9844 292.3313,328.3906 Q291.8313,328.9688 291.0344,329.2969 Q289.9563,329.75 288.6594,329.75 Q287.1438,329.75 285.9406,329.125 Q284.9563,328.625 284.2688,327.5625 Q283.5813,326.4844 283.5813,325.2031 L283.5813,324.0469 Q283.5813,322.7188 284.1906,321.5781 Q284.8156,320.4219 285.9094,319.8125 Q287.0031,319.1875 288.2375,319.1875 Q288.9719,319.1875 289.6125,319.3594 Q290.2688,319.5156 290.8156,319.875 Z " fill="#000000"/><text fill="#000000" font-family="sans-serif" font-size="14" lengthAdjust="spacing" textLength="72" x="303.95" y="329.7285">Connection</text><line style="stroke:#00008B;stroke-width:2.0;" x1="265.5" x2="386.5" y1="340" y2="340"/><rect fill="none" height="6" style="stroke:#C82930;stroke-width:1.0;" width="6" x="272.5" y="351.3047"/><text fill="#000000" font-family="sans-serif" font-size="14" lengthAdjust="spacing" textLength="90" x="284.5" y="358.5332">from: Location</text><rect fill="none" height="6" style="stroke:#C82930;stroke-width:1.0;" width="6" x="272.5" y="368.9141"/><text fill="#000000" font-family="sans-serif" font-size="14" lengthAdjust="spacing" textLength="97" x="284.5" y="376.1426">direction: string</text><rect fill="none" height="6" style="stroke:#C82930;stroke-width:1.0;" width="6" x="272.5" y="386.5234"/><text fill="#000000" font-family="sans-serif" font-size="14" lengthAdjust="spacing" textLength="74" x="284.5" y="393.752">to: Location</text><line style="stroke:#00008B;stroke-width:2.0;" x1="265.5" x2="386.5" y1="400.8281" y2="400.8281"/><ellipse cx="275.5" cy="415.1328" fill="#84BE84" rx="3" ry="3" style="stroke:#038048;stroke-width:1.0;"/><text fill="#000000" font-family="sans-serif" font-size="14" lengthAdjust="spacing" textLength="94" x="284.5" y="419.3613">Connection(...)</text></g><!--class World--><g id="elem_World"><rect codeLine="19" fill="#F1F1F1" height="206.4844" id="World" rx="2.5" ry="2.5" style="stroke:#181818;stroke-width:0.5;" width="510" x="22" y="42"/><ellipse cx="254.25" cy="58" fill="#ADD1B2" rx="11" ry="11" style="stroke:#181818;stroke-width:1.0;"/><path d="M257.0156,53.875 Q257.1719,53.6563 257.3594,53.5469 Q257.5469,53.4375 257.7656,53.4375 Q258.1406,53.4375 258.375,53.7031 Q258.6094,53.9531 258.6094,54.5625 L258.6094,56.0156 Q258.6094,56.625 258.375,56.8906 Q258.1406,57.1563 257.7656,57.1563 Q257.4219,57.1563 257.2188,56.9531 Q257.0156,56.7656 256.9063,56.25 Q256.8594,55.8906 256.6719,55.7031 Q256.3438,55.3281 255.7344,55.1094 Q255.125,54.8906 254.5,54.8906 Q253.7344,54.8906 253.0938,55.2188 Q252.4688,55.5469 251.9688,56.2969 Q251.4844,57.0469 251.4844,58.0781 L251.4844,59.1719 Q251.4844,60.4063 252.375,61.2344 Q253.2656,62.0469 254.8594,62.0469 Q255.7969,62.0469 256.4531,61.7969 Q256.8438,61.6406 257.2656,61.2031 Q257.5313,60.9375 257.6719,60.8594 Q257.8281,60.7813 258.0313,60.7813 Q258.3594,60.7813 258.6094,61.0469 Q258.875,61.2969 258.875,61.6406 Q258.875,61.9844 258.5313,62.3906 Q258.0313,62.9688 257.2344,63.2969 Q256.1563,63.75 254.8594,63.75 Q253.3438,63.75 252.1406,63.125 Q251.1563,62.625 250.4688,61.5625 Q249.7813,60.4844 249.7813,59.2031 L249.7813,58.0469 Q249.7813,56.7188 250.3906,55.5781 Q251.0156,54.4219 252.1094,53.8125 Q253.2031,53.1875 254.4375,53.1875 Q255.1719,53.1875 255.8125,53.3594 Q256.4688,53.5156 257.0156,53.875 Z " fill="#000000"/><text fill="#000000" font-family="sans-serif" font-size="14" lengthAdjust="spacing" textLength="37" x="274.75" y="63.7285">World</text><line style="stroke:#181818;stroke-width:0.5;" x1="23" x2="531" y1="74" y2="74"/><rect fill="none" height="6" style="stroke:#C82930;stroke-width:1.0;" width="6" x="30" y="85.3047"/><text fill="#000000" font-family="sans-serif" font-size="14" lengthAdjust="spacing" textLength="145" x="42" y="92.5332">locations: LocationMap</text><rect fill="none" height="6" style="stroke:#C82930;stroke-width:1.0;" width="6" x="30" y="102.9141"/><text fill="#000000" font-family="sans-serif" font-size="14" lengthAdjust="spacing" textLength="165" x="42" y="110.1426">initialLocationName: string</text><rect fill="none" height="6" style="stroke:#C82930;stroke-width:1.0;" width="6" x="30" y="120.5234"/><text fill="#000000" font-family="sans-serif" font-size="14" font-weight="bold" lengthAdjust="spacing" textLength="238" x="42" y="127.752">connections: vector&lt;Connection&gt;</text><line style="stroke:#181818;stroke-width:0.5;" x1="23" x2="531" y1="134.8281" y2="134.8281"/><ellipse cx="33" cy="149.1328" fill="#84BE84" rx="3" ry="3" style="stroke:#038048;stroke-width:1.0;"/><text fill="#000000" font-family="sans-serif" font-size="14" lengthAdjust="spacing" textLength="59" x="42" y="153.3613">World(...)</text><ellipse cx="33" cy="166.7422" fill="#84BE84" rx="3" ry="3" style="stroke:#038048;stroke-width:1.0;"/><text fill="#000000" font-family="sans-serif" font-size="14" lengthAdjust="spacing" textLength="227" x="42" y="170.9707">GetLocation(name: string): Location</text><ellipse cx="33" cy="184.3516" fill="#84BE84" rx="3" ry="3" style="stroke:#038048;stroke-width:1.0;"/><text fill="#000000" font-family="sans-serif" font-size="14" lengthAdjust="spacing" textLength="183" x="42" y="188.5801">GetLocations(): LocationMap</text><ellipse cx="33" cy="201.9609" fill="#84BE84" rx="3" ry="3" style="stroke:#038048;stroke-width:1.0;"/><text fill="#000000" font-family="sans-serif" font-size="14" lengthAdjust="spacing" textLength="198" x="42" y="206.1895">GetInitialLocationName(): string</text><ellipse cx="33" cy="219.5703" fill="#84BE84" rx="3" ry="3" style="stroke:#038048;stroke-width:1.0;"/><text fill="#000000" font-family="sans-serif" font-size="14" font-weight="bold" lengthAdjust="spacing" textLength="275" x="42" y="223.7988">GetConnections(): vector&lt;Connection&gt;</text><ellipse cx="33" cy="237.1797" fill="#84BE84" rx="3" ry="3" style="stroke:#038048;stroke-width:1.0;"/><text fill="#000000" font-family="sans-serif" font-size="14" font-weight="bold" lengthAdjust="spacing" textLength="484" x="42" y="241.4082">GetConnectedLocation(location: Location, direction: string): Location</text></g><!--link World to Connection--><g id="link_World_Connection"><path codeLine="31" d="M299.78,248.27 C304.33,268.69 307.6574,283.6131 311.7274,301.9131 " fill="none" id="World-to-Connection" style="stroke:#181818;stroke-width:1.0;"/><polygon fill="#181818" points="313.03,307.77,314.9807,298.1163,311.9445,302.8893,307.1715,299.8531,313.03,307.77" style="stroke:#181818;stroke-width:1.0;"/></g><!--link World to Location--><g id="link_World_Location"><path codeLine="32" d="M253.1443,259.8361 C249.7343,279.6461 248.79,288.49 247,308 C242.21,360.22 240.93,373.91 247,426 C249.29,445.69 252.1278,460.9238 256.7078,480.1238 " fill="none" id="World-Location" style="stroke:#181818;stroke-width:1.0;"/><polygon fill="#181818" points="255.18,248.01,250.2201,253.2445,253.1443,259.8361,258.1042,254.6016,255.18,248.01" style="stroke:#181818;stroke-width:1.0;"/><polygon fill="#181818" points="258.1,485.96,259.9026,476.2775,256.9398,481.0965,252.1209,478.1338,258.1,485.96" style="stroke:#181818;stroke-width:1.0;"/></g><!--link Connection to Location--><g id="link_Connection_Location"><path codeLine="33" d="M310.63,426.03 C305.61,445 301.5138,460.4194 296.3338,480.0094 " fill="none" id="Connection-to-Location" style="stroke:#181818;stroke-width:1.0;"/><polygon fill="#181818" points="294.8,485.81,300.9678,478.1316,296.0782,480.9761,293.2336,476.0865,294.8,485.81" style="stroke:#181818;stroke-width:1.0;"/></g><!--SRC=[XP91RuGW48Nl_WgINhHRxQ4tQZoqcpHDshtsZ4XtoR9WWFNI-D-BhZfZCIadvSqyliUWsKMubd51MDC9xQzMKDezCVAJaB2uOiwH3yEPbqPFcyFATMYan7ahzH5s6-6ubUrG78cxsIOjYYA3xJVX3y4ipUAE8Et1yKz5doI8yTLeBVX8UQUa5aLjL4Ftp9vVr5KyruoVgPB7aw_3BmxoRSs5BX5H56blVd5ARpOQTa000NkC-6MiQl3HQl9mOFV9Mj2bbbuoDMk7pIilwuel9mUdBdmPMm9DLJxM5M2E5F48bk7WmMPREL6nIxDjzA7eFQRVcd7W3yM0Eth-5sBL99e5VhvHe7eWqI0Hy-8w3UeseZolq7j2mlsWh6u4FRkLrly2]--></g></svg>