<?xml version="1.0" encoding="us-ascii" standalone="no"?><svg xmlns="http://www.w3.org/2000/svg" xmlns:xlink="http://www.w3.org/1999/xlink" contentStyleType="text/css" height="595px" preserveAspectRatio="none" style="width:972px;height:595px;background:#FFFFFF;" version="1.1" viewBox="0 0 972 595" width="972px" zoomAndPan="magnify"><defs/><g><!--cluster adventure::v5b--><g id="cluster_adventure::v5b"><path d="M8.5,6 L116.5,6 A3.75,3.75 0 0 1 119,8.5 L126,29.6094 L962.5,29.6094 A2.5,2.5 0 0 1 965,32.1094 L965,585.5 A2.5,2.5 0 0 1 962.5,588 L8.5,588 A2.5,2.5 0 0 1 6,585.5 L6,8.5 A2.5,2.5 0 0 1 8.5,6 " fill="none" style="stroke:#000000;stroke-width:1.5;"/><line style="stroke:#000000;stroke-width:1.5;" x1="6" x2="126" y1="29.6094" y2="29.6094"/><text fill="#000000" font-family="sans-serif" font-size="14" font-weight="bold" lengthAdjust="spacing" textLength="107" x="10" y="22.5332">adventure::v5b</text></g><!--class Action--><g id="elem_Action"><rect codeLine="5" fill="#F1F1F1" height="83.2188" id="Action" rx="2.5" ry="2.5" style="stroke:#181818;stroke-width:0.5;" width="186" x="440" y="239"/><ellipse cx="509.25" cy="255" fill="#ADD1B2" rx="11" ry="11" style="stroke:#181818;stroke-width:1.0;"/><path d="M512.0156,250.875 Q512.1719,250.6563 512.3594,250.5469 Q512.5469,250.4375 512.7656,250.4375 Q513.1406,250.4375 513.375,250.7031 Q513.6094,250.9531 513.6094,251.5625 L513.6094,253.0156 Q513.6094,253.625 513.375,253.8906 Q513.1406,254.1563 512.7656,254.1563 Q512.4219,254.1563 512.2188,253.9531 Q512.0156,253.7656 511.9063,253.25 Q511.8594,252.8906 511.6719,252.7031 Q511.3438,252.3281 510.7344,252.1094 Q510.125,251.8906 509.5,251.8906 Q508.7344,251.8906 508.0938,252.2188 Q507.4688,252.5469 506.9688,253.2969 Q506.4844,254.0469 506.4844,255.0781 L506.4844,256.1719 Q506.4844,257.4063 507.375,258.2344 Q508.2656,259.0469 509.8594,259.0469 Q510.7969,259.0469 511.4531,258.7969 Q511.8438,258.6406 512.2656,258.2031 Q512.5313,257.9375 512.6719,257.8594 Q512.8281,257.7813 513.0313,257.7813 Q513.3594,257.7813 513.6094,258.0469 Q513.875,258.2969 513.875,258.6406 Q513.875,258.9844 513.5313,259.3906 Q513.0313,259.9688 512.2344,260.2969 Q511.1563,260.75 509.8594,260.75 Q508.3438,260.75 507.1406,260.125 Q506.1563,259.625 505.4688,258.5625 Q504.7813,257.4844 504.7813,256.2031 L504.7813,255.0469 Q504.7813,253.7188 505.3906,252.5781 Q506.0156,251.4219 507.1094,250.8125 Q508.2031,250.1875 509.4375,250.1875 Q510.1719,250.1875 510.8125,250.3594 Q511.4688,250.5156 512.0156,250.875 Z " fill="#000000"/><text fill="#000000" font-family="sans-serif" font-size="14" lengthAdjust="spacing" textLength="39" x="529.75" y="260.7285">Action</text><line style="stroke:#181818;stroke-width:0.5;" x1="441" x2="625" y1="271" y2="271"/><line style="stroke:#181818;stroke-width:0.5;" x1="441" x2="625" y1="279" y2="279"/><ellipse cx="451" cy="293.3047" fill="#84BE84" rx="3" ry="3" style="stroke:#038048;stroke-width:1.0;"/><text fill="#000000" font-family="sans-serif" font-size="14" font-style="italic" lengthAdjust="spacing" textLength="124" x="460" y="297.5332">Description(): string</text><ellipse cx="451" cy="310.9141" fill="#84BE84" rx="3" ry="3" style="stroke:#038048;stroke-width:1.0;"/><text fill="#000000" font-family="sans-serif" font-size="14" font-style="italic" lengthAdjust="spacing" textLength="160" x="460" y="315.1426">Perform(instigator: Pawn)</text></g><!--class MoveAction--><g id="elem_MoveAction"><rect codeLine="10" fill="#F1F1F1" height="48" id="MoveAction" rx="2.5" ry="2.5" style="stroke:#181818;stroke-width:0.5;" width="121" x="361.5" y="480"/><ellipse cx="376.5" cy="496" fill="#ADD1B2" rx="11" ry="11" style="stroke:#181818;stroke-width:1.0;"/><path d="M379.2656,491.875 Q379.4219,491.6563 379.6094,491.5469 Q379.7969,491.4375 380.0156,491.4375 Q380.3906,491.4375 380.625,491.7031 Q380.8594,491.9531 380.8594,492.5625 L380.8594,494.0156 Q380.8594,494.625 380.625,494.8906 Q380.3906,495.1563 380.0156,495.1563 Q379.6719,495.1563 379.4688,494.9531 Q379.2656,494.7656 379.1563,494.25 Q379.1094,493.8906 378.9219,493.7031 Q378.5938,493.3281 377.9844,493.1094 Q377.375,492.8906 376.75,492.8906 Q375.9844,492.8906 375.3438,493.2188 Q374.7188,493.5469 374.2188,494.2969 Q373.7344,495.0469 373.7344,496.0781 L373.7344,497.1719 Q373.7344,498.4063 374.625,499.2344 Q375.5156,500.0469 377.1094,500.0469 Q378.0469,500.0469 378.7031,499.7969 Q379.0938,499.6406 379.5156,499.2031 Q379.7813,498.9375 379.9219,498.8594 Q380.0781,498.7813 380.2813,498.7813 Q380.6094,498.7813 380.8594,499.0469 Q381.125,499.2969 381.125,499.6406 Q381.125,499.9844 380.7813,500.3906 Q380.2813,500.9688 379.4844,501.2969 Q378.4063,501.75 377.1094,501.75 Q375.5938,501.75 374.3906,501.125 Q373.4063,500.625 372.7188,499.5625 Q372.0313,498.4844 372.0313,497.2031 L372.0313,496.0469 Q372.0313,494.7188 372.6406,493.5781 Q373.2656,492.4219 374.3594,491.8125 Q375.4531,491.1875 376.6875,491.1875 Q377.4219,491.1875 378.0625,491.3594 Q378.7188,491.5156 379.2656,491.875 Z " fill="#000000"/><text fill="#000000" font-family="sans-serif" font-size="14" lengthAdjust="spacing" textLength="73" x="398.5" y="501.7285">MoveAction</text><line style="stroke:#181818;stroke-width:0.5;" x1="362.5" x2="481.5" y1="512" y2="512"/><line style="stroke:#181818;stroke-width:0.5;" x1="362.5" x2="481.5" y1="520" y2="520"/></g><!--class SkipTurnAction--><g id="elem_SkipTurnAction"><rect codeLine="14" fill="#F1F1F1" height="48" id="SkipTurnAction" rx="2.5" ry="2.5" style="stroke:#181818;stroke-width:0.5;" width="136" x="518" y="480"/><ellipse cx="533" cy="496" fill="#ADD1B2" rx="11" ry="11" style="stroke:#181818;stroke-width:1.0;"/><path d="M535.7656,491.875 Q535.9219,491.6563 536.1094,491.5469 Q536.2969,491.4375 536.5156,491.4375 Q536.8906,491.4375 537.125,491.7031 Q537.3594,491.9531 537.3594,492.5625 L537.3594,494.0156 Q537.3594,494.625 537.125,494.8906 Q536.8906,495.1563 536.5156,495.1563 Q536.1719,495.1563 535.9688,494.9531 Q535.7656,494.7656 535.6563,494.25 Q535.6094,493.8906 535.4219,493.7031 Q535.0938,493.3281 534.4844,493.1094 Q533.875,492.8906 533.25,492.8906 Q532.4844,492.8906 531.8438,493.2188 Q531.2188,493.5469 530.7188,494.2969 Q530.2344,495.0469 530.2344,496.0781 L530.2344,497.1719 Q530.2344,498.4063 531.125,499.2344 Q532.0156,500.0469 533.6094,500.0469 Q534.5469,500.0469 535.2031,499.7969 Q535.5938,499.6406 536.0156,499.2031 Q536.2813,498.9375 536.4219,498.8594 Q536.5781,498.7813 536.7813,498.7813 Q537.1094,498.7813 537.3594,499.0469 Q537.625,499.2969 537.625,499.6406 Q537.625,499.9844 537.2813,500.3906 Q536.7813,500.9688 535.9844,501.2969 Q534.9063,501.75 533.6094,501.75 Q532.0938,501.75 530.8906,501.125 Q529.9063,500.625 529.2188,499.5625 Q528.5313,498.4844 528.5313,497.2031 L528.5313,496.0469 Q528.5313,494.7188 529.1406,493.5781 Q529.7656,492.4219 530.8594,491.8125 Q531.9531,491.1875 533.1875,491.1875 Q533.9219,491.1875 534.5625,491.3594 Q535.2188,491.5156 535.7656,491.875 Z " fill="#000000"/><text fill="#000000" font-family="sans-serif" font-size="14" lengthAdjust="spacing" textLength="96" x="551" y="501.7285">SkipTurnAction</text><line style="stroke:#181818;stroke-width:0.5;" x1="519" x2="653" y1="512" y2="512"/><line style="stroke:#181818;stroke-width:0.5;" x1="519" x2="653" y1="520" y2="520"/></g><!--class PlayerStrategy--><g id="elem_PlayerStrategy"><rect codeLine="19" fill="#F1F1F1" height="136.0469" id="PlayerStrategy" rx="2.5" ry="2.5" style="stroke:#181818;stroke-width:0.5;" width="125" x="742.5" y="436"/><ellipse cx="757.5" cy="452" fill="#EB937F" rx="11" ry="11" style="stroke:#181818;stroke-width:1.0;"/><path d="M756.3594,452.7969 L756.3594,455.2969 L760.6875,455.2969 L760.6875,454.375 Q760.6875,453.7656 760.9219,453.5 Q761.1719,453.2344 761.5469,453.2344 Q761.9219,453.2344 762.1563,453.5 Q762.3906,453.7656 762.3906,454.375 L762.3906,457 L754.3906,457 Q753.7656,457 753.5,456.7656 Q753.25,456.5313 753.25,456.1406 Q753.25,455.7656 753.5156,455.5313 Q753.7813,455.2969 754.3906,455.2969 L754.6563,455.2969 L754.6563,448.6406 L754.3906,448.6406 Q753.7656,448.6406 753.5,448.4063 Q753.25,448.1719 753.25,447.7813 Q753.25,447.4063 753.5,447.1719 Q753.7656,446.9375 754.3906,446.9375 L762.0156,446.9375 L762.0156,449.5313 Q762.0156,450.1406 761.7813,450.4063 Q761.5625,450.6563 761.1719,450.6563 Q760.7969,450.6563 760.5625,450.4063 Q760.3281,450.1406 760.3281,449.5313 L760.3281,448.6406 L756.3594,448.6406 L756.3594,451.0938 L757.8438,451.0938 Q757.8438,450.4375 757.9688,450.25 Q758.2344,449.8438 758.7031,449.8438 Q759.0781,449.8438 759.3125,450.1094 Q759.5469,450.3594 759.5469,450.9688 L759.5469,452.9375 Q759.5469,453.4844 759.4219,453.6719 Q759.1563,454.0625 758.7031,454.0625 Q758.2344,454.0625 757.9688,453.6563 Q757.8438,453.4688 757.8438,452.7969 L756.3594,452.7969 Z " fill="#000000"/><text fill="#000000" font-family="sans-serif" font-size="14" lengthAdjust="spacing" textLength="93" x="771.5" y="457.7285">PlayerStrategy</text><line style="stroke:#181818;stroke-width:0.5;" x1="743.5" x2="866.5" y1="468" y2="468"/><text fill="#000000" font-family="sans-serif" font-size="14" lengthAdjust="spacing" textLength="65" x="748.5" y="486.5332">Interactive</text><text fill="#000000" font-family="sans-serif" font-size="14" lengthAdjust="spacing" textLength="66" x="748.5" y="504.1426">LastAction</text><text fill="#000000" font-family="sans-serif" font-size="14" lengthAdjust="spacing" textLength="92" x="748.5" y="521.752">RandomAction</text><text fill="#000000" font-family="sans-serif" font-size="14" lengthAdjust="spacing" textLength="70" x="748.5" y="539.3613">Aggressive</text><text fill="#000000" font-family="sans-serif" font-size="14" lengthAdjust="spacing" textLength="43" x="748.5" y="556.9707">Helpful</text><line style="stroke:#181818;stroke-width:0.5;" x1="743.5" x2="866.5" y1="564.0469" y2="564.0469"/></g><!--class Player--><g id="elem_Player"><rect codeLine="27" fill="#ADD8E6" height="153.6563" id="Player" rx="2.5" ry="2.5" style="stroke:#00008B;stroke-width:2.0;" width="287" x="661.5" y="203.5"/><ellipse cx="780.75" cy="219.5" fill="#ADD1B2" rx="11" ry="11" style="stroke:#181818;stroke-width:1.0;"/><path d="M783.5156,215.375 Q783.6719,215.1563 783.8594,215.0469 Q784.0469,214.9375 784.2656,214.9375 Q784.6406,214.9375 784.875,215.2031 Q785.1094,215.4531 785.1094,216.0625 L785.1094,217.5156 Q785.1094,218.125 784.875,218.3906 Q784.6406,218.6563 784.2656,218.6563 Q783.9219,218.6563 783.7188,218.4531 Q783.5156,218.2656 783.4063,217.75 Q783.3594,217.3906 783.1719,217.2031 Q782.8438,216.8281 782.2344,216.6094 Q781.625,216.3906 781,216.3906 Q780.2344,216.3906 779.5938,216.7188 Q778.9688,217.0469 778.4688,217.7969 Q777.9844,218.5469 777.9844,219.5781 L777.9844,220.6719 Q777.9844,221.9063 778.875,222.7344 Q779.7656,223.5469 781.3594,223.5469 Q782.2969,223.5469 782.9531,223.2969 Q783.3438,223.1406 783.7656,222.7031 Q784.0313,222.4375 784.1719,222.3594 Q784.3281,222.2813 784.5313,222.2813 Q784.8594,222.2813 785.1094,222.5469 Q785.375,222.7969 785.375,223.1406 Q785.375,223.4844 785.0313,223.8906 Q784.5313,224.4688 783.7344,224.7969 Q782.6563,225.25 781.3594,225.25 Q779.8438,225.25 778.6406,224.625 Q777.6563,224.125 776.9688,223.0625 Q776.2813,221.9844 776.2813,220.7031 L776.2813,219.5469 Q776.2813,218.2188 776.8906,217.0781 Q777.5156,215.9219 778.6094,215.3125 Q779.7031,214.6875 780.9375,214.6875 Q781.6719,214.6875 782.3125,214.8594 Q782.9688,215.0156 783.5156,215.375 Z " fill="#000000"/><text fill="#000000" font-family="sans-serif" font-size="14" lengthAdjust="spacing" textLength="40" x="801.25" y="225.2285">Player</text><line style="stroke:#00008B;stroke-width:2.0;" x1="662.5" x2="947.5" y1="235.5" y2="235.5"/><line style="stroke:#00008B;stroke-width:2.0;" x1="662.5" x2="947.5" y1="243.5" y2="243.5"/><ellipse cx="672.5" cy="257.8047" fill="#84BE84" rx="3" ry="3" style="stroke:#038048;stroke-width:1.0;"/><text fill="#000000" font-family="sans-serif" font-size="14" lengthAdjust="spacing" textLength="109" x="681.5" y="262.0332">GetPawn(): Pawn</text><ellipse cx="672.5" cy="275.4141" fill="#84BE84" rx="3" ry="3" style="stroke:#038048;stroke-width:1.0;"/><text fill="#000000" font-family="sans-serif" font-size="14" lengthAdjust="spacing" textLength="72" x="681.5" y="279.6426">TakeTurn()</text><ellipse cx="672.5" cy="293.0234" fill="#84BE84" rx="3" ry="3" style="stroke:#038048;stroke-width:1.0;"/><text fill="#000000" font-family="sans-serif" font-size="14" lengthAdjust="spacing" textLength="186" x="681.5" y="297.252">GetPossibleActions(): Actions</text><ellipse cx="672.5" cy="310.6328" fill="#84BE84" rx="3" ry="3" style="stroke:#038048;stroke-width:1.0;"/><text fill="#000000" font-family="sans-serif" font-size="14" font-weight="bold" lengthAdjust="spacing" textLength="261" x="681.5" y="314.8613">SelectAction(actions: Actions): Action</text><ellipse cx="672.5" cy="328.2422" fill="#84BE84" rx="3" ry="3" style="stroke:#038048;stroke-width:1.0;"/><text fill="#000000" font-family="sans-serif" font-size="14" lengthAdjust="spacing" textLength="145" x="681.5" y="332.4707">Perform(action: Action)</text><ellipse cx="672.5" cy="345.8516" fill="#84BE84" rx="3" ry="3" style="stroke:#038048;stroke-width:1.0;"/><text fill="#000000" font-family="sans-serif" font-size="14" lengthAdjust="spacing" textLength="205" x="681.5" y="350.0801">PerformIfPossible(action: Action)</text></g><!--class Pawn--><g id="elem_Pawn"><rect codeLine="38" fill="#F1F1F1" height="83.2188" id="Pawn" rx="2.5" ry="2.5" style="stroke:#181818;stroke-width:0.5;" width="282" x="408" y="42"/><ellipse cx="527.75" cy="58" fill="#ADD1B2" rx="11" ry="11" style="stroke:#181818;stroke-width:1.0;"/><path d="M530.5156,53.875 Q530.6719,53.6563 530.8594,53.5469 Q531.0469,53.4375 531.2656,53.4375 Q531.6406,53.4375 531.875,53.7031 Q532.1094,53.9531 532.1094,54.5625 L532.1094,56.0156 Q532.1094,56.625 531.875,56.8906 Q531.6406,57.1563 531.2656,57.1563 Q530.9219,57.1563 530.7188,56.9531 Q530.5156,56.7656 530.4063,56.25 Q530.3594,55.8906 530.1719,55.7031 Q529.8438,55.3281 529.2344,55.1094 Q528.625,54.8906 528,54.8906 Q527.2344,54.8906 526.5938,55.2188 Q525.9688,55.5469 525.4688,56.2969 Q524.9844,57.0469 524.9844,58.0781 L524.9844,59.1719 Q524.9844,60.4063 525.875,61.2344 Q526.7656,62.0469 528.3594,62.0469 Q529.2969,62.0469 529.9531,61.7969 Q530.3438,61.6406 530.7656,61.2031 Q531.0313,60.9375 531.1719,60.8594 Q531.3281,60.7813 531.5313,60.7813 Q531.8594,60.7813 532.1094,61.0469 Q532.375,61.2969 532.375,61.6406 Q532.375,61.9844 532.0313,62.3906 Q531.5313,62.9688 530.7344,63.2969 Q529.6563,63.75 528.3594,63.75 Q526.8438,63.75 525.6406,63.125 Q524.6563,62.625 523.9688,61.5625 Q523.2813,60.4844 523.2813,59.2031 L523.2813,58.0469 Q523.2813,56.7188 523.8906,55.5781 Q524.5156,54.4219 525.6094,53.8125 Q526.7031,53.1875 527.9375,53.1875 Q528.6719,53.1875 529.3125,53.3594 Q529.9688,53.5156 530.5156,53.875 Z " fill="#000000"/><text fill="#000000" font-family="sans-serif" font-size="14" lengthAdjust="spacing" textLength="34" x="548.25" y="63.7285">Pawn</text><line style="stroke:#181818;stroke-width:0.5;" x1="409" x2="689" y1="74" y2="74"/><rect fill="none" height="6" style="stroke:#C82930;stroke-width:1.0;" width="6" x="416" y="85.3047"/><text fill="#000000" font-family="sans-serif" font-size="14" lengthAdjust="spacing" textLength="78" x="428" y="92.5332">name: string</text><line style="stroke:#181818;stroke-width:0.5;" x1="409" x2="689" y1="99.6094" y2="99.6094"/><ellipse cx="419" cy="113.9141" fill="#84BE84" rx="3" ry="3" style="stroke:#038048;stroke-width:1.0;"/><text fill="#000000" font-family="sans-serif" font-size="14" lengthAdjust="spacing" textLength="256" x="428" y="118.1426">MoveToLocation(newLocation: Location)</text></g><!--class ActionKind--><g id="elem_ActionKind"><rect codeLine="46" fill="#F1F1F1" height="188.875" id="ActionKind" rx="2.5" ry="2.5" style="stroke:#181818;stroke-width:0.5;" width="99" x="305.5" y="186"/><ellipse cx="320.5" cy="202" fill="#EB937F" rx="11" ry="11" style="stroke:#181818;stroke-width:1.0;"/><path d="M319.3594,202.7969 L319.3594,205.2969 L323.6875,205.2969 L323.6875,204.375 Q323.6875,203.7656 323.9219,203.5 Q324.1719,203.2344 324.5469,203.2344 Q324.9219,203.2344 325.1563,203.5 Q325.3906,203.7656 325.3906,204.375 L325.3906,207 L317.3906,207 Q316.7656,207 316.5,206.7656 Q316.25,206.5313 316.25,206.1406 Q316.25,205.7656 316.5156,205.5313 Q316.7813,205.2969 317.3906,205.2969 L317.6563,205.2969 L317.6563,198.6406 L317.3906,198.6406 Q316.7656,198.6406 316.5,198.4063 Q316.25,198.1719 316.25,197.7813 Q316.25,197.4063 316.5,197.1719 Q316.7656,196.9375 317.3906,196.9375 L325.0156,196.9375 L325.0156,199.5313 Q325.0156,200.1406 324.7813,200.4063 Q324.5625,200.6563 324.1719,200.6563 Q323.7969,200.6563 323.5625,200.4063 Q323.3281,200.1406 323.3281,199.5313 L323.3281,198.6406 L319.3594,198.6406 L319.3594,201.0938 L320.8438,201.0938 Q320.8438,200.4375 320.9688,200.25 Q321.2344,199.8438 321.7031,199.8438 Q322.0781,199.8438 322.3125,200.1094 Q322.5469,200.3594 322.5469,200.9688 L322.5469,202.9375 Q322.5469,203.4844 322.4219,203.6719 Q322.1563,204.0625 321.7031,204.0625 Q321.2344,204.0625 320.9688,203.6563 Q320.8438,203.4688 320.8438,202.7969 L319.3594,202.7969 Z " fill="#000000"/><text fill="#000000" font-family="sans-serif" font-size="14" lengthAdjust="spacing" textLength="67" x="334.5" y="207.7285">ActionKind</text><line style="stroke:#181818;stroke-width:0.5;" x1="306.5" x2="403.5" y1="218" y2="218"/><text fill="#000000" font-family="sans-serif" font-size="14" lengthAdjust="spacing" textLength="70" x="311.5" y="236.5332">Aggressive</text><text fill="#000000" font-family="sans-serif" font-size="14" lengthAdjust="spacing" textLength="85" x="311.5" y="254.1426">HandleObject</text><text fill="#000000" font-family="sans-serif" font-size="14" lengthAdjust="spacing" textLength="43" x="311.5" y="271.752">Helpful</text><text fill="#000000" font-family="sans-serif" font-size="14" lengthAdjust="spacing" textLength="68" x="311.5" y="289.3613">Investigate</text><text fill="#000000" font-family="sans-serif" font-size="14" lengthAdjust="spacing" textLength="34" x="311.5" y="306.9707">Move</text><text fill="#000000" font-family="sans-serif" font-size="14" lengthAdjust="spacing" textLength="26" x="311.5" y="324.5801">Quit</text><text fill="#000000" font-family="sans-serif" font-size="14" lengthAdjust="spacing" textLength="29" x="311.5" y="342.1895">Rest</text><text fill="#000000" font-family="sans-serif" font-size="14" lengthAdjust="spacing" textLength="57" x="311.5" y="359.7988">SkipTurn</text><line style="stroke:#181818;stroke-width:0.5;" x1="306.5" x2="403.5" y1="366.875" y2="366.875"/></g><!--class Location--><g id="elem_Location"><rect codeLine="59" fill="#F1F1F1" height="48" id="Location" rx="2.5" ry="2.5" style="stroke:#181818;stroke-width:0.5;" width="102" x="22" y="256.5"/><ellipse cx="37" cy="272.5" fill="#ADD1B2" rx="11" ry="11" style="stroke:#181818;stroke-width:1.0;"/><path d="M39.7656,268.375 Q39.9219,268.1563 40.1094,268.0469 Q40.2969,267.9375 40.5156,267.9375 Q40.8906,267.9375 41.125,268.2031 Q41.3594,268.4531 41.3594,269.0625 L41.3594,270.5156 Q41.3594,271.125 41.125,271.3906 Q40.8906,271.6563 40.5156,271.6563 Q40.1719,271.6563 39.9688,271.4531 Q39.7656,271.2656 39.6563,270.75 Q39.6094,270.3906 39.4219,270.2031 Q39.0938,269.8281 38.4844,269.6094 Q37.875,269.3906 37.25,269.3906 Q36.4844,269.3906 35.8438,269.7188 Q35.2188,270.0469 34.7188,270.7969 Q34.2344,271.5469 34.2344,272.5781 L34.2344,273.6719 Q34.2344,274.9063 35.125,275.7344 Q36.0156,276.5469 37.6094,276.5469 Q38.5469,276.5469 39.2031,276.2969 Q39.5938,276.1406 40.0156,275.7031 Q40.2813,275.4375 40.4219,275.3594 Q40.5781,275.2813 40.7813,275.2813 Q41.1094,275.2813 41.3594,275.5469 Q41.625,275.7969 41.625,276.1406 Q41.625,276.4844 41.2813,276.8906 Q40.7813,277.4688 39.9844,277.7969 Q38.9063,278.25 37.6094,278.25 Q36.0938,278.25 34.8906,277.625 Q33.9063,277.125 33.2188,276.0625 Q32.5313,274.9844 32.5313,273.7031 L32.5313,272.5469 Q32.5313,271.2188 33.1406,270.0781 Q33.7656,268.9219 34.8594,268.3125 Q35.9531,267.6875 37.1875,267.6875 Q37.9219,267.6875 38.5625,267.8594 Q39.2188,268.0156 39.7656,268.375 Z " fill="#000000"/><text fill="#000000" font-family="sans-serif" font-size="14" lengthAdjust="spacing" textLength="54" x="59" y="278.2285">Location</text><line style="stroke:#181818;stroke-width:0.5;" x1="23" x2="123" y1="288.5" y2="288.5"/><line style="stroke:#181818;stroke-width:0.5;" x1="23" x2="123" y1="296.5" y2="296.5"/></g><!--class World--><g id="elem_World"><rect codeLine="63" fill="#F1F1F1" height="48" id="World" rx="2.5" ry="2.5" style="stroke:#181818;stroke-width:0.5;" width="89" x="28.5" y="59.5"/><ellipse cx="43.5" cy="75.5" fill="#ADD1B2" rx="11" ry="11" style="stroke:#181818;stroke-width:1.0;"/><path d="M46.2656,71.375 Q46.4219,71.1563 46.6094,71.0469 Q46.7969,70.9375 47.0156,70.9375 Q47.3906,70.9375 47.625,71.2031 Q47.8594,71.4531 47.8594,72.0625 L47.8594,73.5156 Q47.8594,74.125 47.625,74.3906 Q47.3906,74.6563 47.0156,74.6563 Q46.6719,74.6563 46.4688,74.4531 Q46.2656,74.2656 46.1563,73.75 Q46.1094,73.3906 45.9219,73.2031 Q45.5938,72.8281 44.9844,72.6094 Q44.375,72.3906 43.75,72.3906 Q42.9844,72.3906 42.3438,72.7188 Q41.7188,73.0469 41.2188,73.7969 Q40.7344,74.5469 40.7344,75.5781 L40.7344,76.6719 Q40.7344,77.9063 41.625,78.7344 Q42.5156,79.5469 44.1094,79.5469 Q45.0469,79.5469 45.7031,79.2969 Q46.0938,79.1406 46.5156,78.7031 Q46.7813,78.4375 46.9219,78.3594 Q47.0781,78.2813 47.2813,78.2813 Q47.6094,78.2813 47.8594,78.5469 Q48.125,78.7969 48.125,79.1406 Q48.125,79.4844 47.7813,79.8906 Q47.2813,80.4688 46.4844,80.7969 Q45.4063,81.25 44.1094,81.25 Q42.5938,81.25 41.3906,80.625 Q40.4063,80.125 39.7188,79.0625 Q39.0313,77.9844 39.0313,76.7031 L39.0313,75.5469 Q39.0313,74.2188 39.6406,73.0781 Q40.2656,71.9219 41.3594,71.3125 Q42.4531,70.6875 43.6875,70.6875 Q44.4219,70.6875 45.0625,70.8594 Q45.7188,71.0156 46.2656,71.375 Z " fill="#000000"/><text fill="#000000" font-family="sans-serif" font-size="14" lengthAdjust="spacing" textLength="37" x="69.5" y="81.2285">World</text><line style="stroke:#181818;stroke-width:0.5;" x1="29.5" x2="116.5" y1="91.5" y2="91.5"/><line style="stroke:#181818;stroke-width:0.5;" x1="29.5" x2="116.5" y1="99.5" y2="99.5"/></g><!--reverse link Action to MoveAction--><g id="link_Action_MoveAction"><path codeLine="12" d="M504.5749,338.222 C481.3549,384.552 452.26,442.62 433.55,479.95 " fill="none" id="Action-backto-MoveAction" style="stroke:#181818;stroke-width:1.0;"/><polygon fill="none" points="512.64,322.13,499.2109,335.5337,509.9389,340.9104,512.64,322.13" style="stroke:#181818;stroke-width:1.0;"/></g><!--reverse link Action to SkipTurnAction--><g id="link_Action_SkipTurnAction"><path codeLine="16" d="M546.9103,339.6355 C558.0003,385.9655 571.55,442.62 580.48,479.95 " fill="none" id="Action-backto-SkipTurnAction" style="stroke:#181818;stroke-width:1.0;"/><polygon fill="none" points="542.72,322.13,541.0751,341.0322,552.7454,338.2387,542.72,322.13" style="stroke:#181818;stroke-width:1.0;"/></g><!--link Player to PlayerStrategy--><g id="link_Player_PlayerStrategy"><path codeLine="36" d="M805,357.73 C805,383.13 805,405.23 805,429.89 " fill="none" id="Player-to-PlayerStrategy" style="stroke:#181818;stroke-width:1.0;"/><polygon fill="#181818" points="805,435.89,809,426.89,805,430.89,801,426.89,805,435.89" style="stroke:#181818;stroke-width:1.0;"/><text fill="#000000" font-family="sans-serif" font-size="13" lengthAdjust="spacing" textLength="7" x="793.1797" y="425.0772">1</text></g><!--link Pawn to Player--><g id="link_Pawn_Player"><path codeLine="43" d="M607.1231,128.7756 C636.8731,151.4356 660.5729,169.49 695.6229,196.18 " fill="none" id="Pawn-Player" style="stroke:#181818;stroke-width:1.0;"/><polygon fill="#181818" points="602.35,125.14,607.0859,133.7754,606.3276,128.1697,611.9334,127.4113,602.35,125.14" style="stroke:#181818;stroke-width:1.0;"/><polygon fill="#181818" points="705.17,203.45,702.8198,196.6326,695.6229,196.18,697.9731,202.9974,705.17,203.45" style="stroke:#181818;stroke-width:1.0;"/></g><!--reverse link Action to Player--><g id="link_Action_Player"><path codeLine="44" d="M632.23,280.5 C643.99,280.5 649.74,280.5 661.5,280.5 " fill="none" id="Action-backto-Player" style="stroke:#181818;stroke-width:1.0;stroke-dasharray:7.0,7.0;"/><polygon fill="#181818" points="626.23,280.5,635.23,284.5,631.23,280.5,635.23,276.5,626.23,280.5" style="stroke:#181818;stroke-width:1.0;"/></g><!--reverse link ActionKind to Action--><g id="link_ActionKind_Action"><path codeLine="57" d="M410.71,280.5 C422.41,280.5 428.1,280.5 439.79,280.5 " fill="none" id="ActionKind-backto-Action" style="stroke:#181818;stroke-width:1.0;"/><polygon fill="#181818" points="404.71,280.5,413.71,284.5,409.71,280.5,413.71,276.5,404.71,280.5" style="stroke:#181818;stroke-width:1.0;"/><text fill="#000000" font-family="sans-serif" font-size="13" lengthAdjust="spacing" textLength="5" x="416.6145" y="276.9036">*</text></g><!--reverse link Location to Location--><g id="link_Location_Location"><path codeLine="61" d="M136.2005,256.8224 C155.2805,256.0624 159,264.27 159,280.5 C159,296.73 143.29,304.46 124.21,303.7 " fill="none" id="Location-backto-Location" style="stroke:#181818;stroke-width:1.0;"/><polygon fill="none" points="124.21,257.3,130.3644,261.058,136.2005,256.8224,130.046,253.0644,124.21,257.3" style="stroke:#181818;stroke-width:1.0;"/><text fill="#000000" font-family="sans-serif" font-size="13" lengthAdjust="spacing" textLength="116" x="165" y="285.9951">connectedLocations</text></g><!--link World to Location--><g id="link_World_Location"><path codeLine="66" d="M73,119.63 C73,157.16 73,212.89 73,250.4 " fill="none" id="World-Location" style="stroke:#181818;stroke-width:1.0;"/><polygon fill="#181818" points="73,107.63,69,113.63,73,119.63,77,113.63,73,107.63" style="stroke:#181818;stroke-width:1.0;"/><polygon fill="#181818" points="73,256.4,77,247.4,73,251.4,69,247.4,73,256.4" style="stroke:#181818;stroke-width:1.0;"/><text fill="#000000" font-family="sans-serif" font-size="13" lengthAdjust="spacing" textLength="5" x="62.3344" y="245.7145">*</text></g><!--link Pawn to Location--><g id="link_Pawn_Location"><path codeLine="67" d="M441.95,125.04 C394.6,143.25 338.35,165.27 288,186 C231.54,209.24 172.913,234.9135 129.503,254.2035 " fill="none" id="Pawn-to-Location" style="stroke:#181818;stroke-width:1.0;"/><polygon fill="#181818" points="124.02,256.64,133.8689,256.6406,128.5892,254.6096,130.6202,249.3299,124.02,256.64" style="stroke:#181818;stroke-width:1.0;"/><text fill="#000000" font-family="sans-serif" font-size="13" lengthAdjust="spacing" textLength="7" x="129.791" y="245.62">1</text></g><!--SRC=[TLDDZziW4BtdLw3qaWyvrHvwSIDBMwtKhhfLqqsadh4zyT8Gi00dMhdvxuK0ziHnaIp3y6PuysQcfiM1La2cj3o1C8s2D3rzogUadKo8NKPMODv0sJC9g-1KQ_9O62O5Chkr92tDjL6qC1Vo1BfGh7QmsJmbrin4zN_u1jHUgkEC2MrOHOrKATdGivXtBfV9WCEKa1_o186AFLAD3ItoZ3jqdJHryZSBYTo7tXvOlMkK2EXhy85jx841vFOHb0M8vaWsdBw3sbe535JlADwpCE1aOIVeR2zK6nJ7hLSgIdaS61-hIe7MsFKRy7hVSFo-JzCJ81yu4x3A9I_J9weENtW3dtFR6IbdrPl9xH5nMvAlO5nbN5NT7ztiw05SzhFv02ujePm7wRNp35k4M-VP5ZWK8SiPzOWEsZcjF-OPyekTu_4HDBz7FEyZZr5iK2PeafJoB9BC5lx1VhULkf7GAe3KIOYWHxXhz-MrytRoHHRqcfo0Szod9Ex6U2nS2sMzqA6nrYlbQhCACDHK7l2TYHBH6ciAspmSVkP_hEAZdU8RyGH-7k5cXhh3huRrtgyMUpS9EASu5HpsvghjmduzOQoh7UueInZjxjXE-fdhZ399IAze8OMmUK4PJNeGc_oMYfSXij-tcAatBPAEPGpaQ-EAxkx8z05TNVu1]--></g></svg>