<?xml version="1.0" encoding="us-ascii" standalone="no"?><svg xmlns="http://www.w3.org/2000/svg" xmlns:xlink="http://www.w3.org/1999/xlink" contentStyleType="text/css" height="242px" preserveAspectRatio="none" style="width:713px;height:242px;background:#FFFFFF;" version="1.1" viewBox="0 0 713 242" width="713px" zoomAndPan="magnify"><defs/><g><!--class Subject--><g id="elem_Subject"><rect codeLine="2" fill="#F1F1F1" height="100.8281" id="Subject" rx="2.5" ry="2.5" style="stroke:#181818;stroke-width:0.5;" width="208" x="192.5" y="7"/><ellipse cx="268.75" cy="23" fill="#ADD1B2" rx="11" ry="11" style="stroke:#181818;stroke-width:1.0;"/><path d="M271.5156,18.875 Q271.6719,18.6563 271.8594,18.5469 Q272.0469,18.4375 272.2656,18.4375 Q272.6406,18.4375 272.875,18.7031 Q273.1094,18.9531 273.1094,19.5625 L273.1094,21.0156 Q273.1094,21.625 272.875,21.8906 Q272.6406,22.1563 272.2656,22.1563 Q271.9219,22.1563 271.7188,21.9531 Q271.5156,21.7656 271.4063,21.25 Q271.3594,20.8906 271.1719,20.7031 Q270.8438,20.3281 270.2344,20.1094 Q269.625,19.8906 269,19.8906 Q268.2344,19.8906 267.5938,20.2188 Q266.9688,20.5469 266.4688,21.2969 Q265.9844,22.0469 265.9844,23.0781 L265.9844,24.1719 Q265.9844,25.4063 266.875,26.2344 Q267.7656,27.0469 269.3594,27.0469 Q270.2969,27.0469 270.9531,26.7969 Q271.3438,26.6406 271.7656,26.2031 Q272.0313,25.9375 272.1719,25.8594 Q272.3281,25.7813 272.5313,25.7813 Q272.8594,25.7813 273.1094,26.0469 Q273.375,26.2969 273.375,26.6406 Q273.375,26.9844 273.0313,27.3906 Q272.5313,27.9688 271.7344,28.2969 Q270.6563,28.75 269.3594,28.75 Q267.8438,28.75 266.6406,28.125 Q265.6563,27.625 264.9688,26.5625 Q264.2813,25.4844 264.2813,24.2031 L264.2813,23.0469 Q264.2813,21.7188 264.8906,20.5781 Q265.5156,19.4219 266.6094,18.8125 Q267.7031,18.1875 268.9375,18.1875 Q269.6719,18.1875 270.3125,18.3594 Q270.9688,18.5156 271.5156,18.875 Z " fill="#000000"/><text fill="#000000" font-family="sans-serif" font-size="14" lengthAdjust="spacing" textLength="47" x="289.25" y="28.7285">Subject</text><line style="stroke:#181818;stroke-width:0.5;" x1="193.5" x2="399.5" y1="39" y2="39"/><line style="stroke:#181818;stroke-width:0.5;" x1="193.5" x2="399.5" y1="47" y2="47"/><ellipse cx="203.5" cy="61.3047" fill="#84BE84" rx="3" ry="3" style="stroke:#038048;stroke-width:1.0;"/><text fill="#000000" font-family="sans-serif" font-size="14" lengthAdjust="spacing" textLength="177" x="212.5" y="65.5332">Attach(observer : Observer)</text><ellipse cx="203.5" cy="78.9141" fill="#84BE84" rx="3" ry="3" style="stroke:#038048;stroke-width:1.0;"/><text fill="#000000" font-family="sans-serif" font-size="14" lengthAdjust="spacing" textLength="182" x="212.5" y="83.1426">Detach(observer : Observer)</text><ellipse cx="203.5" cy="96.5234" fill="#84BE84" rx="3" ry="3" style="stroke:#038048;stroke-width:1.0;"/><text fill="#000000" font-family="sans-serif" font-size="14" lengthAdjust="spacing" textLength="45" x="212.5" y="100.752">Notify()</text></g><path d="M6,23 L6,82.0547 A0,0 0 0 0 6,82.0547 L157,82.0547 A0,0 0 0 0 157,82.0547 L157,56.5273 L196.5,95.0234 L157,48.5273 L157,33 L147,23 L6,23 A0,0 0 0 0 6,23 " fill="#FEFFDD" style="stroke:#181818;stroke-width:0.5;"/><path d="M147,23 L147,33 L157,33 L147,23 " fill="#FEFFDD" style="stroke:#181818;stroke-width:0.5;"/><text fill="#000000" font-family="sans-serif" font-size="13" lengthAdjust="spacing" textLength="130" x="12" y="41.4951">for each o in observers</text><text fill="#000000" font-family="sans-serif" font-size="13" lengthAdjust="spacing" textLength="67" x="28" y="57.8467">o.Update(T)</text><text fill="#000000" font-family="sans-serif" font-size="13" lengthAdjust="spacing" textLength="39" x="12" y="74.1982">end for</text><!--class Observer--><g id="elem_Observer"><rect codeLine="14" fill="#F1F1F1" height="65.6094" id="Observer" rx="2.5" ry="2.5" style="stroke:#181818;stroke-width:0.5;" width="90" x="435.5" y="24.5"/><ellipse cx="450.5" cy="40.5" fill="#B4A7E5" rx="11" ry="11" style="stroke:#181818;stroke-width:1.0;"/><path d="M451.4531,37.1406 L451.4531,43.7969 L453.1719,43.7969 Q453.7813,43.7969 454.0469,44.0313 Q454.3125,44.2656 454.3125,44.6563 Q454.3125,45.0313 454.0469,45.2656 Q453.7813,45.5 453.1719,45.5 L448.0313,45.5 Q447.4219,45.5 447.1563,45.2656 Q446.8906,45.0313 446.8906,44.6406 Q446.8906,44.2656 447.1563,44.0313 Q447.4219,43.7969 448.0313,43.7969 L449.75,43.7969 L449.75,37.1406 L448.0313,37.1406 Q447.4219,37.1406 447.1563,36.9063 Q446.8906,36.6719 446.8906,36.2813 Q446.8906,35.9063 447.1563,35.6719 Q447.4219,35.4375 448.0313,35.4375 L453.1719,35.4375 Q453.7813,35.4375 454.0469,35.6719 Q454.3125,35.9063 454.3125,36.2813 Q454.3125,36.6719 454.0469,36.9063 Q453.7813,37.1406 453.1719,37.1406 L451.4531,37.1406 Z " fill="#000000"/><text fill="#000000" font-family="sans-serif" font-size="14" font-style="italic" lengthAdjust="spacing" textLength="58" x="464.5" y="46.2285">Observer</text><line style="stroke:#181818;stroke-width:0.5;" x1="436.5" x2="524.5" y1="56.5" y2="56.5"/><line style="stroke:#181818;stroke-width:0.5;" x1="436.5" x2="524.5" y1="64.5" y2="64.5"/><ellipse cx="446.5" cy="78.8047" fill="#84BE84" rx="3" ry="3" style="stroke:#038048;stroke-width:1.0;"/><text fill="#000000" font-family="sans-serif" font-size="14" lengthAdjust="spacing" textLength="64" x="455.5" y="83.0332">Update(T)</text></g><path d="M560.5,23 L560.5,48.5273 L519.5,77.3047 L560.5,56.5273 L560.5,82.0547 A0,0 0 0 0 560.5,82.0547 L706.5,82.0547 A0,0 0 0 0 706.5,82.0547 L706.5,33 L696.5,23 L560.5,23 A0,0 0 0 0 560.5,23 " fill="#FEFFDD" style="stroke:#181818;stroke-width:0.5;"/><path d="M696.5,23 L696.5,33 L706.5,33 L696.5,23 " fill="#FEFFDD" style="stroke:#181818;stroke-width:0.5;"/><text fill="#000000" font-family="sans-serif" font-size="13" lengthAdjust="spacing" textLength="125" x="566.5" y="41.4951">// T is data describing</text><text fill="#000000" font-family="sans-serif" font-size="13" lengthAdjust="spacing" textLength="118" x="566.5" y="57.8467">// the modification to</text><text fill="#000000" font-family="sans-serif" font-size="13" lengthAdjust="spacing" textLength="78" x="566.5" y="74.1982">// the Subject</text><!--class ConcreteSubject--><g id="elem_ConcreteSubject"><rect codeLine="24" fill="#F1F1F1" height="65.6094" id="ConcreteSubject" rx="2.5" ry="2.5" style="stroke:#181818;stroke-width:0.5;" width="137" x="228" y="169.5"/><ellipse cx="243" cy="185.5" fill="#ADD1B2" rx="11" ry="11" style="stroke:#181818;stroke-width:1.0;"/><path d="M245.7656,181.375 Q245.9219,181.1563 246.1094,181.0469 Q246.2969,180.9375 246.5156,180.9375 Q246.8906,180.9375 247.125,181.2031 Q247.3594,181.4531 247.3594,182.0625 L247.3594,183.5156 Q247.3594,184.125 247.125,184.3906 Q246.8906,184.6563 246.5156,184.6563 Q246.1719,184.6563 245.9688,184.4531 Q245.7656,184.2656 245.6563,183.75 Q245.6094,183.3906 245.4219,183.2031 Q245.0938,182.8281 244.4844,182.6094 Q243.875,182.3906 243.25,182.3906 Q242.4844,182.3906 241.8438,182.7188 Q241.2188,183.0469 240.7188,183.7969 Q240.2344,184.5469 240.2344,185.5781 L240.2344,186.6719 Q240.2344,187.9063 241.125,188.7344 Q242.0156,189.5469 243.6094,189.5469 Q244.5469,189.5469 245.2031,189.2969 Q245.5938,189.1406 246.0156,188.7031 Q246.2813,188.4375 246.4219,188.3594 Q246.5781,188.2813 246.7813,188.2813 Q247.1094,188.2813 247.3594,188.5469 Q247.625,188.7969 247.625,189.1406 Q247.625,189.4844 247.2813,189.8906 Q246.7813,190.4688 245.9844,190.7969 Q244.9063,191.25 243.6094,191.25 Q242.0938,191.25 240.8906,190.625 Q239.9063,190.125 239.2188,189.0625 Q238.5313,187.9844 238.5313,186.7031 L238.5313,185.5469 Q238.5313,184.2188 239.1406,183.0781 Q239.7656,181.9219 240.8594,181.3125 Q241.9531,180.6875 243.1875,180.6875 Q243.9219,180.6875 244.5625,180.8594 Q245.2188,181.0156 245.7656,181.375 Z " fill="#000000"/><text fill="#000000" font-family="sans-serif" font-size="14" lengthAdjust="spacing" textLength="105" x="257" y="191.2285">ConcreteSubject</text><line style="stroke:#181818;stroke-width:0.5;" x1="229" x2="364" y1="201.5" y2="201.5"/><line style="stroke:#181818;stroke-width:0.5;" x1="229" x2="364" y1="209.5" y2="209.5"/><ellipse cx="239" cy="223.8047" fill="#84BE84" rx="3" ry="3" style="stroke:#038048;stroke-width:1.0;"/><text fill="#000000" font-family="sans-serif" font-size="14" lengthAdjust="spacing" textLength="51" x="248" y="228.0332">Modify()</text></g><path d="M16,168 L16,227.0547 A0,0 0 0 0 16,227.0547 L193,227.0547 A0,0 0 0 0 193,227.0547 L193,201.5273 L232,222.3047 L193,193.5273 L193,178 L183,168 L16,168 A0,0 0 0 0 16,168 " fill="#FEFFDD" style="stroke:#181818;stroke-width:0.5;"/><path d="M183,168 L183,178 L193,178 L183,168 " fill="#FEFFDD" style="stroke:#181818;stroke-width:0.5;"/><text fill="#000000" font-family="sans-serif" font-size="13" lengthAdjust="spacing" textLength="156" x="22" y="186.4951">// Do something interesting</text><text fill="#000000" font-family="sans-serif" font-size="13" lengthAdjust="spacing" textLength="82" x="22" y="202.8467">// to observers</text><text fill="#000000" font-family="sans-serif" font-size="13" lengthAdjust="spacing" textLength="48" x="22" y="219.1982">Notify(T)</text><!--class ConcreteObserver--><g id="elem_ConcreteObserver"><rect codeLine="34" fill="#F1F1F1" height="65.6094" id="ConcreteObserver" rx="2.5" ry="2.5" style="stroke:#181818;stroke-width:0.5;" width="149" x="406" y="169.5"/><ellipse cx="421" cy="185.5" fill="#ADD1B2" rx="11" ry="11" style="stroke:#181818;stroke-width:1.0;"/><path d="M423.7656,181.375 Q423.9219,181.1563 424.1094,181.0469 Q424.2969,180.9375 424.5156,180.9375 Q424.8906,180.9375 425.125,181.2031 Q425.3594,181.4531 425.3594,182.0625 L425.3594,183.5156 Q425.3594,184.125 425.125,184.3906 Q424.8906,184.6563 424.5156,184.6563 Q424.1719,184.6563 423.9688,184.4531 Q423.7656,184.2656 423.6563,183.75 Q423.6094,183.3906 423.4219,183.2031 Q423.0938,182.8281 422.4844,182.6094 Q421.875,182.3906 421.25,182.3906 Q420.4844,182.3906 419.8438,182.7188 Q419.2188,183.0469 418.7188,183.7969 Q418.2344,184.5469 418.2344,185.5781 L418.2344,186.6719 Q418.2344,187.9063 419.125,188.7344 Q420.0156,189.5469 421.6094,189.5469 Q422.5469,189.5469 423.2031,189.2969 Q423.5938,189.1406 424.0156,188.7031 Q424.2813,188.4375 424.4219,188.3594 Q424.5781,188.2813 424.7813,188.2813 Q425.1094,188.2813 425.3594,188.5469 Q425.625,188.7969 425.625,189.1406 Q425.625,189.4844 425.2813,189.8906 Q424.7813,190.4688 423.9844,190.7969 Q422.9063,191.25 421.6094,191.25 Q420.0938,191.25 418.8906,190.625 Q417.9063,190.125 417.2188,189.0625 Q416.5313,187.9844 416.5313,186.7031 L416.5313,185.5469 Q416.5313,184.2188 417.1406,183.0781 Q417.7656,181.9219 418.8594,181.3125 Q419.9531,180.6875 421.1875,180.6875 Q421.9219,180.6875 422.5625,180.8594 Q423.2188,181.0156 423.7656,181.375 Z " fill="#000000"/><text fill="#000000" font-family="sans-serif" font-size="14" lengthAdjust="spacing" textLength="117" x="435" y="191.2285">ConcreteObserver</text><line style="stroke:#181818;stroke-width:0.5;" x1="407" x2="554" y1="201.5" y2="201.5"/><line style="stroke:#181818;stroke-width:0.5;" x1="407" x2="554" y1="209.5" y2="209.5"/><ellipse cx="417" cy="223.8047" fill="#84BE84" rx="3" ry="3" style="stroke:#038048;stroke-width:1.0;"/><text fill="#000000" font-family="sans-serif" font-size="14" lengthAdjust="spacing" textLength="64" x="426" y="228.0332">Update(T)</text></g><!--link Subject to Observer--><g id="link_Subject_Observer"><path codeLine="38" d="M400.72,57.5 C412.25,57.5 417.78,57.5 429.31,57.5 " fill="none" id="Subject-to-Observer" style="stroke:#181818;stroke-width:1.0;"/><polygon fill="#181818" points="435.31,57.5,426.31,53.5,430.31,57.5,426.31,61.5,435.31,57.5" style="stroke:#181818;stroke-width:1.0;"/><text fill="#000000" font-family="sans-serif" font-size="13" lengthAdjust="spacing" textLength="5" x="422.4113" y="53.7316">*</text></g><!--reverse link Subject to ConcreteSubject--><g id="link_Subject_ConcreteSubject"><path codeLine="39" d="M296.5,126.11 C296.5,146.44 296.5,151.38 296.5,169.44 " fill="none" id="Subject-backto-ConcreteSubject" style="stroke:#181818;stroke-width:1.0;"/><polygon fill="none" points="296.5,108.11,290.5,126.11,302.5,126.11,296.5,108.11" style="stroke:#181818;stroke-width:1.0;"/></g><!--reverse link Observer to ConcreteObserver--><g id="link_Observer_ConcreteObserver"><path codeLine="40" d="M480.5,108.59 C480.5,131.98 480.5,145.54 480.5,169.02 " fill="none" id="Observer-backto-ConcreteObserver" style="stroke:#181818;stroke-width:1.0;stroke-dasharray:7.0,7.0;"/><polygon fill="none" points="480.5,90.59,474.5,108.59,486.5,108.59,480.5,90.59" style="stroke:#181818;stroke-width:1.0;"/></g><!--SRC=[XP3FJiCm3CRlVWfhfmxKxXvDI8XTWGFZ0TBKMJDjCKeC237UdQPjobJ-vTBK-VpvvyyST8puy5ploGY-0tRd4gz5j6aBhYE55mgey7wyBaV5XlvJtB4u-rOiuGF0in0Uo0gopSEK6XIzt790wWoHqNdChh5_IuUhnwT62nNRmPvyateWVPCvWFD2mMf34yYqpLThHWbkr_OiMQlK88BL2hVe8dO_6XkA9hZQ-LsgIqjuvCPPPxGuzYYSo-DAPpYcp_M6lGaaDC_tDjdybCsiGQb1cUPi62CVITeE1_jjAKf6uxFCnk2xTN_3-JkX35jUuU9YCKKqrTUdifo3mcIvFbKDl_hgsp20Jm00]--></g></svg>