<?xml version="1.0" encoding="us-ascii" standalone="no"?><svg xmlns="http://www.w3.org/2000/svg" xmlns:xlink="http://www.w3.org/1999/xlink" contentStyleType="text/css" height="652px" preserveAspectRatio="none" style="width:972px;height:652px;background:#FFFFFF;" version="1.1" viewBox="0 0 972 652" width="972px" zoomAndPan="magnify"><defs/><g><!--cluster adventure::v5c--><g id="cluster_adventure::v5c"><path d="M8.5,6 L115.5,6 A3.75,3.75 0 0 1 118,8.5 L125,29.6094 L962.5,29.6094 A2.5,2.5 0 0 1 965,32.1094 L965,642.5 A2.5,2.5 0 0 1 962.5,645 L8.5,645 A2.5,2.5 0 0 1 6,642.5 L6,8.5 A2.5,2.5 0 0 1 8.5,6 " fill="none" style="stroke:#000000;stroke-width:1.5;"/><line style="stroke:#000000;stroke-width:1.5;" x1="6" x2="125" y1="29.6094" y2="29.6094"/><text fill="#000000" font-family="sans-serif" font-size="14" font-weight="bold" lengthAdjust="spacing" textLength="106" x="10" y="22.5332">adventure::v5c</text></g><!--class Action--><g id="elem_Action"><rect codeLine="5" fill="#F1F1F1" height="83.2188" id="Action" rx="2.5" ry="2.5" style="stroke:#181818;stroke-width:0.5;" width="186" x="628" y="239"/><ellipse cx="697.25" cy="255" fill="#ADD1B2" rx="11" ry="11" style="stroke:#181818;stroke-width:1.0;"/><path d="M700.0156,250.875 Q700.1719,250.6563 700.3594,250.5469 Q700.5469,250.4375 700.7656,250.4375 Q701.1406,250.4375 701.375,250.7031 Q701.6094,250.9531 701.6094,251.5625 L701.6094,253.0156 Q701.6094,253.625 701.375,253.8906 Q701.1406,254.1563 700.7656,254.1563 Q700.4219,254.1563 700.2188,253.9531 Q700.0156,253.7656 699.9063,253.25 Q699.8594,252.8906 699.6719,252.7031 Q699.3438,252.3281 698.7344,252.1094 Q698.125,251.8906 697.5,251.8906 Q696.7344,251.8906 696.0938,252.2188 Q695.4688,252.5469 694.9688,253.2969 Q694.4844,254.0469 694.4844,255.0781 L694.4844,256.1719 Q694.4844,257.4063 695.375,258.2344 Q696.2656,259.0469 697.8594,259.0469 Q698.7969,259.0469 699.4531,258.7969 Q699.8438,258.6406 700.2656,258.2031 Q700.5313,257.9375 700.6719,257.8594 Q700.8281,257.7813 701.0313,257.7813 Q701.3594,257.7813 701.6094,258.0469 Q701.875,258.2969 701.875,258.6406 Q701.875,258.9844 701.5313,259.3906 Q701.0313,259.9688 700.2344,260.2969 Q699.1563,260.75 697.8594,260.75 Q696.3438,260.75 695.1406,260.125 Q694.1563,259.625 693.4688,258.5625 Q692.7813,257.4844 692.7813,256.2031 L692.7813,255.0469 Q692.7813,253.7188 693.3906,252.5781 Q694.0156,251.4219 695.1094,250.8125 Q696.2031,250.1875 697.4375,250.1875 Q698.1719,250.1875 698.8125,250.3594 Q699.4688,250.5156 700.0156,250.875 Z " fill="#000000"/><text fill="#000000" font-family="sans-serif" font-size="14" lengthAdjust="spacing" textLength="39" x="717.75" y="260.7285">Action</text><line style="stroke:#181818;stroke-width:0.5;" x1="629" x2="813" y1="271" y2="271"/><line style="stroke:#181818;stroke-width:0.5;" x1="629" x2="813" y1="279" y2="279"/><ellipse cx="639" cy="293.3047" fill="#84BE84" rx="3" ry="3" style="stroke:#038048;stroke-width:1.0;"/><text fill="#000000" font-family="sans-serif" font-size="14" font-style="italic" lengthAdjust="spacing" textLength="124" x="648" y="297.5332">Description(): string</text><ellipse cx="639" cy="310.9141" fill="#84BE84" rx="3" ry="3" style="stroke:#038048;stroke-width:1.0;"/><text fill="#000000" font-family="sans-serif" font-size="14" font-style="italic" lengthAdjust="spacing" textLength="160" x="648" y="315.1426">Perform(instigator: Pawn)</text></g><!--class MoveAction--><g id="elem_MoveAction"><rect codeLine="10" fill="#F1F1F1" height="48" id="MoveAction" rx="2.5" ry="2.5" style="stroke:#181818;stroke-width:0.5;" width="121" x="819.5" y="445"/><ellipse cx="834.5" cy="461" fill="#ADD1B2" rx="11" ry="11" style="stroke:#181818;stroke-width:1.0;"/><path d="M837.2656,456.875 Q837.4219,456.6563 837.6094,456.5469 Q837.7969,456.4375 838.0156,456.4375 Q838.3906,456.4375 838.625,456.7031 Q838.8594,456.9531 838.8594,457.5625 L838.8594,459.0156 Q838.8594,459.625 838.625,459.8906 Q838.3906,460.1563 838.0156,460.1563 Q837.6719,460.1563 837.4688,459.9531 Q837.2656,459.7656 837.1563,459.25 Q837.1094,458.8906 836.9219,458.7031 Q836.5938,458.3281 835.9844,458.1094 Q835.375,457.8906 834.75,457.8906 Q833.9844,457.8906 833.3438,458.2188 Q832.7188,458.5469 832.2188,459.2969 Q831.7344,460.0469 831.7344,461.0781 L831.7344,462.1719 Q831.7344,463.4063 832.625,464.2344 Q833.5156,465.0469 835.1094,465.0469 Q836.0469,465.0469 836.7031,464.7969 Q837.0938,464.6406 837.5156,464.2031 Q837.7813,463.9375 837.9219,463.8594 Q838.0781,463.7813 838.2813,463.7813 Q838.6094,463.7813 838.8594,464.0469 Q839.125,464.2969 839.125,464.6406 Q839.125,464.9844 838.7813,465.3906 Q838.2813,465.9688 837.4844,466.2969 Q836.4063,466.75 835.1094,466.75 Q833.5938,466.75 832.3906,466.125 Q831.4063,465.625 830.7188,464.5625 Q830.0313,463.4844 830.0313,462.2031 L830.0313,461.0469 Q830.0313,459.7188 830.6406,458.5781 Q831.2656,457.4219 832.3594,456.8125 Q833.4531,456.1875 834.6875,456.1875 Q835.4219,456.1875 836.0625,456.3594 Q836.7188,456.5156 837.2656,456.875 Z " fill="#000000"/><text fill="#000000" font-family="sans-serif" font-size="14" lengthAdjust="spacing" textLength="73" x="856.5" y="466.7285">MoveAction</text><line style="stroke:#181818;stroke-width:0.5;" x1="820.5" x2="939.5" y1="477" y2="477"/><line style="stroke:#181818;stroke-width:0.5;" x1="820.5" x2="939.5" y1="485" y2="485"/></g><!--class SkipTurnAction--><g id="elem_SkipTurnAction"><rect codeLine="14" fill="#F1F1F1" height="48" id="SkipTurnAction" rx="2.5" ry="2.5" style="stroke:#181818;stroke-width:0.5;" width="136" x="648" y="445"/><ellipse cx="663" cy="461" fill="#ADD1B2" rx="11" ry="11" style="stroke:#181818;stroke-width:1.0;"/><path d="M665.7656,456.875 Q665.9219,456.6563 666.1094,456.5469 Q666.2969,456.4375 666.5156,456.4375 Q666.8906,456.4375 667.125,456.7031 Q667.3594,456.9531 667.3594,457.5625 L667.3594,459.0156 Q667.3594,459.625 667.125,459.8906 Q666.8906,460.1563 666.5156,460.1563 Q666.1719,460.1563 665.9688,459.9531 Q665.7656,459.7656 665.6563,459.25 Q665.6094,458.8906 665.4219,458.7031 Q665.0938,458.3281 664.4844,458.1094 Q663.875,457.8906 663.25,457.8906 Q662.4844,457.8906 661.8438,458.2188 Q661.2188,458.5469 660.7188,459.2969 Q660.2344,460.0469 660.2344,461.0781 L660.2344,462.1719 Q660.2344,463.4063 661.125,464.2344 Q662.0156,465.0469 663.6094,465.0469 Q664.5469,465.0469 665.2031,464.7969 Q665.5938,464.6406 666.0156,464.2031 Q666.2813,463.9375 666.4219,463.8594 Q666.5781,463.7813 666.7813,463.7813 Q667.1094,463.7813 667.3594,464.0469 Q667.625,464.2969 667.625,464.6406 Q667.625,464.9844 667.2813,465.3906 Q666.7813,465.9688 665.9844,466.2969 Q664.9063,466.75 663.6094,466.75 Q662.0938,466.75 660.8906,466.125 Q659.9063,465.625 659.2188,464.5625 Q658.5313,463.4844 658.5313,462.2031 L658.5313,461.0469 Q658.5313,459.7188 659.1406,458.5781 Q659.7656,457.4219 660.8594,456.8125 Q661.9531,456.1875 663.1875,456.1875 Q663.9219,456.1875 664.5625,456.3594 Q665.2188,456.5156 665.7656,456.875 Z " fill="#000000"/><text fill="#000000" font-family="sans-serif" font-size="14" lengthAdjust="spacing" textLength="96" x="681" y="466.7285">SkipTurnAction</text><line style="stroke:#181818;stroke-width:0.5;" x1="649" x2="783" y1="477" y2="477"/><line style="stroke:#181818;stroke-width:0.5;" x1="649" x2="783" y1="485" y2="485"/></g><!--class SelectActionStrategy--><g id="elem_SelectActionStrategy"><rect codeLine="19" fill="#F1F1F1" height="65.6094" id="SelectActionStrategy" rx="2.5" ry="2.5" style="stroke:#181818;stroke-width:0.5;" width="355" x="257.5" y="436"/><ellipse cx="365.25" cy="452" fill="#A9DCDF" rx="11" ry="11" style="stroke:#181818;stroke-width:1.0;"/><path d="M367.4375,453.7656 L363.2969,453.7656 L362.875,454.7969 L363.2969,454.7969 Q363.9063,454.7969 364.1719,455.0313 Q364.4375,455.2656 364.4375,455.6563 Q364.4375,456.0313 364.1719,456.2656 Q363.9063,456.5 363.2969,456.5 L361,456.5 Q360.3906,456.5 360.1406,456.2656 Q359.875,456.0313 359.875,455.6406 Q359.875,455.2656 360.1563,455.0313 Q360.4219,454.7813 361.0469,454.7969 L363.7188,448.1406 L362.6094,448.1406 Q362,448.1406 361.7344,447.9063 Q361.4688,447.6719 361.4688,447.2813 Q361.4688,446.9063 361.7344,446.6719 Q362,446.4375 362.6094,446.4375 L366.2813,446.4375 L369.6719,454.7969 Q370.2656,454.7969 370.4531,454.9375 Q370.8438,455.2031 370.8438,455.6563 Q370.8438,456.0313 370.5781,456.2656 Q370.3281,456.5 369.7188,456.5 L367.4219,456.5 Q366.8125,456.5 366.5469,456.2656 Q366.2813,456.0313 366.2813,455.6406 Q366.2813,455.2656 366.5469,455.0313 Q366.8125,454.7969 367.4219,454.7969 L367.8438,454.7969 L367.4375,453.7656 Z M366.7188,452.0625 L365.3594,448.6875 L363.9844,452.0625 L366.7188,452.0625 Z " fill="#000000"/><text fill="#000000" font-family="sans-serif" font-size="14" font-style="italic" lengthAdjust="spacing" textLength="131" x="385.75" y="457.7285">SelectActionStrategy</text><line style="stroke:#181818;stroke-width:0.5;" x1="258.5" x2="611.5" y1="468" y2="468"/><line style="stroke:#181818;stroke-width:0.5;" x1="258.5" x2="611.5" y1="476" y2="476"/><ellipse cx="268.5" cy="490.3047" fill="#84BE84" rx="3" ry="3" style="stroke:#038048;stroke-width:1.0;"/><text fill="#000000" font-family="sans-serif" font-size="14" font-style="italic" lengthAdjust="spacing" textLength="329" x="277.5" y="494.5332">SelectAction(player: Player, actions: Actions): Action</text></g><!--class SelectAggressiveAction--><g id="elem_SelectAggressiveAction"><rect codeLine="23" fill="#F1F1F1" height="65.6094" id="SelectAggressiveAction" rx="2.5" ry="2.5" style="stroke:#181818;stroke-width:0.5;" width="355" x="112.5" y="563"/><ellipse cx="211.75" cy="579" fill="#ADD1B2" rx="11" ry="11" style="stroke:#181818;stroke-width:1.0;"/><path d="M214.5156,574.875 Q214.6719,574.6563 214.8594,574.5469 Q215.0469,574.4375 215.2656,574.4375 Q215.6406,574.4375 215.875,574.7031 Q216.1094,574.9531 216.1094,575.5625 L216.1094,577.0156 Q216.1094,577.625 215.875,577.8906 Q215.6406,578.1563 215.2656,578.1563 Q214.9219,578.1563 214.7188,577.9531 Q214.5156,577.7656 214.4063,577.25 Q214.3594,576.8906 214.1719,576.7031 Q213.8438,576.3281 213.2344,576.1094 Q212.625,575.8906 212,575.8906 Q211.2344,575.8906 210.5938,576.2188 Q209.9688,576.5469 209.4688,577.2969 Q208.9844,578.0469 208.9844,579.0781 L208.9844,580.1719 Q208.9844,581.4063 209.875,582.2344 Q210.7656,583.0469 212.3594,583.0469 Q213.2969,583.0469 213.9531,582.7969 Q214.3438,582.6406 214.7656,582.2031 Q215.0313,581.9375 215.1719,581.8594 Q215.3281,581.7813 215.5313,581.7813 Q215.8594,581.7813 216.1094,582.0469 Q216.375,582.2969 216.375,582.6406 Q216.375,582.9844 216.0313,583.3906 Q215.5313,583.9688 214.7344,584.2969 Q213.6563,584.75 212.3594,584.75 Q210.8438,584.75 209.6406,584.125 Q208.6563,583.625 207.9688,582.5625 Q207.2813,581.4844 207.2813,580.2031 L207.2813,579.0469 Q207.2813,577.7188 207.8906,576.5781 Q208.5156,575.4219 209.6094,574.8125 Q210.7031,574.1875 211.9375,574.1875 Q212.6719,574.1875 213.3125,574.3594 Q213.9688,574.5156 214.5156,574.875 Z " fill="#000000"/><text fill="#000000" font-family="sans-serif" font-size="14" lengthAdjust="spacing" textLength="148" x="232.25" y="584.7285">SelectAggressiveAction</text><line style="stroke:#181818;stroke-width:0.5;" x1="113.5" x2="466.5" y1="595" y2="595"/><line style="stroke:#181818;stroke-width:0.5;" x1="113.5" x2="466.5" y1="603" y2="603"/><ellipse cx="123.5" cy="617.3047" fill="#84BE84" rx="3" ry="3" style="stroke:#038048;stroke-width:1.0;"/><text fill="#000000" font-family="sans-serif" font-size="14" lengthAdjust="spacing" textLength="329" x="132.5" y="621.5332">SelectAction(player: Player, actions: Actions): Action</text></g><!--class SelectActionInteractively--><g id="elem_SelectActionInteractively"><rect codeLine="27" fill="#F1F1F1" height="65.6094" id="SelectActionInteractively" rx="2.5" ry="2.5" style="stroke:#181818;stroke-width:0.5;" width="355" x="502.5" y="563"/><ellipse cx="599.25" cy="579" fill="#ADD1B2" rx="11" ry="11" style="stroke:#181818;stroke-width:1.0;"/><path d="M602.0156,574.875 Q602.1719,574.6563 602.3594,574.5469 Q602.5469,574.4375 602.7656,574.4375 Q603.1406,574.4375 603.375,574.7031 Q603.6094,574.9531 603.6094,575.5625 L603.6094,577.0156 Q603.6094,577.625 603.375,577.8906 Q603.1406,578.1563 602.7656,578.1563 Q602.4219,578.1563 602.2188,577.9531 Q602.0156,577.7656 601.9063,577.25 Q601.8594,576.8906 601.6719,576.7031 Q601.3438,576.3281 600.7344,576.1094 Q600.125,575.8906 599.5,575.8906 Q598.7344,575.8906 598.0938,576.2188 Q597.4688,576.5469 596.9688,577.2969 Q596.4844,578.0469 596.4844,579.0781 L596.4844,580.1719 Q596.4844,581.4063 597.375,582.2344 Q598.2656,583.0469 599.8594,583.0469 Q600.7969,583.0469 601.4531,582.7969 Q601.8438,582.6406 602.2656,582.2031 Q602.5313,581.9375 602.6719,581.8594 Q602.8281,581.7813 603.0313,581.7813 Q603.3594,581.7813 603.6094,582.0469 Q603.875,582.2969 603.875,582.6406 Q603.875,582.9844 603.5313,583.3906 Q603.0313,583.9688 602.2344,584.2969 Q601.1563,584.75 599.8594,584.75 Q598.3438,584.75 597.1406,584.125 Q596.1563,583.625 595.4688,582.5625 Q594.7813,581.4844 594.7813,580.2031 L594.7813,579.0469 Q594.7813,577.7188 595.3906,576.5781 Q596.0156,575.4219 597.1094,574.8125 Q598.2031,574.1875 599.4375,574.1875 Q600.1719,574.1875 600.8125,574.3594 Q601.4688,574.5156 602.0156,574.875 Z " fill="#000000"/><text fill="#000000" font-family="sans-serif" font-size="14" lengthAdjust="spacing" textLength="153" x="619.75" y="584.7285">SelectActionInteractively</text><line style="stroke:#181818;stroke-width:0.5;" x1="503.5" x2="856.5" y1="595" y2="595"/><line style="stroke:#181818;stroke-width:0.5;" x1="503.5" x2="856.5" y1="603" y2="603"/><ellipse cx="513.5" cy="617.3047" fill="#84BE84" rx="3" ry="3" style="stroke:#038048;stroke-width:1.0;"/><text fill="#000000" font-family="sans-serif" font-size="14" lengthAdjust="spacing" textLength="329" x="522.5" y="621.5332">SelectAction(player: Player, actions: Actions): Action</text></g><!--class Player--><g id="elem_Player"><rect codeLine="35" fill="#ADD8E6" height="153.6563" id="Player" rx="2.5" ry="2.5" style="stroke:#00008B;stroke-width:2.0;" width="287" x="305.5" y="203.5"/><ellipse cx="424.75" cy="219.5" fill="#ADD1B2" rx="11" ry="11" style="stroke:#181818;stroke-width:1.0;"/><path d="M427.5156,215.375 Q427.6719,215.1563 427.8594,215.0469 Q428.0469,214.9375 428.2656,214.9375 Q428.6406,214.9375 428.875,215.2031 Q429.1094,215.4531 429.1094,216.0625 L429.1094,217.5156 Q429.1094,218.125 428.875,218.3906 Q428.6406,218.6563 428.2656,218.6563 Q427.9219,218.6563 427.7188,218.4531 Q427.5156,218.2656 427.4063,217.75 Q427.3594,217.3906 427.1719,217.2031 Q426.8438,216.8281 426.2344,216.6094 Q425.625,216.3906 425,216.3906 Q424.2344,216.3906 423.5938,216.7188 Q422.9688,217.0469 422.4688,217.7969 Q421.9844,218.5469 421.9844,219.5781 L421.9844,220.6719 Q421.9844,221.9063 422.875,222.7344 Q423.7656,223.5469 425.3594,223.5469 Q426.2969,223.5469 426.9531,223.2969 Q427.3438,223.1406 427.7656,222.7031 Q428.0313,222.4375 428.1719,222.3594 Q428.3281,222.2813 428.5313,222.2813 Q428.8594,222.2813 429.1094,222.5469 Q429.375,222.7969 429.375,223.1406 Q429.375,223.4844 429.0313,223.8906 Q428.5313,224.4688 427.7344,224.7969 Q426.6563,225.25 425.3594,225.25 Q423.8438,225.25 422.6406,224.625 Q421.6563,224.125 420.9688,223.0625 Q420.2813,221.9844 420.2813,220.7031 L420.2813,219.5469 Q420.2813,218.2188 420.8906,217.0781 Q421.5156,215.9219 422.6094,215.3125 Q423.7031,214.6875 424.9375,214.6875 Q425.6719,214.6875 426.3125,214.8594 Q426.9688,215.0156 427.5156,215.375 Z " fill="#000000"/><text fill="#000000" font-family="sans-serif" font-size="14" lengthAdjust="spacing" textLength="40" x="445.25" y="225.2285">Player</text><line style="stroke:#00008B;stroke-width:2.0;" x1="306.5" x2="591.5" y1="235.5" y2="235.5"/><line style="stroke:#00008B;stroke-width:2.0;" x1="306.5" x2="591.5" y1="243.5" y2="243.5"/><ellipse cx="316.5" cy="257.8047" fill="#84BE84" rx="3" ry="3" style="stroke:#038048;stroke-width:1.0;"/><text fill="#000000" font-family="sans-serif" font-size="14" lengthAdjust="spacing" textLength="109" x="325.5" y="262.0332">GetPawn(): Pawn</text><ellipse cx="316.5" cy="275.4141" fill="#84BE84" rx="3" ry="3" style="stroke:#038048;stroke-width:1.0;"/><text fill="#000000" font-family="sans-serif" font-size="14" lengthAdjust="spacing" textLength="72" x="325.5" y="279.6426">TakeTurn()</text><ellipse cx="316.5" cy="293.0234" fill="#84BE84" rx="3" ry="3" style="stroke:#038048;stroke-width:1.0;"/><text fill="#000000" font-family="sans-serif" font-size="14" lengthAdjust="spacing" textLength="186" x="325.5" y="297.252">GetPossibleActions(): Actions</text><ellipse cx="316.5" cy="310.6328" fill="#84BE84" rx="3" ry="3" style="stroke:#038048;stroke-width:1.0;"/><text fill="#000000" font-family="sans-serif" font-size="14" font-weight="bold" lengthAdjust="spacing" textLength="261" x="325.5" y="314.8613">SelectAction(actions: Actions): Action</text><ellipse cx="316.5" cy="328.2422" fill="#84BE84" rx="3" ry="3" style="stroke:#038048;stroke-width:1.0;"/><text fill="#000000" font-family="sans-serif" font-size="14" lengthAdjust="spacing" textLength="145" x="325.5" y="332.4707">Perform(action: Action)</text><ellipse cx="316.5" cy="345.8516" fill="#84BE84" rx="3" ry="3" style="stroke:#038048;stroke-width:1.0;"/><text fill="#000000" font-family="sans-serif" font-size="14" lengthAdjust="spacing" textLength="205" x="325.5" y="350.0801">PerformIfPossible(action: Action)</text></g><!--class Pawn--><g id="elem_Pawn"><rect codeLine="46" fill="#F1F1F1" height="83.2188" id="Pawn" rx="2.5" ry="2.5" style="stroke:#181818;stroke-width:0.5;" width="282" x="230" y="42"/><ellipse cx="349.75" cy="58" fill="#ADD1B2" rx="11" ry="11" style="stroke:#181818;stroke-width:1.0;"/><path d="M352.5156,53.875 Q352.6719,53.6563 352.8594,53.5469 Q353.0469,53.4375 353.2656,53.4375 Q353.6406,53.4375 353.875,53.7031 Q354.1094,53.9531 354.1094,54.5625 L354.1094,56.0156 Q354.1094,56.625 353.875,56.8906 Q353.6406,57.1563 353.2656,57.1563 Q352.9219,57.1563 352.7188,56.9531 Q352.5156,56.7656 352.4063,56.25 Q352.3594,55.8906 352.1719,55.7031 Q351.8438,55.3281 351.2344,55.1094 Q350.625,54.8906 350,54.8906 Q349.2344,54.8906 348.5938,55.2188 Q347.9688,55.5469 347.4688,56.2969 Q346.9844,57.0469 346.9844,58.0781 L346.9844,59.1719 Q346.9844,60.4063 347.875,61.2344 Q348.7656,62.0469 350.3594,62.0469 Q351.2969,62.0469 351.9531,61.7969 Q352.3438,61.6406 352.7656,61.2031 Q353.0313,60.9375 353.1719,60.8594 Q353.3281,60.7813 353.5313,60.7813 Q353.8594,60.7813 354.1094,61.0469 Q354.375,61.2969 354.375,61.6406 Q354.375,61.9844 354.0313,62.3906 Q353.5313,62.9688 352.7344,63.2969 Q351.6563,63.75 350.3594,63.75 Q348.8438,63.75 347.6406,63.125 Q346.6563,62.625 345.9688,61.5625 Q345.2813,60.4844 345.2813,59.2031 L345.2813,58.0469 Q345.2813,56.7188 345.8906,55.5781 Q346.5156,54.4219 347.6094,53.8125 Q348.7031,53.1875 349.9375,53.1875 Q350.6719,53.1875 351.3125,53.3594 Q351.9688,53.5156 352.5156,53.875 Z " fill="#000000"/><text fill="#000000" font-family="sans-serif" font-size="14" lengthAdjust="spacing" textLength="34" x="370.25" y="63.7285">Pawn</text><line style="stroke:#181818;stroke-width:0.5;" x1="231" x2="511" y1="74" y2="74"/><rect fill="none" height="6" style="stroke:#C82930;stroke-width:1.0;" width="6" x="238" y="85.3047"/><text fill="#000000" font-family="sans-serif" font-size="14" lengthAdjust="spacing" textLength="78" x="250" y="92.5332">name: string</text><line style="stroke:#181818;stroke-width:0.5;" x1="231" x2="511" y1="99.6094" y2="99.6094"/><ellipse cx="241" cy="113.9141" fill="#84BE84" rx="3" ry="3" style="stroke:#038048;stroke-width:1.0;"/><text fill="#000000" font-family="sans-serif" font-size="14" lengthAdjust="spacing" textLength="256" x="250" y="118.1426">MoveToLocation(newLocation: Location)</text></g><!--class ActionKind--><g id="elem_ActionKind"><rect codeLine="54" fill="#F1F1F1" height="188.875" id="ActionKind" rx="2.5" ry="2.5" style="stroke:#181818;stroke-width:0.5;" width="99" x="849.5" y="186"/><ellipse cx="864.5" cy="202" fill="#EB937F" rx="11" ry="11" style="stroke:#181818;stroke-width:1.0;"/><path d="M863.3594,202.7969 L863.3594,205.2969 L867.6875,205.2969 L867.6875,204.375 Q867.6875,203.7656 867.9219,203.5 Q868.1719,203.2344 868.5469,203.2344 Q868.9219,203.2344 869.1563,203.5 Q869.3906,203.7656 869.3906,204.375 L869.3906,207 L861.3906,207 Q860.7656,207 860.5,206.7656 Q860.25,206.5313 860.25,206.1406 Q860.25,205.7656 860.5156,205.5313 Q860.7813,205.2969 861.3906,205.2969 L861.6563,205.2969 L861.6563,198.6406 L861.3906,198.6406 Q860.7656,198.6406 860.5,198.4063 Q860.25,198.1719 860.25,197.7813 Q860.25,197.4063 860.5,197.1719 Q860.7656,196.9375 861.3906,196.9375 L869.0156,196.9375 L869.0156,199.5313 Q869.0156,200.1406 868.7813,200.4063 Q868.5625,200.6563 868.1719,200.6563 Q867.7969,200.6563 867.5625,200.4063 Q867.3281,200.1406 867.3281,199.5313 L867.3281,198.6406 L863.3594,198.6406 L863.3594,201.0938 L864.8438,201.0938 Q864.8438,200.4375 864.9688,200.25 Q865.2344,199.8438 865.7031,199.8438 Q866.0781,199.8438 866.3125,200.1094 Q866.5469,200.3594 866.5469,200.9688 L866.5469,202.9375 Q866.5469,203.4844 866.4219,203.6719 Q866.1563,204.0625 865.7031,204.0625 Q865.2344,204.0625 864.9688,203.6563 Q864.8438,203.4688 864.8438,202.7969 L863.3594,202.7969 Z " fill="#000000"/><text fill="#000000" font-family="sans-serif" font-size="14" lengthAdjust="spacing" textLength="67" x="878.5" y="207.7285">ActionKind</text><line style="stroke:#181818;stroke-width:0.5;" x1="850.5" x2="947.5" y1="218" y2="218"/><text fill="#000000" font-family="sans-serif" font-size="14" lengthAdjust="spacing" textLength="70" x="855.5" y="236.5332">Aggressive</text><text fill="#000000" font-family="sans-serif" font-size="14" lengthAdjust="spacing" textLength="85" x="855.5" y="254.1426">HandleObject</text><text fill="#000000" font-family="sans-serif" font-size="14" lengthAdjust="spacing" textLength="43" x="855.5" y="271.752">Helpful</text><text fill="#000000" font-family="sans-serif" font-size="14" lengthAdjust="spacing" textLength="68" x="855.5" y="289.3613">Investigate</text><text fill="#000000" font-family="sans-serif" font-size="14" lengthAdjust="spacing" textLength="34" x="855.5" y="306.9707">Move</text><text fill="#000000" font-family="sans-serif" font-size="14" lengthAdjust="spacing" textLength="26" x="855.5" y="324.5801">Quit</text><text fill="#000000" font-family="sans-serif" font-size="14" lengthAdjust="spacing" textLength="29" x="855.5" y="342.1895">Rest</text><text fill="#000000" font-family="sans-serif" font-size="14" lengthAdjust="spacing" textLength="57" x="855.5" y="359.7988">SkipTurn</text><line style="stroke:#181818;stroke-width:0.5;" x1="850.5" x2="947.5" y1="366.875" y2="366.875"/></g><!--class Location--><g id="elem_Location"><rect codeLine="67" fill="#F1F1F1" height="48" id="Location" rx="2.5" ry="2.5" style="stroke:#181818;stroke-width:0.5;" width="102" x="22" y="256.5"/><ellipse cx="37" cy="272.5" fill="#ADD1B2" rx="11" ry="11" style="stroke:#181818;stroke-width:1.0;"/><path d="M39.7656,268.375 Q39.9219,268.1563 40.1094,268.0469 Q40.2969,267.9375 40.5156,267.9375 Q40.8906,267.9375 41.125,268.2031 Q41.3594,268.4531 41.3594,269.0625 L41.3594,270.5156 Q41.3594,271.125 41.125,271.3906 Q40.8906,271.6563 40.5156,271.6563 Q40.1719,271.6563 39.9688,271.4531 Q39.7656,271.2656 39.6563,270.75 Q39.6094,270.3906 39.4219,270.2031 Q39.0938,269.8281 38.4844,269.6094 Q37.875,269.3906 37.25,269.3906 Q36.4844,269.3906 35.8438,269.7188 Q35.2188,270.0469 34.7188,270.7969 Q34.2344,271.5469 34.2344,272.5781 L34.2344,273.6719 Q34.2344,274.9063 35.125,275.7344 Q36.0156,276.5469 37.6094,276.5469 Q38.5469,276.5469 39.2031,276.2969 Q39.5938,276.1406 40.0156,275.7031 Q40.2813,275.4375 40.4219,275.3594 Q40.5781,275.2813 40.7813,275.2813 Q41.1094,275.2813 41.3594,275.5469 Q41.625,275.7969 41.625,276.1406 Q41.625,276.4844 41.2813,276.8906 Q40.7813,277.4688 39.9844,277.7969 Q38.9063,278.25 37.6094,278.25 Q36.0938,278.25 34.8906,277.625 Q33.9063,277.125 33.2188,276.0625 Q32.5313,274.9844 32.5313,273.7031 L32.5313,272.5469 Q32.5313,271.2188 33.1406,270.0781 Q33.7656,268.9219 34.8594,268.3125 Q35.9531,267.6875 37.1875,267.6875 Q37.9219,267.6875 38.5625,267.8594 Q39.2188,268.0156 39.7656,268.375 Z " fill="#000000"/><text fill="#000000" font-family="sans-serif" font-size="14" lengthAdjust="spacing" textLength="54" x="59" y="278.2285">Location</text><line style="stroke:#181818;stroke-width:0.5;" x1="23" x2="123" y1="288.5" y2="288.5"/><line style="stroke:#181818;stroke-width:0.5;" x1="23" x2="123" y1="296.5" y2="296.5"/></g><!--class World--><g id="elem_World"><rect codeLine="71" fill="#F1F1F1" height="48" id="World" rx="2.5" ry="2.5" style="stroke:#181818;stroke-width:0.5;" width="89" x="28.5" y="59.5"/><ellipse cx="43.5" cy="75.5" fill="#ADD1B2" rx="11" ry="11" style="stroke:#181818;stroke-width:1.0;"/><path d="M46.2656,71.375 Q46.4219,71.1563 46.6094,71.0469 Q46.7969,70.9375 47.0156,70.9375 Q47.3906,70.9375 47.625,71.2031 Q47.8594,71.4531 47.8594,72.0625 L47.8594,73.5156 Q47.8594,74.125 47.625,74.3906 Q47.3906,74.6563 47.0156,74.6563 Q46.6719,74.6563 46.4688,74.4531 Q46.2656,74.2656 46.1563,73.75 Q46.1094,73.3906 45.9219,73.2031 Q45.5938,72.8281 44.9844,72.6094 Q44.375,72.3906 43.75,72.3906 Q42.9844,72.3906 42.3438,72.7188 Q41.7188,73.0469 41.2188,73.7969 Q40.7344,74.5469 40.7344,75.5781 L40.7344,76.6719 Q40.7344,77.9063 41.625,78.7344 Q42.5156,79.5469 44.1094,79.5469 Q45.0469,79.5469 45.7031,79.2969 Q46.0938,79.1406 46.5156,78.7031 Q46.7813,78.4375 46.9219,78.3594 Q47.0781,78.2813 47.2813,78.2813 Q47.6094,78.2813 47.8594,78.5469 Q48.125,78.7969 48.125,79.1406 Q48.125,79.4844 47.7813,79.8906 Q47.2813,80.4688 46.4844,80.7969 Q45.4063,81.25 44.1094,81.25 Q42.5938,81.25 41.3906,80.625 Q40.4063,80.125 39.7188,79.0625 Q39.0313,77.9844 39.0313,76.7031 L39.0313,75.5469 Q39.0313,74.2188 39.6406,73.0781 Q40.2656,71.9219 41.3594,71.3125 Q42.4531,70.6875 43.6875,70.6875 Q44.4219,70.6875 45.0625,70.8594 Q45.7188,71.0156 46.2656,71.375 Z " fill="#000000"/><text fill="#000000" font-family="sans-serif" font-size="14" lengthAdjust="spacing" textLength="37" x="69.5" y="81.2285">World</text><line style="stroke:#181818;stroke-width:0.5;" x1="29.5" x2="116.5" y1="91.5" y2="91.5"/><line style="stroke:#181818;stroke-width:0.5;" x1="29.5" x2="116.5" y1="99.5" y2="99.5"/></g><!--reverse link Action to MoveAction--><g id="link_Action_MoveAction"><path codeLine="12" d="M767.5687,336.127 C799.5687,373.657 834.14,414.2 860.2,444.77 " fill="none" id="Action-backto-MoveAction" style="stroke:#181818;stroke-width:1.0;"/><polygon fill="none" points="755.89,322.43,763.0031,340.0199,772.1344,332.2341,755.89,322.43" style="stroke:#181818;stroke-width:1.0;"/></g><!--reverse link Action to SkipTurnAction--><g id="link_Action_SkipTurnAction"><path codeLine="16" d="M719.4206,340.4236 C718.4206,377.9536 717.44,414.2 716.62,444.77 " fill="none" id="Action-backto-SkipTurnAction" style="stroke:#181818;stroke-width:1.0;"/><polygon fill="none" points="719.9,322.43,713.4227,340.2638,725.4184,340.5834,719.9,322.43" style="stroke:#181818;stroke-width:1.0;"/></g><!--reverse link SelectActionStrategy to SelectAggressiveAction--><g id="link_SelectActionStrategy_SelectAggressiveAction"><path codeLine="31" d="M384.0254,513.9415 C362.3754,532.6015 348.84,544.27 327.21,562.92 " fill="none" id="SelectActionStrategy-backto-SelectAggressiveAction" style="stroke:#181818;stroke-width:1.0;"/><polygon fill="none" points="397.66,502.19,380.1083,509.3967,387.9426,518.4864,397.66,502.19" style="stroke:#181818;stroke-width:1.0;"/></g><!--reverse link SelectActionStrategy to SelectActionInteractively--><g id="link_SelectActionStrategy_SelectActionInteractively"><path codeLine="32" d="M513.8134,510.2111 C550.3834,528.8711 580.34,544.15 616.96,562.84 " fill="none" id="SelectActionStrategy-backto-SelectActionInteractively" style="stroke:#181818;stroke-width:1.0;"/><polygon fill="none" points="497.78,502.03,511.0864,515.5556,516.5404,504.8666,497.78,502.03" style="stroke:#181818;stroke-width:1.0;"/></g><!--link Player to SelectActionStrategy--><g id="link_Player_SelectActionStrategy"><path codeLine="44" d="M443.29,357.63 C441.24,384.82 439.4974,408.0467 437.8874,429.5767 " fill="none" id="Player-to-SelectActionStrategy" style="stroke:#181818;stroke-width:1.0;"/><polygon fill="#181818" points="437.44,435.56,442.1,426.8833,437.8129,430.5739,434.1223,426.2868,437.44,435.56" style="stroke:#181818;stroke-width:1.0;"/><text fill="#000000" font-family="sans-serif" font-size="13" lengthAdjust="spacing" textLength="7" x="425.4754" y="425.2264">1</text></g><!--link Pawn to Player--><g id="link_Pawn_Player"><path codeLine="51" d="M389.5796,130.9503 C398.6096,153.5103 403.4119,165.5489 414.0319,192.0889 " fill="none" id="Pawn-Player" style="stroke:#181818;stroke-width:1.0;"/><polygon fill="#181818" points="387.35,125.38,386.9809,135.2219,389.208,130.022,394.408,132.2491,387.35,125.38" style="stroke:#181818;stroke-width:1.0;"/><polygon fill="#181818" points="418.49,203.23,419.9746,196.1734,414.0319,192.0889,412.5472,199.1455,418.49,203.23" style="stroke:#181818;stroke-width:1.0;"/></g><!--link Player to Action--><g id="link_Player_Action"><path codeLine="52" d="M592.7,280.5 C604.4,280.5 610.09,280.5 621.78,280.5 " fill="none" id="Player-to-Action" style="stroke:#181818;stroke-width:1.0;stroke-dasharray:7.0,7.0;"/><polygon fill="#181818" points="627.78,280.5,618.78,276.5,622.78,280.5,618.78,284.5,627.78,280.5" style="stroke:#181818;stroke-width:1.0;"/></g><!--link Action to ActionKind--><g id="link_Action_ActionKind"><path codeLine="65" d="M814.17,280.5 C825.88,280.5 831.59,280.5 843.3,280.5 " fill="none" id="Action-to-ActionKind" style="stroke:#181818;stroke-width:1.0;"/><polygon fill="#181818" points="849.3,280.5,840.3,276.5,844.3,280.5,840.3,284.5,849.3,280.5" style="stroke:#181818;stroke-width:1.0;"/><text fill="#000000" font-family="sans-serif" font-size="13" lengthAdjust="spacing" textLength="5" x="832.3969" y="276.9036">*</text></g><!--reverse link Location to Location--><g id="link_Location_Location"><path codeLine="69" d="M136.2005,256.8224 C155.2805,256.0624 159,264.27 159,280.5 C159,296.73 143.29,304.46 124.21,303.7 " fill="none" id="Location-backto-Location" style="stroke:#181818;stroke-width:1.0;"/><polygon fill="none" points="124.21,257.3,130.3644,261.058,136.2005,256.8224,130.046,253.0644,124.21,257.3" style="stroke:#181818;stroke-width:1.0;"/><text fill="#000000" font-family="sans-serif" font-size="13" lengthAdjust="spacing" textLength="116" x="165" y="285.9951">connectedLocations</text></g><!--link World to Location--><g id="link_World_Location"><path codeLine="74" d="M73,119.63 C73,157.16 73,212.89 73,250.4 " fill="none" id="World-Location" style="stroke:#181818;stroke-width:1.0;"/><polygon fill="#181818" points="73,107.63,69,113.63,73,119.63,77,113.63,73,107.63" style="stroke:#181818;stroke-width:1.0;"/><polygon fill="#181818" points="73,256.4,77,247.4,73,251.4,69,247.4,73,256.4" style="stroke:#181818;stroke-width:1.0;"/><text fill="#000000" font-family="sans-serif" font-size="13" lengthAdjust="spacing" textLength="5" x="62.3344" y="245.7145">*</text></g><!--link Pawn to Location--><g id="link_Pawn_Location"><path codeLine="75" d="M308.89,125.14 C248.17,164.88 162.8604,220.6944 113.4604,253.0244 " fill="none" id="Pawn-to-Location" style="stroke:#181818;stroke-width:1.0;"/><polygon fill="#181818" points="108.44,256.31,118.1611,254.7285,112.6237,253.572,113.7802,248.0346,108.44,256.31" style="stroke:#181818;stroke-width:1.0;"/><text fill="#000000" font-family="sans-serif" font-size="13" lengthAdjust="spacing" textLength="7" x="109.6246" y="245.6015">1</text></g><!--SRC=[hLHBYzim4BxxLuZquYHroXvwyGP3oq8Rsj9j4-XPjYTUDOfa93aXPFFVAzcIBJy2FQp0M9hvvlL9CoNE3hW0DCFv2PYg1CJnwMCsGzSWG7efNe1w0Q7FoAwCOYdHfqmHpZonMKjqnQbK0cVgXfv0PeAK1XREOwJ5X1NtuSyWzbmSGyAa8WLMNCJe6P_Pl3Mv1OCSPWZzu2UmgUWZbhxWwbcwdQUEgZ9wJMmXOzVR0obtbM0MNJiVoAO2323z85uLhd0RRmiKCjN0jbgXeBXu_djC-TYmfFW2Xghw_nxXMYnZ6rBEuudWlPX58K1ACa7Rygr3rTeDKs0AqH7fvOsZJTAuVeroVcRHdOB_tt2SVk0NsMIAtb72O9LociTFM1m-qmeUKzrcCIN5YqhriLVq5r3ccPiMCNzFiyC7C4yfd0_WN6UVKfk-35icf8TRfqcFphlqhJ-aYMVdsh31Ez1yZDZiNHwJM7iXbfE6nqHtqODfhGcoUqHg7ZoE8iJm4KOJP5atyuv_vnckIsHmTliOkTrKDWlJbKb7jttuwnM5lLfPL6C1h3fQ_JV2SY-hxXcreg-OvHH-fdzrTPqGQBclQ7lUi1Cq4mvwKwaz_Af8P_rROqUpnI_9pHbX7bVDy49_NSO-htfUEbhij6oFrw0ROwsGHn7g6CquOxemo9r83doZFrpGt7fkzbS_rKQqYDeidQFcRiob6nsQFNYgspy0]--></g></svg>