<?xml version="1.0" encoding="us-ascii" standalone="no"?><svg xmlns="http://www.w3.org/2000/svg" xmlns:xlink="http://www.w3.org/1999/xlink" contentStyleType="text/css" height="380px" preserveAspectRatio="none" style="width:532px;height:380px;background:#FFFFFF;" version="1.1" viewBox="0 0 532 380" width="532px" zoomAndPan="magnify"><defs/><g><rect fill="#FFFFFF" height="52.3516" style="stroke:#181818;stroke-width:1.0;" width="10" x="31" y="47.6094"/><rect fill="#FFFFFF" height="264.4609" style="stroke:#181818;stroke-width:1.0;" width="10" x="148" y="69.9609"/><rect fill="#FFFFFF" height="30.3516" style="stroke:#181818;stroke-width:1.0;" width="10" x="153" y="204.0156"/><rect fill="#FFFFFF" height="30.3516" style="stroke:#181818;stroke-width:1.0;" width="10" x="153" y="295.0703"/><rect fill="#FFFFFF" height="60.7031" style="stroke:#181818;stroke-width:1.0;" width="10" x="297" y="173.6641"/><rect fill="#FFFFFF" height="60.7031" style="stroke:#181818;stroke-width:1.0;" width="10" x="450" y="264.7188"/><line style="stroke:#181818;stroke-width:0.5;stroke-dasharray:5.0,5.0;" x1="36" x2="36" y1="37.6094" y2="343.4219"/><line style="stroke:#181818;stroke-width:0.5;stroke-dasharray:5.0,5.0;" x1="152.5" x2="152.5" y1="37.6094" y2="343.4219"/><line style="stroke:#181818;stroke-width:0.5;stroke-dasharray:5.0,5.0;" x1="301.5" x2="301.5" y1="37.6094" y2="343.4219"/><line style="stroke:#181818;stroke-width:0.5;stroke-dasharray:5.0,5.0;" x1="454.5" x2="454.5" y1="37.6094" y2="343.4219"/><rect fill="#E2E2F0" height="31.6094" rx="2.5" ry="2.5" style="stroke:#181818;stroke-width:0.5;" width="62" x="5" y="5"/><text fill="#000000" font-family="sans-serif" font-size="14" lengthAdjust="spacing" textLength="48" x="12" y="26.5332">Context</text><rect fill="#E2E2F0" height="31.6094" rx="2.5" ry="2.5" style="stroke:#181818;stroke-width:0.5;" width="62" x="5" y="342.4219"/><text fill="#000000" font-family="sans-serif" font-size="14" lengthAdjust="spacing" textLength="48" x="12" y="363.9551">Context</text><rect fill="#E2E2F0" height="31.6094" rx="2.5" ry="2.5" style="stroke:#181818;stroke-width:0.5;" width="119" x="93.5" y="5"/><text fill="#000000" font-family="sans-serif" font-size="14" lengthAdjust="spacing" textLength="105" x="100.5" y="26.5332">ConcreteSubject</text><rect fill="#E2E2F0" height="31.6094" rx="2.5" ry="2.5" style="stroke:#181818;stroke-width:0.5;" width="119" x="93.5" y="342.4219"/><text fill="#000000" font-family="sans-serif" font-size="14" lengthAdjust="spacing" textLength="105" x="100.5" y="363.9551">ConcreteSubject</text><rect fill="#E2E2F0" height="31.6094" rx="2.5" ry="2.5" style="stroke:#181818;stroke-width:0.5;" width="143" x="230.5" y="5"/><text fill="#000000" font-family="sans-serif" font-size="14" lengthAdjust="spacing" textLength="129" x="237.5" y="26.5332">ConcreteObserver 1</text><rect fill="#E2E2F0" height="31.6094" rx="2.5" ry="2.5" style="stroke:#181818;stroke-width:0.5;" width="143" x="230.5" y="342.4219"/><text fill="#000000" font-family="sans-serif" font-size="14" lengthAdjust="spacing" textLength="129" x="237.5" y="363.9551">ConcreteObserver 1</text><rect fill="#E2E2F0" height="31.6094" rx="2.5" ry="2.5" style="stroke:#181818;stroke-width:0.5;" width="143" x="383.5" y="5"/><text fill="#000000" font-family="sans-serif" font-size="14" lengthAdjust="spacing" textLength="129" x="390.5" y="26.5332">ConcreteObserver 2</text><rect fill="#E2E2F0" height="31.6094" rx="2.5" ry="2.5" style="stroke:#181818;stroke-width:0.5;" width="143" x="383.5" y="342.4219"/><text fill="#000000" font-family="sans-serif" font-size="14" lengthAdjust="spacing" textLength="129" x="390.5" y="363.9551">ConcreteObserver 2</text><rect fill="#FFFFFF" height="52.3516" style="stroke:#181818;stroke-width:1.0;" width="10" x="31" y="47.6094"/><rect fill="#FFFFFF" height="264.4609" style="stroke:#181818;stroke-width:1.0;" width="10" x="148" y="69.9609"/><rect fill="#FFFFFF" height="30.3516" style="stroke:#181818;stroke-width:1.0;" width="10" x="153" y="204.0156"/><rect fill="#FFFFFF" height="30.3516" style="stroke:#181818;stroke-width:1.0;" width="10" x="153" y="295.0703"/><rect fill="#FFFFFF" height="60.7031" style="stroke:#181818;stroke-width:1.0;" width="10" x="297" y="173.6641"/><rect fill="#FFFFFF" height="60.7031" style="stroke:#181818;stroke-width:1.0;" width="10" x="450" y="264.7188"/><polygon fill="#181818" points="136,65.9609,146,69.9609,136,73.9609,140,69.9609" style="stroke:#181818;stroke-width:1.0;"/><line style="stroke:#181818;stroke-width:1.0;" x1="41" x2="142" y1="69.9609" y2="69.9609"/><text fill="#000000" font-family="sans-serif" font-size="13" lengthAdjust="spacing" textLength="88" x="48" y="65.1045">SetState(state)</text><line style="stroke:#181818;stroke-width:1.0;" x1="158" x2="200" y1="130.3125" y2="130.3125"/><line style="stroke:#181818;stroke-width:1.0;" x1="200" x2="200" y1="130.3125" y2="143.3125"/><line style="stroke:#181818;stroke-width:1.0;" x1="159" x2="200" y1="143.3125" y2="143.3125"/><polygon fill="#181818" points="169,139.3125,159,143.3125,169,147.3125,165,143.3125" style="stroke:#181818;stroke-width:1.0;"/><text fill="#000000" font-family="sans-serif" font-size="13" lengthAdjust="spacing" textLength="41" x="165" y="125.4561">Notify()</text><polygon fill="#181818" points="285,169.6641,295,173.6641,285,177.6641,289,173.6641" style="stroke:#181818;stroke-width:1.0;"/><line style="stroke:#181818;stroke-width:1.0;" x1="158" x2="291" y1="173.6641" y2="173.6641"/><text fill="#000000" font-family="sans-serif" font-size="13" lengthAdjust="spacing" textLength="49" x="165" y="168.8076">Update()</text><polygon fill="#181818" points="174,200.0156,164,204.0156,174,208.0156,170,204.0156" style="stroke:#181818;stroke-width:1.0;"/><line style="stroke:#181818;stroke-width:1.0;" x1="168" x2="296" y1="204.0156" y2="204.0156"/><text fill="#000000" font-family="sans-serif" font-size="13" lengthAdjust="spacing" textLength="60" x="180" y="199.1592">GetState()</text><polygon fill="#181818" points="290,230.3672,300,234.3672,290,238.3672,294,234.3672" style="stroke:#181818;stroke-width:1.0;"/><line style="stroke:#181818;stroke-width:1.0;stroke-dasharray:2.0,2.0;" x1="158" x2="296" y1="234.3672" y2="234.3672"/><text fill="#000000" font-family="sans-serif" font-size="13" lengthAdjust="spacing" textLength="110" x="165" y="229.5107">return subjectState</text><polygon fill="#181818" points="438,260.7188,448,264.7188,438,268.7188,442,264.7188" style="stroke:#181818;stroke-width:1.0;"/><line style="stroke:#181818;stroke-width:1.0;" x1="158" x2="444" y1="264.7188" y2="264.7188"/><text fill="#000000" font-family="sans-serif" font-size="13" lengthAdjust="spacing" textLength="49" x="165" y="259.8623">Update()</text><polygon fill="#181818" points="174,291.0703,164,295.0703,174,299.0703,170,295.0703" style="stroke:#181818;stroke-width:1.0;"/><line style="stroke:#181818;stroke-width:1.0;" x1="168" x2="449" y1="295.0703" y2="295.0703"/><text fill="#000000" font-family="sans-serif" font-size="13" lengthAdjust="spacing" textLength="60" x="180" y="290.2139">GetState()</text><polygon fill="#181818" points="443,321.4219,453,325.4219,443,329.4219,447,325.4219" style="stroke:#181818;stroke-width:1.0;"/><line style="stroke:#181818;stroke-width:1.0;stroke-dasharray:2.0,2.0;" x1="158" x2="449" y1="325.4219" y2="325.4219"/><text fill="#000000" font-family="sans-serif" font-size="13" lengthAdjust="spacing" textLength="110" x="165" y="320.5654">return subjectState</text><!--SRC=[bP0n3u8m48Nt_eeB4mmET7HmON2JeV47b78cTO2c74J_lLU1XXgDkjnmz-wzByzfJzPOfpk2hEexmXjbe0UeX7iv6O-4QcokQ1Q9Ug-fcm7zX1xAMLQNNtHoqKaXj24xQKBE5nNi3Xm2Ur18YdYR3s4M6vKIBIO_AZwTUhANUrx4PLtozkpQOBJrOBvmM_-EQrYQ4qoY2-EFleDXRkCfJq1IB0w83F83WnJXzYk3_9-1oqsgUW00]--></g></svg>