<?xml version="1.0" encoding="us-ascii" standalone="no"?><svg xmlns="http://www.w3.org/2000/svg" xmlns:xlink="http://www.w3.org/1999/xlink" contentStyleType="text/css" height="275px" preserveAspectRatio="none" style="width:453px;height:275px;background:#FFFFFF;" version="1.1" viewBox="0 0 453 275" width="453px" zoomAndPan="magnify"><defs/><g><!--class Book--><g id="elem_Book"><rect codeLine="2" fill="#F1F1F1" height="136.0469" id="Book" rx="2.5" ry="2.5" style="stroke:#181818;stroke-width:0.5;" width="100" x="167" y="7"/><ellipse cx="198.2" cy="23" fill="#ADD1B2" rx="11" ry="11" style="stroke:#181818;stroke-width:1.0;"/><path d="M200.9656,18.875 Q201.1219,18.6563 201.3094,18.5469 Q201.4969,18.4375 201.7156,18.4375 Q202.0906,18.4375 202.325,18.7031 Q202.5594,18.9531 202.5594,19.5625 L202.5594,21.0156 Q202.5594,21.625 202.325,21.8906 Q202.0906,22.1563 201.7156,22.1563 Q201.3719,22.1563 201.1688,21.9531 Q200.9656,21.7656 200.8563,21.25 Q200.8094,20.8906 200.6219,20.7031 Q200.2938,20.3281 199.6844,20.1094 Q199.075,19.8906 198.45,19.8906 Q197.6844,19.8906 197.0438,20.2188 Q196.4188,20.5469 195.9188,21.2969 Q195.4344,22.0469 195.4344,23.0781 L195.4344,24.1719 Q195.4344,25.4063 196.325,26.2344 Q197.2156,27.0469 198.8094,27.0469 Q199.7469,27.0469 200.4031,26.7969 Q200.7938,26.6406 201.2156,26.2031 Q201.4813,25.9375 201.6219,25.8594 Q201.7781,25.7813 201.9813,25.7813 Q202.3094,25.7813 202.5594,26.0469 Q202.825,26.2969 202.825,26.6406 Q202.825,26.9844 202.4813,27.3906 Q201.9813,27.9688 201.1844,28.2969 Q200.1063,28.75 198.8094,28.75 Q197.2938,28.75 196.0906,28.125 Q195.1063,27.625 194.4188,26.5625 Q193.7313,25.4844 193.7313,24.2031 L193.7313,23.0469 Q193.7313,21.7188 194.3406,20.5781 Q194.9656,19.4219 196.0594,18.8125 Q197.1531,18.1875 198.3875,18.1875 Q199.1219,18.1875 199.7625,18.3594 Q200.4188,18.5156 200.9656,18.875 Z " fill="#000000"/><text fill="#000000" font-family="sans-serif" font-size="14" lengthAdjust="spacing" textLength="32" x="215.8" y="28.7285">Book</text><line style="stroke:#181818;stroke-width:0.5;" x1="168" x2="266" y1="39" y2="39"/><text fill="#000000" font-family="sans-serif" font-size="14" lengthAdjust="spacing" textLength="46" x="173" y="57.5332">title: str</text><text fill="#000000" font-family="sans-serif" font-size="14" lengthAdjust="spacing" textLength="65" x="173" y="75.1426">author: str</text><text fill="#000000" font-family="sans-serif" font-size="14" lengthAdjust="spacing" textLength="62" x="173" y="92.752">pages: int</text><line style="stroke:#181818;stroke-width:0.5;" x1="168" x2="266" y1="99.8281" y2="99.8281"/><ellipse cx="178" cy="114.1328" fill="#84BE84" rx="3" ry="3" style="stroke:#038048;stroke-width:1.0;"/><text fill="#000000" font-family="sans-serif" font-size="14" lengthAdjust="spacing" textLength="72" x="187" y="118.3613">print(): void</text><ellipse cx="178" cy="131.7422" fill="#84BE84" rx="3" ry="3" style="stroke:#038048;stroke-width:1.0;"/><text fill="#000000" font-family="sans-serif" font-size="14" lengthAdjust="spacing" textLength="74" x="187" y="135.9707">save(): void</text></g><path d="M302,48.5 L302,65.8516 L259,112.6328 L302,73.8516 L302,91.2031 A0,0 0 0 0 302,91.2031 L446,91.2031 A0,0 0 0 0 446,91.2031 L446,58.5 L436,48.5 L302,48.5 A0,0 0 0 0 302,48.5 " fill="#FEFFDD" style="stroke:#181818;stroke-width:0.5;"/><path d="M436,48.5 L436,58.5 L446,58.5 L436,48.5 " fill="#FEFFDD" style="stroke:#181818;stroke-width:0.5;"/><text fill="#000000" font-family="sans-serif" font-size="13" lengthAdjust="spacing" textLength="66" x="308" y="66.9951">Delegate to</text><text fill="#000000" font-family="sans-serif" font-size="13" lengthAdjust="spacing" textLength="123" x="308" y="83.3467">BookDatabase.save()</text><path d="M6,48.5 L6,91.2031 A0,0 0 0 0 6,91.2031 L132,91.2031 A0,0 0 0 0 132,91.2031 L132,73.8516 L171,130.2422 L132,65.8516 L132,58.5 L122,48.5 L6,48.5 A0,0 0 0 0 6,48.5 " fill="#FEFFDD" style="stroke:#181818;stroke-width:0.5;"/><path d="M122,48.5 L122,58.5 L132,58.5 L122,48.5 " fill="#FEFFDD" style="stroke:#181818;stroke-width:0.5;"/><text fill="#000000" font-family="sans-serif" font-size="13" lengthAdjust="spacing" textLength="66" x="12" y="66.9951">Delegate to</text><text fill="#000000" font-family="sans-serif" font-size="13" lengthAdjust="spacing" textLength="105" x="12" y="83.3467">BookPrinter.print()</text><!--class BookDatabase--><g id="elem_BookDatabase"><rect codeLine="20" fill="#F1F1F1" height="65.6094" id="BookDatabase" rx="2.5" ry="2.5" style="stroke:#181818;stroke-width:0.5;" width="171" x="28.5" y="203"/><ellipse cx="64.2" cy="219" fill="#ADD1B2" rx="11" ry="11" style="stroke:#181818;stroke-width:1.0;"/><path d="M66.9656,214.875 Q67.1219,214.6563 67.3094,214.5469 Q67.4969,214.4375 67.7156,214.4375 Q68.0906,214.4375 68.325,214.7031 Q68.5594,214.9531 68.5594,215.5625 L68.5594,217.0156 Q68.5594,217.625 68.325,217.8906 Q68.0906,218.1563 67.7156,218.1563 Q67.3719,218.1563 67.1688,217.9531 Q66.9656,217.7656 66.8563,217.25 Q66.8094,216.8906 66.6219,216.7031 Q66.2938,216.3281 65.6844,216.1094 Q65.075,215.8906 64.45,215.8906 Q63.6844,215.8906 63.0438,216.2188 Q62.4188,216.5469 61.9188,217.2969 Q61.4344,218.0469 61.4344,219.0781 L61.4344,220.1719 Q61.4344,221.4063 62.325,222.2344 Q63.2156,223.0469 64.8094,223.0469 Q65.7469,223.0469 66.4031,222.7969 Q66.7938,222.6406 67.2156,222.2031 Q67.4813,221.9375 67.6219,221.8594 Q67.7781,221.7813 67.9813,221.7813 Q68.3094,221.7813 68.5594,222.0469 Q68.825,222.2969 68.825,222.6406 Q68.825,222.9844 68.4813,223.3906 Q67.9813,223.9688 67.1844,224.2969 Q66.1063,224.75 64.8094,224.75 Q63.2938,224.75 62.0906,224.125 Q61.1063,223.625 60.4188,222.5625 Q59.7313,221.4844 59.7313,220.2031 L59.7313,219.0469 Q59.7313,217.7188 60.3406,216.5781 Q60.9656,215.4219 62.0594,214.8125 Q63.1531,214.1875 64.3875,214.1875 Q65.1219,214.1875 65.7625,214.3594 Q66.4188,214.5156 66.9656,214.875 Z " fill="#000000"/><text fill="#000000" font-family="sans-serif" font-size="14" lengthAdjust="spacing" textLength="93" x="82.8" y="224.7285">BookDatabase</text><line style="stroke:#181818;stroke-width:0.5;" x1="29.5" x2="198.5" y1="235" y2="235"/><line style="stroke:#181818;stroke-width:0.5;" x1="29.5" x2="198.5" y1="243" y2="243"/><ellipse cx="39.5" cy="257.3047" fill="#84BE84" rx="3" ry="3" style="stroke:#038048;stroke-width:1.0;"/><text fill="#000000" font-family="sans-serif" font-size="14" lengthAdjust="spacing" textLength="145" x="48.5" y="261.5332">save(book: Book): void</text></g><!--class BookPrinter--><g id="elem_BookPrinter"><rect codeLine="24" fill="#F1F1F1" height="65.6094" id="BookPrinter" rx="2.5" ry="2.5" style="stroke:#181818;stroke-width:0.5;" width="169" x="234.5" y="203"/><ellipse cx="277.85" cy="219" fill="#ADD1B2" rx="11" ry="11" style="stroke:#181818;stroke-width:1.0;"/><path d="M280.6156,214.875 Q280.7719,214.6563 280.9594,214.5469 Q281.1469,214.4375 281.3656,214.4375 Q281.7406,214.4375 281.975,214.7031 Q282.2094,214.9531 282.2094,215.5625 L282.2094,217.0156 Q282.2094,217.625 281.975,217.8906 Q281.7406,218.1563 281.3656,218.1563 Q281.0219,218.1563 280.8188,217.9531 Q280.6156,217.7656 280.5063,217.25 Q280.4594,216.8906 280.2719,216.7031 Q279.9438,216.3281 279.3344,216.1094 Q278.725,215.8906 278.1,215.8906 Q277.3344,215.8906 276.6938,216.2188 Q276.0688,216.5469 275.5688,217.2969 Q275.0844,218.0469 275.0844,219.0781 L275.0844,220.1719 Q275.0844,221.4063 275.975,222.2344 Q276.8656,223.0469 278.4594,223.0469 Q279.3969,223.0469 280.0531,222.7969 Q280.4438,222.6406 280.8656,222.2031 Q281.1313,221.9375 281.2719,221.8594 Q281.4281,221.7813 281.6313,221.7813 Q281.9594,221.7813 282.2094,222.0469 Q282.475,222.2969 282.475,222.6406 Q282.475,222.9844 282.1313,223.3906 Q281.6313,223.9688 280.8344,224.2969 Q279.7563,224.75 278.4594,224.75 Q276.9438,224.75 275.7406,224.125 Q274.7563,223.625 274.0688,222.5625 Q273.3813,221.4844 273.3813,220.2031 L273.3813,219.0469 Q273.3813,217.7188 273.9906,216.5781 Q274.6156,215.4219 275.7094,214.8125 Q276.8031,214.1875 278.0375,214.1875 Q278.7719,214.1875 279.4125,214.3594 Q280.0688,214.5156 280.6156,214.875 Z " fill="#000000"/><text fill="#000000" font-family="sans-serif" font-size="14" lengthAdjust="spacing" textLength="74" x="298.15" y="224.7285">BookPrinter</text><line style="stroke:#181818;stroke-width:0.5;" x1="235.5" x2="402.5" y1="235" y2="235"/><line style="stroke:#181818;stroke-width:0.5;" x1="235.5" x2="402.5" y1="243" y2="243"/><ellipse cx="245.5" cy="257.3047" fill="#84BE84" rx="3" ry="3" style="stroke:#038048;stroke-width:1.0;"/><text fill="#000000" font-family="sans-serif" font-size="14" lengthAdjust="spacing" textLength="143" x="254.5" y="261.5332">print(book: Book): void</text></g><!--link Book to BookDatabase--><g id="link_Book_BookDatabase"><path codeLine="28" d="M173.32,143.43 C159.94,164.08 149.1021,180.8142 138.0121,197.9342 " fill="none" id="Book-to-BookDatabase" style="stroke:#181818;stroke-width:1.0;"/><polygon fill="#181818" points="134.75,202.97,143.0003,197.5911,137.4684,198.7735,136.2859,193.2416,134.75,202.97" style="stroke:#181818;stroke-width:1.0;"/></g><!--link Book to BookPrinter--><g id="link_Book_BookPrinter"><path codeLine="29" d="M260.26,143.43 C273.51,164.08 284.2308,180.7995 295.2108,197.9195 " fill="none" id="Book-to-BookPrinter" style="stroke:#181818;stroke-width:1.0;"/><polygon fill="#181818" points="298.45,202.97,296.9582,193.2348,295.7507,198.7612,290.2242,197.5537,298.45,202.97" style="stroke:#181818;stroke-width:1.0;"/></g><!--SRC=[TP0x3i8m38RtdC8Z2BK7oC20UW2kuBPk6n4rLMAw8EvEuuG-9CYKtu_ljzrO305kpZtWfM1vRDYIXi1U93vvS7xJ4_OKD9YHHLucltnFPmspCsqA1PnfZRoL6XqJUDCF3AuJAwsbJSehijJZKi5ETCnNo5XZe3AX58qjH4fcMUfsg5ZpbtIFFkJBFEQErAoBVzto0TByTMHBUhV9rfEvtvQ4_zaZfosAwy7g6CqmzG40]--></g></svg>