<?xml version="1.0" encoding="us-ascii" standalone="no"?><svg xmlns="http://www.w3.org/2000/svg" xmlns:xlink="http://www.w3.org/1999/xlink" contentStyleType="text/css" height="231px" preserveAspectRatio="none" style="width:568px;height:231px;background:#FFFFFF;" version="1.1" viewBox="0 0 568 231" width="568px" zoomAndPan="magnify"><defs/><g><!--class Client--><g id="elem_Client"><rect codeLine="1" fill="#F1F1F1" height="65.6094" id="Client" rx="2.5" ry="2.5" style="stroke:#181818;stroke-width:0.5;" width="85" x="75" y="7"/><ellipse cx="97.65" cy="23" fill="#A9DCDF" rx="11" ry="11" style="stroke:#181818;stroke-width:1.0;"/><path d="M99.8375,24.7656 L95.6969,24.7656 L95.275,25.7969 L95.6969,25.7969 Q96.3063,25.7969 96.5719,26.0313 Q96.8375,26.2656 96.8375,26.6563 Q96.8375,27.0313 96.5719,27.2656 Q96.3063,27.5 95.6969,27.5 L93.4,27.5 Q92.7906,27.5 92.5406,27.2656 Q92.275,27.0313 92.275,26.6406 Q92.275,26.2656 92.5563,26.0313 Q92.8219,25.7813 93.4469,25.7969 L96.1188,19.1406 L95.0094,19.1406 Q94.4,19.1406 94.1344,18.9063 Q93.8688,18.6719 93.8688,18.2813 Q93.8688,17.9063 94.1344,17.6719 Q94.4,17.4375 95.0094,17.4375 L98.6813,17.4375 L102.0719,25.7969 Q102.6656,25.7969 102.8531,25.9375 Q103.2438,26.2031 103.2438,26.6563 Q103.2438,27.0313 102.9781,27.2656 Q102.7281,27.5 102.1188,27.5 L99.8219,27.5 Q99.2125,27.5 98.9469,27.2656 Q98.6813,27.0313 98.6813,26.6406 Q98.6813,26.2656 98.9469,26.0313 Q99.2125,25.7969 99.8219,25.7969 L100.2438,25.7969 L99.8375,24.7656 Z M99.1188,23.0625 L97.7594,19.6875 L96.3844,23.0625 L99.1188,23.0625 Z " fill="#000000"/><text fill="#000000" font-family="sans-serif" font-size="14" font-style="italic" lengthAdjust="spacing" textLength="36" x="113.35" y="28.7285">Client</text><line style="stroke:#181818;stroke-width:0.5;" x1="76" x2="159" y1="39" y2="39"/><line style="stroke:#181818;stroke-width:0.5;" x1="76" x2="159" y1="47" y2="47"/><text fill="#000000" font-family="sans-serif" font-size="14" lengthAdjust="spacing" textLength="73" x="81" y="65.5332">Operation()</text></g><g id="elem_GMN3"><path d="M6,133 L6,224.7578 A0,0 0 0 0 6,224.7578 L173,224.7578 A0,0 0 0 0 173,224.7578 L173,143 L163,133 L102.73,133 L110.94,73.12 L94.73,133 L6,133 A0,0 0 0 0 6,133 " fill="#FEFFDD" style="stroke:#181818;stroke-width:0.5;"/><path d="M163,133 L163,143 L173,143 L163,133 " fill="#FEFFDD" style="stroke:#181818;stroke-width:0.5;"/><text fill="#000000" font-family="sans-serif" font-size="13" lengthAdjust="spacing" textLength="72" x="12" y="151.4951">Operation() {</text><text fill="#000000" font-family="sans-serif" font-size="13" lengthAdjust="spacing" textLength="12" x="20" y="167.8467">...</text><text fill="#000000" font-family="sans-serif" font-size="13" lengthAdjust="spacing" textLength="138" x="20" y="184.1982">P = Prototype-&gt;Clone();</text><text fill="#000000" font-family="sans-serif" font-size="13" lengthAdjust="spacing" textLength="12" x="20" y="200.5498">...</text><text fill="#000000" font-family="sans-serif" font-size="13" lengthAdjust="spacing" textLength="4" x="12" y="216.9014">}</text></g><!--class Prototype--><g id="elem_Prototype"><rect codeLine="13" fill="#F1F1F1" height="65.6094" id="Prototype" rx="2.5" ry="2.5" style="stroke:#181818;stroke-width:0.5;" width="128" x="223.5" y="7"/><ellipse cx="254.25" cy="23" fill="#A9DCDF" rx="11" ry="11" style="stroke:#181818;stroke-width:1.0;"/><path d="M256.4375,24.7656 L252.2969,24.7656 L251.875,25.7969 L252.2969,25.7969 Q252.9063,25.7969 253.1719,26.0313 Q253.4375,26.2656 253.4375,26.6563 Q253.4375,27.0313 253.1719,27.2656 Q252.9063,27.5 252.2969,27.5 L250,27.5 Q249.3906,27.5 249.1406,27.2656 Q248.875,27.0313 248.875,26.6406 Q248.875,26.2656 249.1563,26.0313 Q249.4219,25.7813 250.0469,25.7969 L252.7188,19.1406 L251.6094,19.1406 Q251,19.1406 250.7344,18.9063 Q250.4688,18.6719 250.4688,18.2813 Q250.4688,17.9063 250.7344,17.6719 Q251,17.4375 251.6094,17.4375 L255.2813,17.4375 L258.6719,25.7969 Q259.2656,25.7969 259.4531,25.9375 Q259.8438,26.2031 259.8438,26.6563 Q259.8438,27.0313 259.5781,27.2656 Q259.3281,27.5 258.7188,27.5 L256.4219,27.5 Q255.8125,27.5 255.5469,27.2656 Q255.2813,27.0313 255.2813,26.6406 Q255.2813,26.2656 255.5469,26.0313 Q255.8125,25.7969 256.4219,25.7969 L256.8438,25.7969 L256.4375,24.7656 Z M255.7188,23.0625 L254.3594,19.6875 L252.9844,23.0625 L255.7188,23.0625 Z " fill="#000000"/><text fill="#000000" font-family="sans-serif" font-size="14" font-style="italic" lengthAdjust="spacing" textLength="61" x="271.75" y="28.7285">Prototype</text><line style="stroke:#181818;stroke-width:0.5;" x1="224.5" x2="350.5" y1="39" y2="39"/><line style="stroke:#181818;stroke-width:0.5;" x1="224.5" x2="350.5" y1="47" y2="47"/><text fill="#000000" font-family="sans-serif" font-size="14" font-style="italic" lengthAdjust="spacing" textLength="116" x="229.5" y="65.5332">Clone(): Prototype</text></g><!--class ConcretePrototype1--><g id="elem_ConcretePrototype1"><rect codeLine="17" fill="#F1F1F1" height="65.6094" id="ConcretePrototype1" rx="2.5" ry="2.5" style="stroke:#181818;stroke-width:0.5;" width="159" x="208" y="146"/><ellipse cx="223" cy="162" fill="#ADD1B2" rx="11" ry="11" style="stroke:#181818;stroke-width:1.0;"/><path d="M225.7656,157.875 Q225.9219,157.6563 226.1094,157.5469 Q226.2969,157.4375 226.5156,157.4375 Q226.8906,157.4375 227.125,157.7031 Q227.3594,157.9531 227.3594,158.5625 L227.3594,160.0156 Q227.3594,160.625 227.125,160.8906 Q226.8906,161.1563 226.5156,161.1563 Q226.1719,161.1563 225.9688,160.9531 Q225.7656,160.7656 225.6563,160.25 Q225.6094,159.8906 225.4219,159.7031 Q225.0938,159.3281 224.4844,159.1094 Q223.875,158.8906 223.25,158.8906 Q222.4844,158.8906 221.8438,159.2188 Q221.2188,159.5469 220.7188,160.2969 Q220.2344,161.0469 220.2344,162.0781 L220.2344,163.1719 Q220.2344,164.4063 221.125,165.2344 Q222.0156,166.0469 223.6094,166.0469 Q224.5469,166.0469 225.2031,165.7969 Q225.5938,165.6406 226.0156,165.2031 Q226.2813,164.9375 226.4219,164.8594 Q226.5781,164.7813 226.7813,164.7813 Q227.1094,164.7813 227.3594,165.0469 Q227.625,165.2969 227.625,165.6406 Q227.625,165.9844 227.2813,166.3906 Q226.7813,166.9688 225.9844,167.2969 Q224.9063,167.75 223.6094,167.75 Q222.0938,167.75 220.8906,167.125 Q219.9063,166.625 219.2188,165.5625 Q218.5313,164.4844 218.5313,163.2031 L218.5313,162.0469 Q218.5313,160.7188 219.1406,159.5781 Q219.7656,158.4219 220.8594,157.8125 Q221.9531,157.1875 223.1875,157.1875 Q223.9219,157.1875 224.5625,157.3594 Q225.2188,157.5156 225.7656,157.875 Z " fill="#000000"/><text fill="#000000" font-family="sans-serif" font-size="14" lengthAdjust="spacing" textLength="127" x="237" y="167.7285">ConcretePrototype1</text><line style="stroke:#181818;stroke-width:0.5;" x1="209" x2="366" y1="178" y2="178"/><line style="stroke:#181818;stroke-width:0.5;" x1="209" x2="366" y1="186" y2="186"/><text fill="#000000" font-family="sans-serif" font-size="14" lengthAdjust="spacing" textLength="116" x="214" y="204.5332">Clone(): Prototype</text></g><!--class ConcretePrototype2--><g id="elem_ConcretePrototype2"><rect codeLine="21" fill="#F1F1F1" height="65.6094" id="ConcretePrototype2" rx="2.5" ry="2.5" style="stroke:#181818;stroke-width:0.5;" width="159" x="402" y="146"/><ellipse cx="417" cy="162" fill="#ADD1B2" rx="11" ry="11" style="stroke:#181818;stroke-width:1.0;"/><path d="M419.7656,157.875 Q419.9219,157.6563 420.1094,157.5469 Q420.2969,157.4375 420.5156,157.4375 Q420.8906,157.4375 421.125,157.7031 Q421.3594,157.9531 421.3594,158.5625 L421.3594,160.0156 Q421.3594,160.625 421.125,160.8906 Q420.8906,161.1563 420.5156,161.1563 Q420.1719,161.1563 419.9688,160.9531 Q419.7656,160.7656 419.6563,160.25 Q419.6094,159.8906 419.4219,159.7031 Q419.0938,159.3281 418.4844,159.1094 Q417.875,158.8906 417.25,158.8906 Q416.4844,158.8906 415.8438,159.2188 Q415.2188,159.5469 414.7188,160.2969 Q414.2344,161.0469 414.2344,162.0781 L414.2344,163.1719 Q414.2344,164.4063 415.125,165.2344 Q416.0156,166.0469 417.6094,166.0469 Q418.5469,166.0469 419.2031,165.7969 Q419.5938,165.6406 420.0156,165.2031 Q420.2813,164.9375 420.4219,164.8594 Q420.5781,164.7813 420.7813,164.7813 Q421.1094,164.7813 421.3594,165.0469 Q421.625,165.2969 421.625,165.6406 Q421.625,165.9844 421.2813,166.3906 Q420.7813,166.9688 419.9844,167.2969 Q418.9063,167.75 417.6094,167.75 Q416.0938,167.75 414.8906,167.125 Q413.9063,166.625 413.2188,165.5625 Q412.5313,164.4844 412.5313,163.2031 L412.5313,162.0469 Q412.5313,160.7188 413.1406,159.5781 Q413.7656,158.4219 414.8594,157.8125 Q415.9531,157.1875 417.1875,157.1875 Q417.9219,157.1875 418.5625,157.3594 Q419.2188,157.5156 419.7656,157.875 Z " fill="#000000"/><text fill="#000000" font-family="sans-serif" font-size="14" lengthAdjust="spacing" textLength="127" x="431" y="167.7285">ConcretePrototype2</text><line style="stroke:#181818;stroke-width:0.5;" x1="403" x2="560" y1="178" y2="178"/><line style="stroke:#181818;stroke-width:0.5;" x1="403" x2="560" y1="186" y2="186"/><text fill="#000000" font-family="sans-serif" font-size="14" lengthAdjust="spacing" textLength="116" x="408" y="204.5332">Clone(): Prototype</text></g><!--reverse link Prototype to ConcretePrototype1--><g id="link_Prototype_ConcretePrototype1"><path codeLine="25" d="M287.5,91.12 C287.5,112.95 287.5,123.72 287.5,145.61 " fill="none" id="Prototype-backto-ConcretePrototype1" style="stroke:#181818;stroke-width:1.0;"/><polygon fill="none" points="287.5,73.12,281.5,91.12,293.5,91.12,287.5,73.12" style="stroke:#181818;stroke-width:1.0;"/></g><!--reverse link Prototype to ConcretePrototype2--><g id="link_Prototype_ConcretePrototype2"><path codeLine="26" d="M347.684,83.5023 C378.714,105.4123 404.93,123.93 435.96,145.84 " fill="none" id="Prototype-backto-ConcretePrototype2" style="stroke:#181818;stroke-width:1.0;"/><polygon fill="none" points="332.98,73.12,344.2232,88.4037,351.1448,78.601,332.98,73.12" style="stroke:#181818;stroke-width:1.0;"/></g><!--link Client to Prototype--><g id="link_Client_Prototype"><path codeLine="28" d="M160.33,40 C181.36,40 196.39,40 217.42,40 " fill="none" id="Client-to-Prototype" style="stroke:#181818;stroke-width:1.0;"/><polygon fill="#181818" points="223.42,40,214.42,36,218.42,40,214.42,44,223.42,40" style="stroke:#181818;stroke-width:1.0;"/></g><!--SRC=[bP2z3e9048JxVOejeJWIAVsXuG7a5GvS4nBS9SSs1k_TbSl9QM8qDjlCV3EJjUsapdQAtM2d2UkX9rQS0V4uahFQ2sSvU00M9Mn5LIuevsY45rE0Yg9ut0OFs3XHqUj8fge7OShoNTGz49zmoGEmx_Kh5CBcf-enHcoJOzaKDmjtZfHMQHFelv3o2v96xM_6VAZxwIW1ucDDbRBl]--></g></svg>