<?xml version="1.0" encoding="us-ascii" standalone="no"?><svg xmlns="http://www.w3.org/2000/svg" xmlns:xlink="http://www.w3.org/1999/xlink" contentStyleType="text/css" height="485px" preserveAspectRatio="none" style="width:485px;height:485px;background:#FFFFFF;" version="1.1" viewBox="0 0 485 485" width="485px" zoomAndPan="magnify"><defs/><g><!--cluster adventure::v3b--><g id="cluster_adventure::v3b"><path d="M8.5,6 L116.5,6 A3.75,3.75 0 0 1 119,8.5 L126,29.6094 L475.5,29.6094 A2.5,2.5 0 0 1 478,32.1094 L478,475.5 A2.5,2.5 0 0 1 475.5,478 L8.5,478 A2.5,2.5 0 0 1 6,475.5 L6,8.5 A2.5,2.5 0 0 1 8.5,6 " fill="none" style="stroke:#000000;stroke-width:1.5;"/><line style="stroke:#000000;stroke-width:1.5;" x1="6" x2="126" y1="29.6094" y2="29.6094"/><text fill="#000000" font-family="sans-serif" font-size="14" font-weight="bold" lengthAdjust="spacing" textLength="107" x="10" y="22.5332">adventure::v3b</text></g><!--class Location--><g id="elem_Location"><rect codeLine="3" fill="#F1F1F1" height="206.4844" id="Location" rx="2.5" ry="2.5" style="stroke:#181818;stroke-width:0.5;" width="440" x="22" y="256"/><ellipse cx="210.75" cy="272" fill="#ADD1B2" rx="11" ry="11" style="stroke:#181818;stroke-width:1.0;"/><path d="M213.5156,267.875 Q213.6719,267.6563 213.8594,267.5469 Q214.0469,267.4375 214.2656,267.4375 Q214.6406,267.4375 214.875,267.7031 Q215.1094,267.9531 215.1094,268.5625 L215.1094,270.0156 Q215.1094,270.625 214.875,270.8906 Q214.6406,271.1563 214.2656,271.1563 Q213.9219,271.1563 213.7188,270.9531 Q213.5156,270.7656 213.4063,270.25 Q213.3594,269.8906 213.1719,269.7031 Q212.8438,269.3281 212.2344,269.1094 Q211.625,268.8906 211,268.8906 Q210.2344,268.8906 209.5938,269.2188 Q208.9688,269.5469 208.4688,270.2969 Q207.9844,271.0469 207.9844,272.0781 L207.9844,273.1719 Q207.9844,274.4063 208.875,275.2344 Q209.7656,276.0469 211.3594,276.0469 Q212.2969,276.0469 212.9531,275.7969 Q213.3438,275.6406 213.7656,275.2031 Q214.0313,274.9375 214.1719,274.8594 Q214.3281,274.7813 214.5313,274.7813 Q214.8594,274.7813 215.1094,275.0469 Q215.375,275.2969 215.375,275.6406 Q215.375,275.9844 215.0313,276.3906 Q214.5313,276.9688 213.7344,277.2969 Q212.6563,277.75 211.3594,277.75 Q209.8438,277.75 208.6406,277.125 Q207.6563,276.625 206.9688,275.5625 Q206.2813,274.4844 206.2813,273.2031 L206.2813,272.0469 Q206.2813,270.7188 206.8906,269.5781 Q207.5156,268.4219 208.6094,267.8125 Q209.7031,267.1875 210.9375,267.1875 Q211.6719,267.1875 212.3125,267.3594 Q212.9688,267.5156 213.5156,267.875 Z " fill="#000000"/><text fill="#000000" font-family="sans-serif" font-size="14" lengthAdjust="spacing" textLength="54" x="231.25" y="277.7285">Location</text><line style="stroke:#181818;stroke-width:0.5;" x1="23" x2="461" y1="288" y2="288"/><rect fill="none" height="6" style="stroke:#C82930;stroke-width:1.0;" width="6" x="30" y="299.3047"/><text fill="#000000" font-family="sans-serif" font-size="14" lengthAdjust="spacing" textLength="78" x="42" y="306.5332">name: string</text><rect fill="none" height="6" style="stroke:#C82930;stroke-width:1.0;" width="6" x="30" y="316.9141"/><text fill="#000000" font-family="sans-serif" font-size="14" lengthAdjust="spacing" textLength="112" x="42" y="324.1426">description: string</text><rect fill="none" height="6" style="stroke:#C82930;stroke-width:1.0;" width="6" x="30" y="334.5234"/><text fill="#000000" font-family="sans-serif" font-size="14" font-weight="bold" lengthAdjust="spacing" textLength="241" x="42" y="341.752">connectedLocations: LocationMap</text><line style="stroke:#181818;stroke-width:0.5;" x1="23" x2="461" y1="348.8281" y2="348.8281"/><ellipse cx="33" cy="363.1328" fill="#84BE84" rx="3" ry="3" style="stroke:#038048;stroke-width:1.0;"/><text fill="#000000" font-family="sans-serif" font-size="14" lengthAdjust="spacing" textLength="76" x="42" y="367.3613">Location(...)</text><ellipse cx="33" cy="380.7422" fill="#84BE84" rx="3" ry="3" style="stroke:#038048;stroke-width:1.0;"/><text fill="#000000" font-family="sans-serif" font-size="14" lengthAdjust="spacing" textLength="112" x="42" y="384.9707">GetName(): string</text><ellipse cx="33" cy="398.3516" fill="#84BE84" rx="3" ry="3" style="stroke:#038048;stroke-width:1.0;"/><text fill="#000000" font-family="sans-serif" font-size="14" lengthAdjust="spacing" textLength="147" x="42" y="402.5801">GetDescription(): string</text><ellipse cx="33" cy="415.9609" fill="#84BE84" rx="3" ry="3" style="stroke:#038048;stroke-width:1.0;"/><text fill="#000000" font-family="sans-serif" font-size="14" font-weight="bold" lengthAdjust="spacing" textLength="352" x="42" y="420.1895">GetConnectedLocation(direction: string): Location</text><ellipse cx="33" cy="433.5703" fill="#84BE84" rx="3" ry="3" style="stroke:#038048;stroke-width:1.0;"/><text fill="#000000" font-family="sans-serif" font-size="14" font-weight="bold" lengthAdjust="spacing" textLength="414" x="42" y="437.7988">SetConnectedLocation(direction: string, location: Location)</text><ellipse cx="33" cy="451.1797" fill="#84BE84" rx="3" ry="3" style="stroke:#038048;stroke-width:1.0;"/><text fill="#000000" font-family="sans-serif" font-size="14" font-weight="bold" lengthAdjust="spacing" textLength="295" x="42" y="455.4082">GetConnectedDirections(): vector&lt;string&gt;</text></g><!--class World--><g id="elem_World"><rect codeLine="15" fill="#F1F1F1" height="153.6563" id="World" rx="2.5" ry="2.5" style="stroke:#181818;stroke-width:0.5;" width="259" x="112.5" y="42"/><ellipse cx="219.25" cy="58" fill="#ADD1B2" rx="11" ry="11" style="stroke:#181818;stroke-width:1.0;"/><path d="M222.0156,53.875 Q222.1719,53.6563 222.3594,53.5469 Q222.5469,53.4375 222.7656,53.4375 Q223.1406,53.4375 223.375,53.7031 Q223.6094,53.9531 223.6094,54.5625 L223.6094,56.0156 Q223.6094,56.625 223.375,56.8906 Q223.1406,57.1563 222.7656,57.1563 Q222.4219,57.1563 222.2188,56.9531 Q222.0156,56.7656 221.9063,56.25 Q221.8594,55.8906 221.6719,55.7031 Q221.3438,55.3281 220.7344,55.1094 Q220.125,54.8906 219.5,54.8906 Q218.7344,54.8906 218.0938,55.2188 Q217.4688,55.5469 216.9688,56.2969 Q216.4844,57.0469 216.4844,58.0781 L216.4844,59.1719 Q216.4844,60.4063 217.375,61.2344 Q218.2656,62.0469 219.8594,62.0469 Q220.7969,62.0469 221.4531,61.7969 Q221.8438,61.6406 222.2656,61.2031 Q222.5313,60.9375 222.6719,60.8594 Q222.8281,60.7813 223.0313,60.7813 Q223.3594,60.7813 223.6094,61.0469 Q223.875,61.2969 223.875,61.6406 Q223.875,61.9844 223.5313,62.3906 Q223.0313,62.9688 222.2344,63.2969 Q221.1563,63.75 219.8594,63.75 Q218.3438,63.75 217.1406,63.125 Q216.1563,62.625 215.4688,61.5625 Q214.7813,60.4844 214.7813,59.2031 L214.7813,58.0469 Q214.7813,56.7188 215.3906,55.5781 Q216.0156,54.4219 217.1094,53.8125 Q218.2031,53.1875 219.4375,53.1875 Q220.1719,53.1875 220.8125,53.3594 Q221.4688,53.5156 222.0156,53.875 Z " fill="#000000"/><text fill="#000000" font-family="sans-serif" font-size="14" lengthAdjust="spacing" textLength="37" x="239.75" y="63.7285">World</text><line style="stroke:#181818;stroke-width:0.5;" x1="113.5" x2="370.5" y1="74" y2="74"/><rect fill="none" height="6" style="stroke:#C82930;stroke-width:1.0;" width="6" x="120.5" y="85.3047"/><text fill="#000000" font-family="sans-serif" font-size="14" lengthAdjust="spacing" textLength="145" x="132.5" y="92.5332">locations: LocationMap</text><rect fill="none" height="6" style="stroke:#C82930;stroke-width:1.0;" width="6" x="120.5" y="102.9141"/><text fill="#000000" font-family="sans-serif" font-size="14" lengthAdjust="spacing" textLength="165" x="132.5" y="110.1426">initialLocationName: string</text><line style="stroke:#181818;stroke-width:0.5;" x1="113.5" x2="370.5" y1="117.2188" y2="117.2188"/><ellipse cx="123.5" cy="131.5234" fill="#84BE84" rx="3" ry="3" style="stroke:#038048;stroke-width:1.0;"/><text fill="#000000" font-family="sans-serif" font-size="14" lengthAdjust="spacing" textLength="59" x="132.5" y="135.752">World(...)</text><ellipse cx="123.5" cy="149.1328" fill="#84BE84" rx="3" ry="3" style="stroke:#038048;stroke-width:1.0;"/><text fill="#000000" font-family="sans-serif" font-size="14" lengthAdjust="spacing" textLength="227" x="132.5" y="153.3613">GetLocation(name: string): Location</text><ellipse cx="123.5" cy="166.7422" fill="#84BE84" rx="3" ry="3" style="stroke:#038048;stroke-width:1.0;"/><text fill="#000000" font-family="sans-serif" font-size="14" font-weight="bold" lengthAdjust="spacing" textLength="233" x="132.5" y="170.9707">GetLocations(): vector&lt;Location&gt;</text><ellipse cx="123.5" cy="184.3516" fill="#84BE84" rx="3" ry="3" style="stroke:#038048;stroke-width:1.0;"/><text fill="#000000" font-family="sans-serif" font-size="14" lengthAdjust="spacing" textLength="198" x="132.5" y="188.5801">GetInitialLocationName(): string</text></g><!--link World to Location--><g id="link_World_Location"><path codeLine="24" d="M242,208.29 C242,227.19 242,229.74 242,249.66 " fill="none" id="World-Location" style="stroke:#181818;stroke-width:1.0;"/><polygon fill="#181818" points="242,196.29,238,202.29,242,208.29,246,202.29,242,196.29" style="stroke:#181818;stroke-width:1.0;"/><polygon fill="#181818" points="242,255.66,246,246.66,242,250.66,238,246.66,242,255.66" style="stroke:#181818;stroke-width:1.0;"/></g><!--SRC=[ZL6xZiCW4Epp5PJs9NQAwooB9fPEaN9fKboD0KL875X0t4JvzrjVp2F6HRP2EyFix8uYlzmEX794sCYLkndUDEDdZ-uR14KbiHQTD2LEQ3KtfweKV6oGTKQeQ-moRgaHmqJEmRR7L2l5gUFCIzecg7-JeTttEF2t7YZgkYvZ-ukxCmmlocp217NHmHe3F03fiBHHC66WaTWkex5NLw1mUKjXX-ICHQaoqqhTT5x2JjP7U6lJFiLm-FZO9CdyQ2DP6ejSlMl4XH9E4EcnyrgAst_L_EfXrJJxv4xBlKB6oJQ-XryF0UnZxcmHuBpvS-UFgi9nykCF]--></g></svg>