<?xml version="1.0" encoding="us-ascii" standalone="no"?><svg xmlns="http://www.w3.org/2000/svg" xmlns:xlink="http://www.w3.org/1999/xlink" contentStyleType="text/css" height="383px" preserveAspectRatio="none" style="width:755px;height:383px;background:#FFFFFF;" version="1.1" viewBox="0 0 755 383" width="755px" zoomAndPan="magnify"><defs/><g><!--class PricingStrategy--><g id="elem_PricingStrategy"><rect codeLine="2" fill="#F1F1F1" height="65.6094" id="PricingStrategy" rx="2.5" ry="2.5" style="stroke:#181818;stroke-width:0.5;" width="172" x="330" y="185"/><ellipse cx="364.8" cy="201" fill="#ADD1B2" rx="11" ry="11" style="stroke:#181818;stroke-width:1.0;"/><path d="M367.5656,196.875 Q367.7219,196.6563 367.9094,196.5469 Q368.0969,196.4375 368.3156,196.4375 Q368.6906,196.4375 368.925,196.7031 Q369.1594,196.9531 369.1594,197.5625 L369.1594,199.0156 Q369.1594,199.625 368.925,199.8906 Q368.6906,200.1563 368.3156,200.1563 Q367.9719,200.1563 367.7688,199.9531 Q367.5656,199.7656 367.4563,199.25 Q367.4094,198.8906 367.2219,198.7031 Q366.8938,198.3281 366.2844,198.1094 Q365.675,197.8906 365.05,197.8906 Q364.2844,197.8906 363.6438,198.2188 Q363.0188,198.5469 362.5188,199.2969 Q362.0344,200.0469 362.0344,201.0781 L362.0344,202.1719 Q362.0344,203.4063 362.925,204.2344 Q363.8156,205.0469 365.4094,205.0469 Q366.3469,205.0469 367.0031,204.7969 Q367.3938,204.6406 367.8156,204.2031 Q368.0813,203.9375 368.2219,203.8594 Q368.3781,203.7813 368.5813,203.7813 Q368.9094,203.7813 369.1594,204.0469 Q369.425,204.2969 369.425,204.6406 Q369.425,204.9844 369.0813,205.3906 Q368.5813,205.9688 367.7844,206.2969 Q366.7063,206.75 365.4094,206.75 Q363.8938,206.75 362.6906,206.125 Q361.7063,205.625 361.0188,204.5625 Q360.3313,203.4844 360.3313,202.2031 L360.3313,201.0469 Q360.3313,199.7188 360.9406,198.5781 Q361.5656,197.4219 362.6594,196.8125 Q363.7531,196.1875 364.9875,196.1875 Q365.7219,196.1875 366.3625,196.3594 Q367.0188,196.5156 367.5656,196.875 Z " fill="#000000"/><text fill="#000000" font-family="sans-serif" font-size="14" lengthAdjust="spacing" textLength="96" x="383.2" y="206.7285">PricingStrategy</text><line style="stroke:#181818;stroke-width:0.5;" x1="331" x2="501" y1="217" y2="217"/><line style="stroke:#181818;stroke-width:0.5;" x1="331" x2="501" y1="225" y2="225"/><ellipse cx="341" cy="239.3047" fill="#84BE84" rx="3" ry="3" style="stroke:#038048;stroke-width:1.0;"/><text fill="#000000" font-family="sans-serif" font-size="14" font-style="italic" lengthAdjust="spacing" textLength="146" x="350" y="243.5332">double ComputePrice()</text></g><!--class RegularPricingStrategy--><g id="elem_RegularPricingStrategy"><rect codeLine="6" fill="#F1F1F1" height="65.6094" id="RegularPricingStrategy" rx="2.5" ry="2.5" style="stroke:#181818;stroke-width:0.5;" width="178" x="112" y="311"/><ellipse cx="127" cy="327" fill="#ADD1B2" rx="11" ry="11" style="stroke:#181818;stroke-width:1.0;"/><path d="M129.7656,322.875 Q129.9219,322.6563 130.1094,322.5469 Q130.2969,322.4375 130.5156,322.4375 Q130.8906,322.4375 131.125,322.7031 Q131.3594,322.9531 131.3594,323.5625 L131.3594,325.0156 Q131.3594,325.625 131.125,325.8906 Q130.8906,326.1563 130.5156,326.1563 Q130.1719,326.1563 129.9688,325.9531 Q129.7656,325.7656 129.6563,325.25 Q129.6094,324.8906 129.4219,324.7031 Q129.0938,324.3281 128.4844,324.1094 Q127.875,323.8906 127.25,323.8906 Q126.4844,323.8906 125.8438,324.2188 Q125.2188,324.5469 124.7188,325.2969 Q124.2344,326.0469 124.2344,327.0781 L124.2344,328.1719 Q124.2344,329.4063 125.125,330.2344 Q126.0156,331.0469 127.6094,331.0469 Q128.5469,331.0469 129.2031,330.7969 Q129.5938,330.6406 130.0156,330.2031 Q130.2813,329.9375 130.4219,329.8594 Q130.5781,329.7813 130.7813,329.7813 Q131.1094,329.7813 131.3594,330.0469 Q131.625,330.2969 131.625,330.6406 Q131.625,330.9844 131.2813,331.3906 Q130.7813,331.9688 129.9844,332.2969 Q128.9063,332.75 127.6094,332.75 Q126.0938,332.75 124.8906,332.125 Q123.9063,331.625 123.2188,330.5625 Q122.5313,329.4844 122.5313,328.2031 L122.5313,327.0469 Q122.5313,325.7188 123.1406,324.5781 Q123.7656,323.4219 124.8594,322.8125 Q125.9531,322.1875 127.1875,322.1875 Q127.9219,322.1875 128.5625,322.3594 Q129.2188,322.5156 129.7656,322.875 Z " fill="#000000"/><text fill="#000000" font-family="sans-serif" font-size="14" lengthAdjust="spacing" textLength="146" x="141" y="332.7285">RegularPricingStrategy</text><line style="stroke:#181818;stroke-width:0.5;" x1="113" x2="289" y1="343" y2="343"/><line style="stroke:#181818;stroke-width:0.5;" x1="113" x2="289" y1="351" y2="351"/><ellipse cx="123" cy="365.3047" fill="#84BE84" rx="3" ry="3" style="stroke:#038048;stroke-width:1.0;"/><text fill="#000000" font-family="sans-serif" font-size="14" lengthAdjust="spacing" textLength="146" x="132" y="369.5332">double ComputePrice()</text></g><!--class ChildrenPricingStrategy--><g id="elem_ChildrenPricingStrategy"><rect codeLine="10" fill="#F1F1F1" height="65.6094" id="ChildrenPricingStrategy" rx="2.5" ry="2.5" style="stroke:#181818;stroke-width:0.5;" width="181" x="325.5" y="311"/><ellipse cx="340.5" cy="327" fill="#ADD1B2" rx="11" ry="11" style="stroke:#181818;stroke-width:1.0;"/><path d="M343.2656,322.875 Q343.4219,322.6563 343.6094,322.5469 Q343.7969,322.4375 344.0156,322.4375 Q344.3906,322.4375 344.625,322.7031 Q344.8594,322.9531 344.8594,323.5625 L344.8594,325.0156 Q344.8594,325.625 344.625,325.8906 Q344.3906,326.1563 344.0156,326.1563 Q343.6719,326.1563 343.4688,325.9531 Q343.2656,325.7656 343.1563,325.25 Q343.1094,324.8906 342.9219,324.7031 Q342.5938,324.3281 341.9844,324.1094 Q341.375,323.8906 340.75,323.8906 Q339.9844,323.8906 339.3438,324.2188 Q338.7188,324.5469 338.2188,325.2969 Q337.7344,326.0469 337.7344,327.0781 L337.7344,328.1719 Q337.7344,329.4063 338.625,330.2344 Q339.5156,331.0469 341.1094,331.0469 Q342.0469,331.0469 342.7031,330.7969 Q343.0938,330.6406 343.5156,330.2031 Q343.7813,329.9375 343.9219,329.8594 Q344.0781,329.7813 344.2813,329.7813 Q344.6094,329.7813 344.8594,330.0469 Q345.125,330.2969 345.125,330.6406 Q345.125,330.9844 344.7813,331.3906 Q344.2813,331.9688 343.4844,332.2969 Q342.4063,332.75 341.1094,332.75 Q339.5938,332.75 338.3906,332.125 Q337.4063,331.625 336.7188,330.5625 Q336.0313,329.4844 336.0313,328.2031 L336.0313,327.0469 Q336.0313,325.7188 336.6406,324.5781 Q337.2656,323.4219 338.3594,322.8125 Q339.4531,322.1875 340.6875,322.1875 Q341.4219,322.1875 342.0625,322.3594 Q342.7188,322.5156 343.2656,322.875 Z " fill="#000000"/><text fill="#000000" font-family="sans-serif" font-size="14" lengthAdjust="spacing" textLength="149" x="354.5" y="332.7285">ChildrenPricingStrategy</text><line style="stroke:#181818;stroke-width:0.5;" x1="326.5" x2="505.5" y1="343" y2="343"/><line style="stroke:#181818;stroke-width:0.5;" x1="326.5" x2="505.5" y1="351" y2="351"/><ellipse cx="336.5" cy="365.3047" fill="#84BE84" rx="3" ry="3" style="stroke:#038048;stroke-width:1.0;"/><text fill="#000000" font-family="sans-serif" font-size="14" lengthAdjust="spacing" textLength="146" x="345.5" y="369.5332">double ComputePrice()</text></g><!--class NewReleasePricingStrategy--><g id="elem_NewReleasePricingStrategy"><rect codeLine="14" fill="#F1F1F1" height="65.6094" id="NewReleasePricingStrategy" rx="2.5" ry="2.5" style="stroke:#181818;stroke-width:0.5;" width="206" x="542" y="311"/><ellipse cx="557" cy="327" fill="#ADD1B2" rx="11" ry="11" style="stroke:#181818;stroke-width:1.0;"/><path d="M559.7656,322.875 Q559.9219,322.6563 560.1094,322.5469 Q560.2969,322.4375 560.5156,322.4375 Q560.8906,322.4375 561.125,322.7031 Q561.3594,322.9531 561.3594,323.5625 L561.3594,325.0156 Q561.3594,325.625 561.125,325.8906 Q560.8906,326.1563 560.5156,326.1563 Q560.1719,326.1563 559.9688,325.9531 Q559.7656,325.7656 559.6563,325.25 Q559.6094,324.8906 559.4219,324.7031 Q559.0938,324.3281 558.4844,324.1094 Q557.875,323.8906 557.25,323.8906 Q556.4844,323.8906 555.8438,324.2188 Q555.2188,324.5469 554.7188,325.2969 Q554.2344,326.0469 554.2344,327.0781 L554.2344,328.1719 Q554.2344,329.4063 555.125,330.2344 Q556.0156,331.0469 557.6094,331.0469 Q558.5469,331.0469 559.2031,330.7969 Q559.5938,330.6406 560.0156,330.2031 Q560.2813,329.9375 560.4219,329.8594 Q560.5781,329.7813 560.7813,329.7813 Q561.1094,329.7813 561.3594,330.0469 Q561.625,330.2969 561.625,330.6406 Q561.625,330.9844 561.2813,331.3906 Q560.7813,331.9688 559.9844,332.2969 Q558.9063,332.75 557.6094,332.75 Q556.0938,332.75 554.8906,332.125 Q553.9063,331.625 553.2188,330.5625 Q552.5313,329.4844 552.5313,328.2031 L552.5313,327.0469 Q552.5313,325.7188 553.1406,324.5781 Q553.7656,323.4219 554.8594,322.8125 Q555.9531,322.1875 557.1875,322.1875 Q557.9219,322.1875 558.5625,322.3594 Q559.2188,322.5156 559.7656,322.875 Z " fill="#000000"/><text fill="#000000" font-family="sans-serif" font-size="14" lengthAdjust="spacing" textLength="174" x="571" y="332.7285">NewReleasePricingStrategy</text><line style="stroke:#181818;stroke-width:0.5;" x1="543" x2="747" y1="343" y2="343"/><line style="stroke:#181818;stroke-width:0.5;" x1="543" x2="747" y1="351" y2="351"/><ellipse cx="553" cy="365.3047" fill="#84BE84" rx="3" ry="3" style="stroke:#038048;stroke-width:1.0;"/><text fill="#000000" font-family="sans-serif" font-size="14" lengthAdjust="spacing" textLength="146" x="562" y="369.5332">double ComputePrice()</text></g><!--class MovieV3--><g id="elem_MovieV3"><rect codeLine="22" fill="#F1F1F1" height="118.4375" id="MovieV3" rx="2.5" ry="2.5" style="stroke:#181818;stroke-width:0.5;" width="233" x="299.5" y="7"/><ellipse cx="384.75" cy="23" fill="#ADD1B2" rx="11" ry="11" style="stroke:#181818;stroke-width:1.0;"/><path d="M387.5156,18.875 Q387.6719,18.6563 387.8594,18.5469 Q388.0469,18.4375 388.2656,18.4375 Q388.6406,18.4375 388.875,18.7031 Q389.1094,18.9531 389.1094,19.5625 L389.1094,21.0156 Q389.1094,21.625 388.875,21.8906 Q388.6406,22.1563 388.2656,22.1563 Q387.9219,22.1563 387.7188,21.9531 Q387.5156,21.7656 387.4063,21.25 Q387.3594,20.8906 387.1719,20.7031 Q386.8438,20.3281 386.2344,20.1094 Q385.625,19.8906 385,19.8906 Q384.2344,19.8906 383.5938,20.2188 Q382.9688,20.5469 382.4688,21.2969 Q381.9844,22.0469 381.9844,23.0781 L381.9844,24.1719 Q381.9844,25.4063 382.875,26.2344 Q383.7656,27.0469 385.3594,27.0469 Q386.2969,27.0469 386.9531,26.7969 Q387.3438,26.6406 387.7656,26.2031 Q388.0313,25.9375 388.1719,25.8594 Q388.3281,25.7813 388.5313,25.7813 Q388.8594,25.7813 389.1094,26.0469 Q389.375,26.2969 389.375,26.6406 Q389.375,26.9844 389.0313,27.3906 Q388.5313,27.9688 387.7344,28.2969 Q386.6563,28.75 385.3594,28.75 Q383.8438,28.75 382.6406,28.125 Q381.6563,27.625 380.9688,26.5625 Q380.2813,25.4844 380.2813,24.2031 L380.2813,23.0469 Q380.2813,21.7188 380.8906,20.5781 Q381.5156,19.4219 382.6094,18.8125 Q383.7031,18.1875 384.9375,18.1875 Q385.6719,18.1875 386.3125,18.3594 Q386.9688,18.5156 387.5156,18.875 Z " fill="#000000"/><text fill="#000000" font-family="sans-serif" font-size="14" lengthAdjust="spacing" textLength="54" x="405.25" y="28.7285">MovieV3</text><line style="stroke:#181818;stroke-width:0.5;" x1="300.5" x2="531.5" y1="39" y2="39"/><rect fill="none" height="6" style="stroke:#C82930;stroke-width:1.0;" width="6" x="307.5" y="50.3047"/><text fill="#000000" font-family="sans-serif" font-size="14" lengthAdjust="spacing" textLength="100" x="319.5" y="57.5332">title_: std::string</text><rect fill="none" height="6" style="stroke:#C82930;stroke-width:1.0;" width="6" x="307.5" y="67.9141"/><text fill="#000000" font-family="sans-serif" font-size="14" lengthAdjust="spacing" textLength="207" x="319.5" y="75.1426">pricingStrategy_: PricingStrategy</text><line style="stroke:#181818;stroke-width:0.5;" x1="300.5" x2="531.5" y1="82.2188" y2="82.2188"/><ellipse cx="310.5" cy="96.5234" fill="#84BE84" rx="3" ry="3" style="stroke:#038048;stroke-width:1.0;"/><text fill="#000000" font-family="sans-serif" font-size="14" lengthAdjust="spacing" textLength="146" x="319.5" y="100.752">double ComputePrice()</text><ellipse cx="310.5" cy="114.1328" fill="#84BE84" rx="3" ry="3" style="stroke:#038048;stroke-width:1.0;"/><text fill="#000000" font-family="sans-serif" font-size="14" lengthAdjust="spacing" textLength="92" x="319.5" y="118.3613">void PrintInfo()</text></g><path d="M6,48 L6,74.3516 A0,0 0 0 0 6,74.3516 L264,74.3516 A0,0 0 0 0 264,74.3516 L264,66 L303.5,95.0234 L264,58 L264,58 L254,48 L6,48 A0,0 0 0 0 6,48 " fill="#FEFFDD" style="stroke:#181818;stroke-width:0.5;"/><path d="M254,48 L254,58 L264,58 L254,48 " fill="#FEFFDD" style="stroke:#181818;stroke-width:0.5;"/><text fill="#000000" font-family="sans-serif" font-size="13" lengthAdjust="spacing" textLength="237" x="12" y="66.4951">return pricingStrategy_-&gt;ComputePrice();</text><!--reverse link PricingStrategy to RegularPricingStrategy--><g id="link_PricingStrategy_RegularPricingStrategy"><path codeLine="18" d="M344.7576,260.0832 C312.9076,278.4532 288.66,292.44 256.79,310.82 " fill="none" id="PricingStrategy-backto-RegularPricingStrategy" style="stroke:#181818;stroke-width:1.0;"/><polygon fill="none" points="360.35,251.09,341.7599,254.8857,347.7553,265.2806,360.35,251.09" style="stroke:#181818;stroke-width:1.0;"/></g><!--reverse link PricingStrategy to ChildrenPricingStrategy--><g id="link_PricingStrategy_ChildrenPricingStrategy"><path codeLine="19" d="M416,269.26 C416,287.63 416,292.56 416,310.91 " fill="none" id="PricingStrategy-backto-ChildrenPricingStrategy" style="stroke:#181818;stroke-width:1.0;"/><polygon fill="none" points="416,251.26,410,269.26,422,269.26,416,251.26" style="stroke:#181818;stroke-width:1.0;"/></g><!--reverse link PricingStrategy to NewReleasePricingStrategy--><g id="link_PricingStrategy_NewReleasePricingStrategy"><path codeLine="20" d="M491.099,259.6599 C525.029,278.0299 551.63,292.44 585.58,310.82 " fill="none" id="PricingStrategy-backto-NewReleasePricingStrategy" style="stroke:#181818;stroke-width:1.0;"/><polygon fill="none" points="475.27,251.09,488.2423,264.9363,493.9556,254.3836,475.27,251.09" style="stroke:#181818;stroke-width:1.0;"/></g><!--link MovieV3 to PricingStrategy--><g id="link_MovieV3_PricingStrategy"><path codeLine="33" d="M416,125.42 C416,145.66 416,161.59 416,178.92 " fill="none" id="MovieV3-to-PricingStrategy" style="stroke:#181818;stroke-width:1.0;"/><polygon fill="#181818" points="416,184.92,420,175.92,416,179.92,412,175.92,416,184.92" style="stroke:#181818;stroke-width:1.0;"/></g><!--SRC=[dP4_3y8W4CLtFiMD6iFaXiR5oK5ZD74rMAwL1A61gyRKVdUfsiH_rIWZztwFzux4o11WxdMYRROaBmcp8vGCukb1AJSXtYLKWNB5nY2CtIul26i0ErrMCPPS71QO5KRwDgClz7YhZV9e_yHdU5YWGHdmPuDdO7ZYlANCUsrBzFVYrg1DawdRQrprRxava2Q3Qm61b13nAo9oc-IF1b7pRFcf-NMsTrhLcAM9JTrr8TOHWi6KmALD727kyGliaGflNrBmqUD30uPMGUt9MDEDyz5BrZC0]--></g></svg>