<?xml version="1.0" encoding="us-ascii" standalone="no"?><svg xmlns="http://www.w3.org/2000/svg" xmlns:xlink="http://www.w3.org/1999/xlink" contentStyleType="text/css" height="240px" preserveAspectRatio="none" style="width:349px;height:240px;background:#FFFFFF;" version="1.1" viewBox="0 0 349 240" width="349px" zoomAndPan="magnify"><defs/><g><!--class Document--><g id="elem_Document"><rect codeLine="1" fill="#F1F1F1" height="100.8281" id="Document" rx="2.5" ry="2.5" style="stroke:#181818;stroke-width:0.5;" width="96" x="112.5" y="7"/><ellipse cx="127.5" cy="23" fill="#A9DCDF" rx="11" ry="11" style="stroke:#181818;stroke-width:1.0;"/><path d="M129.6875,24.7656 L125.5469,24.7656 L125.125,25.7969 L125.5469,25.7969 Q126.1563,25.7969 126.4219,26.0313 Q126.6875,26.2656 126.6875,26.6563 Q126.6875,27.0313 126.4219,27.2656 Q126.1563,27.5 125.5469,27.5 L123.25,27.5 Q122.6406,27.5 122.3906,27.2656 Q122.125,27.0313 122.125,26.6406 Q122.125,26.2656 122.4063,26.0313 Q122.6719,25.7813 123.2969,25.7969 L125.9688,19.1406 L124.8594,19.1406 Q124.25,19.1406 123.9844,18.9063 Q123.7188,18.6719 123.7188,18.2813 Q123.7188,17.9063 123.9844,17.6719 Q124.25,17.4375 124.8594,17.4375 L128.5313,17.4375 L131.9219,25.7969 Q132.5156,25.7969 132.7031,25.9375 Q133.0938,26.2031 133.0938,26.6563 Q133.0938,27.0313 132.8281,27.2656 Q132.5781,27.5 131.9688,27.5 L129.6719,27.5 Q129.0625,27.5 128.7969,27.2656 Q128.5313,27.0313 128.5313,26.6406 Q128.5313,26.2656 128.7969,26.0313 Q129.0625,25.7969 129.6719,25.7969 L130.0938,25.7969 L129.6875,24.7656 Z M128.9688,23.0625 L127.6094,19.6875 L126.2344,23.0625 L128.9688,23.0625 Z " fill="#000000"/><text fill="#000000" font-family="sans-serif" font-size="14" font-style="italic" lengthAdjust="spacing" textLength="64" x="141.5" y="28.7285">Document</text><line style="stroke:#181818;stroke-width:0.5;" x1="113.5" x2="207.5" y1="39" y2="39"/><line style="stroke:#181818;stroke-width:0.5;" x1="113.5" x2="207.5" y1="47" y2="47"/><text fill="#000000" font-family="sans-serif" font-size="14" lengthAdjust="spacing" textLength="42" x="118.5" y="65.5332">Save()</text><text fill="#000000" font-family="sans-serif" font-size="14" lengthAdjust="spacing" textLength="58" x="118.5" y="83.1426">SaveAs()</text><text fill="#000000" font-family="sans-serif" font-size="14" font-style="italic" lengthAdjust="spacing" textLength="59" x="118.5" y="100.752">DoSave()</text></g><g id="elem_GMN3"><path d="M244,11.5 L244,53.5 L209,57.5 L244,61.5 L244,103.2578 A0,0 0 0 0 244,103.2578 L333,103.2578 A0,0 0 0 0 333,103.2578 L333,21.5 L323,11.5 L244,11.5 A0,0 0 0 0 244,11.5 " fill="#FEFFDD" style="stroke:#181818;stroke-width:0.5;"/><path d="M323,11.5 L323,21.5 L333,21.5 L323,11.5 " fill="#FEFFDD" style="stroke:#181818;stroke-width:0.5;"/><text fill="#000000" font-family="sans-serif" font-size="13" lengthAdjust="spacing" textLength="44" x="250" y="29.9951">Save() {</text><text fill="#000000" font-family="sans-serif" font-size="13" lengthAdjust="spacing" textLength="12" x="266" y="46.3467">...</text><text fill="#000000" font-family="sans-serif" font-size="13" lengthAdjust="spacing" textLength="52" x="266" y="62.6982">DoSave()</text><text fill="#000000" font-family="sans-serif" font-size="13" lengthAdjust="spacing" textLength="12" x="266" y="79.0498">...</text><text fill="#000000" font-family="sans-serif" font-size="13" lengthAdjust="spacing" textLength="4" x="250" y="95.4014">}</text></g><!--class TextDocument--><g id="elem_TextDocument"><rect codeLine="15" fill="#F1F1F1" height="65.6094" id="TextDocument" rx="2.5" ry="2.5" style="stroke:#181818;stroke-width:0.5;" width="123" x="7" y="168"/><ellipse cx="22" cy="184" fill="#ADD1B2" rx="11" ry="11" style="stroke:#181818;stroke-width:1.0;"/><path d="M24.7656,179.875 Q24.9219,179.6563 25.1094,179.5469 Q25.2969,179.4375 25.5156,179.4375 Q25.8906,179.4375 26.125,179.7031 Q26.3594,179.9531 26.3594,180.5625 L26.3594,182.0156 Q26.3594,182.625 26.125,182.8906 Q25.8906,183.1563 25.5156,183.1563 Q25.1719,183.1563 24.9688,182.9531 Q24.7656,182.7656 24.6563,182.25 Q24.6094,181.8906 24.4219,181.7031 Q24.0938,181.3281 23.4844,181.1094 Q22.875,180.8906 22.25,180.8906 Q21.4844,180.8906 20.8438,181.2188 Q20.2188,181.5469 19.7188,182.2969 Q19.2344,183.0469 19.2344,184.0781 L19.2344,185.1719 Q19.2344,186.4063 20.125,187.2344 Q21.0156,188.0469 22.6094,188.0469 Q23.5469,188.0469 24.2031,187.7969 Q24.5938,187.6406 25.0156,187.2031 Q25.2813,186.9375 25.4219,186.8594 Q25.5781,186.7813 25.7813,186.7813 Q26.1094,186.7813 26.3594,187.0469 Q26.625,187.2969 26.625,187.6406 Q26.625,187.9844 26.2813,188.3906 Q25.7813,188.9688 24.9844,189.2969 Q23.9063,189.75 22.6094,189.75 Q21.0938,189.75 19.8906,189.125 Q18.9063,188.625 18.2188,187.5625 Q17.5313,186.4844 17.5313,185.2031 L17.5313,184.0469 Q17.5313,182.7188 18.1406,181.5781 Q18.7656,180.4219 19.8594,179.8125 Q20.9531,179.1875 22.1875,179.1875 Q22.9219,179.1875 23.5625,179.3594 Q24.2188,179.5156 24.7656,179.875 Z " fill="#000000"/><text fill="#000000" font-family="sans-serif" font-size="14" lengthAdjust="spacing" textLength="91" x="36" y="189.7285">TextDocument</text><line style="stroke:#181818;stroke-width:0.5;" x1="8" x2="129" y1="200" y2="200"/><line style="stroke:#181818;stroke-width:0.5;" x1="8" x2="129" y1="208" y2="208"/><text fill="#000000" font-family="sans-serif" font-size="14" lengthAdjust="spacing" textLength="60" x="13" y="226.5332">DoSave()</text></g><!--class SpreadsheetDocument--><g id="elem_SpreadsheetDocument"><rect codeLine="21" fill="#F1F1F1" height="65.6094" id="SpreadsheetDocument" rx="2.5" ry="2.5" style="stroke:#181818;stroke-width:0.5;" width="177" x="165" y="168"/><ellipse cx="180" cy="184" fill="#ADD1B2" rx="11" ry="11" style="stroke:#181818;stroke-width:1.0;"/><path d="M182.7656,179.875 Q182.9219,179.6563 183.1094,179.5469 Q183.2969,179.4375 183.5156,179.4375 Q183.8906,179.4375 184.125,179.7031 Q184.3594,179.9531 184.3594,180.5625 L184.3594,182.0156 Q184.3594,182.625 184.125,182.8906 Q183.8906,183.1563 183.5156,183.1563 Q183.1719,183.1563 182.9688,182.9531 Q182.7656,182.7656 182.6563,182.25 Q182.6094,181.8906 182.4219,181.7031 Q182.0938,181.3281 181.4844,181.1094 Q180.875,180.8906 180.25,180.8906 Q179.4844,180.8906 178.8438,181.2188 Q178.2188,181.5469 177.7188,182.2969 Q177.2344,183.0469 177.2344,184.0781 L177.2344,185.1719 Q177.2344,186.4063 178.125,187.2344 Q179.0156,188.0469 180.6094,188.0469 Q181.5469,188.0469 182.2031,187.7969 Q182.5938,187.6406 183.0156,187.2031 Q183.2813,186.9375 183.4219,186.8594 Q183.5781,186.7813 183.7813,186.7813 Q184.1094,186.7813 184.3594,187.0469 Q184.625,187.2969 184.625,187.6406 Q184.625,187.9844 184.2813,188.3906 Q183.7813,188.9688 182.9844,189.2969 Q181.9063,189.75 180.6094,189.75 Q179.0938,189.75 177.8906,189.125 Q176.9063,188.625 176.2188,187.5625 Q175.5313,186.4844 175.5313,185.2031 L175.5313,184.0469 Q175.5313,182.7188 176.1406,181.5781 Q176.7656,180.4219 177.8594,179.8125 Q178.9531,179.1875 180.1875,179.1875 Q180.9219,179.1875 181.5625,179.3594 Q182.2188,179.5156 182.7656,179.875 Z " fill="#000000"/><text fill="#000000" font-family="sans-serif" font-size="14" lengthAdjust="spacing" textLength="145" x="194" y="189.7285">SpreadsheetDocument</text><line style="stroke:#181818;stroke-width:0.5;" x1="166" x2="341" y1="200" y2="200"/><line style="stroke:#181818;stroke-width:0.5;" x1="166" x2="341" y1="208" y2="208"/><text fill="#000000" font-family="sans-serif" font-size="14" lengthAdjust="spacing" textLength="60" x="171" y="226.5332">DoSave()</text></g><!--reverse link Document to TextDocument--><g id="link_Document_TextDocument"><path codeLine="19" d="M118.2473,123.4801 C105.4173,143.2101 100.86,150.23 89.44,167.79 " fill="none" id="Document-backto-TextDocument" style="stroke:#181818;stroke-width:1.0;"/><polygon fill="none" points="128.06,108.39,113.2172,120.2091,123.2773,126.751,128.06,108.39" style="stroke:#181818;stroke-width:1.0;"/></g><!--reverse link Document to SpreadsheetDocument--><g id="link_Document_SpreadsheetDocument"><path codeLine="25" d="M203.1776,123.4311 C216.1476,143.1611 220.79,150.23 232.33,167.79 " fill="none" id="Document-backto-SpreadsheetDocument" style="stroke:#181818;stroke-width:1.0;"/><polygon fill="none" points="193.29,108.39,198.1639,126.727,208.1913,120.1352,193.29,108.39" style="stroke:#181818;stroke-width:1.0;"/></g><!--SRC=[IqmgBYbAJ2vHICv9B2vMSCbFBirDpIjHgEPIK0XEB4lLq8Go78l1pEf4g8PQe5geWbekhhpyabI5eipqZ1A5_3IuAN0pmCQ1W9wU7fG5ruqiKSkLcfUY03ACYmlYe93KYX8KHo7R2fUmgT7LHL4AqnvSK9IQc5ASaPfAh2bOT000]--></g></svg>